<?xml version="1.0" standalone="no"?>
<!DOCTYPE svg PUBLIC "-//W3C//DTD SVG 1.1//EN" "http://www.w3.org/Graphics/SVG/1.1/DTD/svg11.dtd" >
<svg xmlns="http://www.w3.org/2000/svg">
<metadata></metadata>
<defs>
<font id="formatalight_condensed" horiz-adv-x="937" >
<font-face units-per-em="2048" ascent="1536" descent="-512" />
<missing-glyph horiz-adv-x="468" />
<glyph unicode="&#xfb01;" horiz-adv-x="851" d="M8 956q1 10 2 40.5t2 43.5l13 13q33 -4 120 -4q-2 49 -2 196q0 58 13 108.5t40.5 95t78 70t118.5 25.5q44 0 72 -8l10 -16q-3 -17 -8 -74l-12 -12q-25 10 -54 10q-37 0 -62.5 -13.5t-39 -33t-21 -54.5t-9 -63t-1.5 -74v-159q19 1 86 2t97 2l14 -15q0 -1 -8 -78l-13 -12 q-59 2 -176 2q0 -549 15 -938l-13 -10q-36 0 -110 -4l-13 12q3 89 3 176v348q-1 285 -3 418q-11 0 -60.5 -2t-68.5 -2zM594 1028l12 10q54 8 121 21l12 -12q-10 -202 -10 -365q0 -118 10 -670l-12 -12q-80 0 -119 -4l-12 12q8 200 8 449q0 381 -10 571zM594 1403q4 86 4 127 l14 12l123 12l15 -12q-5 -102 -5 -127l-14 -12q-61 -3 -123 -12z" />
<glyph unicode="&#xfb02;" horiz-adv-x="851" d="M8 956q1 10 2 40.5t2 43.5l13 13q33 -4 120 -4q-2 49 -2 196q0 58 13 108.5t40.5 95t78 70t118.5 25.5q44 0 72 -8l10 -16q-3 -17 -8 -74l-12 -12q-25 10 -54 10q-37 0 -62.5 -13.5t-39 -33t-21 -54.5t-9 -63t-1.5 -74v-159q19 1 86 2t97 2l14 -15q0 -1 -8 -78l-13 -12 q-59 2 -176 2q0 -549 15 -938l-13 -10q-36 0 -110 -4l-13 12q3 89 3 176v348q-1 285 -3 418q-11 0 -60.5 -2t-68.5 -2zM575 1536l11 12q50 3 123 19l12 -13q-2 -154 -2 -462q0 -714 16 -1080l-10 -12q-1 0 -14.5 1t-20.5 1q-22 0 -84 -6l-12 12q0 58 1 360.5t1 452.5 q0 437 -21 715z" />
<glyph unicode="&#xfb03;" horiz-adv-x="1323" d="M8 954q1 10 2 40.5t2 43.5l13 13q41 -4 120 -4q-2 49 -2 198q0 58 13 108.5t40.5 95t78 70t118.5 25.5q44 0 72 -8l10 -16q-3 -17 -8 -74l-12 -12q-25 10 -54 10q-37 0 -62.5 -13.5t-39 -33t-21 -54.5t-9 -63t-1.5 -74v-159l8 -1h21t33.5 -0.5t48 -1t59.5 -0.5 q25 0 52.5 0.5t49 1t39 0.5t28 0.5t11.5 0.5q-4 98 -4 198q0 58 13 108.5t40.5 95t78 70t118.5 25.5q44 0 72 -8l10 -16q-3 -17 -8 -74l-12 -12q-25 10 -54 10q-37 0 -62.5 -13.5t-39 -33t-21 -54.5t-9 -63t-1.5 -74v-159q13 0 77 2t106 2l14 -15q-8 -56 -8 -78l-13 -12 q-59 2 -176 2q0 -549 15 -938l-13 -10q-36 0 -110 -4l-13 12q3 89 3 176v348q-1 283 -3 416h-10.5t-25.5 0.5t-37 1t-49 0.5h-56h-54.5t-47.5 -0.5t-35.5 -1t-24.5 -0.5h-10q0 -549 15 -938l-13 -10q-36 0 -110 -4l-13 12q3 89 3 176v348q-1 283 -3 416q-11 0 -60.5 -2 t-68.5 -2zM1065 1028l12 10q53 8 121 21l12 -12q-10 -202 -10 -365q0 -118 10 -670l-12 -12q-80 0 -119 -4l-12 12q8 200 8 449q0 381 -10 571zM1065 1403q4 86 4 127l14 12l123 12l15 -12q-4 -82 -4 -127l-15 -12q-62 -3 -123 -12z" />
<glyph unicode="&#xfb04;" horiz-adv-x="1323" d="M8 954q1 10 2 40.5t2 43.5l13 13q41 -4 120 -4q-2 49 -2 198q0 58 13 108.5t40.5 95t78 70t118.5 25.5q44 0 72 -8l10 -16q-3 -17 -8 -74l-12 -12q-25 10 -54 10q-37 0 -62.5 -13.5t-39 -33t-21 -54.5t-9 -63t-1.5 -74v-159l8 -1h21t33.5 -0.5t48 -1t59.5 -0.5 q25 0 52.5 0.5t49 1t39 0.5t28 0.5t11.5 0.5q-4 98 -4 198q0 58 13 108.5t40.5 95t78 70t118.5 25.5q44 0 72 -8l10 -16q-3 -17 -8 -74l-12 -12q-25 10 -54 10q-37 0 -62.5 -13.5t-39 -33t-21 -54.5t-9 -63t-1.5 -74v-159q13 0 77 2t106 2l14 -15q-8 -56 -8 -78l-13 -12 q-59 2 -176 2q0 -549 15 -938l-13 -10q-36 0 -110 -4l-13 12q3 89 3 176v348q-1 283 -3 416h-10.5t-25.5 0.5t-37 1t-49 0.5h-56h-54.5t-47.5 -0.5t-35.5 -1t-24.5 -0.5h-10q0 -549 15 -938l-13 -10q-36 0 -110 -4l-13 12q3 89 3 176v348q-1 283 -3 416q-11 0 -60.5 -2 t-68.5 -2zM1047 1536l10 12q50 3 123 19l12 -13q-2 -154 -2 -462q0 -714 16 -1080l-10 -12q-1 0 -14.5 1t-20.5 1q-23 0 -84 -6l-12 12q0 58 1 360.5t1 452.5q0 451 -20 715z" />
<glyph horiz-adv-x="2048" />
<glyph horiz-adv-x="2048" />
<glyph unicode="&#xd;" horiz-adv-x="2048" />
<glyph unicode=" "  horiz-adv-x="468" />
<glyph unicode="&#x09;" horiz-adv-x="468" />
<glyph unicode="&#xa0;" horiz-adv-x="468" />
<glyph unicode="!" horiz-adv-x="425" d="M152 1434l10 12q108 0 143 4l10 -12q-24 -479 -24 -846q0 -69 4 -195l-12 -12q-62 -5 -84 -8l-11 12q-8 513 -36 1045zM158 8q2 25 2 74q0 51 -2 76l14 10q43 2 133 10l12 -14v-43q0 -72 2 -109l-14 -12q-75 0 -135 -8z" />
<glyph unicode="&#x22;" horiz-adv-x="681" d="M94 1503l12 13h84l72 2l10 -13q-26 -189 -49 -577l-6 -10h-55l-8 10q-31 329 -60 575zM410 1503l10 13h84l74 2l8 -13q-15 -141 -31.5 -331t-17.5 -246l-7 -10h-55l-6 10q-18 205 -59 575z" />
<glyph unicode="#" horiz-adv-x="1161" d="M96 543q2 37 2 75v15l8 10l267 -4l28 188h-260l-6 9q4 82 4 92l8 10q135 -4 191 -4h78l67 500l9 12h98l6 -10q-4 -28 -12.5 -82.5t-27.5 -178t-38 -243.5h182q17 108 70 504l8 10h92l13 -10q-29 -171 -78 -504q37 0 135.5 2t118.5 2l6 -8q0 -14 -4 -92l-8 -9l-265 2 l-26 -190q106 0 258 4l6 -8q0 -8 -4 -94l-8 -9l-266 3l-68 -525l-10 -10h-97l-8 10q13 75 24 146.5t27 182t29 196.5h-184q-47 -328 -72 -525l-10 -10h-96l-9 10q54 331 82 527l-254 -2zM475 639q29 0 61 -1t42 -1q7 0 34 1t47 1l27 188h-182z" />
<glyph unicode="$" horiz-adv-x="811" d="M57 78q10 109 11 127l18 4q102 -129 276 -129q129 0 199 77t70 179q0 81 -51.5 145t-165.5 131l-95 56q-85 49 -139 96t-78 91.5t-31.5 78t-7.5 78.5q0 79 26.5 142t70.5 101t93.5 60t102.5 28q-4 118 -8 177l12 12q4 0 38.5 1t52.5 1l12 -12q0 -32 -1 -98t-1 -76 q142 -9 231 -68l13 -23q-11 -58 -13 -98l-16 -8q-110 92 -244 92q-106 0 -172.5 -60.5t-66.5 -160.5q0 -43 13 -77.5t44 -65t63.5 -53t89.5 -56.5l70 -41q61 -36 101 -64t78 -62.5t59.5 -69.5t34 -79.5t12.5 -97.5q0 -146 -87.5 -251.5t-238.5 -122.5q0 -4 6 -175l-10 -12 q-63 0 -90 -4l-12 12q2 72 2 174q-70 1 -142 24t-116 52z" />
<glyph unicode="%" horiz-adv-x="1536" d="M49 881q0 30 1 57t7 76t16.5 89.5t31 86.5t48.5 77.5t72 52.5t99 21q75 0 128.5 -38t82.5 -106.5t42 -149t13 -179.5q0 -60 -5 -115.5t-22.5 -121.5t-46 -113.5t-80 -79.5t-119.5 -32q-54 0 -97.5 21.5t-72 60t-48.5 84.5t-30.5 102t-15 105.5t-4.5 101.5zM156 885 q0 -400 168 -400q46 0 78.5 30.5t49.5 87.5t24.5 120.5t8.5 144.5q0 396 -166 396q-163 0 -163 -379zM457 14q111 249 223 533l86 217q96 245 207 551l14 12q16 -2 47 -2q25 0 39 2l8 -16q-94 -206 -243 -592l-123 -318q-17 -44 -44 -113t-52 -134.5t-52 -141.5l-16 -12 q-18 2 -39 2q-31 0 -47 -2zM946 459q0 30 1 57.5t7 76.5t16.5 89.5t31 86.5t48.5 77.5t72 52.5t99 21q60 0 106 -26t75.5 -69t48.5 -105t26.5 -129t7.5 -145q0 -49 -4 -95t-13.5 -101.5t-29 -100.5t-48 -83.5t-74 -60t-102.5 -21.5q-65 0 -114 31t-77.5 78.5t-46.5 113 t-24 126t-6 126.5zM1053 463q0 -400 166 -400q46 0 78.5 30.5t49.5 87.5t24.5 120.5t8.5 144.5q0 396 -166 396q-38 0 -67 -19.5t-46 -56.5t-27.5 -72.5t-14.5 -86.5t-5 -78t-1 -66z" />
<glyph unicode="&#x26;" horiz-adv-x="1091" d="M72 342q0 105 51 189.5t158 160.5l96 68q-76 111 -106.5 182.5t-30.5 159.5q0 137 81 220t214 83q125 0 202.5 -80t77.5 -209q0 -112 -59.5 -192.5t-212.5 -188.5l268 -387q49 68 71 115.5t50 138.5l18 2q24 -40 74 -102l-2 -23q-34 -75 -60.5 -119t-78.5 -112 q22 -33 47.5 -66.5t42 -53.5t48.5 -58.5t46 -55.5l-6 -14q-4 0 -17.5 1t-27.5 1q-40 0 -90 -6l-23 12q-75 101 -104 142q-98 -92 -184 -131t-189 -39q-155 0 -254.5 102t-99.5 260zM215 348q0 -112 68.5 -188t169.5 -76q136 0 280 156l-291 424q-122 -73 -174.5 -144.5 t-52.5 -171.5zM362 1112q0 -124 119 -285q119 82 165 146.5t46 150.5q0 83 -43 134t-114 51q-77 0 -125 -54.5t-48 -142.5z" />
<glyph unicode="'" horiz-adv-x="368" d="M94 1503l12 13h84l72 2l10 -13q-26 -189 -49 -577l-6 -10h-55l-8 10q-31 329 -60 575z" />
<glyph unicode="(" horiz-adv-x="641" d="M117 541q0 158 38.5 311t102.5 274t137.5 215t151.5 158l18 8h70l4 -16q-373 -365 -373 -932q0 -282 99.5 -524t275.5 -406l-6 -14h-70l-20 8q-197 176 -312.5 416t-115.5 502z" />
<glyph unicode=")" horiz-adv-x="641" d="M0 -371q375 359 375 932q0 286 -99 525.5t-276 404.5l6 16h70l18 -8q198 -177 314 -415.5t116 -503.5q0 -154 -38.5 -306.5t-102.5 -274t-137.5 -217.5t-151.5 -159l-18 -8h-70z" />
<glyph unicode="*" horiz-adv-x="811" d="M49 938l4 16q119 47 279 146q-146 80 -275 137l-8 16q29 47 45 90l19 5q10 -7 46 -36t55.5 -43.5t61.5 -42.5t91 -57q-6 153 -25 324l10 10q35 0 101 4l10 -12q-18 -129 -21 -326q116 74 248 181l19 -2q24 -49 53 -86l-4 -17q-108 -43 -279 -145q160 -88 277 -139l4 -17 q-6 -12 -21.5 -41.5t-23.5 -46.5l-17 -6q-96 84 -256 182q18 -239 27 -325l-12 -11q-33 0 -99 -4l-10 13q17 133 21 325q-117 -78 -248 -180l-17 2z" />
<glyph unicode="+" horiz-adv-x="1253" d="M158 557q4 82 4 94l8 8q92 0 186.5 -2t120.5 -2h96v117q0 111 -6 313l11 9q53 0 98 2l8 -6q0 -24 -1 -49.5t-1 -26.5v-359q278 3 405 7l9 -11l-4 -94l-9 -8q-172 2 -401 2q0 -274 4 -428l-8 -10h-100l-9 8q0 36 4 430l-407 -2z" />
<glyph unicode="," horiz-adv-x="382" d="M47 -274q62 275 84 444l12 10q116 5 148 8l10 -12q-87 -223 -154 -448l-12 -13q-53 0 -80 -2z" />
<glyph unicode="-" horiz-adv-x="512" d="M37 530q12 65 14 99l12 10q82 -4 250 -4q73 0 150 6l10 -12q-12 -97 -12 -101l-12 -12q-74 4 -224 4q-123 0 -176 -2z" />
<glyph unicode="." horiz-adv-x="382" d="M113 8q0 3 1 29.5t1 40.5t-1 43t-1 35l12 12q32 1 133 10l14 -12q0 -2 -1 -28.5t-1 -47.5q0 -28 4 -78l-14 -12q-70 0 -135 -6z" />
<glyph unicode="/" horiz-adv-x="598" d="M-96 -369q70 201 180 578l203 684q97 326 166 602l12 12q10 -2 49 -2q2 0 24 1t31 1l6 -16q-62 -178 -198 -647l-209 -707q-51 -172 -141 -510l-15 -12q-3 0 -22.5 1t-28.5 1t-28.5 -1t-22.5 -1z" />
<glyph unicode="0" horiz-adv-x="894" d="M55 672q0 103 10 193t37 181.5t70 156.5t114.5 106t164.5 41q61 0 113.5 -19t89.5 -49t67 -75t49 -89.5t33 -101.5t21 -101t11 -97.5t4.5 -82.5t0.5 -63q0 -35 -0.5 -64t-4.5 -84t-10.5 -100t-20.5 -104t-33 -104.5t-49 -92.5t-67.5 -78t-89.5 -50.5t-114 -19.5 q-63 0 -116.5 19.5t-91.5 50.5t-68.5 78t-49.5 92.5t-33.5 104.5t-21 104t-10.5 100.5t-4.5 83.5t-0.5 64zM193 676q0 -606 262 -606q47 0 85.5 22.5t64 58t44.5 87t29.5 102t17 112t8 107t1.5 96.5q0 602 -259 602q-253 0 -253 -581z" />
<glyph unicode="1" horiz-adv-x="894" d="M223 1200q2 27 2 84l11 12q179 23 284 47l15 -14q-7 -201 -7 -348q0 -220 6.5 -549t10.5 -418l-13 -14q-59 0 -118 -4l-13 14q2 80 2 213q0 150 -3 506.5t-3 374.5v110q-78 -11 -159 -28z" />
<glyph unicode="2" horiz-adv-x="894" d="M23 14q28 36 93 117t101.5 127t89.5 114t96 126q118 156 162.5 251t44.5 203q0 145 -72 217t-176 72q-49 0 -94 -13t-83 -38t-54.5 -38t-42.5 -36l-14 10q3 36 6 113l10 21q139 90 293 90q90 0 160.5 -32.5t112.5 -88.5t63.5 -124.5t21.5 -146.5q0 -64 -13 -121.5 t-32.5 -105.5t-64.5 -116.5t-84.5 -121.5t-118.5 -153l-186 -238h159q234 0 383 13l11 -15q-3 -25 -9 -90l-16 -12q-29 2 -160 2h-420q-106 0 -161 -2z" />
<glyph unicode="3" horiz-adv-x="894" d="M43 76q6 44 10 106l19 8q22 -21 39.5 -34.5t51.5 -34.5t78.5 -32t96.5 -11q57 0 104 15t77.5 39t53.5 57t35.5 63.5t19.5 65t9 56.5t2 42q0 131 -67.5 206.5t-196.5 75.5q-75 0 -135 -28l-17 16q66 114 139.5 238.5t110 187t64.5 115.5q-77 -1 -227 -3.5t-214 -2.5 l-10 14q4 30 8 82l12 12q49 -4 150 -4h311q105 0 156 4l6 -16q-139 -218 -307 -516h20q74 0 132.5 -25t93.5 -64t58 -90.5t31.5 -99t8.5 -94.5q0 -205 -112 -327t-314 -122q-168 0 -289 80z" />
<glyph unicode="4" horiz-adv-x="894" d="M39 399q4 46 4 78l6 23q63 107 240 423.5t209 387.5l16 14q65 0 143 4l13 -12q2 -131 2 -389v-441h166l14 -12q-4 -26 -8 -74l-17 -14q-51 2 -157 2q0 -127 8 -377l-14 -12q-35 0 -105 -4l-14 14q4 254 4 379q-338 -4 -498 -4zM160 487h387q0 323 4 730z" />
<glyph unicode="5" horiz-adv-x="894" d="M86 59q4 35 8 101l19 10q100 -90 241 -90q78 0 137.5 29t91.5 70t52 94.5t25.5 93.5t5.5 77q0 83 -26.5 150t-87 110.5t-146.5 43.5q-122 0 -240 -84l-23 10q27 496 29 641l14 14q90 -4 332 -4q107 0 201 4l12 -14q-8 -55 -10 -80l-14 -14q-132 4 -195 4h-217l-21 -406 q83 35 166 35q74 0 135.5 -26t101.5 -67.5t67 -96.5t39 -110.5t12 -111.5q0 -212 -120.5 -339.5t-312.5 -127.5q-155 0 -266 64z" />
<glyph unicode="6" horiz-adv-x="894" d="M82 588q0 332 90 516q121 248 377 248q122 0 213 -49l8 -19q-8 -78 -8 -88l-19 -8q-14 13 -34.5 25t-63.5 25t-90 13q-72 0 -128.5 -28t-92.5 -77.5t-60.5 -105t-37 -124.5t-17.5 -121t-6 -107q114 131 283 131q89 0 156.5 -35.5t106 -95.5t57 -129.5t18.5 -146.5 q0 -58 -10.5 -115.5t-38 -116.5t-68 -103.5t-107 -73t-149.5 -28.5q-177 0 -278 149.5t-101 463.5zM211 553q0 -35 1 -66.5t7 -82.5t16 -92.5t29 -87.5t45.5 -77.5t67 -52t90.5 -20.5q63 0 110.5 29.5t74.5 79t40 108t13 123.5q0 138 -60.5 219.5t-165.5 81.5 q-147 0 -268 -162z" />
<glyph unicode="7" horiz-adv-x="894" d="M68 1233q8 53 10 82l14 12q45 -2 135 -2h457q43 0 133 4l8 -18q-106 -273 -161 -428l-154 -437q-44 -124 -74 -216t-49.5 -153.5t-19.5 -62.5l-17 -12l-129 -6l-8 14q24 56 51 125.5t43.5 114t49 134t42.5 118.5l269 725h-222q-126 0 -368 -8z" />
<glyph unicode="8" horiz-adv-x="894" d="M74 352q0 77 25 147t83.5 127t143.5 76q-98 20 -153.5 102t-55.5 200q0 97 36 174.5t113.5 125.5t186.5 48q158 0 239.5 -98.5t81.5 -239.5q0 -111 -50.5 -198.5t-141.5 -108.5q241 -67 241 -338q0 -50 -10.5 -101t-38 -105t-69 -94.5t-109 -67t-152.5 -26.5 q-82 0 -148 25t-106.5 64t-67.5 90.5t-37.5 100.5t-10.5 97zM207 360q0 -122 67 -204t175 -82q113 0 179 84.5t66 206.5q0 125 -65.5 204.5t-177.5 79.5q-110 0 -177 -82t-67 -207zM248 1001q0 -69 19.5 -121.5t50 -80.5t62.5 -42t64 -14q76 0 135.5 68t59.5 195 q0 109 -48.5 180t-141.5 71q-86 0 -143.5 -67t-57.5 -189z" />
<glyph unicode="9" horiz-adv-x="894" d="M63 915q0 59 11 116.5t38.5 116.5t68.5 103.5t107 72.5t148 28q83 0 148.5 -32t117.5 -101t80.5 -191.5t28.5 -290.5q0 -377 -119 -569.5t-344 -192.5q-118 0 -213 50l-8 18q8 78 8 88l19 8q79 -63 188 -63q63 0 114.5 22t85 55.5t59.5 85t40 98t23.5 108t12.5 101 t5 91.5q-114 -131 -283 -131q-71 0 -129 24t-96 63.5t-63.5 93t-36.5 110.5t-11 118zM193 913q0 -139 59 -221t164 -82q75 0 144.5 43.5t123.5 120.5q0 35 -1 65t-6.5 81.5t-15 92.5t-29 88t-45.5 78.5t-67 52.5t-92 21q-62 0 -109 -29.5t-73.5 -79.5t-39.5 -108t-13 -123z " />
<glyph unicode=":" horiz-adv-x="425" d="M156 8q0 3 1 29.5t1 40.5t-1 43t-1 35l12 12q32 1 133 10l14 -12q0 -2 -1 -28.5t-1 -47.5q0 -28 4 -78l-14 -12q-71 0 -135 -6zM156 879q0 3 1 29t1 40t-1 43t-1 35l12 12q8 0 133 11l14 -13q0 -2 -1 -28t-1 -47q0 -28 4 -78l-14 -13q-71 0 -135 -6z" />
<glyph unicode=";" horiz-adv-x="425" d="M90 -274q62 275 84 444l12 10q116 5 148 8l10 -12q-87 -223 -154 -448l-12 -13q-53 0 -80 -2zM180 879q0 3 1 29t1 40t-1 43t-1 35l13 12q8 0 133 11l14 -13q0 -2 -1 -28t-1 -47q0 -28 4 -78l-14 -13q-70 0 -135 -6z" />
<glyph unicode="&#x3c;" horiz-adv-x="1253" d="M186 551q0 14 1 32.5t1 24.5v43l9 15q80 39 379 201.5t430 240.5l12 -10q-2 -45 -2 -94v-13l-8 -12l-711 -375q329 -168 711 -377l10 -14v-111l-14 -10q-717 400 -809 447z" />
<glyph unicode="=" horiz-adv-x="1253" d="M164 391q0 17 1 36.5t1 25.5v32l8 9q313 -2 647 -2q139 0 260 2l9 -9q-3 -64 -3 -96l-8 -8q-169 2 -649 2q-170 0 -258 -2zM164 715q0 17 1 36t1 25v33l8 8q313 -2 647 -2q139 0 260 2l9 -8q-3 -55 -3 -96l-8 -8q-169 2 -649 2q-170 0 -258 -2z" />
<glyph unicode="&#x3e;" horiz-adv-x="1253" d="M225 100q2 23 2 54q0 32 -2 55l11 12l710 375q-328 170 -710 375l-11 14v111l15 10q717 -400 809 -447l8 -12q0 -16 -1 -34t-1 -23v-43l-8 -15q-165 -81 -809 -440z" />
<glyph unicode="?" horiz-adv-x="641" d="M-10 1298q4 41 4 93l10 18q122 64 250 64q81 0 145 -29.5t102 -79t57.5 -109.5t19.5 -125q0 -69 -22.5 -142.5t-42.5 -111t-58 -102.5l-35 -59q-52 -91 -73 -155.5t-21 -153.5v-27l-13 -12q-7 -1 -88 -5l-14 13q0 127 21 196.5t90 186.5l38 65q97 163 97 297 q0 107 -61.5 180.5t-170.5 73.5q-108 0 -223 -84zM199 8q0 3 1 29.5t1 40.5t-1 43t-1 35l12 12q32 1 133 10l14 -12q0 -2 -1 -28.5t-1 -47.5q0 -28 4 -78l-14 -12q-70 0 -135 -6z" />
<glyph unicode="@" horiz-adv-x="1554" d="M102 567q0 279 121 506q214 395 654 395q186 0 323 -86t206 -233t69 -336q0 -174 -53 -320.5t-145 -231.5t-202 -85q-66 0 -103 27t-52 84q-86 -111 -224 -111q-120 0 -189 92t-69 254q0 90 29 190t84 169q58 74 120.5 111t122.5 46t164 9q42 0 152 -7l10 -12l-47 -323 q-3 -26 -15.5 -104t-22 -141.5t-9.5 -84.5q0 -101 82 -101q65 0 126 77.5t98.5 203t37.5 258.5q0 261 -133.5 417t-357.5 156q-142 0 -266.5 -62.5t-213 -171.5t-139.5 -262.5t-51 -328.5q0 -323 169.5 -513.5t455.5 -190.5q351 0 569 290l12 3q20 -27 53 -66v-12 q-115 -149 -280.5 -228.5t-360.5 -79.5q-331 0 -528 218t-197 585zM561 512q0 -112 41 -174t115 -62q106 0 194 113l82 561q-37 2 -96 2q-157 0 -246.5 -121.5t-89.5 -318.5z" />
<glyph unicode="A" horiz-adv-x="980" d="M0 12q125 427 137 469l166 594q99 355 100 361l15 10q63 0 145 4l12 -12q79 -290 93 -336l131 -455q17 -60 82 -283.5t100 -349.5l-10 -12q-41 0 -127 -4l-13 12q-29 122 -118 471h-457q-56 -163 -117 -469l-14 -12q-18 2 -57 2q-40 0 -58 -2zM283 588q13 0 87.5 -1 t112.5 -1q39 0 118 1t81 1l-203 739z" />
<glyph unicode="B" horiz-adv-x="980" d="M131 1436l12 10q47 1 177.5 4.5t160.5 3.5q59 0 107 -7t98 -29.5t83.5 -59t55 -100.5t21.5 -150q0 -55 -12.5 -107t-41 -104.5t-84.5 -89.5t-133 -49q89 -2 155 -33t99 -71t52.5 -94t23.5 -88t4 -69q0 -122 -52 -220.5t-157 -143.5q-55 -24 -112 -30.5t-166 -6.5 q-159 0 -264 -6l-13 12q5 125 5 299q0 210 -5 623.5t-14 505.5zM274 797q29 -2 125 -2q89 0 153.5 24.5t99.5 69t51 97t16 116.5q0 252 -240 252q-154 0 -205 -2v-555zM276 408q0 -79 9 -304h88q67 0 104 2t84 9.5t81 25t63 47.5q73 75 73 220q0 168 -116 239 q-77 49 -263 49q-45 0 -123 -4v-284z" />
<glyph unicode="C" horiz-adv-x="1024" d="M90 707q0 60 6.5 123t25 139.5t46.5 145.5t76 135t109 114t148.5 77t192.5 29q168 0 285 -59l8 -20q-7 -40 -14 -113l-12 -6q-18 18 -46 36t-89 37t-130 19q-89 0 -163 -30t-124 -82.5t-86.5 -117t-56.5 -140t-29.5 -144.5t-9.5 -137q0 -127 27.5 -233.5t73.5 -178 t106.5 -121t125.5 -72t132 -22.5q61 0 141.5 24t157.5 89l13 -6q-6 -62 -9 -125l-10 -17q-3 -1 -22.5 -11t-34 -16.5t-43 -16.5t-55.5 -16t-65.5 -11t-78.5 -5q-122 0 -229 47t-189.5 135.5t-130 230.5t-47.5 319z" />
<glyph unicode="D" horiz-adv-x="1193" d="M131 1436l10 10q246 4 365 4q163 0 272.5 -37.5t184.5 -130.5q141 -170 141 -516q0 -41 -2 -81.5t-10.5 -104t-23 -120.5t-42 -122.5t-64.5 -118.5t-94 -100t-127 -74q-55 -21 -123 -31.5t-112.5 -12t-126.5 -1.5q-77 0 -221 -4l-11 12q3 132 3 262q0 184 -5.5 631.5 t-13.5 534.5zM274 1044q0 -776 11 -942h172q179 0 282 62q103 64 166.5 219.5t63.5 392.5q0 118 -17.5 210.5t-42.5 152t-71 101.5t-82.5 62.5t-98 31.5t-97 12.5t-99.5 1.5l-185 -5q-2 -100 -2 -299z" />
<glyph unicode="E" horiz-adv-x="854" d="M131 1438l10 12q22 0 157 -1t202 -1q199 0 297 4l10 -12q0 -3 -6 -90l-15 -13q-194 6 -391 6h-125q1 -59 1.5 -168.5t1.5 -199t3 -168.5h173q209 0 315 4l14 -12q-6 -43 -6 -86l-16 -13q-130 5 -312 5l-168 -3q3 -297 9 -596h157q40 0 367 11l12 -13q-1 -10 -2.5 -29 t-2.5 -34t-1 -29l-12 -12q-6 0 -117 1t-166 1q-68 0 -204 -3t-158 -3l-13 12q5 130 5 316q0 420 -19 1114z" />
<glyph unicode="F" horiz-adv-x="811" d="M133 1438l12 12q102 -4 154 -4h268q78 0 238 4l10 -12q-6 -46 -6 -90l-14 -13q-151 8 -334 8h-189q2 -94 7 -557h127q146 0 284 9l12 -13q-8 -39 -8 -88l-14 -12q-94 4 -285 4h-116q4 -448 14 -674l-12 -12q-41 0 -123 -4l-13 12q7 175 7 301q0 129 -7 581.5t-12 547.5z " />
<glyph unicode="G" horiz-adv-x="1193" d="M90 713q0 223 73.5 393t219.5 267t348 97q75 0 168.5 -17.5t142.5 -47.5l9 -19q-10 -97 -11 -118l-16 -2q-108 98 -285 98q-113 0 -203 -39t-146.5 -102t-94.5 -148t-53 -171.5t-15 -178.5q0 -294 138 -468.5t368 -174.5q124 0 228 49q2 80 2 240q0 122 -7 297l13 12 q77 0 116 2l11 -12q-6 -76 -6 -228q0 -252 2 -379l-15 -16q-174 -72 -350 -72q-134 0 -249 48t-202 138.5t-136.5 232.5t-49.5 319z" />
<glyph unicode="H" horiz-adv-x="1150" d="M131 1436l14 10q39 0 121 4l13 -12q0 -27 -1.5 -165t-1.5 -208v-225h185q274 0 413 6q-1 53 -3 182t-4.5 224t-6.5 184l12 10q41 0 123 4l13 -12q-2 -121 -2 -361q0 -590 16 -1065l-12 -12q-80 0 -121 -4l-12 12q2 78 2 234q0 86 -5 491q-13 0 -94 1t-123 1 q-191 0 -378 -6v-98q0 -141 14 -619l-14 -12q-80 0 -121 -4l-13 12q5 260 5 314q0 673 -19 1114z" />
<glyph unicode="I" horiz-adv-x="425" d="M131 1436l12 10q43 0 125 4l13 -12q-2 -92 -3 -291v-154q0 -675 19 -981l-14 -12q-82 0 -125 -4l-11 12q5 272 5 324q0 209 -5.5 614t-15.5 490z" />
<glyph unicode="J" horiz-adv-x="555" d="M-10 20q0 3 1 23.5t1 30.5q0 9 -1 29t-1 22l16 10q54 -41 127 -41q41 0 70.5 17.5t45 42t24 63.5t10.5 69t2 72q0 34 -2.5 215t-8 441.5t-10.5 421.5l12 10q43 0 125 4l13 -12q-6 -411 -6 -414q0 -12 4 -305t4 -391q0 -342 -285 -342q-67 0 -129 18z" />
<glyph unicode="K" horiz-adv-x="980" d="M133 1436l14 10q39 0 117 4l12 -12q0 -13 -1 -129.5t-1 -175.5v-347q382 497 490 652l16 8h133l7 -12q-36 -43 -504 -648q48 -65 144.5 -195.5t122.5 -166t87 -117t109.5 -143.5t117.5 -150l-6 -12q-77 0 -153 -6l-19 10q-133 192 -545 735q1 -65 17 -729l-15 -12 q-38 0 -116 -4l-13 12q3 147 3 297q0 730 -17 1131z" />
<glyph unicode="L" horiz-adv-x="811" d="M131 1436l14 10q67 0 125 4l13 -12q-7 -263 -7 -451q0 -143 3.5 -481.5t7.5 -401.5h106q209 0 369 13l10 -13q-4 -58 -4 -96l-12 -12q-58 4 -103 4h-278q-143 0 -217 -2l-11 12v246q0 137 -6 614t-10 566z" />
<glyph unicode="M" horiz-adv-x="1409" d="M92 8q22 206 52 766.5t30 661.5l14 10q58 0 172 4l15 -12q8 -33 29 -120.5t96.5 -400.5t189.5 -794q281 1078 346 1313l15 10q58 0 168 4l14 -12q3 -101 10 -441t16 -557.5t25 -427.5l-12 -12q-82 0 -123 -4l-10 12q0 211 -8.5 668.5t-10.5 697.5q-342 -1313 -356 -1362 l-16 -12q-97 0 -144 -4l-14 12q-71 289 -316 1358q-8 -323 -24 -735.5t-21 -618.5l-16 -12q-37 0 -107 -4z" />
<glyph unicode="N" horiz-adv-x="1193" d="M135 1434l15 12q55 0 169 4l15 -12q60 -124 614 -1329q-6 230 -12.5 650.5t-15.5 676.5l12 10q34 0 104 4l11 -12q-5 -273 -5 -328q0 -600 19 -1098l-12 -10q-89 0 -177 -6l-14 12q-17 36 -58.5 128t-184.5 404t-363 791q3 -160 8 -601.5t14 -717.5l-12 -12 q-67 0 -100 -4l-12 12q2 123 2 363q0 562 -17 1063z" />
<glyph unicode="O" horiz-adv-x="1280" d="M90 727q0 164 35.5 299.5t104 234.5t176 154t245.5 55q174 0 296.5 -94.5t182.5 -261t60 -391.5q0 -121 -19.5 -229.5t-62.5 -204t-106 -165t-156 -109.5t-207 -40q-111 0 -202 38t-154.5 106t-107.5 162.5t-64.5 206.5t-20.5 239zM223 731q0 -94 12 -182t43 -175 t77.5 -151t121 -103.5t168.5 -39.5q75 0 136.5 24.5t103.5 64t74 96t50 113.5t29.5 123t15 118.5t3.5 105.5q0 108 -14 201.5t-45.5 175.5t-78.5 140.5t-116.5 92t-155.5 33.5q-79 0 -144.5 -27.5t-108.5 -70t-75.5 -102.5t-50 -117.5t-28.5 -122.5t-14 -110t-3 -87z" />
<glyph unicode="P" horiz-adv-x="894" d="M131 1436l12 10q41 0 139 4t181 4q80 0 145 -19.5t105.5 -48.5t70.5 -71.5t44.5 -78.5t22.5 -81t9.5 -68t1.5 -49q0 -98 -27.5 -178t-84 -141.5t-150.5 -95t-219 -33.5h-102q4 -423 14 -578l-12 -12q-41 0 -123 -4l-11 12q5 245 5 297q0 175 -6 563.5t-15 567.5z M272 1346q0 -271 7 -654h79q369 0 369 357q0 303 -301 303q-7 0 -154 -6z" />
<glyph unicode="Q" horiz-adv-x="1280" d="M90 723q0 70 7.5 139t26 144t46.5 141t72.5 126t101 103t135 68.5t170.5 25.5q173 0 296 -91t184 -255t61 -387q0 -109 -19.5 -215.5t-60 -209.5t-113 -183t-168.5 -117q253 -101 414 -147l2 -17q-28 -29 -82 -96l-18 -4q-170 93 -483 229h-33q-115 0 -212.5 47.5 t-170.5 138t-114.5 234.5t-41.5 326zM223 723q0 -29 1.5 -61.5t10.5 -99.5t24 -125.5t47 -127t75 -116.5t111.5 -80.5t152.5 -32.5q94 0 167 39.5t117.5 103.5t73 154t39.5 180.5t11 192.5q0 49 -4 99t-15.5 112.5t-30 118t-50.5 109.5t-73 92.5t-101.5 62.5t-133.5 24 q-97 0 -173.5 -43.5t-122 -110.5t-75 -156t-40.5 -170.5t-11 -164.5z" />
<glyph unicode="R" d="M131 1434l12 12q9 0 138.5 4t183.5 4q163 0 244 -49q78 -47 114.5 -134.5t36.5 -193.5q0 -91 -22.5 -161.5t-65 -116t-94 -73.5t-117.5 -44l113 -203q127 -227 278 -463l-6 -14q-60 0 -145 -6l-19 12q-75 148 -356 656q-57 -2 -150 -2q0 -331 15 -650l-12 -12 q-68 0 -121 -2l-13 12q5 195 5 322q0 38 -1.5 230.5t-6.5 474.5t-11 397zM272 1098q0 -187 2 -334q16 -2 58 -2q237 0 315 78q86 86 86 235q0 84 -20 139.5t-61 84.5t-90 40t-120 11q-75 0 -168 -7q-2 -86 -2 -245z" />
<glyph unicode="S" horiz-adv-x="854" d="M76 70q1 5 2.5 30.5t4 51.5t5.5 43l18 4q44 -57 114.5 -90t154.5 -33q92 0 156.5 42t92 104t27.5 136q0 98 -52 170.5t-161 143.5l-94 61q-67 44 -104.5 73.5t-79.5 75.5t-61 101.5t-19 124.5q0 72 21.5 135t65.5 115t119 82t173 30q147 0 260 -63l8 -18q-9 -55 -12 -113 l-17 -8q-84 100 -239 100q-115 0 -181.5 -68.5t-66.5 -179.5q0 -89 45.5 -147t165.5 -135l94 -62q46 -30 78.5 -54t70 -62t61 -77.5t39 -95t15.5 -118.5q0 -47 -8 -93.5t-34.5 -103t-69 -98.5t-118.5 -70.5t-175 -28.5q-157 0 -289 74z" />
<glyph unicode="T" horiz-adv-x="854" d="M2 1348q4 54 4 86l12 12h291q357 0 533 6l10 -12q0 -3 -6 -90l-15 -13q-127 9 -337 9q0 -14 -1 -94t-1 -119q0 -590 18 -1121l-12 -12q-47 0 -121 -4l-12 12q4 129 4 385q0 626 -4 950q-181 0 -353 -8z" />
<glyph unicode="U" horiz-adv-x="1150" d="M141 1436l13 10q61 0 127 4l12 -12q-12 -131 -12 -854q0 -197 30.5 -297.5t100.5 -151.5q71 -49 157 -49q191 0 267 156q19 38 29.5 80t15 109t5.5 118.5t1 163.5q0 65 -5 370.5t-8 350.5l15 12q20 0 62 2t46 2l13 -12q0 -107 -2 -324t-2 -233v-265q0 -79 -1 -122.5 t-5.5 -102t-14.5 -94.5t-26.5 -78t-43 -76.5t-63.5 -68.5q-108 -99 -283 -99q-159 0 -266 84q-51 40 -84.5 93t-48.5 117t-20 118.5t-5 128.5v627q0 195 -4 293z" />
<glyph unicode="V" d="M-2 1432l8 12q86 4 129 8l12 -12q27 -146 125 -529l199 -782q283 1096 332 1307l18 10h109l8 -10q-83 -286 -135 -475l-135 -498q-73 -264 -121 -451l-15 -12q-92 0 -139 -4l-14 12q-22 82 -63 239t-54 206l-149 555q-95 355 -115 424z" />
<glyph unicode="W" horiz-adv-x="1492" d="M-2 1432l10 12q74 3 123 8l12 -12q13 -84 33.5 -197t40 -214.5t73.5 -386t99 -521.5q178 883 262 1315l17 10q58 0 168 4l12 -12q72 -346 268 -1313q123 617 244 1309l16 12h105l12 -12q-4 -11 -63 -285.5t-130 -628t-94 -508.5l-14 -12q-101 0 -154 -4l-14 12 q-58 266 -279 1350q-69 -347 -270 -1346l-16 -12q-105 0 -156 -4l-12 12q-270 1327 -293 1424z" />
<glyph unicode="X" horiz-adv-x="854" d="M-12 14q82 151 150 276.5t133.5 249t105.5 197.5q-68 137 -174 347.5t-174 347.5l8 12q45 0 131 8l14 -12q70 -173 267 -582q216 462 264 578l16 10h119l4 -12q-73 -131 -352 -689q67 -134 139 -280.5t103 -209.5t64 -127t60 -112l-8 -12q-17 -1 -62.5 -4.5t-68.5 -3.5 l-14 10q-41 97 -285 615q-60 -122 -131 -263.5t-106 -213t-62 -134.5l-14 -10q-20 2 -60 2q-39 0 -59 -2z" />
<glyph unicode="Y" horiz-adv-x="854" d="M0 1430l10 14q82 4 123 8l14 -12q50 -151 281 -738l158 375q91 221 137 359l16 10h105l10 -14q-39 -80 -103 -232t-83 -194l-185 -412q0 -51 11 -582l-13 -12q-41 0 -119 -4l-12 12q0 86 2 250.5t2 208.5q0 80 -2 119l-174 418q-130 314 -178 426z" />
<glyph unicode="Z" horiz-adv-x="854" d="M12 12q21 42 146 310l319 675q139 296 164 353q-407 -5 -563 -15l-12 13q2 14 3 29t1.5 33t1.5 28l12 12q106 -4 240 -4h211q132 0 276 4l8 -14q-15 -28 -28.5 -55t-37 -76.5t-49 -103t-75.5 -161t-103 -221t-145.5 -312.5t-190.5 -407q420 6 627 13l12 -13 q-4 -32 -8 -92l-10 -12q-153 6 -190 6h-320l-278 -6z" />
<glyph unicode="[" horiz-adv-x="468" d="M154 1491l12 12q160 0 291 4l12 -12q-6 -37 -6 -74l-14 -12q-68 2 -164 2q-4 -180 -4 -532v-619q0 -347 12 -551q24 0 51.5 -1t34.5 -1q41 0 76 2l12 -12q-4 -40 -4 -66l-14 -12q-156 0 -277 -4l-12 12q2 178 2 635v594q0 451 -8 635z" />
<glyph unicode="\" horiz-adv-x="598" d="M-96 1491l6 16q5 0 24 -1t29 -1q9 0 28 1t23 1l13 -12q69 -276 166 -602l202 -684q89 -303 180 -578l-6 -16q-4 0 -25.5 1t-31.5 1q-9 0 -26.5 -1t-20.5 -1l-12 12q-60 233 -142 510l-209 707q-17 59 -48.5 165.5t-48.5 164.5t-45 146t-56 171z" />
<glyph unicode="]" horiz-adv-x="468" d="M0 -373q3 19 6 74l14 12q68 -2 164 -2q4 180 4 533v618q0 347 -12 551q-24 0 -51.5 1t-34.5 1q-39 0 -76 -2l-12 12q4 40 4 66l14 12q156 0 277 4l12 -12q-2 -174 -2 -635v-594q0 -467 8 -635l-12 -12q-160 0 -291 -4z" />
<glyph unicode="^" horiz-adv-x="1253" d="M211 639q159 350 350 799l12 8h109l10 -6q107 -259 350 -799l-8 -12h-114l-11 8q-178 445 -284 700l-283 -698l-10 -10q-62 0 -113 -2z" />
<glyph unicode="_" horiz-adv-x="1024" d="M-20 -313l10 12h1042l12 -10q-2 -18 -2 -58q0 -27 2 -41l-12 -12h-1040l-12 10v99z" />
<glyph unicode="`" horiz-adv-x="468" d="M121 1434l6 12q33 -2 70 -2q36 0 67 2l12 -12q32 -126 72 -267l-10 -12q-7 0 -33.5 -2t-32.5 -2l-12 12q-58 123 -139 271z" />
<glyph unicode="a" horiz-adv-x="811" d="M55 303q0 73 19 130.5t51 97t81.5 70t103 49t122.5 32.5l137 29v26q0 47 -3 78t-14 62.5t-31 49.5t-55 29t-85 11q-56 0 -104 -13.5t-69.5 -26t-51.5 -34.5l-15 8q5 25 9 98l10 17q43 18 70 27.5t77.5 17.5t114.5 8q266 0 266 -281v-505q0 -166 12 -269l-12 -14 q-71 0 -106 -4l-11 12q0 23 -2 60q-107 -86 -227 -86q-123 0 -205 86t-82 235zM180 309q0 -99 49.5 -162t137.5 -63q22 0 43.5 3.5t40 11t33 15t29.5 18.5t23 17t19.5 16.5t13.5 12.5v432l-116 -26q-38 -8 -65.5 -16t-70 -29t-69.5 -48.5t-47.5 -74.5t-20.5 -107z" />
<glyph unicode="b" d="M100 1536l13 12q24 1 45.5 4t32.5 5.5t28 6.5t21 5l14 -13q-6 -111 -6 -225v-352q115 92 250 92q161 0 262 -137q100 -135 100 -359q0 -113 -33.5 -232t-111.5 -200q-77 -81 -165.5 -112t-232.5 -31q-139 0 -180 -2l-12 10v391q0 1000 -25 1137zM248 862q0 -149 2 -448.5 t2 -309.5q1 0 20.5 -1t36.5 -1q221 0 322 125q57 70 78.5 164t21.5 176q0 44 -5.5 90t-22.5 103t-44.5 100t-77 73t-114.5 30q-63 0 -113 -25.5t-106 -75.5z" />
<glyph unicode="c" horiz-adv-x="724" d="M78 512q0 258 107 408.5t311 150.5q87 0 184 -41l10 -16q-8 -69 -10 -107l-12 -6q-67 64 -170 64q-56 0 -101.5 -19.5t-74.5 -49.5t-51 -73t-33 -82.5t-17.5 -86.5t-8 -76.5t-1.5 -59.5q0 -59 5.5 -110.5t24 -114t49.5 -106t87 -73.5t131 -30q108 0 186 72l11 -6 q0 -11 -1.5 -26.5t-3.5 -40t-4 -46.5l-10 -19q-80 -41 -188 -41q-203 0 -311.5 138.5t-108.5 396.5z" />
<glyph unicode="d" d="M84 463q0 24 0.5 45.5t5.5 66.5t14 83.5t27 89t42.5 91t63.5 82t87.5 69.5t116.5 45.5t149 17.5q44 0 102 -4q0 325 -14 487l12 12q56 6 123 21l14 -13q-14 -513 -14 -882v-426q0 -132 8 -236l-12 -12q-43 0 -109 -4l-10 12q0 16 1 46t1 36q-120 -108 -260 -108 q-158 0 -253 131.5t-95 349.5zM213 477q0 -74 12.5 -139t40 -123.5t79 -92.5t122.5 -34q136 0 223 119q2 123 2 371v368q-21 6 -92 6q-73 0 -132.5 -18.5t-99 -48t-69 -72t-45.5 -83.5t-26 -91t-12.5 -86.5t-2.5 -75.5z" />
<glyph unicode="e" horiz-adv-x="854" d="M78 528q0 250 106.5 395.5t278.5 145.5q93 0 158 -39t102 -92q84 -121 84 -383l-14 -12h-588v-17q0 -95 18.5 -173t57 -140t104.5 -96.5t154 -34.5q123 0 219 80l14 -8q-8 -55 -8 -105l-12 -16q-75 -56 -242 -56q-208 0 -320 146.5t-112 404.5zM213 641h461v29 q0 85 -21 147.5t-55 95t-69.5 47.5t-71.5 15q-98 0 -164.5 -90t-79.5 -244z" />
<glyph unicode="f" horiz-adv-x="468" d="M8 956q1 10 2 40.5t2 43.5l13 13q33 -4 120 -4q-2 49 -2 196q0 58 13 108.5t40.5 95t78 70t118.5 25.5q44 0 72 -8l10 -16q-3 -17 -8 -74l-12 -12q-25 10 -54 10q-37 0 -62.5 -13.5t-39 -33t-21 -54.5t-9 -63t-1.5 -74v-159q19 1 86 2t97 2l14 -15q0 -1 -8 -78l-13 -12 q-59 2 -176 2q0 -549 15 -938l-13 -10q-36 0 -110 -4l-13 12q3 89 3 176v348q-1 285 -3 418q-11 0 -60.5 -2t-68.5 -2z" />
<glyph unicode="g" horiz-adv-x="854" d="M72 -150q0 47 13.5 88t44.5 80t57.5 65.5t74.5 68.5q-26 13 -74 49l-6 18q44 86 88 162q-174 92 -174 301q0 184 102 277.5t267 93.5q38 0 113 -1t84 -1q26 0 90 1t73 1l9 -13q-7 -51 -7 -82l-14 -12q-101 8 -186 8q135 -76 135 -270q0 -154 -90.5 -246t-239.5 -92 q-44 0 -76 8q-28 -46 -47 -92l2 -14l248 -90q144 -52 200 -118.5t56 -166.5q0 -56 -22 -108.5t-66 -98t-119 -73t-170 -27.5q-172 0 -269 84t-97 200zM197 -139q0 -92 71 -151.5t181 -59.5q109 0 178 59.5t69 147.5q0 27 -7 50t-16.5 40.5t-31.5 34.5t-38.5 28t-52 27 t-57.5 24.5t-69.5 26.5t-75.5 29q-47 -38 -75.5 -68t-52 -80t-23.5 -108zM221 696q0 -113 59.5 -187.5t155.5 -74.5q89 0 146 66.5t57 177.5q0 123 -55 200.5t-152 77.5q-98 0 -154.5 -71.5t-56.5 -188.5z" />
<glyph unicode="h" d="M123 1536l12 12q50 5 127 19l10 -11q-4 -104 -14 -618q71 60 141 94.5t158 34.5q78 0 131 -28t79.5 -81t37 -112t10.5 -139v-277q0 -279 8 -418l-12 -12q-80 0 -121 -2l-10 10q10 205 10 682q0 42 -3 74.5t-13.5 71.5t-28.5 64.5t-51.5 43t-79.5 17.5q-121 0 -256 -138 l-2 -368q0 -242 10 -445l-12 -10q-2 0 -15 1t-20 1q-23 0 -84 -6l-10 12q12 786 12 1051q0 293 -14 477z" />
<glyph unicode="i" horiz-adv-x="382" d="M125 1028l12 10q54 8 121 21l12 -12q-10 -202 -10 -365q0 -118 10 -670l-12 -12q-80 0 -119 -4l-12 12q8 200 8 449q0 381 -10 571zM125 1403q4 86 4 127l14 12l123 12l15 -12q-5 -102 -5 -127l-14 -12q-62 -3 -123 -12z" />
<glyph unicode="j" horiz-adv-x="382" d="M2 -342l12 10q1 0 8.5 -1t12.5 -1q60 0 78 67t18 232q0 88 -8.5 531.5t-13.5 531.5l12 10q65 10 121 21l12 -12q-6 -120 -6 -242q0 -76 4 -414t4 -452q0 -48 -1 -79.5t-5.5 -74.5t-13 -71t-24.5 -58.5t-38.5 -48.5t-56.5 -29.5t-78 -11.5h-23l-12 14q0 51 -2 78z M109 1403q2 23 2 65q0 44 -2 64l14 12q78 4 125 12l12 -12q-4 -46 -4 -74q0 -37 2 -55l-14 -14q-70 0 -121 -10z" />
<glyph unicode="k" horiz-adv-x="768" d="M121 1536l10 12q25 2 71.5 10t53.5 9l12 -11q-7 -236 -12 -950q204 261 311 432l19 11q27 -2 57 -2q32 0 57 2l7 -15q-236 -309 -322 -424q252 -399 385 -594l-6 -14q-63 0 -133 -6l-15 12q-124 213 -360 574q-2 -37 -2 -113q0 -84 4.5 -239.5t5.5 -217.5l-12 -12 q-41 0 -115 -4l-12 12q1 141 5.5 494.5t4.5 546.5q0 298 -14 487z" />
<glyph unicode="l" horiz-adv-x="382" d="M106 1536l11 12q50 3 123 19l12 -13q-2 -154 -2 -462q0 -714 16 -1080l-10 -12q-1 0 -14.5 1t-20.5 1q-23 0 -84 -6l-12 12q0 58 1 360.5t1 452.5q0 437 -21 715z" />
<glyph unicode="m" horiz-adv-x="1449" d="M119 1026l12 12q73 11 119 19l10 -10q-6 -65 -6 -125q37 35 58 53t59 43.5t78.5 37t87.5 11.5q85 0 138.5 -45.5t76.5 -114.5q31 33 58 56.5t67 49.5t88.5 40t103.5 14q54 0 98.5 -17.5t82 -56t58.5 -108.5t21 -166v-201q0 -395 6 -508l-10 -10q-35 0 -117 -4l-12 12 q10 212 10 647q0 53 -3 92t-13.5 81t-29 68t-51.5 43t-79 17q-121 0 -250 -139q13 -83 13 -201v-88q0 -283 10 -518l-12 -10q-29 0 -115 -4l-10 12q4 156 4 502q0 81 -1.5 128t-6.5 106t-16 91t-30 62.5t-49 43.5t-71 13q-114 0 -240 -137v-106q0 -439 12 -701l-12 -10 q-64 0 -117 -4l-12 12q6 67 6 215q0 608 -14 803z" />
<glyph unicode="n" d="M123 1026l8 12q52 7 123 21l12 -12q-9 -84 -10 -113q76 64 145.5 98.5t153.5 34.5q147 0 217 -119q28 -50 34.5 -108.5t6.5 -204.5q0 -513 8 -623l-12 -12q-58 0 -117 -4l-12 12q10 157 10 572q0 69 -2 114t-8 92.5t-17.5 75.5t-31 52t-48.5 34t-69 10q-126 0 -256 -137 v-235q0 -336 10 -574l-12 -12q-76 0 -117 -4l-12 12q6 196 6 393q0 418 -10 625z" />
<glyph unicode="o" d="M78 522q0 256 101.5 402.5t297.5 146.5q82 0 149 -30.5t120.5 -95.5t83.5 -178t30 -265q0 -75 -12 -146t-41 -140.5t-72.5 -120.5t-112.5 -83t-155 -32q-61 0 -115 16t-105 55t-88 99t-59 155.5t-22 216.5zM211 532q0 -48 3.5 -91.5t12 -98.5t27 -99t46 -82t72 -59.5 t101.5 -21.5q50 0 90 17.5t66 44t45.5 67.5t29 78.5t15.5 87.5t7 84t1 78q0 125 -24.5 219.5t-83 154.5t-146.5 60q-39 0 -74 -10.5t-70.5 -40.5t-60.5 -77.5t-41 -127t-16 -183.5z" />
<glyph unicode="p" d="M109 1028l12 10q71 9 119 21l12 -12v-91q122 115 258 115q51 0 99.5 -16.5t94.5 -54t80 -92.5t55 -137.5t21 -182.5q0 -131 -30.5 -238.5t-90.5 -187.5t-155.5 -124t-218.5 -44q-59 0 -109 6q0 -246 12 -410l-12 -12q-1 0 -25 1t-36 1q-11 0 -35 -1t-27 -1l-12 12 q8 251 8 572q0 545 -20 866zM252 838q0 -490 2 -734q43 -8 86 -8q63 0 117 13.5t106 48.5t88.5 89t59 140.5t22.5 198.5q0 102 -22 179t-59 119.5t-80 62.5t-91 20q-46 0 -107.5 -29t-121.5 -100z" />
<glyph unicode="q" d="M80 463q0 73 10.5 142t35 144.5t76 140t124.5 105.5q63 34 136.5 45t186.5 11q103 0 162 2l12 -13q-12 -234 -12 -469q0 -848 16 -981l-14 -12q-4 0 -27 1t-34 1t-33 -1t-27 -1l-10 12q6 104 6 316v170q-98 -92 -229 -92q-75 0 -141.5 29t-120.5 85.5t-85.5 150.5 t-31.5 214zM209 481q0 -101 23 -179t62 -123t86.5 -67t100.5 -22q123 0 209 100v750q-51 8 -100 8q-88 0 -156 -28t-109.5 -73t-68.5 -107.5t-37 -125.5t-10 -133z" />
<glyph unicode="r" horiz-adv-x="555" d="M113 1028l8 12q55 4 121 19l12 -12q0 -36 -4 -146q12 25 18.5 37.5t28 42.5t42 46.5t55 31t73.5 14.5q42 0 74 -16l8 -15q-6 -75 -6 -110l-13 -8q-44 22 -90 22q-27 0 -50 -5.5t-40 -19t-31 -27.5t-23.5 -39t-16.5 -44t-11 -54t-7 -57t-4 -63.5t-1 -64.5v-68 q0 -283 12 -492l-12 -12h-59q-33 0 -62 -2l-10 10q4 168 4 297q0 539 -16 723z" />
<glyph unicode="s" horiz-adv-x="681" d="M49 47q6 55 6 107l15 4q21 -17 34 -26.5t44 -26.5t69 -26t82 -9q95 0 149 59t54 143q0 40 -10.5 70t-35 53t-45.5 36.5t-59 33.5l-65 35q-49 26 -75.5 42t-62 43t-53 52.5t-30.5 63.5t-13 83q0 136 90 210.5t228 74.5q125 0 219 -45l6 -14q-8 -70 -8 -107l-13 -4 q-79 76 -200 76q-94 0 -144.5 -49t-50.5 -127q0 -66 36 -104.5t101 -71.5l82 -41q40 -20 67.5 -35t62.5 -42.5t56.5 -56t36.5 -71t15 -92.5q0 -38 -9.5 -77.5t-34.5 -81t-61.5 -73.5t-97 -52.5t-135.5 -20.5q-135 0 -242 49z" />
<glyph unicode="t" horiz-adv-x="468" d="M2 963q1 11 6 77l10 13q18 -1 59.5 -2t55.5 -2v88q0 95 -6 166l10 12q42 7 115 28l12 -12q-8 -160 -8 -246v-36q130 3 186 6l11 -13q-8 -60 -9 -81l-10 -13q-32 0 -98 2t-80 2v-620q0 -47 1 -74t4.5 -58.5t10.5 -48t19 -32t31 -21.5t45 -6q44 0 84 25l12 -8 q-6 -35 -6 -86l-13 -17q-60 -20 -110 -20q-55 0 -94 18.5t-60 45t-32.5 70.5t-14 80.5t-2.5 90.5q0 111 1 240t1 184q0 139 -2 237q-5 0 -52.5 -1t-66.5 -1z" />
<glyph unicode="u" d="M123 1036l10 11q68 0 119 4l10 -13q-10 -291 -10 -694q0 -22 0.5 -36.5t4 -45t10 -51.5t21 -48t34 -43.5t50.5 -28t70 -11.5q41 0 78 11t69 33.5t51 39t46 43.5v315q0 362 -8 514l10 11q62 0 117 4l12 -13q-6 -158 -6 -608q0 -230 10 -418l-12 -12q-13 0 -111 -4l-12 12 l4 90q-69 -59 -136 -87.5t-155 -28.5q-16 0 -29 1t-41 5.5t-52 16.5t-51 30.5t-48.5 51t-34.5 75.5q-18 61 -18 215v176q0 22 1 123.5t1 154.5q0 111 -4 205z" />
<glyph unicode="v" horiz-adv-x="768" d="M0 1032l10 12q59 3 125 9l12 -13q15 -71 38 -163t46.5 -176.5t73 -265t92.5 -339.5q209 791 238 940l16 13q38 -2 54 -2l53 2l10 -13q-50 -141 -150.5 -510t-136.5 -514l-14 -12q-52 0 -154 -4l-16 12q-160 563 -297 1024z" />
<glyph unicode="w" horiz-adv-x="1193" d="M0 1032l8 12q58 3 117 9l12 -13q5 -30 11 -62.5t19.5 -102t29.5 -147.5t50.5 -249t71.5 -358q188 885 193 915l12 13q103 0 154 4l14 -13q28 -146 201 -919q41 211 78.5 398.5t53.5 265.5t28 142t18 109l12 13q4 0 23.5 -1t28.5 -1t28.5 1t22.5 1l8 -13q-13 -46 -90 -393 t-137 -631l-15 -12q-88 0 -133 -4l-14 12q-8 33 -20 88t-29.5 134.5t-62 278.5t-99.5 447q-55 -257 -91 -421t-45.5 -203.5t-23 -106t-43.5 -213.5l-12 -12q-45 0 -131 -4l-12 12q-160 720 -236 1024z" />
<glyph unicode="x" horiz-adv-x="681" d="M-12 12q101 167 286 523q-186 358 -260 497l6 12q12 0 130 9l16 -11q53 -126 180 -383q130 252 182 377l15 13q14 0 31.5 -1t23.5 -1t23.5 1t31.5 1l9 -13q-121 -221 -259 -483q90 -172 291 -537l-8 -12q-61 -2 -131 -8l-16 10q-45 105 -203 422q-161 -305 -213 -420 l-17 -12q-86 4 -110 4z" />
<glyph unicode="y" horiz-adv-x="768" d="M-6 1032l12 17q39 0 121 4l14 -13q12 -42 140 -467l116 -387q120 410 240 850l16 13h107l12 -13q-38 -104 -110 -331l-127 -404q-148 -476 -207 -711l-15 -12q-39 2 -118 2l-9 10q69 171 146 426q-90 295 -190 590.5t-148 425.5z" />
<glyph unicode="z" horiz-adv-x="724" d="M27 10q110 199 225 439l246 507q-48 -1 -135.5 -2.5t-156.5 -2.5t-124 -1l-10 13q6 54 6 75l10 13q27 -2 141 -2h283q30 0 89 2t69 2l8 -13q-10 -20 -56.5 -108.5t-85 -164.5t-126.5 -256.5t-199 -414.5q36 0 102.5 -1t75.5 -1q107 0 279 8l10 -10q-4 -54 -4 -84l-12 -12 q-59 4 -191 4h-205q-180 0 -233 -2z" />
<glyph unicode="{" horiz-adv-x="524" d="M59 561q2 18 2 41v37l7 10q58 10 84 36t35.5 82t9.5 177v262q0 190 63.5 264t202.5 74l10 -8q0 -13 -1 -26.5t-1 -18.5v-29l-8 -10q-64 -6 -93.5 -26t-43 -71.5t-13.5 -158.5v-178q0 -79 -1 -123.5t-5 -93.5t-12 -75t-23 -52.5t-36 -42.5t-52 -29q77 -35 102 -105 t25 -249v-256q0 -98 14 -147.5t44.5 -70t93.5 -26.5l6 -10v-74l-8 -10q-63 0 -108.5 14t-82 48t-55 97t-18.5 154v297q0 168 -23.5 221t-105.5 66z" />
<glyph unicode="|" horiz-adv-x="456" d="M162 1540l10 10q62 0 113 2l8 -8q-4 -230 -4 -481v-979l4 -471l-10 -8q-13 0 -111 -4l-8 10q2 84 2 199v1253q0 299 -4 477z" />
<glyph unicode="}" horiz-adv-x="524" d="M45 -332q0 13 1 26.5t1 18.5v29l6 10q63 6 93.5 26t44.5 72t14 158v178q0 79 1 123.5t5 93.5t12 75t23 52.5t36 42.5t52 29q-77 35 -102 105t-25 249v256q0 96 -15.5 147.5t-46.5 72t-90 24.5l-8 8q2 29 2 41l-2 35l10 8q59 0 104 -14t83 -46.5t58 -94.5t20 -150v-319 q0 -156 24 -208t105 -65l6 -8v-80l-6 -8q-30 -5 -49.5 -12t-35 -22.5t-23.5 -33.5t-13 -52.5t-6.5 -73.5t-1.5 -101v-262q0 -190 -65 -265t-204 -75z" />
<glyph unicode="~" horiz-adv-x="1253" d="M156 567q45 81 115 123.5t155 42.5q49 0 91.5 -12.5t109.5 -48.5l73 -39q97 -51 156 -51q57 0 101 29.5t85 95.5l13 4q13 -15 61 -62l2 -12q-46 -80 -116 -123t-154 -43q-89 0 -203 61l-72 39q-97 54 -151 54q-59 0 -103.5 -30t-85.5 -97l-12 -4q-49 48 -63 61z" />
<glyph unicode="&#xa1;" horiz-adv-x="425" d="M109 1432l14 12q75 0 135 8l12 -16q-2 -25 -2 -74q0 -51 2 -76l-14 -10q-43 -2 -133 -10l-12 14v43q0 72 -2 109zM111 6q24 479 24 846q0 69 -4 195l12 12q62 5 84 8l11 -12q8 -513 36 -1045l-10 -12q-108 0 -143 -4z" />
<glyph unicode="&#xa2;" horiz-adv-x="724" d="M78 512q0 230 86.5 376t257.5 177q-7 147 -8 176l10 12q41 0 90 4l12 -12v-176q82 -6 154 -41l10 -14q-7 -52 -10 -109l-12 -6q-73 64 -170 64q-59 0 -106 -21.5t-76.5 -53t-51 -79t-31.5 -85.5t-15.5 -87t-6 -70.5t-0.5 -48.5q0 -96 16.5 -173t50.5 -136.5t92.5 -92 t137.5 -32.5q108 0 186 72l11 -6q-3 -28 -9 -113l-10 -17q-65 -34 -149 -40q0 -89 6 -170l-13 -13h-30q-24 0 -60 -4l-10 12v179q-48 5 -93 21.5t-94 55.5t-84 95t-58 148t-23 208z" />
<glyph unicode="&#xa3;" horiz-adv-x="854" d="M57 637q6 37 6 72l13 10q33 0 133 -2q-23 179 -23 237q0 183 96.5 290.5t254.5 107.5q104 0 217 -52l6 -16q-6 -55 -6 -106l-13 -7q-30 30 -81 55t-115 25q-108 0 -171 -76.5t-63 -228.5q0 -34 3 -69.5t9.5 -87t8.5 -68.5h139q139 0 209 4l10 -12q0 -1 -6 -76l-12 -12 q-111 4 -332 4q10 -83 10 -156q0 -193 -67 -379h75q132 0 398 12l10 -12q-1 -13 -2 -44t-2 -40l-12 -12q-51 2 -158 2h-307q-109 0 -162 -2l-10 12q42 66 78 194t36 283q0 81 -8 144q-23 0 -48 -1t-55.5 -2.5t-47.5 -2.5z" />
<glyph unicode="&#xa4;" horiz-adv-x="1089" d="M74 209v12q62 55 123 119q-95 125 -95 270q0 83 23 146t74 123q-77 78 -123 116v13l65 71l13 -2q69 -77 118 -119q69 51 132.5 73t144.5 22q160 0 266 -95l115 121h12q31 -31 72 -67l-2 -15q-91 -74 -127 -110q53 -70 75.5 -133t22.5 -140q0 -152 -94 -274 q10 -10 24.5 -25.5t20 -21l15.5 -15.5t15 -14.5t13 -12t15.5 -13.5t17.5 -15v-12q-57 -60 -68 -74l-12 4q-94 102 -117 125q-60 -50 -124 -72t-148 -22q-82 0 -145 21.5t-124 72.5l-116 -125h-11l-32 32t-39 36zM211 612q0 -148 96.5 -246t241.5 -98q138 0 231.5 98.5 t93.5 245.5q0 149 -93 246.5t-236 97.5q-141 0 -237.5 -99t-96.5 -245z" />
<glyph unicode="&#xa5;" horiz-adv-x="854" d="M0 1311l10 14q111 6 123 6l14 -10q24 -69 66.5 -172t214.5 -506q226 493 295 674l16 10h105l10 -12q-44 -81 -132.5 -277t-139.5 -293q87 0 163 5l11 -11q0 -17 -6 -77l-15 -13q-66 4 -180 4h-18l-54 -108v-66q166 0 262 6l11 -12q-5 -72 -6 -78l-15 -12q-55 4 -147 4 h-103q2 -44 4.5 -183t4.5 -194l-11 -10q-35 0 -121 -4l-12 12q2 68 2 185v194q-52 -2 -133 -2.5t-110 -1.5l-11 12q1 5 2.5 31t3.5 41l13 14q39 -2 104 -2h131v58l-53 114q-140 -4 -190 -4l-11 12q0 2 2 29t4 43l13 12q3 0 28.5 -1t38.5 -1q16 0 42.5 1t31.5 1 q-216 480 -258 568z" />
<glyph unicode="&#xa6;" horiz-adv-x="456" d="M162 424l10 10q62 0 113 2l8 -8q-4 -204 -4 -498q0 -114 4 -317l-10 -8q-15 -1 -53.5 -2t-57.5 -2l-8 10q2 417 2 528q0 140 -4 285zM162 1540l10 10q62 0 113 2l8 -8q-4 -204 -4 -497q0 -115 4 -318l-10 -8q-15 -1 -53.5 -2t-57.5 -2l-8 10q2 417 2 528q0 140 -4 285z " />
<glyph unicode="&#xa7;" horiz-adv-x="854" d="M74 635q0 52 19 98.5t40.5 74.5t60.5 58t55 39.5t48 26.5q-66 66 -96.5 125t-30.5 133q0 119 78.5 199.5t222.5 80.5q108 0 211 -53l10 -18q-6 -33 -12 -105l-18 -6q-27 22 -45.5 35t-59 28t-84.5 15q-88 0 -133 -52t-45 -118q0 -39 11 -71.5t38.5 -64t51 -52.5t71.5 -58 l84 -65q42 -33 53 -41.5t43.5 -35t40.5 -36t29.5 -32.5t27 -36.5t16 -35.5t13 -43.5t2.5 -46.5q0 -52 -19 -98t-44 -75t-63.5 -55.5t-61 -38t-53.5 -24.5q33 -23 49.5 -36t45 -41t43 -54t26.5 -66t12 -86q0 -43 -10 -85t-35 -83.5t-62 -72.5t-96 -50.5t-133 -19.5 q-153 0 -269 80l-8 20q9 77 11 115l14 6q54 -56 109 -86.5t141 -30.5q104 0 153 61t49 148q0 38 -10.5 69t-36.5 60t-50 48.5t-70 52.5l-99 69q-35 26 -60 45.5t-61 55t-58.5 67.5t-39 75.5t-16.5 86.5zM201 657q0 -131 184 -258l88 -61q166 81 166 221q0 31 -9 58t-21 46.5 t-43.5 49t-54.5 48t-77 60.5l-74 58q-76 -31 -117.5 -93.5t-41.5 -128.5z" />
<glyph unicode="&#xa8;" horiz-adv-x="468" d="M8 1214q2 31 2 66q0 39 -2 72l15 12q41 0 108 6l12 -12q-2 -61 -2 -137l-10 -13q-35 0 -111 -6zM324 1214q2 29 2 66q0 41 -2 72l12 12q34 0 113 6l12 -12q-2 -61 -2 -137l-13 -13q-32 0 -112 -6z" />
<glyph unicode="&#xa9;" horiz-adv-x="1630" d="M66 725q0 153 59 290t159 235.5t239.5 156t295.5 57.5q154 0 292.5 -57t238 -154t157.5 -232.5t58 -285.5q0 -158 -56.5 -298t-153.5 -239.5t-233.5 -157.5t-290.5 -58q-212 0 -387.5 98t-276.5 268.5t-101 376.5zM170 723q0 -174 87.5 -322t238.5 -234.5t329 -86.5 q173 0 319.5 85t231 231.5t84.5 320.5q0 183 -83 331.5t-229.5 233t-326.5 84.5q-135 0 -256 -50t-207.5 -135.5t-137 -204.5t-50.5 -253zM446 713q0 218 114 346.5t308 128.5q109 0 183 -39l6 -10q-4 -98 -4 -107l-21 -12q-60 72 -170 72q-132 0 -210.5 -100.5 t-78.5 -270.5q0 -169 78.5 -264t216.5 -95q110 0 187 80l14 -8q-3 -37 -6 -110l-10 -15q-79 -43 -191 -43q-193 0 -304.5 120t-111.5 327z" />
<glyph unicode="&#xaa;" horiz-adv-x="555" d="M35 940q0 42 10 76.5t24 58.5t39 44.5t44.5 32t52.5 23t51 16t51 11.5l72 17v10q0 77 -21.5 111t-99.5 34q-86 0 -147 -51l-19 10q6 41 6 76l8 12q26 14 76 26.5t105 12.5q52 0 89.5 -15.5t56 -35.5t28.5 -51t12 -50.5t2 -45.5v-326q0 -121 8 -195l-12 -14q-23 0 -50 -1 t-28 -1l-12 12q0 13 -2 29q-69 -51 -143 -51q-95 0 -148 65t-53 160zM135 942q0 -56 28 -98.5t87 -42.5q75 0 129 59v275l-27 -7q-43 -10 -68.5 -17.5t-57.5 -22t-49 -32.5t-29.5 -47t-12.5 -67z" />
<glyph unicode="&#xab;" horiz-adv-x="724" d="M61 543l2 20q138 279 173 375l16 12h113l8 -12q-27 -48 -52 -99t-40.5 -85.5t-43 -97t-42.5 -97.5q47 -111 108 -231t86 -160l-8 -12h-29q-55 0 -86 -2l-16 12q-35 83 -101 207t-88 170zM360 543v20q100 195 175 375l16 12h113l8 -12q-25 -43 -51.5 -97t-41 -86 t-45.5 -103.5t-40 -92.5q14 -41 72 -160t122 -231l-8 -12h-29q-55 0 -86 -2l-16 12q-30 75 -96.5 199t-92.5 178z" />
<glyph unicode="&#xac;" horiz-adv-x="1253" d="M135 557q0 32 4 94l8 11q240 -5 246 -5h422q58 0 137 2t113 3l8 -9q-2 -39 -2 -194l2 -357l-8 -8q-25 0 -57.5 -1t-42.5 -1l-9 6q0 77 2.5 204.5t2.5 182.5v64h-723l-95 -2z" />
<glyph unicode="&#xad;" horiz-adv-x="512" d="M37 530q12 65 14 99l12 10q82 -4 250 -4q73 0 150 6l10 -12q-12 -97 -12 -101l-12 -12q-74 4 -224 4q-123 0 -176 -2z" />
<glyph unicode="&#xae;" horiz-adv-x="1630" d="M66 725q0 153 59 290t159 235.5t239.5 156t295.5 57.5q154 0 292.5 -57t238 -154t157.5 -232.5t58 -285.5q0 -158 -56.5 -298t-153.5 -239.5t-233.5 -157.5t-290.5 -58q-212 0 -387.5 98t-276.5 268.5t-101 376.5zM170 723q0 -174 87.5 -322t238.5 -234.5t329 -86.5 q173 0 319.5 85t231 231.5t84.5 320.5q0 183 -83 331.5t-229.5 233t-326.5 84.5q-135 0 -256 -50t-207.5 -135.5t-137 -204.5t-50.5 -253zM575 1178l15 18h201q158 0 232.5 -57.5t74.5 -180.5q0 -190 -189 -251q181 -308 242 -396l-8 -16q-16 0 -63.5 -2t-55.5 -2l-14 10 q-17 26 -49.5 84.5t-82.5 149.5t-83 149q-52 0 -93 -2l11 -375l-13 -14q-11 0 -27 1t-20 1t-23 -1t-34 -1l-12 14q0 137 -3 476t-6 395zM700 1057l2 -279h39q52 0 92 7.5t74 25.5t52 53t18 86q0 83 -45 119.5t-146 36.5q-4 0 -39 -1t-45 -1q-2 -18 -2 -47z" />
<glyph unicode="&#xaf;" horiz-adv-x="468" d="M-25 1229q11 57 13 98l14 12q106 -4 176 -4h117q141 0 188 4l13 -12q-7 -37 -13 -98l-12 -12q-80 4 -293 4q-120 0 -192 -2z" />
<glyph unicode="&#xb0;" horiz-adv-x="724" d="M61 1231q0 125 88.5 213t212.5 88q126 0 214 -88t88 -213q0 -123 -88 -212t-214 -89t-213.5 88t-87.5 213zM184 1229q0 -72 52.5 -124t125.5 -52q75 0 127 52t52 126t-51.5 126t-124.5 52q-75 0 -128 -51.5t-53 -128.5z" />
<glyph unicode="&#xb1;" horiz-adv-x="1253" d="M158 8q0 17 1 36.5t1 25.5v32l8 9q18 0 114.5 -1t145.5 -1h389q147 0 268 4l9 -11q0 -12 -4 -94l-9 -10q-104 2 -268 2h-385l-262 -2zM158 698q0 23 4 93l8 10q162 -4 307 -4h96v106q0 111 -6 311l11 11q53 0 98 2l8 -8q-1 -18 -1.5 -79t-1 -166t-1.5 -177h117 q106 0 290 4l9 -8l-4 -95l-9 -8l-401 2q0 -150 4 -418l-8 -8q-45 -2 -100 -2l-9 6q2 225 2 422h-129q-84 0 -276 -4z" />
<glyph unicode="&#xb2;" horiz-adv-x="641" d="M25 440q31 42 85 109t66 82q144 181 193 266.5t49 171.5q0 51 -15.5 89t-40.5 57.5t-50.5 28.5t-51.5 9q-98 0 -184 -86l-17 13q4 62 4 82l9 18q97 63 202 63q119 0 183.5 -78t64.5 -192q0 -35 -5 -67.5t-20.5 -68.5t-25 -58t-39 -64t-40 -56.5t-50 -65.5t-49.5 -64 l-94 -123q161 0 348 10l12 -14q0 -5 -3 -31.5t-3 -38.5l-16 -12q-25 2 -111 2h-281q-59 0 -112 -2z" />
<glyph unicode="&#xb3;" horiz-adv-x="641" d="M41 479q4 32 8 80l17 8q68 -75 180 -75q94 0 143 62t49 155q0 82 -42 131t-126 49q-46 0 -92 -21l-20 21q170 291 207 352q-15 0 -137.5 -1t-147.5 -1l-12 10q0 9 1 20t2.5 25.5t2.5 22.5l14 10q18 0 103 -1t106 -1q11 0 76.5 1t134.5 1l10 -20q-72 -108 -203 -334 q60 0 105.5 -23t71 -62t37.5 -84t12 -95q0 -32 -5.5 -65.5t-24.5 -78.5t-49.5 -78.5t-87.5 -57t-132 -23.5q-113 0 -195 57z" />
<glyph unicode="&#xb4;" horiz-adv-x="468" d="M113 1165q3 11 42 129.5t46 143.5l14 12q31 -2 70 -2q34 0 65 2l6 -12q-74 -125 -151 -277l-12 -10q-23 2 -52 2h-22z" />
<glyph unicode="&#xb5;" d="M121 1036l12 13h25q24 0 94 4l10 -13q-8 -324 -8 -481v-209q0 -38 2 -65.5t12 -69t28 -68t54 -46t86 -19.5q43 0 82 11.5t73.5 35.5t50.5 37.5t44 40.5v338q0 266 -10 491l12 13q74 0 117 4l12 -13l-2 -49q-4 -102 -4 -309v-137q0 -308 8 -488l2 -45l-12 -12 q-70 0 -113 -4l-12 12l6 90q-38 -29 -65 -48t-88.5 -43.5t-118.5 -24.5q-58 0 -95.5 19t-74.5 54q4 -333 10 -465l-12 -12q-1 0 -9 0.5t-20 1t-22 0.5q-11 0 -33.5 -1t-26.5 -1l-10 12q2 94 2 254v711q0 303 -6 481z" />
<glyph unicode="&#xb6;" horiz-adv-x="1136" d="M117 1053q0 176 108 284q58 60 138 83.5t219 23.5h174q121 0 227 4l10 -10v-74l-12 -8h-78v-1166q0 -275 8 -520l-8 -12h-98l-8 10q8 336 8 991q0 351 -4 699q-43 -2 -275 -2v-1192q0 -111 3 -265t3 -227l-8 -12q-43 -2 -96 -2l-8 12q6 193 6 625v383 q-148 20 -228.5 118.5t-80.5 256.5z" />
<glyph unicode="&#xb7;" horiz-adv-x="382" d="M113 508q2 33 2 74q0 42 -2 75l14 11q27 1 68.5 4.5t64.5 5.5l12 -14v-21q0 -26 1 -73t1 -58l-14 -12q-60 0 -133 -8z" />
<glyph unicode="&#xb8;" horiz-adv-x="468" d="M137 -354q48 126 90 256l13 12q33 -2 84 -2l6 -12q-28 -118 -56 -254l-12 -13q-3 0 -24.5 1t-30.5 1t-34.5 -1t-27.5 -1z" />
<glyph unicode="&#xb9;" horiz-adv-x="641" d="M160 1229q2 29 2 65l10 13q113 15 199 32l14 -12q-4 -156 -4 -246q0 -57 3.5 -324t6.5 -323l-12 -12q-55 0 -88 -2l-12 12q2 53 2 143q0 48 -5 658l-102 -16z" />
<glyph unicode="&#xba;" horiz-adv-x="641" d="M49 1083q0 187 75 282t202 95q72 0 125.5 -33t82.5 -88.5t42.5 -117.5t13.5 -131q0 -61 -8.5 -114.5t-29 -102t-51 -83t-77 -55t-105.5 -20.5q-122 0 -196 92t-74 276zM156 1094q0 -295 166 -295q161 0 161 272q0 307 -159 307q-168 0 -168 -284z" />
<glyph unicode="&#xbb;" horiz-adv-x="724" d="M37 936l8 12h29q55 0 86 2l16 -12q27 -66 90.5 -182t98.5 -195v-22q-112 -222 -175 -373l-16 -12h-113l-8 12q128 241 178 379q-15 42 -73 161t-121 230zM336 936l8 12h29q55 0 86 2l16 -12q35 -83 101.5 -208.5t87.5 -168.5l-2 -22q-136 -271 -173 -373l-16 -12h-113 l-8 12q64 108 178 379q-47 111 -108 231t-86 160z" />
<glyph unicode="&#xbc;" horiz-adv-x="1536" d="M160 1229q2 29 2 65l10 13q113 15 199 32l14 -12q-4 -156 -4 -246q0 -57 3.5 -324t6.5 -323l-12 -12q-55 0 -88 -2l-12 12q2 53 2 143q0 48 -5 658l-102 -16zM444 14q120 269 224 533l86 217q96 245 207 551l14 12q16 -2 47 -2q25 0 39 2l8 -16q-100 -220 -244 -592 l-123 -318q-15 -40 -43.5 -112t-52.5 -136t-51 -141l-16 -12q-18 2 -39 2q-31 0 -47 -2zM932 270q2 20 2 58l6 20q20 32 152 270t149 273l14 12q78 4 103 4l12 -12l2 -553q13 0 50 1t59 1l12 -12q-4 -46 -4 -62l-14 -10h-103q0 -64 4 -248l-12 -12q-16 0 -43 -1t-35 -1 l-14 12q2 74 2 199v51q-72 0 -175.5 -1t-125.5 -1h-27zM1036 342q185 2 236 2l4 444z" />
<glyph unicode="&#xbd;" horiz-adv-x="1536" d="M160 1229q2 29 2 65l10 13q113 15 199 32l14 -12q-4 -156 -4 -246q0 -57 3.5 -324t6.5 -323l-12 -12q-55 0 -88 -2l-12 12q2 53 2 143q0 48 -5 658l-102 -16zM420 14q111 249 223 533l86 217q96 245 207 551l14 12q16 -2 47 -2q25 0 39 2l8 -16q-94 -206 -243 -592 l-123 -318q-17 -44 -44 -113t-52 -134.5t-52 -141.5l-16 -12q-18 2 -39 2q-31 0 -47 -2zM922 18q31 42 85 109t66 82q144 181 193 266.5t49 171.5q0 51 -15.5 89t-40.5 57.5t-50.5 28.5t-51.5 9q-98 0 -184 -86l-17 13q5 77 5 82l8 18q99 64 202 64q119 0 183.5 -78.5 t64.5 -192.5q0 -35 -5 -67.5t-20.5 -68.5t-25 -58t-39 -64t-40 -56.5t-50 -65.5t-49.5 -64l-94 -123q160 0 348 10l12 -14q0 -5 -3 -31.5t-3 -38.5l-16 -12q-25 2 -111 2h-281q-59 0 -112 -2z" />
<glyph unicode="&#xbe;" horiz-adv-x="1536" d="M41 479q4 32 8 80l17 8q68 -75 180 -75q94 0 143 62t49 155q0 82 -42 131t-126 49q-46 0 -92 -21l-20 21q170 291 207 352q-15 0 -137.5 -1t-147.5 -1l-12 10q0 9 1 20t2.5 25.5t2.5 22.5l14 10q18 0 103 -1t106 -1q11 0 76.5 1t134.5 1l10 -20q-72 -108 -203 -334 q60 0 105.5 -23t71 -62t37.5 -84t12 -95q0 -32 -5.5 -65.5t-24.5 -78.5t-49.5 -78.5t-87.5 -57t-132 -23.5q-113 0 -195 57zM457 14q111 249 223 533l86 217q96 245 207 551l14 12q16 -2 47 -2q25 0 39 2l8 -16q-94 -206 -243 -592l-123 -318q-17 -44 -44 -113t-52 -134.5 t-52 -141.5l-16 -12q-18 2 -39 2q-31 0 -47 -2zM932 270q2 20 2 58l6 20q20 32 152 270t149 273l14 12q78 4 103 4l12 -12l2 -553q13 0 50 1t59 1l12 -12q-4 -46 -4 -62l-14 -10h-103q0 -64 4 -248l-12 -12q-16 0 -43 -1t-35 -1l-14 12q2 74 2 199v51q-72 0 -175.5 -1 t-125.5 -1h-27zM1036 342q185 2 236 2l4 444z" />
<glyph unicode="&#xbf;" horiz-adv-x="641" d="M61 317q0 69 22.5 142.5t42.5 112t58 102.5l35 59q52 91 73 155.5t21 153.5v27l13 12q7 1 20 1.5t33 1t35 1.5l14 -12q0 -127 -21 -196.5t-90 -186.5l-38 -65q-97 -163 -97 -297q0 -107 61.5 -180.5t170.5 -73.5q108 0 223 84l12 -8q-4 -41 -4 -93l-10 -18 q-122 -64 -250 -64q-81 0 -145 29.5t-102 79t-57.5 109t-19.5 124.5zM279 1436l14 12q71 0 135 6l12 -14q0 -3 -1 -29.5t-1 -40.5t1 -43t1 -35l-12 -12q-32 -1 -133 -10l-14 12q0 2 1 28.5t1 47.5q0 28 -4 78z" />
<glyph unicode="&#xc0;" horiz-adv-x="980" d="M0 12q125 427 137 469l166 594q99 355 100 361l15 10q63 0 145 4l12 -12q79 -290 93 -336l131 -455q17 -60 82 -283.5t100 -349.5l-10 -12q-41 0 -127 -4l-13 12q-29 122 -118 471h-457q-56 -163 -117 -469l-14 -12q-18 2 -57 2q-40 0 -58 -2zM283 588q13 0 87.5 -1 t112.5 -1q39 0 118 1t81 1l-203 739zM287 1794l6 12h145l13 -12q6 -16 33 -105t48 -137l-6 -12q-14 0 -41.5 -1t-33.5 -1l-15 10q-6 11 -149 246z" />
<glyph unicode="&#xc1;" horiz-adv-x="980" d="M0 12q125 427 137 469l166 594q99 355 100 361l15 10q63 0 145 4l12 -12q79 -290 93 -336l131 -455q17 -60 82 -283.5t100 -349.5l-10 -12q-41 0 -127 -4l-13 12q-29 122 -118 471h-457q-56 -163 -117 -469l-14 -12q-18 2 -57 2q-40 0 -58 -2zM283 588q13 0 87.5 -1 t112.5 -1q39 0 118 1t81 1l-203 739zM442 1550q20 51 74 242l12 12q56 0 150 4l6 -12q-38 -58 -72 -117q-20 -32 -73 -131l-15 -10h-73z" />
<glyph unicode="&#xc2;" horiz-adv-x="980" d="M0 12q125 427 137 469l166 594q99 355 100 361l15 10q63 0 145 4l12 -12q79 -290 93 -336l131 -455q17 -60 82 -283.5t100 -349.5l-10 -12q-41 0 -127 -4l-13 12q-29 122 -118 471h-457q-56 -163 -117 -469l-14 -12q-18 2 -57 2q-40 0 -58 -2zM256 1552q59 96 135 248 l17 10q6 0 31.5 -1t39.5 -1q35 0 101 4l12 -12q21 -40 65.5 -120t67.5 -124l-6 -12l-111 -6l-14 12q-45 93 -105 203q-47 -73 -124 -201l-15 -12q-14 2 -43 2q-31 0 -45 -2zM283 588q13 0 87.5 -1t112.5 -1q39 0 118 1t81 1l-203 739z" />
<glyph unicode="&#xc3;" horiz-adv-x="980" d="M0 12q125 427 137 469l166 594q99 355 100 361l15 10q63 0 145 4l12 -12q79 -290 93 -336l131 -455q17 -60 82 -283.5t100 -349.5l-10 -12q-41 0 -127 -4l-13 12q-29 122 -118 471h-457q-56 -163 -117 -469l-14 -12q-18 2 -57 2q-40 0 -58 -2zM231 1554q2 37 2 113l7 12 q66 66 135 66q38 0 121 -37l39 -16l21 -9t21 -8.5t18.5 -5t22.5 -2.5q36 0 63 21.5t56 60.5l13 -4q-2 -39 -2 -115l-9 -14q-62 -62 -133 -62q-11 0 -23 2t-26 6.5t-22.5 7.5t-24.5 10t-21 9l-40 17q-60 24 -89 24q-61 0 -116 -82zM283 588q13 0 87.5 -1t112.5 -1q39 0 118 1 t81 1l-203 739z" />
<glyph unicode="&#xc4;" horiz-adv-x="980" d="M0 12q125 427 137 469l166 594q99 355 100 361l15 10q63 0 145 4l12 -12q79 -290 93 -336l131 -455q17 -60 82 -283.5t100 -349.5l-10 -12q-41 0 -127 -4l-13 12q-29 122 -118 471h-457q-56 -163 -117 -469l-14 -12q-18 2 -57 2q-40 0 -58 -2zM227 1585q2 20 2 70 q0 44 -2 67l15 13q72 4 110 8l13 -14q0 -18 -1.5 -52t-1.5 -39q0 -23 3 -47l-13 -12q-54 0 -110 -6zM283 588q13 0 87.5 -1t112.5 -1q39 0 118 1t81 1l-203 739zM614 1585v137l13 13q72 4 110 8l15 -14q-2 -23 -2 -68t2 -70l-13 -12q-57 0 -112 -6z" />
<glyph unicode="&#xc5;" horiz-adv-x="980" d="M0 12q125 427 137 469l166 594q99 355 100 361l15 10q63 0 145 4l12 -12q79 -290 93 -336l131 -455q17 -60 82 -283.5t100 -349.5l-10 -12q-41 0 -127 -4l-13 12q-29 122 -118 471h-457q-56 -163 -117 -469l-14 -12q-18 2 -57 2q-40 0 -58 -2zM283 588q13 0 87.5 -1 t112.5 -1q39 0 118 1t81 1l-203 739zM322 1720q0 76 51 125t121 49q75 0 122.5 -53.5t47.5 -130.5q0 -85 -45.5 -137.5t-126.5 -52.5q-87 0 -128.5 56.5t-41.5 143.5zM408 1706q0 -117 88 -117q35 0 57 28.5t22 88.5q0 47 -20 82t-63 35q-42 0 -63 -34.5t-21 -82.5z" />
<glyph unicode="&#xc6;" horiz-adv-x="1409" d="M0 8q87 217 252 637l117 295q129 323 192 496l14 12h467q210 0 314 4l10 -14q0 -3 -6 -90l-12 -11q-171 9 -224 9h-295q5 -223 5 -539h139q195 0 354 8l10 -14q-4 -30 -8 -90l-14 -11q-273 5 -324 5h-157q1 -232 8 -601h114q196 0 408 15l12 -10q-3 -25 -8 -97l-14 -12 q-51 2 -154 2h-305q-89 0 -174 -6l-10 12q2 203 2 453q-68 2 -199 2q-133 0 -201 -2q-121 -309 -168 -449l-14 -12q-80 0 -119 -4zM348 563q11 0 67 -1t83 -1q71 0 215 4q0 148 -3.5 421.5t-4.5 361.5h-64q-132 -336 -293 -785z" />
<glyph unicode="&#xc7;" horiz-adv-x="1024" d="M90 707q0 60 6.5 123t25 139.5t46.5 145.5t76 135t109 114t148.5 77t192.5 29q168 0 285 -59l8 -20q-7 -40 -14 -113l-12 -6q-18 18 -46 36t-89 37t-130 19q-89 0 -163 -30t-124 -82.5t-86.5 -117t-56.5 -140t-29.5 -144.5t-9.5 -137q0 -127 27.5 -233.5t73.5 -178 t106.5 -121t125.5 -72t132 -22.5q61 0 141.5 24t157.5 89l13 -6q-6 -62 -9 -125l-10 -17q-3 -1 -22.5 -11t-34 -16.5t-43 -16.5t-55.5 -16t-65.5 -11t-78.5 -5q-122 0 -229 47t-189.5 135.5t-130 230.5t-47.5 319zM539 -354q48 126 90 256l12 12q33 -2 84 -2l6 -12 q-20 -83 -55 -254l-12 -13q-3 0 -25 1t-31 1t-34 -1t-27 -1z" />
<glyph unicode="&#xc8;" horiz-adv-x="854" d="M131 1438l10 12q22 0 157 -1t202 -1q199 0 297 4l10 -12q0 -3 -6 -90l-15 -13q-194 6 -391 6h-125q1 -59 1.5 -168.5t1.5 -199t3 -168.5h173q209 0 315 4l14 -12q-6 -43 -6 -86l-16 -13q-130 5 -312 5l-168 -3q3 -297 9 -596h157q40 0 367 11l12 -13q-1 -10 -2.5 -29 t-2.5 -34t-1 -29l-12 -12q-6 0 -117 1t-166 1q-68 0 -204 -3t-158 -3l-13 12q5 130 5 316q0 420 -19 1114zM223 1794l6 12h146l12 -12q4 -12 32.5 -102.5t49.5 -139.5l-6 -12q-14 0 -42 -1t-34 -1l-14 10q-28 48 -84.5 140t-65.5 106z" />
<glyph unicode="&#xc9;" horiz-adv-x="854" d="M131 1438l10 12q22 0 157 -1t202 -1q199 0 297 4l10 -12q0 -3 -6 -90l-15 -13q-194 6 -391 6h-125q1 -59 1.5 -168.5t1.5 -199t3 -168.5h173q209 0 315 4l14 -12q-6 -43 -6 -86l-16 -13q-130 5 -312 5l-168 -3q3 -297 9 -596h157q40 0 367 11l12 -13q-1 -10 -2.5 -29 t-2.5 -34t-1 -29l-12 -12q-6 0 -117 1t-166 1q-68 0 -204 -3t-158 -3l-13 12q5 130 5 316q0 420 -19 1114zM379 1550q20 51 74 242l12 12q55 0 149 4l7 -12q-37 -58 -72 -117q-27 -42 -74 -131l-14 -10h-74z" />
<glyph unicode="&#xca;" horiz-adv-x="854" d="M131 1438l10 12q22 0 157 -1t202 -1q199 0 297 4l10 -12q0 -3 -6 -90l-15 -13q-194 6 -391 6h-125q1 -59 1.5 -168.5t1.5 -199t3 -168.5h173q209 0 315 4l14 -12q-6 -43 -6 -86l-16 -13q-130 5 -312 5l-168 -3q3 -297 9 -596h157q40 0 367 11l12 -13q-1 -10 -2.5 -29 t-2.5 -34t-1 -29l-12 -12q-6 0 -117 1t-166 1q-68 0 -204 -3t-158 -3l-13 12q5 130 5 316q0 420 -19 1114zM193 1552q59 96 135 248l16 10q6 0 32 -1t40 -1q34 0 100 4l12 -12q21 -40 66 -120t68 -124l-7 -12l-110 -6l-15 12q-53 110 -104 203q-60 -91 -125 -201l-14 -12 q-14 2 -43 2q-31 0 -45 -2z" />
<glyph unicode="&#xcb;" horiz-adv-x="854" d="M131 1438l10 12q22 0 157 -1t202 -1q199 0 297 4l10 -12q0 -3 -6 -90l-15 -13q-194 6 -391 6h-125q1 -59 1.5 -168.5t1.5 -199t3 -168.5h173q209 0 315 4l14 -12q-6 -43 -6 -86l-16 -13q-130 5 -312 5l-168 -3q3 -297 9 -596h157q40 0 367 11l12 -13q-1 -10 -2.5 -29 t-2.5 -34t-1 -29l-12 -12q-6 0 -117 1t-166 1q-68 0 -204 -3t-158 -3l-13 12q5 130 5 316q0 420 -19 1114zM166 1585q2 20 2 70q0 44 -2 67l14 13q74 4 111 8l12 -14q0 -18 -1 -52t-1 -39q0 -31 2 -47l-12 -12q-55 0 -111 -6zM553 1585v137l12 13q74 4 111 8l14 -14 q-2 -23 -2 -68t2 -70l-12 -12q-57 0 -113 -6z" />
<glyph unicode="&#xcc;" horiz-adv-x="425" d="M10 1794l6 12h146l12 -12q4 -12 32.5 -102.5t49.5 -139.5l-6 -12q-14 0 -42 -1t-34 -1l-14 10q-28 48 -84.5 140t-65.5 106zM131 1436l12 10q43 0 125 4l13 -12q-2 -92 -2 -291v-154q0 -675 18 -981l-14 -12q-82 0 -125 -4l-11 12q5 272 5 324q0 209 -5.5 614t-15.5 490z " />
<glyph unicode="&#xcd;" horiz-adv-x="425" d="M131 1436l12 10q43 0 125 4l13 -12q-2 -92 -2 -291v-154q0 -675 18 -981l-14 -12q-82 0 -125 -4l-11 12q5 272 5 324q0 209 -5.5 614t-15.5 490zM168 1550q20 51 74 242l12 12q55 0 149 4l7 -12q-38 -58 -72 -117q-27 -42 -74 -131l-14 -10h-74z" />
<glyph unicode="&#xce;" horiz-adv-x="425" d="M-20 1552q59 96 135 248l16 10q6 0 32 -1t40 -1q34 0 100 4l12 -12q21 -40 66 -120t68 -124l-7 -12l-110 -6l-15 12q-53 110 -104 203q-60 -91 -125 -201l-14 -12q-14 2 -43 2q-31 0 -45 -2zM131 1436l12 10q43 0 125 4l13 -12q-2 -92 -2 -291v-154q0 -675 18 -981 l-14 -12q-82 0 -125 -4l-11 12q5 272 5 324q0 209 -5.5 614t-15.5 490z" />
<glyph unicode="&#xcf;" horiz-adv-x="425" d="M-47 1585q2 20 2 70q0 44 -2 67l14 13q74 4 111 8l12 -14q0 -18 -1 -52t-1 -39q0 -31 2 -47l-12 -12q-56 0 -111 -6zM131 1436l12 10q43 0 125 4l13 -12q-2 -92 -2 -291v-154q0 -675 18 -981l-14 -12q-82 0 -125 -4l-11 12q5 272 5 324q0 209 -5.5 614t-15.5 490z M340 1585v137l12 13q74 4 111 8l14 -14q-2 -23 -2 -68t2 -70l-12 -12q-57 0 -113 -6z" />
<glyph unicode="&#xd0;" horiz-adv-x="1193" d="M0 731q0 2 1 16t1 21q0 8 -1 25t-1 20l12 12q113 -2 133 -2q-3 288 -14 613l10 10q54 0 174 3t189 3q208 0 323 -59q277 -143 277 -631q0 -212 -57.5 -373t-157.5 -252q-43 -39 -91.5 -66t-146.5 -49t-227 -22q-69 0 -159 -2t-107 -2l-11 12q3 159 3 289q0 42 -1.5 189.5 t-1.5 234.5h-135zM274 1147q0 -217 2 -326q99 0 381 4l13 -12q-2 -12 -2 -41q0 -27 2 -41l-13 -12q-212 4 -315 4h-66q1 -54 2 -270.5t7 -350.5h170q83 0 147 11t125 47q53 31 94.5 79t66.5 105t42.5 114.5t25 121t10.5 109t3 93.5q0 89 -11.5 167t-39 154t-79.5 132.5 t-126 83.5q-77 29 -219 29l-220 -5v-196z" />
<glyph unicode="&#xd1;" horiz-adv-x="1193" d="M135 1434l15 12q55 0 169 4l15 -12q60 -124 614 -1329q-6 230 -12.5 650.5t-15.5 676.5l12 10q34 0 104 4l11 -12q-5 -273 -5 -328q0 -600 19 -1098l-12 -10q-89 0 -177 -6l-14 12q-17 36 -58.5 128t-184.5 404t-363 791q3 -160 8 -601.5t14 -717.5l-12 -12 q-67 0 -100 -4l-12 12q2 123 2 363q0 562 -17 1063zM340 1554q2 37 2 113l6 12q66 66 135 66q38 0 121 -37l39 -16q7 -3 21.5 -9t21.5 -8.5t18.5 -5t22.5 -2.5q36 0 63 21.5t56 60.5l12 -4q-2 -39 -2 -115l-8 -14q-62 -62 -133 -62q-11 0 -23 2t-26 6.5t-22.5 7.5t-24.5 10 t-21 9l-41 17q-60 24 -88 24q-62 0 -117 -82z" />
<glyph unicode="&#xd2;" horiz-adv-x="1280" d="M90 727q0 164 35.5 299.5t104 234.5t176 154t245.5 55q174 0 296.5 -94.5t182.5 -261t60 -391.5q0 -121 -19.5 -229.5t-62.5 -204t-106 -165t-156 -109.5t-207 -40q-111 0 -202 38t-154.5 106t-107.5 162.5t-64.5 206.5t-20.5 239zM223 731q0 -94 12 -182t43 -175 t77.5 -151t121 -103.5t168.5 -39.5q75 0 136.5 24.5t103.5 64t74 96t50 113.5t29.5 123t15 118.5t3.5 105.5q0 108 -14 201.5t-45.5 175.5t-78.5 140.5t-116.5 92t-155.5 33.5q-79 0 -144.5 -27.5t-108.5 -70t-75.5 -102.5t-50 -117.5t-28.5 -122.5t-14 -110t-3 -87z M438 1794l6 12h146l12 -12q4 -12 32.5 -102.5t49.5 -139.5l-6 -12q-14 0 -42 -1t-34 -1l-14 10q-28 48 -84.5 140t-65.5 106z" />
<glyph unicode="&#xd3;" horiz-adv-x="1280" d="M90 727q0 164 35.5 299.5t104 234.5t176 154t245.5 55q174 0 296.5 -94.5t182.5 -261t60 -391.5q0 -121 -19.5 -229.5t-62.5 -204t-106 -165t-156 -109.5t-207 -40q-111 0 -202 38t-154.5 106t-107.5 162.5t-64.5 206.5t-20.5 239zM223 731q0 -94 12 -182t43 -175 t77.5 -151t121 -103.5t168.5 -39.5q75 0 136.5 24.5t103.5 64t74 96t50 113.5t29.5 123t15 118.5t3.5 105.5q0 108 -14 201.5t-45.5 175.5t-78.5 140.5t-116.5 92t-155.5 33.5q-79 0 -144.5 -27.5t-108.5 -70t-75.5 -102.5t-50 -117.5t-28.5 -122.5t-14 -110t-3 -87z M592 1550q20 51 74 242l12 12q55 0 149 4l7 -12q-38 -58 -72 -117q-27 -42 -74 -131l-14 -10h-74z" />
<glyph unicode="&#xd4;" horiz-adv-x="1280" d="M90 727q0 164 35.5 299.5t104 234.5t176 154t245.5 55q174 0 296.5 -94.5t182.5 -261t60 -391.5q0 -121 -19.5 -229.5t-62.5 -204t-106 -165t-156 -109.5t-207 -40q-111 0 -202 38t-154.5 106t-107.5 162.5t-64.5 206.5t-20.5 239zM223 731q0 -94 12 -182t43 -175 t77.5 -151t121 -103.5t168.5 -39.5q75 0 136.5 24.5t103.5 64t74 96t50 113.5t29.5 123t15 118.5t3.5 105.5q0 108 -14 201.5t-45.5 175.5t-78.5 140.5t-116.5 92t-155.5 33.5q-79 0 -144.5 -27.5t-108.5 -70t-75.5 -102.5t-50 -117.5t-28.5 -122.5t-14 -110t-3 -87z M406 1552q59 96 135 248l16 10q6 0 32 -1t40 -1q34 0 100 4l12 -12q21 -40 65.5 -120t67.5 -124l-6 -12l-110 -6l-15 12q-53 110 -104 203q-59 -91 -125 -201l-14 -12q-14 2 -43 2q-31 0 -45 -2z" />
<glyph unicode="&#xd5;" horiz-adv-x="1280" d="M90 727q0 164 35.5 299.5t104 234.5t176 154t245.5 55q174 0 296.5 -94.5t182.5 -261t60 -391.5q0 -121 -19.5 -229.5t-62.5 -204t-106 -165t-156 -109.5t-207 -40q-111 0 -202 38t-154.5 106t-107.5 162.5t-64.5 206.5t-20.5 239zM223 731q0 -94 12 -182t43 -175 t77.5 -151t121 -103.5t168.5 -39.5q75 0 136.5 24.5t103.5 64t74 96t50 113.5t29.5 123t15 118.5t3.5 105.5q0 108 -14 201.5t-45.5 175.5t-78.5 140.5t-116.5 92t-155.5 33.5q-79 0 -144.5 -27.5t-108.5 -70t-75.5 -102.5t-50 -117.5t-28.5 -122.5t-14 -110t-3 -87z M381 1554q2 37 2 113l6 12q66 66 135 66q38 0 121 -37l39 -16q7 -3 21.5 -9t21.5 -8.5t18.5 -5t22.5 -2.5q36 0 63 21.5t56 60.5l12 -4q-2 -39 -2 -115l-8 -14q-62 -62 -133 -62q-11 0 -23 2t-26 6.5t-22.5 7.5t-24.5 10t-21 9l-41 17q-60 24 -88 24q-62 0 -117 -82z" />
<glyph unicode="&#xd6;" horiz-adv-x="1280" d="M90 727q0 164 35.5 299.5t104 234.5t176 154t245.5 55q174 0 296.5 -94.5t182.5 -261t60 -391.5q0 -121 -19.5 -229.5t-62.5 -204t-106 -165t-156 -109.5t-207 -40q-111 0 -202 38t-154.5 106t-107.5 162.5t-64.5 206.5t-20.5 239zM223 731q0 -94 12 -182t43 -175 t77.5 -151t121 -103.5t168.5 -39.5q75 0 136.5 24.5t103.5 64t74 96t50 113.5t29.5 123t15 118.5t3.5 105.5q0 108 -14 201.5t-45.5 175.5t-78.5 140.5t-116.5 92t-155.5 33.5q-79 0 -144.5 -27.5t-108.5 -70t-75.5 -102.5t-50 -117.5t-28.5 -122.5t-14 -110t-3 -87z M375 1585q2 20 2 70q0 44 -2 67l14 13q74 4 111 8l12 -14q0 -18 -1 -52t-1 -39q0 -31 2 -47l-12 -12q-56 0 -111 -6zM762 1585v137l12 13q74 4 111 8l14 -14q-2 -23 -2 -68t2 -70l-12 -12q-57 0 -113 -6z" />
<glyph unicode="&#xd7;" horiz-adv-x="1253" d="M242 287l80 80q39 39 76.5 76t55 54.5l44 44t59.5 62.5q-166 173 -315 320v12l71 70h13q24 -31 72 -82t119.5 -124t113.5 -118l299 324h12l66 -66v-12q-227 -227 -312 -322q109 -110 316 -317v-10l-74 -72h-10q-28 32 -76.5 83.5t-116.5 122t-112 117.5l-301 -323h-13 q-29 33 -65 67z" />
<glyph unicode="&#xd8;" horiz-adv-x="1280" d="M39 29v20q51 47 166 180q-115 207 -115 492q0 344 148.5 546.5t410.5 202.5q265 0 404 -208q29 33 78 95t65 81l18 -2q36 -36 62 -54l-2 -18q-3 -3 -172 -190q88 -168 88 -453q0 -120 -20 -228.5t-63.5 -203.5t-106.5 -164.5t-155 -109.5t-204 -40q-240 0 -379 172 q-26 -29 -73.5 -89.5t-69.5 -86.5h-17q-39 39 -63 58zM221 729q0 -97 19 -205t53 -190l680 827q-13 32 -35 62.5t-60 66.5t-98 58t-133 22q-98 0 -174.5 -41t-122.5 -105.5t-76.5 -152t-41.5 -171t-11 -171.5zM342 246q48 -84 129 -126t178 -42q73 0 134 24t102.5 63.5 t73.5 95.5t50.5 114t30 125t15.5 123t4 114q0 173 -47 330z" />
<glyph unicode="&#xd9;" horiz-adv-x="1150" d="M141 1436l13 10q61 0 127 4l12 -12q-12 -131 -12 -854q0 -197 30.5 -297.5t100.5 -151.5q71 -49 157 -49q191 0 267 156q19 38 29.5 80t15 109t5.5 118.5t1 163.5q0 65 -5 370.5t-8 350.5l15 12q20 0 62 2t46 2l13 -12q0 -107 -2 -324t-2 -233v-265q0 -79 -1 -122.5 t-5.5 -102t-14.5 -94.5t-26.5 -78t-43 -76.5t-63.5 -68.5q-108 -99 -283 -99q-159 0 -266 84q-51 40 -84.5 93t-48.5 117t-20 118.5t-5 128.5v627q0 195 -4 293zM375 1794l6 12h145l13 -12q4 -12 32.5 -102.5t49.5 -139.5l-7 -12q-14 0 -41.5 -1t-33.5 -1l-15 10 q-6 11 -149 246z" />
<glyph unicode="&#xda;" horiz-adv-x="1150" d="M141 1436l13 10q61 0 127 4l12 -12q-12 -131 -12 -854q0 -197 30.5 -297.5t100.5 -151.5q71 -49 157 -49q191 0 267 156q19 38 29.5 80t15 109t5.5 118.5t1 163.5q0 65 -5 370.5t-8 350.5l15 12q20 0 62 2t46 2l13 -12q0 -107 -2 -324t-2 -233v-265q0 -79 -1 -122.5 t-5.5 -102t-14.5 -94.5t-26.5 -78t-43 -76.5t-63.5 -68.5q-108 -99 -283 -99q-159 0 -266 84q-51 40 -84.5 93t-48.5 117t-20 118.5t-5 128.5v627q0 195 -4 293zM528 1550q20 51 74 242l12 12q56 0 150 4l6 -12q-38 -58 -72 -117q-20 -32 -73 -131l-15 -10h-73z" />
<glyph unicode="&#xdb;" horiz-adv-x="1150" d="M141 1436l13 10q61 0 127 4l12 -12q-12 -131 -12 -854q0 -197 30.5 -297.5t100.5 -151.5q71 -49 157 -49q191 0 267 156q19 38 29.5 80t15 109t5.5 118.5t1 163.5q0 65 -5 370.5t-8 350.5l15 12q20 0 62 2t46 2l13 -12q0 -107 -2 -324t-2 -233v-265q0 -79 -1 -122.5 t-5.5 -102t-14.5 -94.5t-26.5 -78t-43 -76.5t-63.5 -68.5q-108 -99 -283 -99q-159 0 -266 84q-51 40 -84.5 93t-48.5 117t-20 118.5t-5 128.5v627q0 195 -4 293zM342 1552q59 96 135 248l17 10q6 0 31.5 -1t39.5 -1q35 0 101 4l12 -12q21 -40 65.5 -120t67.5 -124l-6 -12 l-111 -6l-14 12q-45 93 -105 203q-47 -73 -124 -201l-15 -12q-14 2 -43 2q-31 0 -45 -2z" />
<glyph unicode="&#xdc;" horiz-adv-x="1150" d="M141 1436l13 10q61 0 127 4l12 -12q-12 -131 -12 -854q0 -197 30.5 -297.5t100.5 -151.5q71 -49 157 -49q191 0 267 156q19 38 29.5 80t15 109t5.5 118.5t1 163.5q0 65 -5 370.5t-8 350.5l15 12q20 0 62 2t46 2l13 -12q0 -107 -2 -324t-2 -233v-265q0 -79 -1 -122.5 t-5.5 -102t-14.5 -94.5t-26.5 -78t-43 -76.5t-63.5 -68.5q-108 -99 -283 -99q-159 0 -266 84q-51 40 -84.5 93t-48.5 117t-20 118.5t-5 128.5v627q0 195 -4 293zM311 1585q2 20 2 70q0 44 -2 67l15 13q72 4 110 8l13 -14q0 -18 -1.5 -52t-1.5 -39q0 -23 3 -47l-13 -12 q-55 0 -110 -6zM698 1585v137l13 13q72 4 110 8l15 -14q-2 -23 -2 -68t2 -70l-13 -12q-57 0 -112 -6z" />
<glyph unicode="&#xdd;" horiz-adv-x="854" d="M0 1430l10 14q82 4 123 8l14 -12q50 -151 281 -738l158 375q91 221 137 359l16 10h105l10 -14q-39 -80 -103 -232t-83 -194l-185 -412q0 -51 11 -582l-13 -12q-41 0 -119 -4l-12 12q0 86 2 250.5t2 208.5q0 80 -2 119l-174 418q-130 314 -178 426zM377 1550q20 51 74 242 l12 12q55 0 149 4l6 -12q-25 -39 -71 -117q-27 -42 -74 -131l-14 -10h-74z" />
<glyph unicode="&#xde;" horiz-adv-x="894" d="M131 1436l10 10q33 0 127 4l13 -12v-234q36 0 98 2t84 2q55 0 104.5 -8.5t105.5 -36t96 -71.5t66.5 -121.5t26.5 -179.5q0 -134 -57 -240q-27 -49 -62 -86t-77.5 -59t-79 -35.5t-88.5 -18.5t-83.5 -6.5t-84.5 -1.5h-43q3 -172 8 -332l-12 -12h-35q-57 0 -90 -4l-13 12 q0 63 2.5 172t2.5 152q0 617 -19 1104zM279 791q0 -74 3 -193.5t3 -151.5h69q52 0 89 4t83.5 17.5t84.5 45t67 81.5q49 80 49 207q0 104 -37 174q-37 73 -98 102t-176 29q-25 0 -75 -1t-60 -1q0 -25 -1 -136.5t-1 -176.5z" />
<glyph unicode="&#xdf;" horiz-adv-x="854" d="M111 8q6 516 6 651v332q0 142 6 217.5t29 134.5q33 87 103 138t161 51q90 0 155.5 -44t96 -111t30.5 -148q0 -90 -31 -160.5t-89 -148.5l-31 -41q-37 -49 -37 -76q0 -32 43 -82l84 -100q107 -128 144.5 -193.5t37.5 -151.5q0 -38 -8.5 -76.5t-30 -77.5t-52 -69.5 t-79.5 -49.5t-108 -19q-94 0 -172 39l-9 14q5 77 5 96l10 6q71 -57 145 -57q85 0 127.5 54t42.5 132q0 29 -4 49.5t-31.5 70t-81.5 114.5l-100 123q-58 72 -74 99t-16 54t11 50t42 67l29 41q110 158 110 283q0 46 -15 94.5t-53.5 88.5t-90.5 40q-37 0 -76.5 -26t-65.5 -87 q-24 -53 -30 -146t-6 -286q0 -155 3.5 -486.5t8.5 -398.5l-12 -12q-78 0 -117 -4z" />
<glyph unicode="&#xe0;" horiz-adv-x="811" d="M55 303q0 73 19 130.5t51 97t81.5 70t103 49t122.5 32.5l137 29v26q0 47 -3 78t-14 62.5t-31 49.5t-55 29t-85 11q-56 0 -104 -13.5t-69.5 -26t-51.5 -34.5l-15 8q5 25 9 98l10 17q43 18 70 27.5t77.5 17.5t114.5 8q266 0 266 -281v-505q0 -166 12 -269l-12 -14 q-71 0 -106 -4l-11 12q0 23 -2 60q-107 -86 -227 -86q-123 0 -205 86t-82 235zM180 309q0 -99 49.5 -162t137.5 -63q22 0 43.5 3.5t40 11t33 15t29.5 18.5t23 17t19.5 16.5t13.5 12.5v432l-116 -26q-38 -8 -65.5 -16t-70 -29t-69.5 -48.5t-47.5 -74.5t-20.5 -107zM229 1434 l7 12q33 -2 69 -2q37 0 68 2l12 -12q32 -126 72 -267l-11 -12q-7 0 -33 -2t-32 -2l-12 12q-52 110 -140 271z" />
<glyph unicode="&#xe1;" horiz-adv-x="811" d="M55 303q0 73 19 130.5t51 97t81.5 70t103 49t122.5 32.5l137 29v26q0 47 -3 78t-14 62.5t-31 49.5t-55 29t-85 11q-56 0 -104 -13.5t-69.5 -26t-51.5 -34.5l-15 8q5 25 9 98l10 17q43 18 70 27.5t77.5 17.5t114.5 8q266 0 266 -281v-505q0 -166 12 -269l-12 -14 q-71 0 -106 -4l-11 12q0 23 -2 60q-107 -86 -227 -86q-123 0 -205 86t-82 235zM180 309q0 -99 49.5 -162t137.5 -63q22 0 43.5 3.5t40 11t33 15t29.5 18.5t23 17t19.5 16.5t13.5 12.5v432l-116 -26q-38 -8 -65.5 -16t-70 -29t-69.5 -48.5t-47.5 -74.5t-20.5 -107zM365 1165 q3 11 42 129.5t46 143.5l14 12q31 -2 70 -2q34 0 65 2l6 -12q-74 -125 -151 -277l-13 -10q-23 2 -51 2h-22z" />
<glyph unicode="&#xe2;" horiz-adv-x="811" d="M55 303q0 73 19 130.5t51 97t81.5 70t103 49t122.5 32.5l137 29v26q0 47 -3 78t-14 62.5t-31 49.5t-55 29t-85 11q-56 0 -104 -13.5t-69.5 -26t-51.5 -34.5l-15 8q5 25 9 98l10 17q43 18 70 27.5t77.5 17.5t114.5 8q266 0 266 -281v-505q0 -166 12 -269l-12 -14 q-71 0 -106 -4l-11 12q0 23 -2 60q-107 -86 -227 -86q-123 0 -205 86t-82 235zM180 309q0 -99 49.5 -162t137.5 -63q22 0 43.5 3.5t40 11t33 15t29.5 18.5t23 17t19.5 16.5t13.5 12.5v432l-116 -26q-38 -8 -65.5 -16t-70 -29t-69.5 -48.5t-47.5 -74.5t-20.5 -107zM205 1163 q19 34 61.5 123t67.5 148l12 12q2 0 32 -1t42 -1t35 1t26 1l13 -12q81 -207 108 -271l-10 -12q-29 2 -98 2l-13 12q-25 73 -73 205q-67 -129 -103 -207l-14 -10q-7 0 -17 1t-14 1q-7 0 -20 -1t-27 -1z" />
<glyph unicode="&#xe3;" horiz-adv-x="811" d="M55 303q0 73 19 130.5t51 97t81.5 70t103 49t122.5 32.5l137 29v26q0 47 -3 78t-14 62.5t-31 49.5t-55 29t-85 11q-56 0 -104 -13.5t-69.5 -26t-51.5 -34.5l-15 8q5 25 9 98l10 17q43 18 70 27.5t77.5 17.5t114.5 8q266 0 266 -281v-505q0 -166 12 -269l-12 -14 q-71 0 -106 -4l-11 12q0 23 -2 60q-107 -86 -227 -86q-123 0 -205 86t-82 235zM180 309q0 -99 49.5 -162t137.5 -63q22 0 43.5 3.5t40 11t33 15t29.5 18.5t23 17t19.5 16.5t13.5 12.5v432l-116 -26q-38 -8 -65.5 -16t-70 -29t-69.5 -48.5t-47.5 -74.5t-20.5 -107zM180 1192 q2 35 2 102l6 19q49 49 119 49q50 0 105 -27l37 -18q43 -21 71 -21q61 0 109 68l12 -6q-4 -66 -4 -101l-6 -18q-18 -18 -28.5 -26.5t-34.5 -16.5t-56 -8q-49 0 -102 26l-39 19q-38 18 -74 18q-33 0 -52.5 -13t-51.5 -52z" />
<glyph unicode="&#xe4;" horiz-adv-x="811" d="M55 303q0 73 19 130.5t51 97t81.5 70t103 49t122.5 32.5l137 29v26q0 47 -3 78t-14 62.5t-31 49.5t-55 29t-85 11q-56 0 -104 -13.5t-69.5 -26t-51.5 -34.5l-15 8q5 25 9 98l10 17q43 18 70 27.5t77.5 17.5t114.5 8q266 0 266 -281v-505q0 -166 12 -269l-12 -14 q-71 0 -106 -4l-11 12q0 23 -2 60q-107 -86 -227 -86q-123 0 -205 86t-82 235zM176 1214q2 31 2 66q0 39 -2 72l14 12q42 0 109 6l12 -12q-2 -61 -2 -137l-10 -13q-35 0 -111 -6zM180 309q0 -99 49.5 -162t137.5 -63q22 0 43.5 3.5t40 11t33 15t29.5 18.5t23 17t19.5 16.5 t13.5 12.5v432l-116 -26q-38 -8 -65.5 -16t-70 -29t-69.5 -48.5t-47.5 -74.5t-20.5 -107zM492 1214q2 29 2 66q0 41 -2 72l12 12q32 0 112 6l13 -12q-2 -61 -2 -137l-13 -13q-32 0 -112 -6z" />
<glyph unicode="&#xe5;" horiz-adv-x="811" d="M55 303q0 73 19 130.5t51 97t81.5 70t103 49t122.5 32.5l137 29v26q0 47 -3 78t-14 62.5t-31 49.5t-55 29t-85 11q-56 0 -104 -13.5t-69.5 -26t-51.5 -34.5l-15 8q5 25 9 98l10 17q43 18 70 27.5t77.5 17.5t114.5 8q266 0 266 -281v-505q0 -166 12 -269l-12 -14 q-71 0 -106 -4l-11 12q0 23 -2 60q-107 -86 -227 -86q-123 0 -205 86t-82 235zM180 309q0 -99 49.5 -162t137.5 -63q22 0 43.5 3.5t40 11t33 15t29.5 18.5t23 17t19.5 16.5t13.5 12.5v432l-116 -26q-38 -8 -65.5 -16t-70 -29t-69.5 -48.5t-47.5 -74.5t-20.5 -107zM236 1327 q0 79 45.5 136t128.5 57q27 0 55 -10.5t54.5 -31.5t43.5 -60.5t17 -90.5q0 -79 -47.5 -130.5t-124.5 -51.5q-79 0 -125.5 52.5t-46.5 129.5zM326 1325q0 -16 3 -31.5t11 -34.5t26 -30.5t44 -11.5q41 0 60 33.5t19 80.5q0 54 -23 84.5t-58 30.5q-38 0 -60 -30.5t-22 -90.5z " />
<glyph unicode="&#xe6;" horiz-adv-x="1323" d="M51 303q0 92 35.5 160.5t97 107t134 56.5t157.5 18h86v115q0 209 -176 209q-101 0 -219 -78l-12 8q1 14 6 98l14 21q127 53 232 53q106 0 167 -47t80 -125q53 87 126.5 128.5t154.5 41.5q168 0 260 -147q80 -122 80 -359l-14 -14h-578v-39q0 -202 85 -314t241 -112 q135 0 223 78l14 -6q-7 -67 -8 -107l-10 -16q-94 -56 -236 -56q-70 0 -127 14t-97.5 41t-66.5 53.5t-51 61.5q-76 -84 -142.5 -122.5t-154.5 -38.5q-67 0 -120.5 22t-86.5 55.5t-55 77.5t-30.5 84t-8.5 78zM176 313q0 -89 51 -156t135 -67q58 0 124 40t116 108 q-45 118 -45 256q0 10 1 30.5t1 24.5h-65q-318 0 -318 -236zM686 645h459v29q0 42 -12 90.5t-36 97.5t-69 81t-102 32q-78 0 -142 -68q-85 -91 -98 -262z" />
<glyph unicode="&#xe7;" horiz-adv-x="724" d="M78 512q0 258 107 408.5t311 150.5q87 0 184 -41l10 -16q-8 -69 -10 -107l-12 -6q-67 64 -170 64q-56 0 -101.5 -19.5t-74.5 -49.5t-51 -73t-33 -82.5t-17.5 -86.5t-8 -76.5t-1.5 -59.5q0 -59 5.5 -110.5t24 -114t49.5 -106t87 -73.5t131 -30q108 0 186 72l11 -6 q0 -11 -1.5 -26.5t-3.5 -40t-4 -46.5l-10 -19q-80 -41 -188 -41q-203 0 -311.5 138.5t-108.5 396.5zM344 -354q48 126 90 256l12 12q33 -2 84 -2l7 -12q-28 -118 -56 -254l-12 -13q-3 0 -24.5 1t-30.5 1t-34.5 -1t-27.5 -1z" />
<glyph unicode="&#xe8;" horiz-adv-x="854" d="M78 528q0 250 106.5 395.5t278.5 145.5q93 0 158 -39t102 -92q84 -121 84 -383l-14 -12h-588v-17q0 -95 18.5 -173t57 -140t104.5 -96.5t154 -34.5q123 0 219 80l14 -8q-8 -55 -8 -105l-12 -16q-75 -56 -242 -56q-208 0 -320 146.5t-112 404.5zM213 641h461v29 q0 85 -21 147.5t-55 95t-69.5 47.5t-71.5 15q-98 0 -164.5 -90t-79.5 -244zM248 1434l6 12q33 -2 70 -2q36 0 67 2l12 -12q31 -126 72 -267l-10 -12q-7 0 -33.5 -2t-32.5 -2l-12 12q-58 123 -139 271z" />
<glyph unicode="&#xe9;" horiz-adv-x="854" d="M78 528q0 250 106.5 395.5t278.5 145.5q93 0 158 -39t102 -92q84 -121 84 -383l-14 -12h-588v-17q0 -95 18.5 -173t57 -140t104.5 -96.5t154 -34.5q123 0 219 80l14 -8q-8 -55 -8 -105l-12 -16q-75 -56 -242 -56q-208 0 -320 146.5t-112 404.5zM213 641h461v29 q0 85 -21 147.5t-55 95t-69.5 47.5t-71.5 15q-98 0 -164.5 -90t-79.5 -244zM383 1165q3 11 42 129.5t46 143.5l14 12q31 -2 70 -2q35 0 66 2l6 -12q-81 -136 -152 -277l-12 -10q-23 2 -51 2h-23z" />
<glyph unicode="&#xea;" horiz-adv-x="854" d="M78 528q0 250 106.5 395.5t278.5 145.5q93 0 158 -39t102 -92q84 -121 84 -383l-14 -12h-588v-17q0 -95 18.5 -173t57 -140t104.5 -96.5t154 -34.5q123 0 219 80l14 -8q-8 -55 -8 -105l-12 -16q-75 -56 -242 -56q-208 0 -320 146.5t-112 404.5zM213 641h461v29 q0 85 -21 147.5t-55 95t-69.5 47.5t-71.5 15q-98 0 -164.5 -90t-79.5 -244zM246 1163q19 34 61.5 123t67.5 148l12 12q3 0 33 -1t41 -1t35 1t26 1l13 -12q81 -207 108 -271l-10 -12q-29 2 -98 2l-13 12q-25 73 -73 205q-67 -129 -103 -207l-14 -10q-6 0 -17 1t-14 1 q-7 0 -20 -1t-27 -1z" />
<glyph unicode="&#xeb;" horiz-adv-x="854" d="M78 528q0 250 106.5 395.5t278.5 145.5q93 0 158 -39t102 -92q84 -121 84 -383l-14 -12h-588v-17q0 -95 18.5 -173t57 -140t104.5 -96.5t154 -34.5q123 0 219 80l14 -8q-8 -55 -8 -105l-12 -16q-75 -56 -242 -56q-208 0 -320 146.5t-112 404.5zM213 641h461v29 q0 85 -21 147.5t-55 95t-69.5 47.5t-71.5 15q-98 0 -164.5 -90t-79.5 -244zM221 1214q2 31 2 66q0 39 -2 72l15 12q40 0 108 6l12 -12q-2 -61 -2 -137l-10 -13q-34 0 -111 -6zM537 1214q2 29 2 66q0 41 -2 72l12 12q33 0 113 6l12 -12q-2 -61 -2 -137l-13 -13q-33 0 -112 -6 z" />
<glyph unicode="&#xec;" horiz-adv-x="382" d="M14 1434l6 12q33 -2 70 -2t68 2l12 -12q32 -126 72 -267l-11 -12q-7 0 -33 -2t-32 -2l-12 12q-52 110 -140 271zM125 1028l12 10q54 8 121 21l12 -12q-10 -202 -10 -365q0 -118 10 -670l-12 -12q-80 0 -119 -4l-12 12q8 200 8 449q0 381 -10 571z" />
<glyph unicode="&#xed;" horiz-adv-x="382" d="M125 1028l12 10q54 8 121 21l12 -12q-10 -202 -10 -365q0 -118 10 -670l-12 -12q-80 0 -119 -4l-12 12q8 200 8 449q0 381 -10 571zM150 1165q3 11 42 129.5t46 143.5l14 12q31 -2 70 -2q34 0 65 2l6 -12q-74 -125 -151 -277l-13 -10q-23 2 -51 2h-22z" />
<glyph unicode="&#xee;" horiz-adv-x="382" d="M-10 1163q19 34 61.5 123t67.5 148l12 12q3 0 33 -1t41 -1q12 0 35.5 1t25.5 1l13 -12q81 -207 108 -271l-10 -12q-29 2 -98 2l-13 12q-25 73 -73 205q-67 -129 -103 -207l-14 -10q-6 0 -17 1t-14 1q-7 0 -20 -1t-27 -1zM125 1028l12 10q54 8 121 21l12 -12 q-10 -202 -10 -365q0 -118 10 -670l-12 -12q-80 0 -119 -4l-12 12q8 200 8 449q0 381 -10 571z" />
<glyph unicode="&#xef;" horiz-adv-x="382" d="M-35 1214q2 31 2 66q0 39 -2 72l15 12q41 0 108 6l12 -12q-2 -61 -2 -137l-10 -13q-34 0 -111 -6zM125 1028l12 10q54 8 121 21l12 -12q-10 -202 -10 -365q0 -118 10 -670l-12 -12q-80 0 -119 -4l-12 12q8 200 8 449q0 381 -10 571zM281 1214q2 29 2 66q0 41 -2 72l12 12 q33 0 113 6l12 -12q-2 -61 -2 -137l-13 -13q-33 0 -112 -6z" />
<glyph unicode="&#xf0;" d="M78 518q0 97 14 178t37.5 136.5t56 99t66.5 68.5t73 41.5t72 22t66 5.5q75 0 126 -25t97 -67q-38 141 -119 283q-21 -6 -114 -29.5t-148 -42.5l-18 4q-5 14 -12 27t-13 24t-8 14l6 13q46 14 127.5 34t124.5 33q-89 119 -197 197l9 14q30 8 106 35l16 -6q25 -23 48.5 -47 t39 -40t33.5 -38.5t24.5 -31t22 -29t15.5 -21.5q13 4 65.5 19t81.5 22l23 -6q9 -25 30 -62l-4 -16q-29 -8 -79 -21t-62 -16q178 -312 178 -735q0 -81 -8.5 -153t-34 -152t-67.5 -137.5t-114.5 -95t-168.5 -37.5q-178 0 -284.5 134.5t-106.5 403.5zM211 532q0 -452 262 -452 q66 0 115 32t75 77.5t42 108t20 108.5t4 94q0 105 -16 188.5t-42.5 135.5t-62 86t-71 47.5t-74.5 13.5q-71 0 -122 -36t-78.5 -100t-39.5 -138.5t-12 -164.5z" />
<glyph unicode="&#xf1;" d="M123 1026l8 12q52 7 123 21l12 -12q-9 -84 -10 -113q76 64 145.5 98.5t153.5 34.5q147 0 217 -119q28 -50 34.5 -108.5t6.5 -204.5q0 -513 8 -623l-12 -12q-58 0 -117 -4l-12 12q10 157 10 572q0 69 -2 114t-8 92.5t-17.5 75.5t-31 52t-48.5 34t-69 10q-126 0 -256 -137 v-235q0 -336 10 -574l-12 -12q-76 0 -117 -4l-12 12q6 196 6 393q0 418 -10 625zM244 1192q2 35 2 102l6 19q49 49 119 49q49 0 104 -27l37 -18q44 -21 72 -21q60 0 108 68l13 -6q-5 -83 -5 -101l-6 -18q-18 -18 -28.5 -26.5t-34.5 -16.5t-56 -8q-49 0 -102 26l-39 19 q-38 18 -74 18q-33 0 -52.5 -13t-51.5 -52z" />
<glyph unicode="&#xf2;" d="M78 522q0 256 101.5 402.5t297.5 146.5q82 0 149 -30.5t120.5 -95.5t83.5 -178t30 -265q0 -75 -12 -146t-41 -140.5t-72.5 -120.5t-112.5 -83t-155 -32q-61 0 -115 16t-105 55t-88 99t-59 155.5t-22 216.5zM211 532q0 -48 3.5 -91.5t12 -98.5t27 -99t46 -82t72 -59.5 t101.5 -21.5q50 0 90 17.5t66 44t45.5 67.5t29 78.5t15.5 87.5t7 84t1 78q0 125 -24.5 219.5t-83 154.5t-146.5 60q-39 0 -74 -10.5t-70.5 -40.5t-60.5 -77.5t-41 -127t-16 -183.5zM293 1434l6 12q33 -2 70 -2q36 0 67 2l13 -12q38 -153 71 -267l-10 -12q-7 0 -33.5 -2 t-32.5 -2l-12 12q-58 123 -139 271z" />
<glyph unicode="&#xf3;" d="M78 522q0 256 101.5 402.5t297.5 146.5q82 0 149 -30.5t120.5 -95.5t83.5 -178t30 -265q0 -75 -12 -146t-41 -140.5t-72.5 -120.5t-112.5 -83t-155 -32q-61 0 -115 16t-105 55t-88 99t-59 155.5t-22 216.5zM211 532q0 -48 3.5 -91.5t12 -98.5t27 -99t46 -82t72 -59.5 t101.5 -21.5q50 0 90 17.5t66 44t45.5 67.5t29 78.5t15.5 87.5t7 84t1 78q0 125 -24.5 219.5t-83 154.5t-146.5 60q-39 0 -74 -10.5t-70.5 -40.5t-60.5 -77.5t-41 -127t-16 -183.5zM428 1165q3 11 42 129.5t46 143.5l14 12q31 -2 70 -2q35 0 66 2l6 -12q-81 -136 -152 -277 l-12 -10q-23 2 -51 2h-23z" />
<glyph unicode="&#xf4;" d="M78 522q0 256 101.5 402.5t297.5 146.5q82 0 149 -30.5t120.5 -95.5t83.5 -178t30 -265q0 -75 -12 -146t-41 -140.5t-72.5 -120.5t-112.5 -83t-155 -32q-61 0 -115 16t-105 55t-88 99t-59 155.5t-22 216.5zM211 532q0 -48 3.5 -91.5t12 -98.5t27 -99t46 -82t72 -59.5 t101.5 -21.5q50 0 90 17.5t66 44t45.5 67.5t29 78.5t15.5 87.5t7 84t1 78q0 125 -24.5 219.5t-83 154.5t-146.5 60q-39 0 -74 -10.5t-70.5 -40.5t-60.5 -77.5t-41 -127t-16 -183.5zM268 1163q19 34 61.5 123t67.5 148l13 12q2 0 32 -1t41 -1t35 1t27 1l12 -12 q66 -169 109 -271l-11 -12q-29 2 -98 2l-12 12q-6 17 -74 205q-58 -111 -102 -207l-15 -10q-6 0 -16 1t-14 1q-7 0 -20.5 -1t-27.5 -1z" />
<glyph unicode="&#xf5;" d="M78 522q0 256 101.5 402.5t297.5 146.5q82 0 149 -30.5t120.5 -95.5t83.5 -178t30 -265q0 -75 -12 -146t-41 -140.5t-72.5 -120.5t-112.5 -83t-155 -32q-61 0 -115 16t-105 55t-88 99t-59 155.5t-22 216.5zM211 532q0 -48 3.5 -91.5t12 -98.5t27 -99t46 -82t72 -59.5 t101.5 -21.5q50 0 90 17.5t66 44t45.5 67.5t29 78.5t15.5 87.5t7 84t1 78q0 125 -24.5 219.5t-83 154.5t-146.5 60q-39 0 -74 -10.5t-70.5 -40.5t-60.5 -77.5t-41 -127t-16 -183.5zM244 1192q2 35 2 102l6 19q49 49 119 49q49 0 104 -27l37 -18q44 -21 72 -21q60 0 108 68 l13 -6q-5 -83 -5 -101l-6 -18q-18 -18 -28.5 -26.5t-34.5 -16.5t-56 -8q-49 0 -102 26l-39 19q-38 18 -74 18q-33 0 -52.5 -13t-51.5 -52z" />
<glyph unicode="&#xf6;" d="M78 522q0 256 101.5 402.5t297.5 146.5q82 0 149 -30.5t120.5 -95.5t83.5 -178t30 -265q0 -75 -12 -146t-41 -140.5t-72.5 -120.5t-112.5 -83t-155 -32q-61 0 -115 16t-105 55t-88 99t-59 155.5t-22 216.5zM211 532q0 -48 3.5 -91.5t12 -98.5t27 -99t46 -82t72 -59.5 t101.5 -21.5q50 0 90 17.5t66 44t45.5 67.5t29 78.5t15.5 87.5t7 84t1 78q0 125 -24.5 219.5t-83 154.5t-146.5 60q-39 0 -74 -10.5t-70.5 -40.5t-60.5 -77.5t-41 -127t-16 -183.5zM242 1214q2 31 2 66q0 39 -2 72l14 12q41 0 109 6l12 -12q-2 -61 -2 -137l-10 -13 q-35 0 -111 -6zM557 1214q2 29 2 66q0 41 -2 72l12 12q33 0 113 6l12 -12q-2 -61 -2 -137l-12 -13q-34 0 -113 -6z" />
<glyph unicode="&#xf7;" horiz-adv-x="1253" d="M158 557q0 8 1 37t1 57l8 11q18 0 115.5 -2.5t146.5 -2.5h389q117 0 268 5l9 -11q0 -12 -4 -94l-9 -10q-104 2 -268 2h-385l-264 -2zM553 383l14 16q11 0 117 4l12 -14v-147l-12 -13l-119 -6l-10 15v69q0 39 -2 76zM553 961l14 14q78 3 117 6l12 -14v-148l-12 -14 l-119 -4l-10 14v68q0 8 -1 32t-1 46z" />
<glyph unicode="&#xf8;" d="M20 29q75 80 130 149q-72 129 -72 348q0 82 11 155.5t40 146.5t73.5 125.5t116.5 85t164 32.5q49 0 92 -11.5t70 -25.5t54 -38t37.5 -37t27.5 -35q56 67 110 145l17 2q10 -9 19 -16.5t16 -14t20 -16.5v-20q-32 -34 -72 -80t-69 -78q55 -127 55 -330q0 -37 -2.5 -74.5 t-12.5 -93t-26.5 -103.5t-47 -98t-71 -85.5t-102 -58.5t-137.5 -23q-162 0 -262 118q-94 -115 -109 -135h-16q-7 7 -23.5 21.5t-27.5 25.5zM205 532q0 -147 26 -245l453 538q-14 33 -28 56t-38.5 47t-60.5 36.5t-84 12.5q-55 0 -99 -21t-71.5 -50.5t-47.5 -76t-29 -83.5 t-14.5 -87t-6 -73t-0.5 -54zM272 193q25 -56 78 -88.5t121 -32.5q264 0 264 473q0 106 -20 184z" />
<glyph unicode="&#xf9;" d="M123 1036l10 11q68 0 119 4l10 -13q-10 -291 -10 -694q0 -22 0.5 -36.5t4 -45t10 -51.5t21 -48t34 -43.5t50.5 -28t70 -11.5q41 0 78 11t69 33.5t51 39t46 43.5v315q0 362 -8 514l10 11q62 0 117 4l12 -13q-6 -158 -6 -608q0 -230 10 -418l-12 -12q-13 0 -111 -4l-12 12 l4 90q-69 -59 -136 -87.5t-155 -28.5q-16 0 -29 1t-41 5.5t-52 16.5t-51 30.5t-48.5 51t-34.5 75.5q-18 61 -18 215v176q0 22 1 123.5t1 154.5q0 111 -4 205zM293 1434l6 12q33 -2 70 -2q36 0 67 2l13 -12q38 -153 71 -267l-10 -12q-7 0 -33.5 -2t-32.5 -2l-12 12 q-58 123 -139 271z" />
<glyph unicode="&#xfa;" d="M123 1036l10 11q68 0 119 4l10 -13q-10 -291 -10 -694q0 -22 0.5 -36.5t4 -45t10 -51.5t21 -48t34 -43.5t50.5 -28t70 -11.5q41 0 78 11t69 33.5t51 39t46 43.5v315q0 362 -8 514l10 11q62 0 117 4l12 -13q-6 -158 -6 -608q0 -230 10 -418l-12 -12q-13 0 -111 -4l-12 12 l4 90q-69 -59 -136 -87.5t-155 -28.5q-16 0 -29 1t-41 5.5t-52 16.5t-51 30.5t-48.5 51t-34.5 75.5q-18 61 -18 215v176q0 22 1 123.5t1 154.5q0 111 -4 205zM428 1165q3 11 42 129.5t46 143.5l14 12q31 -2 70 -2q35 0 66 2l6 -12q-81 -136 -152 -277l-12 -10q-23 2 -51 2 h-23z" />
<glyph unicode="&#xfb;" d="M123 1036l10 11q68 0 119 4l10 -13q-10 -291 -10 -694q0 -22 0.5 -36.5t4 -45t10 -51.5t21 -48t34 -43.5t50.5 -28t70 -11.5q41 0 78 11t69 33.5t51 39t46 43.5v315q0 362 -8 514l10 11q62 0 117 4l12 -13q-6 -158 -6 -608q0 -230 10 -418l-12 -12q-13 0 -111 -4l-12 12 l4 90q-69 -59 -136 -87.5t-155 -28.5q-16 0 -29 1t-41 5.5t-52 16.5t-51 30.5t-48.5 51t-34.5 75.5q-18 61 -18 215v176q0 22 1 123.5t1 154.5q0 111 -4 205zM268 1163q19 34 61.5 123t67.5 148l13 12q2 0 32 -1t41 -1t35 1t27 1l12 -12q66 -169 109 -271l-11 -12 q-29 2 -98 2l-12 12q-6 17 -74 205q-58 -111 -102 -207l-15 -10q-6 0 -16 1t-14 1q-7 0 -20.5 -1t-27.5 -1z" />
<glyph unicode="&#xfc;" d="M123 1036l10 11q68 0 119 4l10 -13q-10 -291 -10 -694q0 -22 0.5 -36.5t4 -45t10 -51.5t21 -48t34 -43.5t50.5 -28t70 -11.5q41 0 78 11t69 33.5t51 39t46 43.5v315q0 362 -8 514l10 11q62 0 117 4l12 -13q-6 -158 -6 -608q0 -230 10 -418l-12 -12q-13 0 -111 -4l-12 12 l4 90q-69 -59 -136 -87.5t-155 -28.5q-16 0 -29 1t-41 5.5t-52 16.5t-51 30.5t-48.5 51t-34.5 75.5q-18 61 -18 215v176q0 22 1 123.5t1 154.5q0 111 -4 205zM242 1214q2 31 2 66q0 39 -2 72l14 12q41 0 109 6l12 -12q-2 -61 -2 -137l-10 -13q-35 0 -111 -6zM557 1214 q2 29 2 66q0 41 -2 72l12 12q33 0 113 6l12 -12q-2 -61 -2 -137l-12 -13q-34 0 -113 -6z" />
<glyph unicode="&#xfd;" horiz-adv-x="768" d="M-6 1032l12 17q39 0 121 4l14 -13q12 -42 140 -467l116 -387q120 410 240 850l16 13h107l12 -13q-38 -104 -110 -331l-127 -404q-148 -476 -207 -711l-15 -12q-39 2 -118 2l-9 10q69 171 146 426q-90 295 -190 590.5t-148 425.5zM340 1165q3 11 42 129.5t46 143.5l14 12 q31 -2 70 -2q35 0 66 2l6 -12q-81 -136 -152 -277l-12 -10q-23 2 -51 2h-23z" />
<glyph unicode="&#xfe;" d="M102 1534l11 12q54 2 127 21l12 -13q-2 -49 -2 -135v-463q39 33 65.5 52.5t81 41t111.5 21.5q151 0 251.5 -126t100.5 -357q0 -93 -15 -176t-52 -161t-92.5 -134t-142.5 -89.5t-196 -33.5q-48 0 -106 6v-41q0 -164 12 -369l-12 -12q-5 0 -25.5 1t-31.5 1q-13 0 -37 -1 t-29 -1l-12 12q8 380 8 699q0 152 -4 464.5t-4 358.5q0 137 -19 422zM252 606q0 -318 2 -502q41 -8 92 -8q90 0 159.5 29t111.5 75.5t69 112.5t37 131.5t10 139.5q0 173 -64 277t-186 104q-130 0 -231 -127v-232z" />
<glyph unicode="&#xff;" horiz-adv-x="768" d="M-6 1032l12 17q39 0 121 4l14 -13q12 -42 140 -467l116 -387q120 410 240 850l16 13h107l12 -13q-38 -104 -110 -331l-127 -404q-148 -476 -207 -711l-15 -12q-39 2 -118 2l-9 10q69 171 146 426q-90 295 -190 590.5t-148 425.5zM156 1214q2 31 2 66q0 39 -2 72l14 12 q42 0 109 6l12 -12q-2 -61 -2 -137l-10 -13q-35 0 -111 -6zM471 1214q2 29 2 66q0 41 -2 72l12 12q33 0 113 6l12 -12q-2 -61 -2 -137l-12 -13q-34 0 -113 -6z" />
<glyph unicode="&#x152;" horiz-adv-x="1536" d="M90 723q0 307 125 496q33 48 73 86t76.5 62t83.5 41.5t80 25.5t81 12.5t72.5 5t66.5 0.5q21 0 80.5 -1t194.5 -2t339 -1q6 0 52.5 2t66.5 2l12 -12q-6 -64 -6 -92l-14 -11q-209 6 -517 6v-36q0 -27 2.5 -225t2.5 -277h157q100 0 330 8l14 -12q-6 -52 -6 -88l-16 -13 q-33 1 -73 2t-72 2t-68 1q-19 0 -105 -1.5t-161 -1.5q0 -352 6 -598h141q190 0 385 13l12 -13q-6 -67 -6 -98l-14 -10q-39 0 -122.5 2t-100.5 2q-208 0 -353.5 -3t-160.5 -3q-69 0 -119 3.5t-124 22.5t-132 54q-101 61 -167 171.5t-91 228t-25 249.5zM225 752 q0 -247 84 -422q36 -74 82 -121.5t105.5 -71t116.5 -31.5t137 -8q49 0 88 2q-8 1105 -11 1248q-1 0 -39 1t-71 1q-232 0 -362 -149.5t-130 -448.5z" />
<glyph unicode="&#x153;" horiz-adv-x="1492" d="M78 516q0 118 24 217t71.5 175t125 118.5t178.5 42.5q68 0 123.5 -21t87.5 -47.5t57 -65t34 -60t16 -46.5q38 110 119.5 175t191.5 65q159 0 250 -131q90 -131 90 -383l-12 -12h-582v-25q0 -66 10 -126t33.5 -117t60 -98t93 -66t127.5 -25q60 0 111.5 15.5t71 28 t46.5 32.5l14 -6q-6 -62 -8 -105l-10 -18q-100 -53 -230 -53q-281 0 -374 239q-35 -111 -120.5 -175t-213.5 -64q-83 0 -149.5 30.5t-109.5 81t-72 120.5t-41.5 145.5t-12.5 158.5zM207 524q0 -30 1.5 -60.5t8.5 -76t17.5 -85t31.5 -81.5t48 -71.5t69.5 -48.5t93.5 -19 q64 0 112.5 28t76.5 70.5t45.5 102.5t23 112.5t6.5 112.5q0 70 -7.5 133.5t-27 124.5t-48.5 105t-75.5 71t-105.5 27q-56 0 -100.5 -22t-73 -60t-48.5 -83t-30 -98t-14 -96t-4 -86zM854 641h467q0 157 -63.5 245.5t-155.5 88.5q-62 0 -111.5 -36t-77.5 -91t-42.5 -108.5 t-16.5 -98.5z" />
<glyph unicode="&#x178;" horiz-adv-x="854" d="M0 1430l10 14q82 4 123 8l14 -12q50 -151 281 -738l158 375q91 221 137 359l16 10h105l10 -14q-39 -80 -103 -232t-83 -194l-185 -412q0 -51 11 -582l-13 -12q-41 0 -119 -4l-12 12q0 86 2 250.5t2 208.5q0 80 -2 119l-174 418q-130 314 -178 426zM164 1585q2 20 2 70 q0 44 -2 67l14 13q74 4 111 8l12 -14q0 -18 -1 -52t-1 -39q0 -31 2 -47l-12 -12q-55 0 -111 -6zM551 1585v137l12 13q74 4 111 8l14 -14q-2 -23 -2 -68t2 -70l-12 -12q-58 0 -113 -6z" />
<glyph unicode="&#x2c6;" horiz-adv-x="468" d="M35 1163q19 34 61.5 123t67.5 148l12 12q2 0 32 -1t42 -1t35 1t26 1l13 -12q81 -207 108 -271l-10 -12q-29 2 -98 2l-13 12q-25 73 -73 205q-67 -129 -103 -207l-14 -10q-6 0 -16.5 1t-14.5 1q-7 0 -20 -1t-27 -1z" />
<glyph unicode="&#x2dc;" horiz-adv-x="468" d="M4 1192q2 35 2 102l6 19q49 49 119 49q50 0 105 -27l36 -18q44 -21 72 -21q61 0 109 68l12 -6q-4 -66 -4 -101l-6 -18q-18 -18 -28.5 -26.5t-34.5 -16.5t-56 -8q-50 0 -103 26l-38 19q-38 18 -74 18q-33 0 -53 -13.5t-52 -51.5z" />
<glyph unicode="&#x2000;" horiz-adv-x="947" />
<glyph unicode="&#x2001;" horiz-adv-x="1894" />
<glyph unicode="&#x2002;" horiz-adv-x="947" />
<glyph unicode="&#x2003;" horiz-adv-x="1894" />
<glyph unicode="&#x2004;" horiz-adv-x="631" />
<glyph unicode="&#x2005;" horiz-adv-x="473" />
<glyph unicode="&#x2006;" horiz-adv-x="315" />
<glyph unicode="&#x2007;" horiz-adv-x="315" />
<glyph unicode="&#x2008;" horiz-adv-x="236" />
<glyph unicode="&#x2009;" horiz-adv-x="378" />
<glyph unicode="&#x200a;" horiz-adv-x="105" />
<glyph unicode="&#x2010;" horiz-adv-x="512" d="M37 530q12 65 14 99l12 10q82 -4 250 -4q73 0 150 6l10 -12q-12 -97 -12 -101l-12 -12q-74 4 -224 4q-123 0 -176 -2z" />
<glyph unicode="&#x2011;" horiz-adv-x="512" d="M37 530q12 65 14 99l12 10q82 -4 250 -4q73 0 150 6l10 -12q-12 -97 -12 -101l-12 -12q-74 4 -224 4q-123 0 -176 -2z" />
<glyph unicode="&#x2012;" horiz-adv-x="512" d="M37 530q12 65 14 99l12 10q82 -4 250 -4q73 0 150 6l10 -12q-12 -97 -12 -101l-12 -12q-74 4 -224 4q-123 0 -176 -2z" />
<glyph unicode="&#x2013;" horiz-adv-x="894" d="M37 530q9 49 12 97l14 12q125 -6 343 -6h262q97 0 176 8l12 -12q-10 -83 -10 -101l-15 -12q-94 4 -284 4h-191q-207 0 -309 -2z" />
<glyph unicode="&#x2014;" horiz-adv-x="1566" d="M37 535q7 37 14 90l15 12q438 -4 657 -4h399q46 0 184 2t207 2l15 -12q-12 -97 -12 -101l-13 -8q-119 2 -516 2h-936z" />
<glyph unicode="&#x2018;" horiz-adv-x="382" d="M66 1044q87 232 153 449l12 12q53 0 78 2l10 -14q-49 -199 -86 -442l-12 -13q-73 0 -147 -6z" />
<glyph unicode="&#x2019;" horiz-adv-x="382" d="M66 1044q63 288 84 445l14 12q72 0 145 6l10 -12q-94 -251 -153 -448l-14 -13q-51 0 -78 -2z" />
<glyph unicode="&#x201a;" horiz-adv-x="382" d="M47 -274q62 275 84 444l14 12q73 0 146 6l10 -12q-87 -223 -154 -448l-14 -13q-51 0 -78 -2z" />
<glyph unicode="&#x201c;" horiz-adv-x="681" d="M66 1044q87 232 153 449l12 12q53 0 78 2l10 -14q-49 -199 -86 -442l-12 -13q-73 0 -147 -6zM362 1044q55 140 156 449l12 12q51 0 78 2l10 -14q-64 -278 -86 -442l-12 -13q-74 0 -147 -6z" />
<glyph unicode="&#x201d;" horiz-adv-x="681" d="M66 1044q63 288 84 445l14 12q72 0 145 6l10 -12q-94 -251 -153 -448l-14 -13q-51 0 -78 -2zM362 1044q3 15 16 71.5t17.5 78t15 70t16 78t12 70.5t10.5 77l12 12q73 0 147 6l10 -12q-82 -212 -153 -448l-14 -13q-51 0 -78 -2z" />
<glyph unicode="&#x201e;" horiz-adv-x="681" d="M47 -274q62 275 84 444l14 12q73 0 146 6l10 -12q-87 -223 -154 -448l-14 -13q-51 0 -78 -2zM344 -274q61 256 86 444l12 12q74 0 148 6l10 -12q-87 -223 -154 -448l-14 -13q-51 0 -78 -2z" />
<glyph unicode="&#x2022;" horiz-adv-x="577" d="M111 821l10 10h74q30 0 128.5 2.5t133.5 2.5l10 -11q-2 -135 -2 -174q0 -6 1 -75.5t1 -100.5l-8 -10q-242 0 -336 -4l-10 12v168q0 123 -2 180z" />
<glyph unicode="&#x2026;" horiz-adv-x="1548" d="M184 10q2 20 2 53q0 9 -1 36t-1 51l11 12q72 0 129 4l10 -12q0 -22 -1 -47t-1 -33q0 -35 2 -62l-10 -12q-72 0 -129 -2zM700 150l11 12q72 0 129 4l10 -12q0 -23 -1 -48t-1 -34q0 -6 1 -26t1 -34l-10 -12q-72 0 -129 -2l-9 12v53q0 9 -1 36t-1 51zM1214 150l13 12 q72 0 129 4l10 -12q0 -23 -1 -48t-1 -32v-62l-10 -12q-70 0 -127 -2l-10 12q0 11 1 28.5t1 22.5q0 13 -2 41.5t-3 47.5z" />
<glyph unicode="&#x202f;" horiz-adv-x="378" />
<glyph unicode="&#x2039;" horiz-adv-x="425" d="M61 543l2 22q101 200 173 373l16 12h113l8 -12q-113 -220 -178 -379q88 -208 194 -391l-8 -12q-78 0 -115 -2l-16 12q-25 58 -56 120t-72 139.5t-61 117.5z" />
<glyph unicode="&#x203a;" horiz-adv-x="425" d="M37 936l10 12q76 0 113 2l16 -12q32 -76 101 -206t88 -171v-22q-104 -204 -175 -373l-16 -12h-113l-8 12q87 157 178 379q-58 144 -194 391z" />
<glyph unicode="&#x205f;" horiz-adv-x="473" />
<glyph unicode="&#x20ac;" horiz-adv-x="1073" d="M39 551q4 13 18 72l13 12q8 0 50.5 -1t45.5 -1q0 61 6 123q-74 0 -111 -2l-8 12q20 69 21 72l10 12q49 -2 100 -2q24 113 66.5 203t107.5 158.5t158.5 105.5t210.5 37q150 0 274 -76l9 -19q-26 -72 -33 -100l-19 -6q-96 102 -243 102q-87 0 -157.5 -32.5t-118 -91 t-78.5 -127.5t-50 -154q318 0 568 4l10 -12q-14 -36 -27 -78l-10 -8q-86 4 -555 4q-6 -62 -6 -125q344 0 528 4l8 -12q-4 -9 -8 -22.5t-8 -29.5t-6 -22l-12 -10q-59 0 -264 1t-230 1q8 -91 38.5 -172.5t81.5 -146t128.5 -102.5t171.5 -38q155 0 268 104l17 -8 q-6 -51 -9 -112l-8 -17q-119 -71 -272 -71q-120 0 -219 44t-166 121t-107.5 178t-50.5 218q-4 0 -53.5 -1t-69.5 -1z" />
<glyph unicode="&#x2122;" horiz-adv-x="1312" d="M49 1372q0 8 1 24t1 21v23l6 8q84 -2 174 -2h179l79 2l7 -8q-2 -29 -2 -66l-9 -8h-161q3 -582 4 -594l-9 -8h-36q-5 0 -23.5 -1t-34.5 -1l-6 8q4 114 4 596h-166zM535 770q26 435 32 666l8 10h134l8 -8q92 -367 143 -590q9 32 42 154.5t66 244.5t50 191l8 8h129l8 -8 l23 -666l-4 -8q-54 0 -95 -2l-6 8q-2 318 -6 604q-24 -101 -65.5 -251.5t-71.5 -250.5l-29 -100l-6 -8q-55 0 -100 -2l-6 8q-101 354 -152 604q-12 -415 -14 -602l-6 -8q-47 0 -84 -2z" />
<glyph unicode="&#xe000;" horiz-adv-x="1054" d="M0 0v1055h1055v-1055h-1055z" />
</font>
</defs>
</svg>
