<?xml version="1.0" standalone="no"?>
<!DOCTYPE svg PUBLIC "-//W3C//DTD SVG 1.1//EN" "http://www.w3.org/Graphics/SVG/1.1/DTD/svg11.dtd" >
<svg xmlns="http://www.w3.org/2000/svg">
<metadata></metadata>
<defs>
<font id="formatamedium_condensed" horiz-adv-x="1024" >
<font-face units-per-em="2048" ascent="1536" descent="-512" />
<missing-glyph horiz-adv-x="512" />
<glyph unicode="&#xfb01;" horiz-adv-x="1110" d="M12 868q0 2 8 203l13 12q21 0 55 -2t35 -2v80q0 80 7 136.5t28.5 109.5t59 85.5t100 51.5t149.5 19q65 0 143 -15l8 -12q-9 -88 -12 -213l-14 -12q-23 14 -49 14q-105 0 -105 -147v-99q60 0 144 6l12 -14q-9 -108 -12 -201l-13 -12q-49 2 -129 2v-37q0 -458 15 -809 l-13 -12h-63q-112 0 -250 -6l-12 12q8 301 8 811v45q-4 0 -41 -2t-61 -2zM674 1042l10 13q174 23 324 57l12 -12q-6 -249 -6 -451q0 -371 18 -637l-10 -12q-5 0 -47.5 1t-63.5 1q-55 0 -215 -8l-12 12q10 303 10 492q0 343 -20 544zM688 1495l12 12q117 11 291 37l13 -12 q-3 -88 -3 -162v-82l-10 -12q-104 -10 -284 -41l-13 12v72q0 77 -6 176z" />
<glyph unicode="&#xfb02;" horiz-adv-x="1110" d="M12 868q0 2 8 203l13 12q21 0 55 -2t35 -2v80q0 80 7 136.5t28.5 109.5t59 85.5t100 51.5t149.5 19q65 0 143 -15l8 -12q-9 -88 -12 -213l-14 -12q-23 14 -49 14q-105 0 -105 -147v-99q60 0 144 6l12 -14q-9 -108 -12 -201l-13 -12q-49 2 -129 2v-37q0 -458 15 -809 l-13 -12h-63q-112 0 -250 -6l-12 12q8 301 8 811v45q-4 0 -41 -2t-61 -2zM678 1497l10 12q83 13 313 58l13 -13q-2 -211 -2 -561q0 -124 6 -507t10 -474l-12 -12q-7 0 -46 1t-57 1q-55 0 -215 -8l-10 12q8 273 8 555q0 686 -18 936z" />
<glyph horiz-adv-x="2048" />
<glyph horiz-adv-x="2048" />
<glyph unicode="&#xd;" horiz-adv-x="2048" />
<glyph unicode=" "  horiz-adv-x="512" />
<glyph unicode="&#x09;" horiz-adv-x="512" />
<glyph unicode="&#xa0;" horiz-adv-x="512" />
<glyph unicode="!" horiz-adv-x="512" d="M100 1427l13 13q322 16 323 16l13 -12q-3 -58 -11.5 -194t-12.5 -206t-9.5 -179.5t-7.5 -205.5t-2 -192l-15 -16q-47 0 -121.5 -3t-101.5 -4l-12 13q-17 531 -56 970zM125 287l12 12q124 0 277 6l12 -12v-82q0 -51 4 -199l-12 -12q-124 0 -277 -6l-12 12v68q0 53 -4 213z " />
<glyph unicode="&#x22;" horiz-adv-x="806" d="M63 1489l19 24q115 0 256 5l16 -23q-45 -266 -88 -580l-16 -16h-78l-16 19q-21 148 -93 571zM453 1489l18 24q115 0 256 5l16 -23q-45 -266 -88 -580l-16 -16h-78l-16 19q-25 181 -92 571z" />
<glyph unicode="#" horiz-adv-x="1277" d="M80 444q4 110 4 111q0 41 -2 72l14 14q127 0 250 -2l23 164h-226l-12 14q2 76 2 160v22l12 15q109 0 252 -2q37 305 54 418l12 16h31q83 0 161 2l13 -16l-66 -420h160q41 302 53 418l12 16h66q14 0 53 1t74 1l12 -18l-67 -418h41q1 0 27.5 1t68.5 2t82 1l12 -15 q-3 -62 -6 -184l-12 -14h-240l-25 -164l222 4l10 -14q-4 -168 -4 -187l-15 -14l-241 2q-37 -296 -49 -414l-15 -16h-194l-11 14q18 90 66 416h-160q-36 -269 -51 -414l-14 -16h-195l-10 16q8 44 67 416l-227 -2zM551 639h158l24 164h-160z" />
<glyph unicode="$" horiz-adv-x="937" d="M59 958q0 86 27.5 156t75.5 116t106 74.5t125 38.5q-5 160 -6 179l10 10h62q17 0 50.5 1t39.5 1l12 -12q-5 -158 -6 -174q129 -10 248 -68l8 -16q-13 -189 -14 -238l-19 -6q-31 28 -53.5 45t-70 36t-97.5 19q-59 0 -109.5 -33.5t-50.5 -97.5q0 -43 30 -78.5t91 -74.5 l94 -60q76 -48 122 -84t82.5 -80.5t51.5 -95.5t15 -119q0 -161 -98 -273t-267 -140q0 -47 4 -183l-10 -12q-3 0 -25 1t-32 1q-27 0 -97 -4l-12 12q4 66 4 176q-16 0 -53.5 4t-105 22t-113.5 46l-12 19q9 99 12 241l16 6q104 -104 258 -104q95 0 140 45.5t45 107.5 q0 53 -31 88t-123 95l-86 55q-40 26 -64.5 44t-61.5 53t-58 69t-37.5 85t-16.5 107z" />
<glyph unicode="%" horiz-adv-x="1622" d="M39 877q0 105 13.5 184t46 145t93 100.5t148.5 34.5q60 0 108 -17.5t79.5 -44t54 -69t34 -81t18 -92t8 -89.5t1.5 -86q0 -104 -14.5 -183.5t-48 -142.5t-93.5 -96.5t-145 -33.5q-60 0 -108 18t-79.5 45.5t-54 70.5t-34 81.5t-18 90.5t-8 86t-1.5 79zM258 879 q0 -161 15.5 -237.5t68.5 -76.5q50 0 66 75.5t16 231.5q0 45 -0.5 73.5t-3 69.5t-8 66.5t-14.5 51t-23.5 37.5t-34.5 12q-27 0 -44.5 -27.5t-25 -78t-10 -94t-2.5 -103.5zM451 8q198 476 243 588l76 186q36 88 67 171.5t70.5 192.5t63.5 173l14 10h84q61 0 92 2l8 -14 q-143 -342 -233 -569l-90 -230q-131 -328 -193 -506l-26 -12q-46 0 -168 -4zM979 455q0 83 8 149.5t28.5 127t54 101t86.5 64t124 23.5q60 0 108 -17.5t79.5 -44.5t54 -69.5t34 -81t18 -92t8 -89.5t1.5 -86q0 -104 -14.5 -183.5t-48 -142.5t-93.5 -96.5t-145 -33.5 q-60 0 -108 18t-79.5 45.5t-54 70.5t-34 81.5t-18 90.5t-8 86t-1.5 79zM1198 457q0 -161 15.5 -237.5t68.5 -76.5q50 0 66 76t16 232q0 45 -0.5 73.5t-3 69.5t-8 66t-14.5 50.5t-23.5 37.5t-34.5 12q-27 0 -44.5 -27.5t-25 -78t-10 -94t-2.5 -103.5z" />
<glyph unicode="&#x26;" horiz-adv-x="1218" d="M57 360q0 243 287 410q-117 142 -117 303q0 155 100 246.5t269 91.5q161 0 256.5 -82.5t95.5 -220.5q0 -62 -18 -114.5t-57.5 -101.5t-71.5 -79.5t-90 -79.5l151 -225q68 97 96 152t52 155l20 2q24 -42 73 -112.5t77 -104.5v-25q-47 -93 -74 -135t-100 -141l202 -281 l-10 -12q-28 0 -311 -10l-19 14q-61 84 -63 94q-161 -127 -348 -127q-172 0 -286 108t-114 275zM379 395q0 -66 40.5 -112.5t98.5 -46.5q35 0 68 15.5t80 53.5l-174 260q-64 -47 -88.5 -83.5t-24.5 -86.5zM502 1118q0 -38 15 -78t56 -110q41 37 60.5 57.5t36 54.5t16.5 74 q0 46 -25.5 76.5t-66.5 30.5q-40 0 -66 -29.5t-26 -75.5z" />
<glyph unicode="'" horiz-adv-x="417" d="M63 1489l19 24q115 0 256 5l16 -23q-45 -266 -88 -580l-16 -16h-78l-16 19q-21 148 -93 571z" />
<glyph unicode="(" horiz-adv-x="598" d="M90 551q0 461 342 946l17 10q18 0 39 -1t28 -1t28 1t38 1l10 -14q-99 -204 -167.5 -450t-68.5 -484q0 -424 236 -932l-8 -12q-2 0 -19 1t-26 1q-19 0 -53.5 -1t-39.5 -1l-16 12q-58 81 -110.5 172.5t-108 213t-88.5 262.5t-33 276z" />
<glyph unicode=")" horiz-adv-x="598" d="M6 -371q99 204 167.5 450t68.5 484q0 424 -236 932l8 12q2 0 19 -1t26 -1q19 0 53.5 1t39.5 1l16 -12q58 -81 110.5 -172.5t108 -213t88.5 -262.5t33 -276q0 -462 -342 -946l-16 -10q-18 0 -39.5 1t-28.5 1t-28 -1t-38 -1z" />
<glyph unicode="*" horiz-adv-x="854" d="M49 1214q49 82 90 162l15 2q56 -46 206 -164q-22 181 -38 279l10 12q114 0 182 2l10 -12q-14 -80 -32 -283q16 10 103 89t95 85l17 -2q36 -69 94 -161l-4 -15q-117 -51 -252 -114q141 -57 254 -95l6 -14q-51 -95 -86 -170l-14 -4q-10 8 -59.5 47t-95.5 75.5t-61 49.5 q17 -115 46 -281l-13 -12q-92 0 -182 -4l-10 12q10 85 26 285q-15 -15 -99.5 -90.5t-94.5 -85.5l-19 2q-59 111 -90 162l4 16q66 28 242 109q-208 88 -246 104z" />
<glyph unicode="+" horiz-adv-x="1300" d="M160 512q2 84 2 170v39l16 14q162 0 346 -2v105l-4 270l15 14q129 0 231 2l12 -16q0 -19 -1 -53.5t-1 -40.5v-281h101q31 0 249 4l15 -16q0 -21 -4 -209l-15 -14l-346 2l4 -375l-14 -16h-231l-13 14q2 111 2 258v119l-350 -2z" />
<glyph unicode="," horiz-adv-x="468" d="M6 -213q92 309 115 502l12 12q111 0 293 10l8 -12q-34 -75 -67 -156.5t-76 -191.5t-62 -158l-16 -12q-88 0 -199 -6z" />
<glyph unicode="-" horiz-adv-x="638" d="M49 463q3 45 12 231l13 13q29 0 142 -1t179 -1q115 0 183 4l12 -13q-9 -197 -10 -233l-17 -12q-41 4 -168 4q-234 0 -334 -4z" />
<glyph unicode="." horiz-adv-x="468" d="M82 287l12 12q124 0 277 6l12 -12v-82q0 -51 4 -199l-12 -12q-124 0 -277 -6l-12 12v68q0 53 -4 213z" />
<glyph unicode="/" horiz-adv-x="724" d="M-84 -371q64 180 152 465l231 737q110 346 197 664l12 10q104 0 190 2l11 -14q-147 -443 -238 -741l-139 -455q-38 -123 -82 -264.5t-58 -188t-30 -103t-29 -108.5l-14 -12q-117 -3 -195 -6z" />
<glyph unicode="0" horiz-adv-x="980" d="M49 662q0 64 2 114.5t12 126t27 132t50 119t78.5 103t115.5 67t158 26.5q214 0 327 -158q113 -155 113 -528q0 -53 -1.5 -97.5t-7 -101.5t-14.5 -104t-26 -99t-39.5 -92t-56.5 -78t-76 -62.5t-98.5 -39.5t-123.5 -15q-216 0 -329 160q-111 159 -111 527zM362 668 q0 -53 0.5 -85.5t2 -81.5t5 -80.5t9.5 -70t16 -62t23 -45.5t32 -32t42 -10q22 0 40.5 10.5t31 32.5t22 46t15.5 61.5t9.5 68t5 75.5t2 75t0.5 75q0 49 -0.5 82.5t-2 81.5t-5.5 81.5t-10 73t-15.5 65.5t-22.5 49.5t-31.5 34.5t-41.5 11t-41.5 -11t-31 -33.5t-22.5 -47.5 t-15.5 -63.5t-9 -69.5t-5 -78t-2 -76.5t-0.5 -76.5z" />
<glyph unicode="1" horiz-adv-x="980" d="M205 1067q1 20 3.5 94t2.5 111l10 14q92 9 235 31.5t210 30.5l14 -13q-1 -109 -4.5 -299t-3.5 -303q0 -259 14 -721l-14 -12h-88q-101 0 -230 -6l-12 14q10 307 10 666q0 80 -1 219.5t-1 173.5q-99 -8 -131 -12z" />
<glyph unicode="2" horiz-adv-x="980" d="M25 25q33 42 198 269.5t191 266.5q80 118 107.5 185.5t27.5 130.5q0 89 -50.5 146.5t-140.5 57.5q-117 0 -260 -110l-16 10q6 144 6 258l10 16q180 95 353 95q191 0 306 -116.5t115 -307.5q0 -72 -11 -128t-43.5 -117t-65.5 -108.5t-101 -136.5l-129 -170q65 2 145.5 4 t133.5 3.5t108 5.5l13 -13q-11 -178 -13 -254l-16 -12h-522q-95 0 -206 -2t-126 -2z" />
<glyph unicode="3" horiz-adv-x="980" d="M68 63q5 115 8 248l18 8q32 -28 58.5 -46.5t75 -36t100.5 -17.5q35 0 68.5 9t69 31.5t57.5 70t22 114.5q0 203 -185 203q-54 0 -114 -26l-15 14q45 86 93 175t66 122.5t36 69.5t31 67h-78q-157 0 -289 -8l-12 12q2 28 12 242l14 12q78 -4 213 -4h232q65 0 169.5 4 t153.5 4l13 -14q-10 -17 -43.5 -77t-49 -88t-46 -85t-62.5 -119.5t-70 -140.5q113 -13 191 -104t78 -257q0 -219 -134.5 -345t-349.5 -126q-152 0 -321 68z" />
<glyph unicode="4" horiz-adv-x="980" d="M29 291v178l4 18q36 85 109 257.5t130 308t107 260.5l16 12h82q62 0 164 3t125 3l14 -14q-2 -166 -2 -451v-348q95 0 150 4l14 -14q-4 -54 -12 -217l-15 -12q-37 2 -98 2h-39q3 -146 8 -269l-16 -12h-76q-91 0 -202 -6l-15 14q2 47 4 138t4 133q-82 2 -217 2 q-53 0 -122 -1t-103 -1zM260 518h229q7 305 9 619z" />
<glyph unicode="5" horiz-adv-x="980" d="M86 55q4 59 8 246l19 12q47 -45 101 -72.5t134 -27.5q109 0 169.5 59.5t60.5 169.5q0 99 -59.5 153t-156.5 54q-116 0 -221 -69l-18 12q36 465 45 723l14 12q49 -2 135 -2h265q42 0 258 6l14 -12q-17 -146 -23 -240l-14 -12q-196 8 -262 8h-115l-12 -205q33 13 92 13 q180 0 284.5 -120.5t104.5 -295.5q0 -98 -27.5 -180t-74.5 -138.5t-109 -96.5t-129.5 -58.5t-138.5 -18.5q-195 0 -330 64z" />
<glyph unicode="6" horiz-adv-x="980" d="M47 612q0 73 6 141t22 144t42 140t69.5 123.5t99.5 101t136.5 66t177.5 24.5q152 0 244 -47l14 -17q-10 -142 -14 -235l-19 -13q-88 74 -192 74q-52 0 -94.5 -15.5t-69 -38.5t-46 -55t-29.5 -60.5t-15.5 -60.5t-6.5 -48.5t-1 -30.5q32 31 93 53.5t130 22.5t127 -23.5 t98 -63.5t67.5 -94t40.5 -114t13 -125q0 -103 -26.5 -190t-79 -154t-138 -104.5t-196.5 -37.5q-149 0 -252 76q-201 145 -201 561zM365 498q0 -83 12.5 -145.5t45.5 -105t85 -42.5q59 0 94 58.5t35 150.5q0 98 -33.5 152.5t-95.5 54.5q-79 0 -143 -80v-43z" />
<glyph unicode="7" horiz-adv-x="980" d="M49 1075q11 116 19 240l14 12q59 -2 158 -2h331q105 0 351 6l12 -14q-31 -92 -129 -408l-121 -389q-73 -240 -137 -508l-17 -12q-8 0 -48.5 1t-61.5 1q-59 0 -219 -8l-13 14q52 140 230 645l149 420h-118q-63 0 -139.5 -2t-152.5 -4.5t-98 -3.5z" />
<glyph unicode="8" horiz-adv-x="980" d="M41 387q0 128 56.5 210.5t140.5 113.5q-79 34 -122.5 104.5t-43.5 165.5q0 180 115 274.5t307 94.5q196 0 305.5 -99t109.5 -264q0 -202 -164 -274q195 -82 195 -312q0 -69 -14.5 -130t-48 -116t-84 -94.5t-127.5 -62.5t-174 -23q-96 0 -176.5 24t-142.5 73t-97 129.5 t-35 185.5zM362 391q0 -86 35 -134t95 -48q62 0 95.5 50.5t33.5 133.5q0 96 -35 143.5t-94 47.5q-69 0 -99.5 -57.5t-30.5 -135.5zM375 969q0 -73 32 -117.5t85 -44.5q47 0 79.5 40t32.5 128q0 80 -30 123t-82 43q-59 0 -88 -47.5t-29 -124.5z" />
<glyph unicode="9" horiz-adv-x="980" d="M41 868q0 103 28 190.5t82 153.5t140 103t196 37q69 0 128 -16.5t101.5 -43t77 -65.5t57 -79t38.5 -90t24.5 -90.5t13.5 -88.5t6 -77t1 -61q0 -766 -551 -766q-145 0 -246 45l-14 17q10 142 14 237l19 11q33 -24 52.5 -35.5t59.5 -24t86 -12.5q68 0 119.5 28t80 74.5 t42.5 98.5t14 108q-32 -24 -53.5 -37t-65 -27t-92.5 -14q-72 0 -130 21t-96 57t-65 79t-41 93t-20 92t-6 82zM342 915q0 -98 33 -154t96 -56q42 0 74 18.5t71 62.5v43q0 297 -139 297q-63 0 -99 -58t-36 -153z" />
<glyph unicode=":" horiz-adv-x="512" d="M125 287l12 12q124 0 277 6l12 -12v-74q0 -55 4 -207l-12 -12q-124 0 -277 -6l-12 12v78q0 51 -4 203zM125 1069l12 12q186 4 277 9l12 -13v-73q0 -55 4 -207l-12 -13q-124 0 -277 -6l-12 13v75q0 55 -4 203z" />
<glyph unicode=";" horiz-adv-x="512" d="M43 -213q53 189 76.5 292.5t38.5 209.5l12 12q109 0 291 10l8 -12q-36 -82 -68 -161.5t-71.5 -180.5t-65.5 -164l-14 -12q-43 0 -112 -3t-87 -3zM147 1069l11 12q185 4 278 9l13 -13q-3 -43 -3 -82q0 -18 5 -198l-11 -13q-125 0 -278 -6l-10 13v65q0 18 -5 213z" />
<glyph unicode="&#x3c;" horiz-adv-x="1300" d="M207 506q2 68 2 137v90l12 21q228 108 821 424l19 -15v-254l-12 -18l-586 -270q254 -123 581 -283l17 -21q-2 -53 -2 -118q0 -11 1 -55.5t1 -77.5l-19 -15q-690 370 -825 436z" />
<glyph unicode="=" horiz-adv-x="1300" d="M160 315q0 30 1 75t1 71v55l16 16q172 -4 236 -4h467q87 0 243 4l13 -16q0 -33 -1 -84.5t-1 -91.5v-25l-15 -14q-88 2 -252 2h-462q-166 0 -234 -2zM164 721q0 30 1 74.5t1 70.5v56l16 16q172 -4 236 -4h467q87 0 243 4l13 -16q0 -33 -1 -85t-1 -92v-24l-15 -16 q-88 2 -252 2h-462q-166 0 -234 -2z" />
<glyph unicode="&#x3e;" horiz-adv-x="1300" d="M238 66v253l12 19l586 270q-255 123 -582 283l-16 20q2 53 2 119q0 11 -1 55.5t-1 77.5l18 15q710 -381 825 -437l11 -18q-2 -68 -2 -137v-90l-13 -21q-228 -108 -821 -424z" />
<glyph unicode="?" horiz-adv-x="768" d="M27 1182q0 19 3 91t3 118l14 20q55 30 137 44.5t152 14.5q95 0 167 -27.5t111.5 -67.5t64.5 -93.5t32.5 -96t7.5 -85.5q0 -89 -36.5 -169.5t-121.5 -207.5l-29 -43q-40 -62 -57 -110.5t-18 -108.5l-17 -12q-99 0 -225 -9l-16 13q0 62 19 126.5t81 168.5l35 57 q80 129 80 237q0 58 -19 100.5t-49 64t-59.5 31t-59.5 9.5q-98 0 -182 -73zM170 287l12 12q124 0 277 6l12 -12v-82q0 -51 4 -199l-12 -12q-124 0 -277 -6l-12 12v78q0 51 -4 203z" />
<glyph unicode="@" horiz-adv-x="1591" d="M80 561q0 202 62.5 374t172 290.5t261.5 185t327 66.5q289 0 454 -176.5t165 -485.5q0 -182 -56.5 -331t-155.5 -233.5t-220 -84.5q-71 0 -114.5 24.5t-72.5 81.5q-87 -100 -207 -100q-124 0 -196 95t-72 259q0 206 111 357q73 103 168 139.5t256 36.5q84 0 178 -4 l14 -19l-74 -491q-14 -98 -14 -142q0 -86 70 -86q56 0 108.5 71.5t84.5 189.5t32 245q0 247 -124 387t-343 140q-184 0 -333 -102t-233.5 -283t-84.5 -404q0 -306 166 -490t444 -184q340 0 559 277h19q19 -25 77 -96v-19q-122 -148 -293 -224.5t-374 -76.5q-227 0 -400 101 t-267.5 285.5t-94.5 426.5zM629 526q0 -93 29.5 -141.5t86.5 -48.5q74 0 132 86l69 479q-46 4 -55 4q-123 0 -192.5 -102t-69.5 -277z" />
<glyph unicode="A" horiz-adv-x="1193" d="M0 8q33 110 119 416l112 407q12 43 71.5 258t94.5 347l13 10q178 0 399 6l12 -12q1 -4 154 -590l100 -387q22 -83 52.5 -194.5t46.5 -172t20 -82.5l-10 -12q-71 0 -185.5 -3t-144.5 -3l-12 12q-61 304 -68 336l-10 45h-209q-35 0 -87 -1t-65 -1q-63 -266 -81 -375 l-15 -12h-55q-62 0 -242 -4zM449 627h83q113 0 179 2q-26 113 -50.5 229t-44.5 217.5t-28 136.5q-34 -153 -139 -585z" />
<glyph unicode="B" horiz-adv-x="1150" d="M90 1436l10 10q65 1 214.5 4.5t244.5 3.5q57 0 96 -1.5t93 -9t90.5 -21t76.5 -39t64 -61t39.5 -89.5t15.5 -123q0 -36 -6 -72t-23.5 -78t-44 -76t-71 -62.5t-101.5 -41.5q59 -7 107 -26.5t78.5 -44t53.5 -57.5t34.5 -62t18.5 -62.5t8.5 -54t1.5 -41.5q0 -143 -68 -244 q-75 -111 -204 -149.5t-355 -38.5h-111q-154 0 -246 -2l-10 12q8 308 8 629q0 475 -14 797zM432 522q0 -190 2 -303h76q223 0 223 207q0 114 -60 156.5t-171 42.5q-50 0 -70 -2v-101zM432 1055q0 -13 1 -90.5t1 -110.5h64q213 0 213 199q0 49 -12.5 85t-30.5 54.5t-45 29 t-47 13t-46 2.5q-16 0 -38.5 -0.5t-39 -1t-18.5 -0.5q0 -17 -1 -82.5t-1 -97.5z" />
<glyph unicode="C" horiz-adv-x="1067" d="M70 696q0 295 107 484.5t296 257.5q100 35 244 35q177 0 303 -58l8 -14q-14 -164 -18 -275l-13 -6q-97 88 -227 88q-68 0 -123.5 -22.5t-91.5 -61.5t-62 -86t-39.5 -103t-19.5 -105t-6 -99q0 -44 3 -85t12.5 -91.5t25 -93.5t42 -85t61.5 -71t86.5 -47t113.5 -18 q140 0 246 86l12 -7q-9 -112 -12 -276l-10 -14q-126 -56 -293 -56q-130 0 -235 33.5t-171 83.5t-114 124t-71.5 136.5t-36.5 141t-15 118t-2 86.5z" />
<glyph unicode="D" horiz-adv-x="1236" d="M92 1436l10 10h185q47 0 130.5 1t104.5 1q73 0 115.5 -1.5t109 -12t115.5 -31.5q305 -130 305 -649q0 -581 -366 -711q-119 -43 -283 -43q-204 0 -407 -6l-11 12q4 312 4 420q0 635 -12 1010zM438 1073q0 -633 8 -817q21 -2 33 -2q112 4 166 35q92 53 130 177.5t38 315.5 q0 223 -73.5 319.5t-227.5 96.5q-39 0 -74 -4v-121z" />
<glyph unicode="E" horiz-adv-x="937" d="M90 1436l10 12h127q403 0 641 4l11 -12q-1 -29 -4 -73.5t-4.5 -81t-2.5 -73.5l-12 -12q-20 0 -112 2t-144 2q-5 0 -53 -1t-109 -1q0 -6 -1 -56t-1 -75q0 -43 1 -116.5t1 -90.5h88q88 0 310 6l12 -12q-1 -34 -5.5 -111.5t-6.5 -107.5l-13 -12h-381v-371h84q30 0 367 10 l10 -12q-10 -146 -14 -242l-10 -12h-86q-430 0 -684 -6l-11 12q6 199 6 539q0 142 -4.5 480t-9.5 411z" />
<glyph unicode="F" horiz-adv-x="894" d="M88 1436l12 12q18 0 94 -1t119 -1h222q56 0 184 3t153 3l13 -12q-11 -159 -13 -228l-14 -12q-234 4 -352 4h-70q-2 -88 -2 -237v-127h60q131 0 319 8l12 -12q-10 -138 -12 -226l-12 -12h-127q-121 0 -240 -2q0 -126 5.5 -329t6.5 -255l-10 -12h-96q-102 0 -231 -6l-11 12 q4 450 4 606q0 397 -14 824z" />
<glyph unicode="G" horiz-adv-x="1236" d="M70 686q0 35 1.5 69.5t9 94t19.5 112t37 118t58 118.5t84.5 106t115.5 89t153 58t193 22q203 0 359 -74l8 -13q-17 -170 -23 -270l-16 -6q-112 96 -266 96q-78 0 -144 -27t-120.5 -82t-85.5 -151.5t-31 -224.5q0 -223 75 -349t220 -126q55 0 106 22q4 61 4 166 q0 21 -10 271l10 12q33 -2 99 -2q48 0 125 3t96 3l10 -12q-8 -136 -8 -277q0 -97 4 -375l-10 -14q-62 -26 -173 -48t-235 -22q-126 0 -230 30.5t-175 85t-123 123t-81 151t-42.5 161.5t-13.5 162z" />
<glyph unicode="H" horiz-adv-x="1236" d="M92 1436l10 10h113q99 0 225 6l11 -12v-72q0 -57 -1 -171.5t-1 -137.5v-158q31 -2 81 -2q165 0 261 6q0 106 -5 275.5t-6 255.5l11 10q150 0 337 6l11 -12q-4 -492 -4 -596q0 -448 10 -832l-12 -12h-95q-107 0 -239 -6l-13 12q5 222 5 389v250q-53 2 -142 2t-203 -6v-27 q1 -82 4.5 -269t4.5 -333l-13 -12h-45q-129 0 -288 -6l-11 12q6 264 6 717q0 449 -12 713z" />
<glyph unicode="I" horiz-adv-x="555" d="M94 1436l10 10h107q106 0 235 6l13 -12q-8 -201 -8 -543q0 -516 12 -885l-10 -12q-9 0 -52 1t-65 1q-61 0 -225 -8l-11 12q4 484 4 717q0 444 -10 713z" />
<glyph unicode="J" horiz-adv-x="641" d="M10 272l13 11q2 -1 9 -5t13 -6.5t14.5 -6t18 -5.5t18.5 -2q25 0 44 9.5t31 29.5t19.5 42.5t11 58.5t4.5 66.5t1 76.5q0 67 -8 431t-11 464l13 10h75q56 0 146 3t113 3l10 -12q-2 -78 -2 -213q0 -129 3 -388t3 -433q0 -75 -9.5 -134.5t-34.5 -114t-66.5 -90.5 t-107.5 -57.5t-155 -21.5q-77 0 -153 14l-11 12q0 4 1 49t1 68q0 47 -4 141z" />
<glyph unicode="K" horiz-adv-x="1150" d="M90 1436l12 10h88q107 0 242 6l10 -12q-3 -130 -4.5 -334.5t-3.5 -294.5l213 401q90 171 113 224l14 10h47q71 0 275 4l6 -10q-128 -188 -193 -295l-192 -314l141 -272q186 -361 293 -539l-4 -12q-198 -6 -377 -16l-12 12q-2 3 -101 218.5t-221 473.5q0 -414 15 -684 l-13 -12h-106q-98 0 -221 -6l-11 12q6 323 6 580q0 520 -16 850z" />
<glyph unicode="L" horiz-adv-x="894" d="M96 1436l10 10q150 0 334 6l13 -12q-7 -184 -7 -428v-613q0 -63 3 -143h63q66 0 348 12l10 -12q-4 -56 -12 -246l-12 -12q-64 2 -107 2h-354q-114 0 -270 -4l-13 12q2 143 2 389q0 451 -8 1039z" />
<glyph unicode="M" horiz-adv-x="1579" d="M68 6q31 564 32 594l19 451q12 282 12 385l12 10h117q140 0 318 6l12 -12q28 -130 209 -912q147 645 200 908l13 10q189 0 426 6l12 -12q5 -183 14 -439l13 -317q12 -325 36 -672l-12 -12h-90q-102 0 -231 -6l-13 12v92q0 70 -1.5 169.5t-4.5 325t-6 535.5 q-209 -901 -252 -1116l-14 -12h-72q-77 0 -176 -6l-12 12q-5 22 -22 97.5t-74.5 333t-151.5 675.5q-5 -208 -10 -407.5t-7.5 -284t-4 -168.5t-1.5 -156v-84l-10 -12q-121 0 -268 -6z" />
<glyph unicode="N" horiz-adv-x="1280" d="M90 1434l12 12h78q52 0 136.5 3t103.5 3l16 -12q38 -75 80 -153.5t76.5 -141t137 -247.5t188.5 -341q-18 799 -23 879l12 10q26 1 121.5 3.5t138.5 2.5l11 -12q0 -57 -1 -315.5t-1 -407.5q0 -358 8 -705l-13 -12h-49q-110 0 -245 -6l-15 12q-143 255 -497 926 q23 -805 28 -920l-12 -12h-37q-103 0 -229 -6l-15 12q6 202 6 367q0 101 -6.5 539t-9.5 522z" />
<glyph unicode="O" horiz-adv-x="1323" d="M70 715q0 78 7.5 150.5t27 149.5t49 143t76.5 125t107 100.5t143 65.5t182 24q102 0 188 -24t161.5 -80t128 -142.5t83 -217.5t30.5 -298q0 -141 -25.5 -256t-65 -190t-95.5 -131.5t-109 -86t-113.5 -47.5t-101 -22.5t-79.5 -4.5q-101 0 -187.5 24t-162.5 80t-129 140 t-84 211t-31 287zM420 725q0 -90 9.5 -168t33.5 -158.5t75 -128t124 -47.5q67 0 115.5 41.5t75 115t38.5 159t12 188.5q0 239 -60.5 370.5t-180.5 131.5q-48 0 -86.5 -23t-63.5 -58t-43 -85.5t-27 -95t-14.5 -98t-6.5 -83.5t-1 -61z" />
<glyph unicode="P" horiz-adv-x="1067" d="M96 6q10 600 10 823q0 382 -6 607l11 10q78 0 216.5 3t196.5 3q47 0 76.5 -1t87 -10t96.5 -25.5t87.5 -51t78 -82.5t50 -124t20.5 -171q0 -99 -24 -179.5t-66 -135.5t-90.5 -90.5t-106.5 -55.5q-83 -28 -244 -28h-53v-207q0 -143 8 -279l-10 -12h-106q-99 0 -222 -6z M436 1212q0 -297 2 -469h27q49 0 85.5 9.5t71 35.5t52.5 79.5t18 133.5q0 120 -49 166.5t-129 46.5q-51 0 -78 -2z" />
<glyph unicode="Q" horiz-adv-x="1323" d="M70 715q0 168 35.5 304.5t106.5 239t187.5 158.5t270.5 56q265 0 420 -175q163 -183 163 -559q0 -575 -346 -684q183 -66 414 -127l6 -20q-53 -55 -184 -199l-19 -4q-126 78 -280 158.5t-234 113.5q-51 2 -101 12.5t-104.5 35t-102 61.5t-91 95.5t-74 132t-49 176.5 t-18.5 225zM420 717q0 -50 3.5 -97.5t12 -106.5t26 -106.5t43.5 -89t66.5 -65t92.5 -23.5q61 0 107 34t71 84.5t40.5 121t20 129t4.5 123.5q0 38 -1 72t-6.5 87.5t-15 97t-27.5 91t-43 80t-63 53.5t-85 21q-49 0 -88 -22t-64 -56t-43.5 -83t-28 -93.5t-15 -98t-6.5 -86 t-1 -67.5z" />
<glyph unicode="R" horiz-adv-x="1110" d="M90 1436l10 10q59 1 198.5 3.5t242.5 2.5q144 0 211 -13t120 -46q158 -101 158 -361q0 -81 -19 -151.5t-69 -135t-127 -98.5l92 -205q128 -284 203 -419l-8 -15q-180 -6 -348 -16l-17 12q-63 179 -174 447l-49 120q-31 -2 -80 -2q0 -311 12 -557l-10 -12h-55 q-122 0 -272 -6l-11 12q8 347 8 699q-3 445 -16 731zM432 799q10 -2 29 -2q31 0 54 2t59 14.5t59.5 34.5t41 67t17.5 107q0 91 -38.5 140.5t-116.5 49.5q-68 0 -101 -2q-2 -88 -2.5 -225t-1.5 -186z" />
<glyph unicode="S" horiz-adv-x="937" d="M59 1055q0 85 21 153.5t57.5 113t81 76t98 47.5t100.5 23t97 7q173 0 305 -66l8 -16q-8 -86 -16 -246l-16 -6q-34 28 -58 44.5t-71.5 33t-100.5 16.5q-77 0 -124.5 -42t-47.5 -108q0 -53 33 -97.5t125 -106.5l96 -64q53 -35 90.5 -68t72.5 -79.5t53 -107t18 -134.5 q0 -65 -14 -125.5t-49.5 -122t-90 -106.5t-143 -73t-201.5 -28q-175 0 -307 66l-13 20q1 11 7 106t6 144l16 6q106 -100 254 -100q55 0 95 17.5t60.5 46t30 57t9.5 57.5q0 62 -36 105.5t-120 101.5l-86 59q-40 28 -66 49t-62.5 59.5t-58 76.5t-37.5 93.5t-16 117.5z" />
<glyph unicode="T" horiz-adv-x="980" d="M10 1204q7 99 10 232l13 10h448q216 0 480 6l10 -12q-11 -158 -13 -232l-12 -12q-94 6 -254 6h-35v-258q0 -554 11 -932l-13 -12h-96q-106 0 -235 -6l-13 12q3 114 7 584.5t4 609.5q-27 0 -94 -1t-111 -2t-94 -5z" />
<glyph unicode="U" horiz-adv-x="1193" d="M86 1434l8 12q176 0 340 6l10 -12q-6 -427 -6 -887q0 -35 0.5 -59t4.5 -61.5t11 -64t21 -56.5t33.5 -48t49 -30.5t67.5 -12.5q99 0 142.5 81.5t43.5 266.5v596q0 171 -2 269l10 12q156 0 281 6l12 -12q-8 -304 -8 -676v-141q0 -206 -15 -300.5t-73 -175.5 q-64 -90 -168 -132t-256 -42q-26 0 -45 0.5t-62.5 6t-78 15t-80 30.5t-80 49.5t-67.5 74.5t-52 103q-23 66 -29 145.5t-6 225.5v317q0 362 -6 494z" />
<glyph unicode="V" horiz-adv-x="1110" d="M-8 1430l8 12q239 8 338 14l14 -10q29 -168 67 -348t163 -742q122 538 162.5 728t66.5 352l14 10h64q57 0 221 4l8 -10q-109 -386 -174 -633l-82 -309q-66 -249 -125 -486l-12 -12h-104q-109 0 -244 -6l-12 12q-66 271 -103 408l-121 450q-148 560 -149 566z" />
<glyph unicode="W" horiz-adv-x="1748" d="M-8 1430l8 12q131 4 326 14l10 -10q14 -104 27.5 -193.5t31 -202t30 -189.5t41.5 -251.5t48 -294.5q75 389 193 1121l12 10q159 0 356 6l12 -12q10 -60 39.5 -252.5t62.5 -388t85 -477.5q26 157 71.5 423.5t76.5 451t38 239.5l15 10q70 0 274 4l10 -10 q-21 -94 -69 -302.5t-76 -340.5l-82 -377q-15 -70 -42 -200.5t-44 -207.5l-14 -12q-8 0 -62 1t-80 1q-61 0 -237 -8l-15 12q-7 42 -36.5 241.5t-51.5 321.5l-84 467l-65 -346q-24 -125 -121 -678l-12 -12q-11 0 -62.5 1t-77.5 1q-59 0 -235 -8l-12 12q-18 85 -43 219.5 t-37 194.5l-64 325q-55 286 -145 685z" />
<glyph unicode="X" horiz-adv-x="1067" d="M-8 8q46 84 377 725q-346 671 -359 697l8 12q169 3 357 14l14 -10q50 -136 180 -428q126 295 174 418l15 10h100q51 0 195 4l6 -10q-58 -98 -118.5 -215.5t-231.5 -466.5q81 -166 366 -740l-6 -14q-73 -1 -350 -14l-17 12q-33 84 -194 455q-88 -203 -189 -445l-14 -12 h-102q-53 0 -205 -4z" />
<glyph unicode="Y" horiz-adv-x="1110" d="M-8 1430l6 12q164 3 346 14l16 -10q106 -291 222 -592q118 294 225 582l14 10h56q61 0 233 4l8 -12q-89 -170 -239 -510l-158 -359v-67q0 -250 8 -490l-12 -12h-68q-120 0 -270 -6l-10 12q10 200 10 486v67l-166 371q-18 40 -93.5 216.5t-127.5 283.5z" />
<glyph unicode="Z" horiz-adv-x="980" d="M8 8q46 100 116 268t105 248l150 342q102 236 137 334h-86q-138 0 -360 -10l-11 12q6 91 13 234l12 12q57 -2 158 -2h381q147 0 331 6l7 -12q-74 -189 -230 -553l-272 -637h76q69 0 130 2t149 6t130 6l10 -12q-10 -118 -16 -242l-10 -10h-637q-122 0 -275 -6z" />
<glyph unicode="[" horiz-adv-x="598" d="M129 1489l12 12q197 0 443 6l12 -12q-4 -86 -4 -115v-49l-12 -12q-10 0 -21.5 1t-15.5 1q-25 0 -123 -4q-4 -88 -4 -240v-655q0 -394 12 -625h57q62 0 99 2l12 -12l-4 -156l-12 -10h-127q-65 0 -169 -3t-130 -3l-13 12q0 28 2 147.5t2 188.5q0 45 -1 270t-1 512 q0 125 -2 236.5t-6 272.5t-6 235z" />
<glyph unicode="\" horiz-adv-x="724" d="M14 1491l11 16q7 0 45.5 -1t56.5 -1h86l16 -12q86 -312 195 -664l139 -446q171 -539 246 -754l-10 -14q-144 4 -195 4l-14 12q-28 113 -56.5 211.5t-76 245t-66.5 209.5l-139 453q-157 508 -238 741z" />
<glyph unicode="]" horiz-adv-x="598" d="M2 -373q4 86 4 115v49l12 12q10 0 21.5 -1t15.5 -1q74 0 123 2q0 30 2 112t2 130q0 903 -12 1278h-59q-60 0 -97 -2l-12 12l4 158l12 10h125q133 0 299 6l13 -12q0 -28 -1 -147.5t-1 -188.5q0 -70 1 -346.5t1 -435.5q0 -274 14 -746l-12 -12q-279 0 -443 -4z" />
<glyph unicode="^" horiz-adv-x="1302" d="M188 627q296 709 332 805l19 12q141 2 235 4l17 -14q71 -186 152 -387t126 -309l45 -109l-10 -19q-137 0 -250 -2l-14 17q-154 445 -183 557q-29 -80 -98.5 -274.5t-101.5 -280.5l-17 -17h-80q-17 0 -66 -1t-95 -1z" />
<glyph unicode="_" d="M-20 -268l10 12h1042l12 -10q-2 -37 -2 -109q0 -53 2 -80l-12 -12h-1040l-12 10q2 37 2 109q0 53 -2 80z" />
<glyph unicode="`" horiz-adv-x="512" d="M66 1526l8 12h55q51 0 199 4l12 -10q21 -99 104 -330l-8 -10h-47q-35 0 -133 -4l-12 10q-80 162 -178 328z" />
<glyph unicode="a" horiz-adv-x="937" d="M29 319q0 166 107 266.5t362 149.5l43 8v19q0 62 -29 95.5t-119 33.5q-128 0 -260 -82l-14 8q7 87 10 207l12 16q64 31 167.5 49.5t180.5 18.5q73 0 131 -14.5t95 -35.5t64 -55.5t40 -64t20.5 -72t9 -68.5t1.5 -63q0 -11 -2 -143t-2 -209q0 -203 16 -371l-14 -12h-70 q-97 0 -217 -6l-14 12v80q-100 -104 -244 -104q-51 0 -98 19.5t-87 58t-64.5 105.5t-24.5 154zM322 356q0 -56 27 -99.5t83 -43.5q60 0 111 55v289q-32 -4 -58 -9.5t-58 -19.5t-53.5 -34.5t-36.5 -56t-15 -81.5z" />
<glyph unicode="b" d="M78 1497l10 12q121 17 315 58l11 -8q0 -29 -3 -139.5t-3 -180.5v-227q108 94 223 94q149 0 244.5 -131.5t95.5 -362.5q0 -233 -86 -378t-238 -201q-94 -33 -256 -33h-135q-99 0 -156 -4l-12 12q8 207 8 557q0 582 -18 932zM410 217q12 -2 30 -2q205 0 205 369 q0 52 -5.5 96.5t-19 91t-43 73.5t-71.5 27q-45 0 -96 -51v-604z" />
<glyph unicode="c" horiz-adv-x="768" d="M53 504q0 90 12 169.5t44.5 161.5t83.5 140.5t136.5 95.5t196.5 37q92 0 197 -37l8 -16q-10 -139 -12 -226l-14 -6q-63 54 -130 54q-102 0 -154 -88t-52 -244q0 -332 221 -332q72 0 133 41l10 -6q-5 -105 -8 -215l-12 -15q-37 -17 -88 -27t-79 -12t-44 -2q-97 0 -175 30 t-128.5 80t-84 119t-47.5 143t-14 155z" />
<glyph unicode="d" d="M53 479q0 49 3.5 96.5t15.5 110t32 116t56 107.5t83.5 91.5t118.5 61t158 23.5q76 0 111 -2q0 247 -13 414l11 12q111 17 307 58l12 -13q-14 -146 -14 -1062q0 -304 10 -480l-12 -12q-8 0 -45 1t-56 1q-50 0 -194 -8l-10 12q4 78 4 105q-100 -129 -248 -129 q-152 0 -241 132.5t-89 364.5zM383 494q0 -283 135 -283q58 0 103 63q4 188 4 283v61q0 162 -2 242q-18 6 -43 6q-197 0 -197 -372z" />
<glyph unicode="e" horiz-adv-x="937" d="M53 535q0 151 34 263.5t95.5 179t139 98.5t172.5 32q147 0 245 -78q81 -64 117.5 -168t36.5 -266q0 -68 -2 -107l-14 -12h-512q0 -123 66 -197.5t190 -74.5q136 0 223 74l14 -9q-7 -91 -10 -217l-12 -14q-45 -28 -120.5 -44t-110.5 -18t-56 -2q-100 0 -180 25.5 t-130.5 63t-88 94t-55.5 104.5t-28.5 109t-12 93.5t-1.5 70.5zM362 670h230q0 50 -4.5 87.5t-15.5 71.5t-34 52t-57 18q-57 0 -88 -67t-31 -162z" />
<glyph unicode="f" horiz-adv-x="598" d="M12 868q0 2 8 203l13 12q21 0 55 -2t35 -2v80q0 80 7 136.5t28.5 109.5t59 85.5t100 51.5t149.5 19q65 0 143 -15l8 -12q-9 -88 -12 -213l-14 -12q-23 14 -49 14q-105 0 -105 -147v-99q60 0 144 6l12 -14q-9 -108 -12 -201l-13 -12q-49 2 -129 2v-37q0 -458 15 -809 l-13 -12h-63q-112 0 -250 -6l-12 12q8 301 8 811v45q-4 0 -41 -2t-61 -2z" />
<glyph unicode="g" horiz-adv-x="937" d="M27 -172q0 45 15 84t33.5 63.5t50 48t48 32.5t43.5 22q-57 31 -108 69l-5 21q59 113 136 238q-50 23 -87 59t-55 69.5t-28.5 73.5t-12.5 61.5t-2 43.5q0 57 13.5 109.5t45 101t77.5 84t116 56.5t156 21h457l10 -12q-8 -132 -8 -180l-13 -10q-112 9 -133 10 q35 -27 60.5 -80.5t25.5 -118.5q0 -41 -9.5 -82.5t-35 -88t-65.5 -81t-107 -57.5t-153 -23q-39 0 -74 7q-1 -1 -29 -52l2 -12l162 -59q105 -38 170 -70.5t108.5 -71.5t60.5 -83t17 -105q0 -75 -27.5 -139t-82.5 -115.5t-148.5 -81t-216.5 -29.5q-187 0 -297 78t-110 199z M287 -147q0 -63 45 -95t104 -32q72 0 111 36t39 82q0 23 -7.5 41.5t-17 30.5t-31.5 25.5t-38.5 21.5t-50.5 23t-56 26q-59 -50 -78.5 -85t-19.5 -74zM352 715q0 -82 26 -134.5t79 -52.5q108 0 108 193q0 100 -30 148.5t-78 48.5q-54 0 -79.5 -58.5t-25.5 -144.5z" />
<glyph unicode="h" d="M74 1497l8 12q87 13 319 58l11 -11q-4 -207 -4 -557v-28q29 27 50 44t58.5 41.5t80.5 37t89 12.5q51 0 91 -16t65.5 -38.5t43.5 -60.5t26.5 -67.5t13.5 -75t5.5 -68t0.5 -59.5v-266q0 -115 12 -443l-10 -12q-5 0 -51 1t-68 1q-50 0 -190 -8l-11 12q2 133 2 359v159 q0 200 -14 263t-74 63q-51 0 -108 -57l-8 -11v-26q0 -103 4 -403.5t8 -340.5l-10 -12q-8 0 -49 1t-62 1q-55 0 -203 -8l-12 12q8 270 8 731q0 191 -0.5 271t-5.5 218.5t-16 270.5z" />
<glyph unicode="i" horiz-adv-x="512" d="M76 1042l10 13q174 23 324 57l12 -12q-6 -249 -6 -451q0 -371 18 -637l-10 -12q-5 0 -47.5 1t-63.5 1q-55 0 -215 -8l-12 12q10 303 10 492q0 343 -20 544zM90 1495l12 12q117 11 291 37l13 -12q-3 -88 -3 -162v-82l-10 -12q-104 -10 -284 -41l-13 12v72q0 77 -6 176z " />
<glyph unicode="j" horiz-adv-x="512" d="M-20 -221l10 12q31 0 52.5 15.5t34 40t19 66t8.5 81t2 98.5q0 145 -8 555q-10 285 -18 395l10 13q183 24 324 57l12 -12q0 -18 -3 -94t-3 -123q0 -177 4 -513l4 -335q0 -42 -1 -69.5t-9.5 -79t-23.5 -88t-46 -81.5t-74.5 -75t-111.5 -53.5t-154 -30.5l-14 12 q-4 81 -14 209zM92 1495l14 12q114 13 287 39l15 -12q-2 -55 -2 -152v-100l-13 -12q-101 -12 -282 -43l-13 12v72q0 82 -6 184z" />
<glyph unicode="k" horiz-adv-x="980" d="M74 1497l10 12q164 25 322 58l12 -11q-8 -391 -8 -931q150 269 221 448l12 12q35 -2 102 -2q59 0 175 7l8 -13q-87 -142 -156 -262l-84 -145q275 -610 293 -652l-8 -14q-150 -2 -324 -14l-12 12q-62 172 -125 322l-102 249v-43q0 -296 14 -518l-12 -12h-95q-96 0 -219 -6 l-12 12q10 407 10 733q0 451 -22 758z" />
<glyph unicode="l" horiz-adv-x="512" d="M80 1497l10 12q83 13 313 58l13 -13q-2 -211 -2 -561q0 -124 6 -507t10 -474l-12 -12q-7 0 -46 1t-57 1q-55 0 -215 -8l-10 12q8 273 8 555q0 686 -18 936z" />
<glyph unicode="m" horiz-adv-x="1536" d="M70 1042l12 13q173 23 321 57l15 -12q-1 -14 -6 -139q145 145 266 145q142 0 205 -137q34 31 54.5 47t60 41t85.5 37t99 12q262 0 262 -373v-149q0 -319 12 -572l-12 -12h-70q-107 0 -239 -6l-13 12q6 343 6 627q0 52 -2.5 85t-11 67t-28 50.5t-50.5 16.5q-10 0 -19 -1 t-18 -5t-14 -5.5t-15 -9.5t-13 -10t-15.5 -13t-15.5 -13q4 -53 4 -146v-203q0 -34 10 -434l-12 -12h-62q-106 0 -241 -6l-13 12q4 133 4 361v213q0 145 -19 208.5t-77 63.5q-45 0 -106 -61v-46q0 -463 12 -733l-12 -12q-138 0 -310 -6l-12 12q0 23 1 162.5t1 239.5 q0 159 -0.5 226.5t-6 182.5t-17.5 225z" />
<glyph unicode="n" d="M74 1042l10 13q172 26 317 57l13 -12q-4 -94 -4 -127q138 133 274 133q89 0 150 -51q54 -44 75 -130t21 -214q0 -428 16 -699l-14 -12h-101q-89 0 -206 -6l-11 12q2 74 2 363v182q0 70 -1.5 113t-7 82.5t-16 60t-27.5 32t-42 11.5q-33 0 -63 -20.5t-49 -45.5 q-2 -39 -2 -104q0 -137 5.5 -373.5t8.5 -294.5l-12 -12h-103q-92 0 -209 -6l-12 12q8 312 8 420q0 332 -20 616z" />
<glyph unicode="o" d="M53 557q0 88 14 165.5t47.5 149.5t84.5 123.5t130 82t179 30.5q463 0 463 -569q0 -99 -15.5 -180.5t-41.5 -138.5t-62.5 -101t-76 -70.5t-86.5 -43t-88 -22.5t-85 -6q-226 0 -344.5 139.5t-118.5 440.5zM385 553q0 -367 127 -367q71 0 99 88.5t28 284.5q0 342 -125 342 q-129 0 -129 -348z" />
<glyph unicode="p" d="M68 1042l10 13q167 23 315 57l13 -12q-3 -55 -3 -103q109 109 240 109q115 0 201 -90q127 -134 127 -416q0 -389 -232 -532q-113 -72 -260 -72h-67q3 -64 5.5 -197.5t6.5 -218.5l-12 -10q-9 0 -53.5 1t-67.5 1q-51 0 -191 -8l-12 12q8 243 8 492q0 241 -1 346.5t-7 282 t-20 345.5zM416 811q0 -375 2 -596l11 -1q11 -1 17 -1q201 0 201 362q0 37 -3 71.5t-14 92.5t-41 93.5t-75 35.5q-48 0 -98 -57z" />
<glyph unicode="q" d="M53 475q0 242 87 390.5t247 193.5q39 11 99.5 17t112.5 7t157 3t174 4l12 -11q-8 -229 -8 -467q0 -139 4 -549q3 -292 16 -483l-12 -10h-119q-84 0 -192 -6l-13 12q7 315 7 483q-97 -77 -228 -77q-157 0 -250.5 127t-93.5 366zM381 518q0 -65 7 -118.5t22.5 -99t44 -71.5 t67.5 -26q52 0 94 45v610q-4 0 -18 2t-25 2q-192 0 -192 -344z" />
<glyph unicode="r" horiz-adv-x="724" d="M74 1042l12 13q152 18 309 57l13 -12q-2 -74 -2 -199v-43q17 51 32.5 87t43 78t68.5 64.5t93 22.5q32 0 64 -8l12 -15q-27 -184 -41 -335l-14 -9q-48 48 -95 48q-35 0 -61.5 -11.5t-42.5 -35.5t-26.5 -50t-15 -66t-6 -71t-1.5 -78q0 -139 8 -467l-12 -12h-84 q-101 0 -230 -6l-12 12q10 283 10 457q0 379 -22 579z" />
<glyph unicode="s" horiz-adv-x="768" d="M43 772q0 51 11.5 96.5t40 90.5t72 77t114 52t159.5 20q150 0 244 -39l8 -14q-6 -117 -6 -215l-14 -4q-81 73 -183 73q-32 0 -60.5 -8t-52.5 -32t-24 -60q0 -41 22.5 -66.5t86.5 -64.5l47 -29q56 -34 87.5 -57.5t67.5 -62t52 -86.5t16 -111q0 -46 -10.5 -91.5t-39 -94 t-70.5 -85.5t-111.5 -60.5t-157.5 -23.5q-163 0 -285 50l-12 20q1 25 6 209l17 8q98 -84 204 -84q71 0 106.5 32.5t35.5 76.5q0 46 -26 73t-81 60l-51 31q-47 28 -76.5 50.5t-65 60.5t-53.5 90.5t-18 117.5z" />
<glyph unicode="t" horiz-adv-x="598" d="M4 868q5 98 8 203l13 12h92v56q0 40 -1 108.5t-1 85.5l10 15q145 36 293 82l12 -13q-1 -35 -6 -340q65 0 151 6l11 -14q-1 -18 -11 -201l-12 -10h-139q0 -200 -1 -341t-1 -144q0 -164 96 -164q33 0 66 20l12 -8q-9 -177 -10 -203l-13 -14q-71 -22 -167 -22 q-80 0 -137.5 20.5t-86.5 48t-45.5 71.5t-20 75.5t-3.5 74.5q0 149 1 290t1 147v153q-13 -1 -48.5 -2t-52.5 -2z" />
<glyph unicode="u" d="M84 1069l10 10q132 0 299 15l13 -13q0 -51 -2.5 -281t-2.5 -354q0 -42 1.5 -68t7 -57.5t16.5 -48.5t31.5 -29t50.5 -12q62 0 113 60q0 12 1 61.5t1 75.5q0 287 -13 641l11 10q121 2 303 15l12 -13q-6 -218 -6 -393q0 -451 10 -676l-12 -12h-78q-96 0 -219 -6l-8 10l4 113 q-26 -26 -48 -45.5t-57.5 -43t-78.5 -36t-91 -12.5q-68 0 -116.5 20.5t-76.5 53t-44 84.5t-20.5 102t-4.5 118v383q0 207 -6 328z" />
<glyph unicode="v" horiz-adv-x="894" d="M-6 1067l10 12q187 7 307 15l15 -13q11 -71 23.5 -134.5t33 -154.5t29.5 -133l69 -321q29 134 62.5 288t45 209.5t23.5 119t19 118.5l14 12h68q97 0 180 5l8 -13q-27 -106 -76.5 -275.5t-62.5 -215.5l-76 -273q-16 -59 -41 -154t-39 -147l-14 -12h-78q-92 0 -209 -6 l-14 12l-137 502q-111 406 -160 559z" />
<glyph unicode="w" horiz-adv-x="1409" d="M-6 1065l10 12q80 3 283 19l14 -13q26 -166 61 -348l70 -366q115 593 131 704l15 12q41 -2 127 -2q66 0 192 7l14 -13q13 -83 127 -712q18 94 40 211.5t31 165t20.5 110.5t16 92.5t9 62.5t8.5 66l13 12h69q86 0 160 5l10 -13q-66 -264 -129 -524l-67 -281 q-12 -51 -31.5 -136t-28.5 -124l-16 -12q-3 0 -41.5 1t-57.5 1q-46 0 -190 -8l-14 12q-20 127 -131 715q-39 -194 -70 -352.5t-45 -228.5t-27 -128l-14 -12h-88q-89 0 -203 -6l-14 12q-244 1028 -254 1059z" />
<glyph unicode="x" horiz-adv-x="894" d="M-6 8q83 141 301 535l-125 237q-18 35 -160 285l10 12q102 3 318 19l14 -13q3 -5 43 -96.5t82 -179.5q94 195 121 266l14 12q29 -2 86 -2q59 0 166 7l10 -13q-18 -32 -53.5 -95t-89.5 -161.5t-131 -240.5q137 -265 301 -564l-8 -12q-126 -2 -322 -12l-16 12 q-74 174 -137 309q-101 -210 -144 -303l-14 -12q-33 2 -96 2q-44 0 -162 -4z" />
<glyph unicode="y" horiz-adv-x="937" d="M-6 1067l8 12q136 2 326 15l16 -13q38 -175 84 -362l78 -309l84 329q64 254 80 334l12 12h63q101 0 191 5l8 -13q-85 -271 -186 -602l-103 -336q-95 -320 -149 -559l-14 -10h-89q-83 0 -188 -6l-10 14q44 90 121 328l18 57q-102 354 -211 688q-95 303 -139 416z" />
<glyph unicode="z" horiz-adv-x="811" d="M0 8q61 113 143 305l236 549q-230 0 -320 -4l-10 12q0 44 3.5 114t4.5 89l13 12q10 0 63 -1t84 -1h307q96 0 264 7l9 -11q-141 -306 -197 -436l-180 -424h43q62 0 160 4.5t147 5.5l10 -12q-6 -114 -6 -207l-12 -12q-100 4 -268 4q-32 0 -251 -3t-235 -3z" />
<glyph unicode="{" horiz-adv-x="626" d="M31 504v145l14 17q61 8 89.5 33t41 86t12.5 184v241q0 57 6.5 101.5t27.5 90t56 75t95.5 48.5t142.5 19q41 0 70 -2l12 -16q0 -24 -1 -50.5t-1 -35.5v-54l-14 -16q-100 -4 -128 -50.5t-28 -199.5v-178q0 -68 -4 -113t-16 -89t-34.5 -72t-60 -51t-92.5 -37q42 -6 74.5 -22 t54.5 -35.5t37 -50.5t23 -58t12 -68.5t5 -71t1 -75.5v-238q0 -105 30.5 -142.5t127.5 -41.5l12 -17v-139l-14 -14q-25 -2 -58 -2q-185 0 -260.5 85.5t-75.5 266.5v231q0 123 -13.5 184.5t-43.5 86.5t-90 30z" />
<glyph unicode="|" horiz-adv-x="514" d="M123 1526l16 16q132 0 236 2l12 -16q-2 -113 -2 -285v-1120l4 -514l-14 -17q-134 0 -238 -4l-12 17q2 321 2 520v848q0 281 -4 553z" />
<glyph unicode="}" horiz-adv-x="630" d="M25 -375l4 86v53l12 15q100 4 130 52t30 200v184q0 67 4 111.5t16.5 87.5t35.5 70.5t60.5 50t92.5 36.5q-49 8 -85 25t-58.5 46t-36.5 58t-20 74t-7.5 79t-1.5 87v227q0 122 -32.5 163t-129.5 44l-10 15v141l14 14q25 2 61 2q181 0 258.5 -86t77.5 -266v-231 q0 -122 14 -184.5t44 -87t90 -29.5l10 -17v-143l-14 -19q-60 -6 -89 -30.5t-42 -86t-13 -184.5v-241q0 -57 -7 -101.5t-28.5 -90t-56.5 -75t-96 -48.5t-143 -19h-72z" />
<glyph unicode="~" horiz-adv-x="1300" d="M123 618l2 23q110 186 299 186q81 0 194 -49l84 -37q105 -47 154 -47q58 0 99.5 27t84.5 92h19l123 -160v-20q-112 -189 -295 -189q-86 0 -201 52l-84 39q-94 43 -151 43q-60 0 -101.5 -27t-81.5 -92l-20 2z" />
<glyph unicode="&#xa1;" horiz-adv-x="512" d="M63 2q3 58 11.5 194t12.5 206t9.5 179.5t7.5 205.5t2 192l15 16q48 0 126.5 3t96.5 3l12 -12q17 -533 56 -971l-13 -12q-322 -16 -323 -16zM82 1434l12 12q124 0 277 6l12 -12v-68q0 -53 4 -213l-12 -12q-124 0 -277 -6l-12 12v82q0 51 -4 199z" />
<glyph unicode="&#xa2;" horiz-adv-x="811" d="M53 485q0 193 45 322t126.5 197t207.5 96q0 42 -4 168l12 12h150l12 -12l-2 -166q75 -6 141 -33l9 -16q-1 -41 -6 -116.5t-7 -109.5l-14 -6q-53 53 -131 53q-97 0 -151 -87t-54 -242q0 -162 55 -246t162 -84q73 0 139 41l11 -6q-8 -112 -11 -215l-10 -15 q-71 -28 -127 -32q0 -43 6 -172l-10 -13q-25 2 -74 2q-50 0 -79 -2l-13 13q4 122 4 170q-19 0 -61 10.5t-82 30.5q-64 33 -112 85.5t-72.5 102t-39 108t-17.5 94t-3 68.5z" />
<glyph unicode="&#xa3;" horiz-adv-x="894" d="M49 594q10 71 10 156l15 12q41 -2 112 -2q-10 115 -10 184q0 194 106 300t300 106q136 0 262 -41l8 -15q-1 -39 -6 -110.5t-6 -96.5l-17 -8q-70 47 -155 47q-189 0 -189 -231q0 -35 4 -133q53 0 158 3t115 3l10 -12q-1 -36 -10 -162l-13 -12q-59 4 -161 4q-8 0 -38 -1 t-59 -1v-78q0 -42 -1.5 -79.5t-5.5 -73t-6.5 -55t-8 -54t-6.5 -41.5q303 3 383 10l10 -12q-1 -33 -10 -189l-11 -12h-477q-108 0 -243 -6l-13 18q47 119 72 248t25 326q-34 0 -132 -4z" />
<glyph unicode="&#xa4;" horiz-adv-x="1142" d="M51 248v22l131 119q-69 101 -69 234q0 139 69 229l-131 119v24q64 60 139 140l23 -2q64 -68 123 -125q100 69 237 69q140 0 234 -67l51 51t40 41t30 33h22q98 -98 142 -136v-22l-131 -117q69 -107 69 -233q0 -138 -69 -238l131 -117v-24q-97 -94 -140 -142l-22 3 q-80 84 -123 127q-107 -66 -244 -66q-121 0 -229 68q-73 -76 -117 -127h-24q-72 75 -142 137zM342 623q0 -103 66.5 -172.5t164.5 -69.5q97 0 162.5 69.5t65.5 172.5q0 105 -65.5 174t-164.5 69q-98 0 -163.5 -69.5t-65.5 -173.5z" />
<glyph unicode="&#xa5;" horiz-adv-x="1110" d="M-8 1307l6 12q156 0 346 12l16 -10q25 -65 222 -541q153 350 225 531l14 10h56q104 0 233 6l8 -12q-62 -114 -239 -469q69 0 112 2l10 -12q-3 -26 -12 -158l-12 -12q-41 2 -111 2h-73l-70 -146l-2 -14h160q69 0 110 2l10 -12q-4 -34 -12 -158l-12 -12q-41 2 -113 2h-141 q5 -283 6 -320l-12 -10h-72q-119 0 -266 -6l-10 12q10 119 10 324h-139q-89 0 -140 -2l-12 14q9 86 14 154l15 14q49 -2 131 -2h133l-78 160h-20q-115 0 -183 -2l-12 14q10 91 14 154l15 14q37 -2 98 -2q-28 57 -103 217t-120 244z" />
<glyph unicode="&#xa6;" horiz-adv-x="514" d="M123 422l16 14q132 0 236 4l12 -16q-2 -80 -2 -191v-309l4 -315l-14 -17q-134 0 -238 -4l-12 17q0 115 1 215.5t1 105.5v172q0 177 -4 324zM123 1526l16 16q132 0 236 2l12 -16q-2 -80 -2 -189v-311q0 -171 4 -315l-14 -17q-134 0 -238 -2l-12 15q0 113 1 211t1 110v174 q0 175 -4 322z" />
<glyph unicode="&#xa7;" horiz-adv-x="980" d="M70 573q0 38 5.5 72.5t13.5 59.5t22.5 50.5t26 41t31.5 35.5t30.5 28.5t32 26t28.5 22.5q-108 91 -108 228q0 107 55 184.5t138 113t181 35.5q125 0 285 -57l10 -18q-14 -138 -18 -213l-19 -8q-93 77 -194 77q-56 0 -96.5 -27t-40.5 -83q0 -51 34.5 -87.5t122.5 -88.5 l99 -58q42 -24 71 -45.5t62.5 -57.5t51 -85.5t17.5 -110.5q0 -49 -13.5 -94.5t-31.5 -77.5t-47.5 -64.5t-49.5 -50t-50 -40.5q127 -97 127 -240q0 -47 -11.5 -94t-41.5 -97t-75.5 -87.5t-120.5 -62t-169 -24.5q-156 0 -287 62l-10 18q14 111 19 226l16 6q33 -33 91.5 -57.5 t127.5 -24.5q78 0 114 36.5t36 86.5q0 52 -29.5 83t-95.5 70l-74 45q-70 43 -113 75t-81 73.5t-55 89.5t-17 108zM311 653q0 -30 9 -53t38 -50t52 -43.5t82 -57.5l83 -58q89 60 89 146q0 52 -40.5 97t-142.5 109l-84 54q-86 -69 -86 -144z" />
<glyph unicode="&#xa8;" horiz-adv-x="512" d="M-61 1477l10 8q93 2 237 12l9 -10q0 -5 -1 -49t-1 -66t1 -69t1 -58l-13 -10q-34 -1 -227 -10l-10 10q-5 214 -6 242zM317 1477l11 8q91 2 237 12l8 -10q0 -5 -1 -49t-1 -66q0 -23 1 -72t1 -55l-12 -10q-34 -1 -227 -10l-10 10q0 85 -7 242z" />
<glyph unicode="&#xa9;" horiz-adv-x="1630" d="M53 721q0 157 59 296t161 238.5t244 157t302 57.5q159 0 300 -57t241.5 -155t158.5 -235.5t58 -293.5q0 -162 -55.5 -302t-153.5 -239.5t-236 -156t-298 -56.5q-165 0 -310 57t-248.5 156t-163 237.5t-59.5 295.5zM193 723q0 -167 84.5 -309.5t229.5 -225t316 -82.5 q124 0 236.5 48.5t194 130t130 195t48.5 237.5q0 131 -47 247t-128.5 198.5t-195 130.5t-242.5 48q-173 0 -317 -81.5t-226.5 -223.5t-82.5 -313zM432 717q0 217 118.5 345t319.5 128q95 0 187 -31l10 -18q-4 -144 -4 -168l-19 -10q-56 53 -147 53q-107 0 -171 -79t-64 -212 q0 -135 62.5 -211t174.5 -76q97 0 162 62l16 -11q-6 -114 -6 -170l-10 -16q-94 -43 -203 -43q-196 0 -311 123t-115 334z" />
<glyph unicode="&#xaa;" horiz-adv-x="641" d="M18 924q0 114 72.5 183t247.5 103l27 4v11q0 40 -19.5 62t-77.5 22q-91 0 -174 -56l-14 7q0 27 3 73.5t3 69.5l10 14q109 45 238 45q51 0 91.5 -10.5t66 -25t44 -40t27 -45t13.5 -50.5t5.5 -47.5t0.5 -43.5q0 -2 -1 -84.5t-1 -142.5q0 -72 3.5 -158.5t6.5 -97.5l-15 -10 q-109 0 -194 -5l-12 11v47q-65 -68 -160 -68q-50 0 -88 21.5t-60 56t-32.5 74t-10.5 80.5zM223 950q0 -47 21 -69.5t51 -22.5q37 0 72 35v188q-144 -15 -144 -131z" />
<glyph unicode="&#xab;" horiz-adv-x="894" d="M45 594q42 83 97.5 217.5t78.5 185.5l17 11h114q84 0 125 2l10 -15q-85 -163 -182 -415q25 -71 51 -133.5t67.5 -152t59.5 -130.5l-10 -14h-70q-73 0 -161 -3l-17 11q-30 72 -91.5 213.5t-86.5 199.5zM430 571v23q41 82 96 215t80 188l15 11h114q84 0 127 2l10 -15 q-88 -168 -184 -415q25 -71 52 -135t67 -148.5t61 -132.5l-10 -14h-72q-70 0 -159 -3l-17 11q-23 52 -84.5 194t-95.5 219z" />
<glyph unicode="&#xac;" horiz-adv-x="1300" d="M145 510q2 94 2 211l17 16q180 -4 252 -4h448q144 0 250 4l12 -16q-2 -82 -2 -180q0 -37 1 -167t1 -274l-12 -16h-33q-10 0 -190 -4l-14 16q2 73 4 402l-721 -2z" />
<glyph unicode="&#xad;" horiz-adv-x="638" d="M49 463q3 45 12 231l13 13q29 0 142 -1t179 -1q115 0 183 4l12 -13q-9 -197 -10 -233l-17 -12q-41 4 -168 4q-234 0 -334 -4z" />
<glyph unicode="&#xae;" horiz-adv-x="1630" d="M53 721q0 157 59 296t161 238.5t244 157t302 57.5q159 0 300 -57t241.5 -155t158.5 -235.5t58 -293.5q0 -162 -55.5 -302t-153.5 -239.5t-236 -156t-298 -56.5q-165 0 -310 57t-248.5 156t-163 237.5t-59.5 295.5zM193 723q0 -167 84.5 -309.5t229.5 -225t316 -82.5 q124 0 236.5 48.5t194 130t130 195t48.5 237.5q0 131 -47 247t-128.5 198.5t-195 130.5t-242.5 48q-173 0 -317 -81.5t-226.5 -223.5t-82.5 -313zM532 1165l15 17q126 2 235 2q85 0 132 -7t85 -26q59 -28 92 -89.5t33 -143.5q0 -86 -35 -142.5t-112 -93.5q82 -175 186 -375 l-12 -16q-69 0 -195 -6l-12 14q-36 80 -73 165t-55 130l-19 45q-25 -2 -56 -2v-84q0 -83 7 -248l-13 -16h-180l-14 16q2 121 2 279q0 258 -11 581zM737 1047l2 -261h11q84 0 121.5 33t37.5 105q0 62 -27.5 92.5t-95.5 30.5h-49z" />
<glyph unicode="&#xaf;" horiz-adv-x="512" d="M-55 1274q9 95 14 166l14 12q104 -4 283 -4q188 0 299 4l12 -10q-10 -104 -12 -170l-14 -12q-154 4 -340 4q-140 0 -244 -2z" />
<glyph unicode="&#xb0;" horiz-adv-x="724" d="M10 1174q0 148 102 250t250 102q144 0 248.5 -99.5t104.5 -248.5q0 -151 -102.5 -255t-250.5 -104q-146 0 -249 103.5t-103 251.5zM250 1178q0 -46 33.5 -80.5t78.5 -34.5q47 0 81 34t34 81t-33.5 79.5t-81.5 32.5q-45 0 -78.5 -30t-33.5 -82z" />
<glyph unicode="&#xb1;" horiz-adv-x="1300" d="M158 14q0 43 1 85t1 65v55l16 17q110 -5 225 -5h482q48 0 243 5l15 -17q-4 -88 -4 -180v-25l-15 -16q-88 2 -252 2h-477q-153 0 -221 -2zM158 733q2 84 2 170v39l16 14q164 0 348 -2v76l-4 270l15 15q125 0 227 2l14 -17q0 -9 -1 -53.5t-2 -123t-1 -169.5h100q36 0 254 4 l15 -14q0 -23 -4 -211l-17 -14l-348 2l4 -346l-14 -15l-230 -2l-12 15q2 111 2 258v90l-350 -2z" />
<glyph unicode="&#xb2;" horiz-adv-x="681" d="M23 442q85 110 241 336q49 71 67.5 100t33 66t14.5 74q0 58 -33 96.5t-94 38.5q-81 0 -176 -76l-15 10q5 165 5 177l8 14q123 63 241 63q131 0 210 -80t79 -210q0 -39 -8 -75.5t-16.5 -61t-36 -67.5t-42 -63.5t-61.5 -82t-69 -91.5h32q52 0 224 8l10 -12q-5 -78 -8 -174 l-15 -10h-352q-145 0 -229 -4z" />
<glyph unicode="&#xb3;" horiz-adv-x="681" d="M51 467q1 14 6 170l17 8q78 -67 157 -67q23 0 45 6t46 20.5t38.5 46t14.5 76.5q0 61 -28.5 97t-88.5 36q-34 0 -84 -20l-12 14l76 143q10 20 33.5 69t41.5 79h-47q-43 0 -111.5 -3t-84.5 -3l-13 12q0 3 11 166l12 10q61 -4 168 -4q246 0 354 6l10 -12q-83 -151 -182 -344 q73 -7 126.5 -69t53.5 -175q0 -150 -90.5 -236.5t-238.5 -86.5q-115 0 -222 47z" />
<glyph unicode="&#xb4;" horiz-adv-x="512" d="M63 1200q1 2 16 42.5t30 83t34 100.5t31 102l12 12q70 0 254 4l6 -12q-88 -145 -190 -330l-14 -12h-45q-80 0 -127 -2z" />
<glyph unicode="&#xb5;" d="M84 1069l10 10q132 0 299 15l13 -13q-3 -170 -3 -305q0 -56 2.5 -174.5t2.5 -214.5q0 -59 6 -87t30 -48q26 -21 64 -21q62 0 113 60q2 45 2 137q0 42 -5.5 319.5t-7.5 321.5l11 10q121 2 303 15l12 -13q-6 -218 -6 -393q0 -428 10 -676l-12 -12h-78q-96 0 -219 -6l-8 10 q0 29 2 64q-42 -41 -65.5 -55.5t-57.5 -14.5q-17 0 -35.5 5.5t-28.5 10.5t-26 15t-17 10q0 -248 13 -459l-13 -10q-8 0 -51 1t-65 1q-45 0 -177 -8l-12 12v862q0 398 -6 631z" />
<glyph unicode="&#xb6;" horiz-adv-x="1179" d="M88 1016q0 196 121 307q83 76 175.5 98.5t223.5 22.5q367 0 467 2l12 -12q-2 -53 -2 -109v-29l-14 -14h-74v-1139q0 -114 7 -497l-13 -17h-71q-52 0 -101 -2l-12 17q8 213 8 499v1139h-219v-1145q0 -42 2 -204t2 -285l-12 -17q-52 0 -170 -4l-10 19q4 326 4 600v364 q-155 29 -239.5 134.5t-84.5 271.5z" />
<glyph unicode="&#xb7;" horiz-adv-x="473" d="M90 717l10 12q178 3 269 6l12 -12q0 -26 4 -272l-12 -13q-165 -3 -267 -8l-14 14v54q0 110 -2 219z" />
<glyph unicode="&#xb8;" horiz-adv-x="512" d="M98 -371q26 55 66 144t59 131l13 10h167l11 -12q-13 -47 -34.5 -133.5t-35.5 -137.5l-12 -12h-119q-69 0 -104 -2z" />
<glyph unicode="&#xb9;" horiz-adv-x="681" d="M145 1147q2 37 2 141l11 10q48 5 93.5 11t116 17.5t93.5 14.5l12 -10q-6 -288 -6 -407q0 -280 10 -492l-10 -10h-64q-37 0 -155 -4l-10 10q6 166 6 451v264q-45 -3 -86 -8z" />
<glyph unicode="&#xba;" horiz-adv-x="724" d="M49 1059q0 93 16.5 164t45.5 116t71 73t88.5 39t104.5 11q64 0 116 -20t95 -64t66.5 -123.5t23.5 -189.5q0 -84 -18 -150t-47.5 -107.5t-71 -68.5t-85 -38t-92.5 -11q-159 0 -236 99.5t-77 269.5zM281 1085q0 -245 81 -245q28 0 45 20t27 75.5t10 151.5q0 228 -79 228 q-27 0 -45 -19t-26 -55t-10.5 -71t-2.5 -85z" />
<glyph unicode="&#xbb;" horiz-adv-x="894" d="M25 162q85 167 184 413q-15 41 -31.5 83t-37 89t-34.5 78t-40 86.5t-37 79.5l10 17h70q102 0 161 2l17 -11q105 -252 180 -413v-23q-41 -81 -95 -213t-81 -190l-17 -13q-56 3 -112 3q-24 0 -71.5 -1.5t-57.5 -1.5zM408 162q91 175 184 413q-25 71 -52 135t-67 148.5 t-61 132.5l10 17h70q102 0 163 2l15 -11q107 -248 180 -413l2 -23q-42 -82 -97.5 -215t-80.5 -188l-15 -13q-59 3 -114 3q-25 0 -73 -1.5t-54 -1.5z" />
<glyph unicode="&#xbc;" horiz-adv-x="1622" d="M145 1147q2 37 2 141l11 10q48 5 93.5 11t116 17.5t93.5 14.5l12 -10q-6 -294 -6 -407q0 -280 10 -492l-10 -10h-64q-37 0 -155 -4l-10 10q6 166 6 451v264q-45 -3 -86 -8zM451 8q198 476 243 588l76 186q36 88 67 171.5t70.5 192.5t63.5 173l14 10h84q61 0 92 2l8 -14 q-143 -342 -233 -569l-90 -230q-131 -328 -193 -506l-26 -12q-46 0 -168 -4zM965 199v123l2 12q113 266 235 559l15 12q43 -2 122 -2q71 0 129 4l13 -12q-4 -144 -4 -537q73 0 100 2l12 -10q-5 -72 -8 -151l-12 -11q-8 0 -48 1t-42 1q0 -48 4 -180l-13 -10q-12 0 -93 -2 t-99 -2l-10 10q0 14 2 91.5t2 90.5h-295zM1128 358h148q4 197 4 396z" />
<glyph unicode="&#xbd;" horiz-adv-x="1622" d="M145 1147q2 37 2 141l11 10q48 5 93.5 11t116 17.5t93.5 14.5l12 -10q-6 -294 -6 -407q0 -280 10 -492l-10 -10h-64q-37 0 -155 -4l-10 10q6 166 6 451v264q-45 -3 -86 -8zM403 8q234 563 244 588l76 186q36 88 67 171.5t70.5 192.5t63.5 173l14 10h84q61 0 92 2l8 -14 q-143 -342 -233 -569l-90 -230q-131 -328 -193 -506l-26 -12q-46 0 -168 -4zM961 20q85 110 241 336q49 71 67.5 100t33 66t14.5 74q0 58 -33 96.5t-94 38.5q-81 0 -176 -76l-15 11q5 165 5 176l8 14q125 64 241 64q131 0 210 -80.5t79 -210.5q0 -39 -8 -75.5t-16.5 -61 t-36 -67.5t-42 -63.5t-61.5 -82t-69 -91.5h32q31 0 224 9l10 -13q-5 -78 -8 -174l-15 -10h-352q-145 0 -229 -4z" />
<glyph unicode="&#xbe;" horiz-adv-x="1622" d="M51 467q1 14 6 170l17 8q78 -67 157 -67q23 0 45 6t46 20.5t38.5 46t14.5 76.5q0 61 -28.5 97t-88.5 36q-34 0 -84 -20l-12 14l76 143q10 20 33.5 69t41.5 79h-47q-43 0 -111.5 -3t-84.5 -3l-13 12q0 3 11 166l12 10q61 -4 168 -4q246 0 354 6l10 -12q-83 -151 -182 -344 q73 -7 126.5 -69t53.5 -175q0 -150 -90.5 -236.5t-238.5 -86.5q-115 0 -222 47zM451 8q198 476 243 588l76 186q36 88 67 171.5t70.5 192.5t63.5 173l14 10h84q61 0 92 2l8 -14q-143 -342 -233 -569l-90 -230q-131 -328 -193 -506l-26 -12q-46 0 -168 -4zM965 199v123l2 12 q113 266 235 559l15 12q43 -2 122 -2q71 0 129 4l13 -12q-4 -144 -4 -537q73 0 100 2l12 -10q-5 -72 -8 -151l-12 -11q-8 0 -48 1t-42 1q0 -48 4 -180l-13 -10q-12 0 -93 -2t-99 -2l-10 10q0 14 2 91.5t2 90.5h-295zM1128 358h148q4 197 4 396z" />
<glyph unicode="&#xbf;" horiz-adv-x="768" d="M49 346q0 89 36.5 169.5t121.5 207.5l29 43q40 62 57 110.5t18 108.5l17 12q99 0 225 9l16 -13q0 -62 -19 -126.5t-81 -168.5l-35 -57q-80 -129 -80 -238q0 -58 19 -100.5t49 -63.5t59.5 -30.5t59.5 -9.5q98 0 182 73l18 -8q0 -19 -3 -91t-3 -118l-14 -20 q-55 -30 -137.5 -45t-151.5 -15q-95 0 -167 27.5t-111.5 67.5t-64.5 93.5t-32.5 96.5t-7.5 86zM293 1434l12 12q124 0 277 6l12 -12v-78q0 -51 4 -203l-12 -12q-124 0 -277 -6l-12 12v82q0 51 -4 199z" />
<glyph unicode="&#xc0;" horiz-adv-x="1193" d="M0 8q33 110 119 416l112 407q12 43 71.5 258t94.5 347l13 10q178 0 399 6l12 -12q1 -4 154 -590l100 -387q22 -83 52.5 -194.5t46.5 -172t20 -82.5l-10 -12q-71 0 -185.5 -3t-144.5 -3l-12 12q-61 304 -68 336l-10 45h-209q-35 0 -87 -1t-65 -1q-63 -266 -81 -375 l-15 -12h-55q-62 0 -242 -4zM319 1833l7 12q33 1 129.5 2t138.5 2l12 -12q9 -43 22.5 -89t33.5 -108.5t28 -89.5l-6 -12q-82 -4 -164 -4l-14 10q-13 20 -187 289zM449 627h83q113 0 179 2q-26 113 -50.5 229t-44.5 217.5t-28 136.5q-34 -153 -139 -585z" />
<glyph unicode="&#xc1;" horiz-adv-x="1193" d="M0 8q33 110 119 416l112 407q12 43 71.5 258t94.5 347l13 10q178 0 399 6l12 -12q1 -4 154 -590l100 -387q22 -83 52.5 -194.5t46.5 -172t20 -82.5l-10 -12q-71 0 -185.5 -3t-144.5 -3l-12 12q-61 304 -68 336l-10 45h-209q-35 0 -87 -1t-65 -1q-63 -266 -81 -375 l-15 -12h-55q-62 0 -242 -4zM449 627h83q113 0 179 2q-26 113 -50.5 229t-44.5 217.5t-28 136.5q-34 -153 -139 -585zM492 1544q40 100 96 289l14 12q118 0 262 6l8 -12q-33 -47 -194 -291l-12 -10q-74 0 -166 -6z" />
<glyph unicode="&#xc2;" horiz-adv-x="1193" d="M0 8q33 110 119 416l112 407q12 43 71.5 258t94.5 347l13 10q178 0 399 6l12 -12q1 -4 154 -590l100 -387q22 -83 52.5 -194.5t46.5 -172t20 -82.5l-10 -12q-71 0 -185.5 -3t-144.5 -3l-12 12q-61 304 -68 336l-10 45h-209q-35 0 -87 -1t-65 -1q-63 -266 -81 -375 l-15 -12h-55q-62 0 -242 -4zM283 1552q98 178 143 285l14 12q210 0 316 4l14 -12q84 -182 145 -287l-6 -12q-74 -2 -223 -10l-14 12q-53 124 -80 182l-96 -180l-15 -10q-126 4 -192 4zM449 627h83q113 0 179 2q-26 113 -50.5 229t-44.5 217.5t-28 136.5q-34 -153 -139 -585z " />
<glyph unicode="&#xc3;" horiz-adv-x="1193" d="M0 8q33 110 119 416l112 407q12 43 71.5 258t94.5 347l13 10q178 0 399 6l12 -12q1 -4 154 -590l100 -387q22 -83 52.5 -194.5t46.5 -172t20 -82.5l-10 -12q-71 0 -185.5 -3t-144.5 -3l-12 12q-61 304 -68 336l-10 45h-209q-35 0 -87 -1t-65 -1q-63 -266 -81 -375 l-15 -12h-55q-62 0 -242 -4zM299 1556q2 70 2 189l6 14q64 64 154 64q43 0 92 -19l72 -28q67 -27 112 -27q83 0 156 78l12 -6q0 -47 4 -191l-8 -14q-22 -21 -38.5 -33.5t-50.5 -26.5t-71 -14q-51 0 -112 27l-56 22q-67 29 -108 29q-82 0 -154 -72zM449 627h83q113 0 179 2 q-26 113 -50.5 229t-44.5 217.5t-28 136.5q-34 -153 -139 -585z" />
<glyph unicode="&#xc4;" horiz-adv-x="1193" d="M0 8q33 110 119 416l112 407q12 43 71.5 258t94.5 347l13 10q178 0 399 6l12 -12q1 -4 154 -590l100 -387q22 -83 52.5 -194.5t46.5 -172t20 -82.5l-10 -12q-71 0 -185.5 -3t-144.5 -3l-12 12q-61 304 -68 336l-10 45h-209q-35 0 -87 -1t-65 -1q-63 -266 -81 -375 l-15 -12h-55q-62 0 -242 -4zM260 1798l10 10q141 4 238 11l8 -11q-2 -39 -2 -133q0 -71 2 -104l-10 -12q-52 -1 -230 -11l-10 11q0 119 -6 239zM449 627h83q113 0 179 2q-26 113 -50.5 229t-44.5 217.5t-28 136.5q-34 -153 -139 -585zM680 1798l10 10q141 4 238 11l8 -11 q-2 -39 -2 -133q0 -71 2 -104l-10 -12q-52 -1 -230 -11l-10 11q0 119 -6 239z" />
<glyph unicode="&#xc5;" horiz-adv-x="1193" d="M0 8q33 110 119 416l112 407q12 43 71.5 258t94.5 347l13 10q178 0 399 6l12 -12q1 -4 154 -590l100 -387q22 -83 52.5 -194.5t46.5 -172t20 -82.5l-10 -12q-71 0 -185.5 -3t-144.5 -3l-12 12q-61 304 -68 336l-10 45h-209q-35 0 -87 -1t-65 -1q-63 -266 -81 -375 l-15 -12h-55q-62 0 -242 -4zM373 1741q0 103 62 165t167 62q99 0 162 -59t63 -162q0 -106 -60 -164.5t-167 -58.5q-102 0 -164.5 57t-62.5 160zM449 627h83q113 0 179 2q-26 113 -50.5 229t-44.5 217.5t-28 136.5q-34 -153 -139 -585zM522 1745q0 -59 23 -90t57 -31 q35 0 55.5 33t20.5 94q0 58 -22 88.5t-56 30.5q-78 0 -78 -125z" />
<glyph unicode="&#xc6;" horiz-adv-x="1579" d="M0 6q25 69 101 275.5t132 360t121.5 335.5t106.5 301t51 158l12 10h553q191 0 434 6l11 -12q-1 -42 -6 -118.5t-7 -109.5l-12 -12q-90 2 -246 2h-172v-338h74q39 1 149 1.5t179 2.5l10 -10q-6 -64 -14 -223l-13 -12q-6 0 -69 1t-99 1t-122.5 -1t-94.5 -1v-367h54 q191 0 401 14l10 -12q-10 -114 -16 -246l-10 -12h-457q-131 0 -295 -6l-10 12q6 218 6 393q-49 2 -152 2q-109 0 -164 -2q-91 -282 -114 -387l-15 -12h-98q-94 0 -211 -6zM520 647q86 -4 127 -4q9 0 52 1t65 1q0 32 3 166t3 217q0 33 -1 98.5t-1 77.5h-57 q-42 -116 -191 -557z" />
<glyph unicode="&#xc7;" horiz-adv-x="1067" d="M70 696q0 295 107 484.5t296 257.5q100 35 244 35q177 0 303 -58l8 -14q-14 -164 -18 -275l-13 -6q-97 88 -227 88q-68 0 -123.5 -22.5t-91.5 -61.5t-62 -86t-39.5 -103t-19.5 -105t-6 -99q0 -44 3 -85t12.5 -91.5t25 -93.5t42 -85t61.5 -71t86.5 -47t113.5 -18 q140 0 246 86l12 -7q-9 -112 -12 -276l-10 -14q-126 -56 -293 -56q-130 0 -235 33.5t-171 83.5t-114 124t-71.5 136.5t-36.5 141t-15 118t-2 86.5zM446 -369q12 26 56.5 123t68.5 150l13 10h168l10 -12q-8 -30 -70 -271l-14 -12q-147 0 -221 -2z" />
<glyph unicode="&#xc8;" horiz-adv-x="937" d="M90 1436l10 12h127q403 0 641 4l11 -12q-1 -29 -4 -73.5t-4.5 -81t-2.5 -73.5l-12 -12q-20 0 -112 2t-144 2q-5 0 -53 -1t-109 -1q0 -6 -1 -56t-1 -75q0 -43 1 -116.5t1 -90.5h88q88 0 310 6l12 -12q-1 -34 -5.5 -111.5t-6.5 -107.5l-13 -12h-381v-371h84q30 0 367 10 l10 -12q-10 -146 -14 -242l-10 -12h-86q-430 0 -684 -6l-11 12q6 199 6 539q0 142 -4.5 480t-9.5 411zM190 1833l7 12q33 1 129.5 2t138.5 2l12 -12q9 -43 22.5 -89t33.5 -108.5t28 -89.5l-6 -12q-82 -4 -164 -4l-14 10q-13 20 -187 289z" />
<glyph unicode="&#xc9;" horiz-adv-x="937" d="M90 1436l10 12h127q403 0 641 4l11 -12q-1 -29 -4 -73.5t-4.5 -81t-2.5 -73.5l-12 -12q-20 0 -112 2t-144 2q-5 0 -53 -1t-109 -1q0 -6 -1 -56t-1 -75q0 -43 1 -116.5t1 -90.5h88q88 0 310 6l12 -12q-1 -34 -5.5 -111.5t-6.5 -107.5l-13 -12h-381v-371h84q30 0 367 10 l10 -12q-10 -146 -14 -242l-10 -12h-86q-430 0 -684 -6l-11 12q6 199 6 539q0 142 -4.5 480t-9.5 411zM362 1544q44 110 97 289l14 12q118 0 262 6l8 -12q-33 -47 -194 -291l-12 -10q-75 0 -166 -6z" />
<glyph unicode="&#xca;" horiz-adv-x="937" d="M90 1436l10 12h127q403 0 641 4l11 -12q-1 -29 -4 -73.5t-4.5 -81t-2.5 -73.5l-12 -12q-20 0 -112 2t-144 2q-5 0 -53 -1t-109 -1q0 -6 -1 -56t-1 -75q0 -43 1 -116.5t1 -90.5h88q88 0 310 6l12 -12q-1 -34 -5.5 -111.5t-6.5 -107.5l-13 -12h-381v-371h84q30 0 367 10 l10 -12q-10 -146 -14 -242l-10 -12h-86q-430 0 -684 -6l-11 12q6 199 6 539q0 142 -4.5 480t-9.5 411zM154 1552q98 178 143 285l14 12q210 0 316 4l14 -12q84 -182 145 -287l-6 -12q-74 -2 -223 -10l-14 12q-53 124 -80 182l-96 -180l-15 -10q-126 4 -192 4z" />
<glyph unicode="&#xcb;" horiz-adv-x="937" d="M90 1436l10 12h127q403 0 641 4l11 -12q-1 -29 -4 -73.5t-4.5 -81t-2.5 -73.5l-12 -12q-20 0 -112 2t-144 2q-5 0 -53 -1t-109 -1q0 -6 -1 -56t-1 -75q0 -43 1 -116.5t1 -90.5h88q88 0 310 6l12 -12q-1 -34 -5.5 -111.5t-6.5 -107.5l-13 -12h-381v-371h84q30 0 367 10 l10 -12q-10 -146 -14 -242l-10 -12h-86q-430 0 -684 -6l-11 12q6 199 6 539q0 142 -4.5 480t-9.5 411zM129 1798l10 10q141 4 238 11l8 -11q-2 -39 -2 -133q0 -71 2 -104l-10 -12q-52 -1 -230 -11l-10 11q0 119 -6 239zM549 1798l10 10q141 4 238 11l8 -11q-2 -39 -2 -133 q0 -71 2 -104l-10 -12q-52 -1 -230 -11l-10 11q0 119 -6 239z" />
<glyph unicode="&#xcc;" horiz-adv-x="555" d="M-4 1833l6 12q33 1 129.5 2t138.5 2l13 -12q9 -43 22.5 -89t33.5 -108.5t28 -89.5l-7 -12q-82 -4 -163 -4l-15 10q-36 58 -186 289zM94 1436l10 10h107q106 0 235 6l13 -12q-8 -201 -8 -543q0 -516 12 -885l-10 -12q-9 0 -52 1t-65 1q-61 0 -225 -8l-11 12q4 484 4 717 q0 444 -10 713z" />
<glyph unicode="&#xcd;" horiz-adv-x="555" d="M94 1436l10 10h107q106 0 235 6l13 -12q-8 -201 -8 -543q0 -516 12 -885l-10 -12q-9 0 -52 1t-65 1q-61 0 -225 -8l-11 12q4 484 4 717q0 444 -10 713zM170 1544q40 100 96 289l15 12q118 0 262 6l8 -12q-52 -74 -195 -291l-12 -10q-74 0 -166 -6z" />
<glyph unicode="&#xce;" horiz-adv-x="555" d="M-39 1552q98 178 143 285l15 12q209 0 315 4l15 -12q84 -182 145 -287l-6 -12q-74 -2 -223 -10l-15 12q-53 124 -80 182l-96 -180l-14 -10q-126 4 -193 4zM94 1436l10 10h107q106 0 235 6l13 -12q-8 -201 -8 -543q0 -516 12 -885l-10 -12q-9 0 -52 1t-65 1q-61 0 -225 -8 l-11 12q4 484 4 717q0 444 -10 713z" />
<glyph unicode="&#xcf;" horiz-adv-x="555" d="M-63 1798l10 10q139 3 237 11l9 -11q-3 -58 -3 -133q0 -55 3 -104l-11 -12q-50 -1 -229 -11l-10 11q0 119 -6 239zM94 1436l10 10h107q106 0 235 6l13 -12q-8 -201 -8 -543q0 -516 12 -885l-10 -12q-9 0 -52 1t-65 1q-61 0 -225 -8l-11 12q4 484 4 717q0 444 -10 713z M356 1798l11 10q139 3 237 11l8 -11q-2 -39 -2 -133q0 -71 2 -104l-10 -12q-50 -1 -229 -11l-11 11q0 119 -6 239z" />
<glyph unicode="&#xd0;" horiz-adv-x="1236" d="M2 670v149l12 12h88v68q0 39 -10 537l10 10q158 0 279 1t141 1q73 0 115.5 -1.5t109 -12t115.5 -31.5q305 -130 305 -649q0 -581 -366 -711q-55 -20 -132 -30.5t-133 -12.5t-141 -2q-92 0 -179 -2t-105 -2l-11 12q4 250 4 336q0 76 -1 174.5t-1 145.5q-47 0 -88 -5z M438 1194q0 -104 1 -194t1 -113v-51q41 0 107 3t82 3l12 -13q-4 -55 -4 -149l-16 -12q-7 0 -57.5 1t-76.5 1q-9 0 -26.5 -1t-20.5 -1q0 -7 6 -412q21 -2 31 -2q112 0 174 37q89 54 125.5 179t36.5 314q0 208 -73 311t-230 103q-43 0 -72 -4z" />
<glyph unicode="&#xd1;" horiz-adv-x="1280" d="M90 1434l12 12h78q52 0 136.5 3t103.5 3l16 -12q38 -75 80 -153.5t76.5 -141t137 -247.5t188.5 -341q-18 799 -23 879l12 10q26 1 121.5 3.5t138.5 2.5l11 -12q0 -57 -1 -315.5t-1 -407.5q0 -358 8 -705l-13 -12h-49q-110 0 -245 -6l-15 12q-143 255 -497 926 q23 -805 28 -920l-12 -12h-37q-103 0 -229 -6l-15 12q6 202 6 367q0 101 -6.5 539t-9.5 522zM340 1556q2 70 2 189l6 14q64 64 154 64q43 0 92 -19l72 -28q67 -27 112 -27q83 0 156 78l12 -6q0 -47 4 -191l-8 -14q-22 -21 -38.5 -33.5t-50.5 -26.5t-71 -14q-51 0 -112 27 l-56 22q-67 29 -108 29q-82 0 -154 -72z" />
<glyph unicode="&#xd2;" horiz-adv-x="1323" d="M70 715q0 78 7.5 150.5t27 149.5t49 143t76.5 125t107 100.5t143 65.5t182 24q102 0 188 -24t161.5 -80t128 -142.5t83 -217.5t30.5 -298q0 -141 -25.5 -256t-65 -190t-95.5 -131.5t-109 -86t-113.5 -47.5t-101 -22.5t-79.5 -4.5q-101 0 -187.5 24t-162.5 80t-129 140 t-84 211t-31 287zM383 1833l6 12q33 1 129.5 2t138.5 2l13 -12q9 -43 22.5 -89t33.5 -108.5t28 -89.5l-6 -12q-82 -4 -164 -4l-15 10q-36 58 -186 289zM420 725q0 -90 9.5 -168t33.5 -158.5t75 -128t124 -47.5q67 0 115.5 41.5t75 115t38.5 159t12 188.5q0 239 -60.5 370.5 t-180.5 131.5q-48 0 -86.5 -23t-63.5 -58t-43 -85.5t-27 -95t-14.5 -98t-6.5 -83.5t-1 -61z" />
<glyph unicode="&#xd3;" horiz-adv-x="1323" d="M70 715q0 78 7.5 150.5t27 149.5t49 143t76.5 125t107 100.5t143 65.5t182 24q102 0 188 -24t161.5 -80t128 -142.5t83 -217.5t30.5 -298q0 -141 -25.5 -256t-65 -190t-95.5 -131.5t-109 -86t-113.5 -47.5t-101 -22.5t-79.5 -4.5q-101 0 -187.5 24t-162.5 80t-129 140 t-84 211t-31 287zM420 725q0 -90 9.5 -168t33.5 -158.5t75 -128t124 -47.5q67 0 115.5 41.5t75 115t38.5 159t12 188.5q0 239 -60.5 370.5t-180.5 131.5q-48 0 -86.5 -23t-63.5 -58t-43 -85.5t-27 -95t-14.5 -98t-6.5 -83.5t-1 -61zM555 1544q40 100 96 289l15 12 q118 0 262 6l8 -12q-52 -74 -195 -291l-12 -10q-75 0 -166 -6z" />
<glyph unicode="&#xd4;" horiz-adv-x="1323" d="M70 715q0 78 7.5 150.5t27 149.5t49 143t76.5 125t107 100.5t143 65.5t182 24q102 0 188 -24t161.5 -80t128 -142.5t83 -217.5t30.5 -298q0 -141 -25.5 -256t-65 -190t-95.5 -131.5t-109 -86t-113.5 -47.5t-101 -22.5t-79.5 -4.5q-101 0 -187.5 24t-162.5 80t-129 140 t-84 211t-31 287zM346 1552q98 178 143 285l15 12q209 0 315 4l15 -12q84 -182 145 -287l-6 -12q-74 -2 -223 -10l-15 12q-53 124 -80 182l-96 -180l-14 -10q-126 4 -193 4zM420 725q0 -90 9.5 -168t33.5 -158.5t75 -128t124 -47.5q67 0 115.5 41.5t75 115t38.5 159 t12 188.5q0 239 -60.5 370.5t-180.5 131.5q-48 0 -86.5 -23t-63.5 -58t-43 -85.5t-27 -95t-14.5 -98t-6.5 -83.5t-1 -61z" />
<glyph unicode="&#xd5;" horiz-adv-x="1323" d="M70 715q0 78 7.5 150.5t27 149.5t49 143t76.5 125t107 100.5t143 65.5t182 24q102 0 188 -24t161.5 -80t128 -142.5t83 -217.5t30.5 -298q0 -141 -25.5 -256t-65 -190t-95.5 -131.5t-109 -86t-113.5 -47.5t-101 -22.5t-79.5 -4.5q-101 0 -187.5 24t-162.5 80t-129 140 t-84 211t-31 287zM362 1556q3 105 3 189l6 14q64 64 153 64q43 0 92 -19l72 -28q67 -27 113 -27q82 0 155 78l13 -6q0 -47 4 -191l-8 -14q-22 -21 -38.5 -33.5t-50.5 -26.5t-71 -14q-52 0 -113 27l-55 22q-67 29 -109 29q-81 0 -153 -72zM420 725q0 -90 9.5 -168 t33.5 -158.5t75 -128t124 -47.5q67 0 115.5 41.5t75 115t38.5 159t12 188.5q0 239 -60.5 370.5t-180.5 131.5q-48 0 -86.5 -23t-63.5 -58t-43 -85.5t-27 -95t-14.5 -98t-6.5 -83.5t-1 -61z" />
<glyph unicode="&#xd6;" horiz-adv-x="1323" d="M70 715q0 78 7.5 150.5t27 149.5t49 143t76.5 125t107 100.5t143 65.5t182 24q102 0 188 -24t161.5 -80t128 -142.5t83 -217.5t30.5 -298q0 -141 -25.5 -256t-65 -190t-95.5 -131.5t-109 -86t-113.5 -47.5t-101 -22.5t-79.5 -4.5q-101 0 -187.5 24t-162.5 80t-129 140 t-84 211t-31 287zM322 1798l10 10q139 3 237 11l9 -11q-3 -58 -3 -133q0 -55 3 -104l-11 -12q-50 -1 -229 -11l-10 11q0 119 -6 239zM420 725q0 -90 9.5 -168t33.5 -158.5t75 -128t124 -47.5q67 0 115.5 41.5t75 115t38.5 159t12 188.5q0 239 -60.5 370.5t-180.5 131.5 q-48 0 -86.5 -23t-63.5 -58t-43 -85.5t-27 -95t-14.5 -98t-6.5 -83.5t-1 -61zM741 1798l11 10q139 3 237 11l8 -11q-2 -39 -2 -133q0 -71 2 -104l-10 -12q-50 -1 -229 -11l-10 11q0 99 -7 239z" />
<glyph unicode="&#xd7;" horiz-adv-x="1300" d="M207 895v18q25 26 51.5 53.5t48.5 50.5t53 54h21q35 -43 274 -287q98 106 263 285h18q27 -30 46.5 -50t50 -49.5t52.5 -51.5v-21q-180 -180 -268 -276l277 -269v-22q-79 -79 -148 -160h-20q-106 111 -275 285l-268 -285h-18q-59 66 -148 152v22q48 45 270 270 q-125 130 -280 281z" />
<glyph unicode="&#xd8;" horiz-adv-x="1323" d="M37 61q81 85 141 164q-40 81 -49 105q-59 161 -59 383q0 111 15 211.5t56.5 203.5t105.5 177t170.5 121t244.5 47q131 0 221 -35t166 -99q75 93 106 142l19 2q17 -15 26 -23t16 -14.5t14 -11.5t10.5 -8t15.5 -11t20 -14l-2 -19q-56 -61 -133 -155q54 -108 83 -216 t29 -276q0 -162 -29.5 -291t-82 -216.5t-127 -145t-161.5 -83.5t-189 -26q-136 0 -229 37.5t-165 102.5q-37 -47 -108 -148l-21 -4q-36 33 -49.5 43.5t-52.5 36.5zM412 709q0 -97 12 -170l430 555q-12 26 -23.5 45t-34 43.5t-57 38.5t-77.5 14q-250 0 -250 -526zM465 367 q61 -150 194 -150q53 0 95 24t68 66.5t44.5 91t27 107t12 104.5t3.5 92q0 118 -10 216z" />
<glyph unicode="&#xd9;" horiz-adv-x="1193" d="M86 1434l8 12q176 0 340 6l10 -12q-6 -427 -6 -887q0 -35 0.5 -59t4.5 -61.5t11 -64t21 -56.5t33.5 -48t49 -30.5t67.5 -12.5q99 0 142.5 81.5t43.5 266.5v596q0 171 -2 269l10 12q156 0 281 6l12 -12q-8 -304 -8 -676v-141q0 -206 -15 -300.5t-73 -175.5 q-64 -90 -168 -132t-256 -42q-26 0 -45 0.5t-62.5 6t-78 15t-80 30.5t-80 49.5t-67.5 74.5t-52 103q-23 66 -29 145.5t-6 225.5v317q0 362 -6 494zM319 1833l7 12q33 1 129.5 2t138.5 2l12 -12q9 -43 22.5 -89t33.5 -108.5t28 -89.5l-6 -12q-82 -4 -164 -4l-14 10 q-13 20 -187 289z" />
<glyph unicode="&#xda;" horiz-adv-x="1193" d="M86 1434l8 12q176 0 340 6l10 -12q-6 -427 -6 -887q0 -35 0.5 -59t4.5 -61.5t11 -64t21 -56.5t33.5 -48t49 -30.5t67.5 -12.5q99 0 142.5 81.5t43.5 266.5v596q0 171 -2 269l10 12q156 0 281 6l12 -12q-8 -304 -8 -676v-141q0 -206 -15 -300.5t-73 -175.5 q-64 -90 -168 -132t-256 -42q-26 0 -45 0.5t-62.5 6t-78 15t-80 30.5t-80 49.5t-67.5 74.5t-52 103q-23 66 -29 145.5t-6 225.5v317q0 362 -6 494zM492 1544q40 100 96 289l14 12q118 0 262 6l8 -12q-33 -47 -194 -291l-12 -10q-74 0 -166 -6z" />
<glyph unicode="&#xdb;" horiz-adv-x="1193" d="M86 1434l8 12q176 0 340 6l10 -12q-6 -427 -6 -887q0 -35 0.5 -59t4.5 -61.5t11 -64t21 -56.5t33.5 -48t49 -30.5t67.5 -12.5q99 0 142.5 81.5t43.5 266.5v596q0 171 -2 269l10 12q156 0 281 6l12 -12q-8 -304 -8 -676v-141q0 -206 -15 -300.5t-73 -175.5 q-64 -90 -168 -132t-256 -42q-26 0 -45 0.5t-62.5 6t-78 15t-80 30.5t-80 49.5t-67.5 74.5t-52 103q-23 66 -29 145.5t-6 225.5v317q0 362 -6 494zM283 1552q98 178 143 285l14 12q210 0 316 4l14 -12q84 -182 145 -287l-6 -12q-74 -2 -223 -10l-14 12q-53 124 -80 182 l-96 -180l-15 -10q-126 4 -192 4z" />
<glyph unicode="&#xdc;" horiz-adv-x="1193" d="M86 1434l8 12q176 0 340 6l10 -12q-6 -427 -6 -887q0 -35 0.5 -59t4.5 -61.5t11 -64t21 -56.5t33.5 -48t49 -30.5t67.5 -12.5q99 0 142.5 81.5t43.5 266.5v596q0 171 -2 269l10 12q156 0 281 6l12 -12q-8 -304 -8 -676v-141q0 -206 -15 -300.5t-73 -175.5 q-64 -90 -168 -132t-256 -42q-26 0 -45 0.5t-62.5 6t-78 15t-80 30.5t-80 49.5t-67.5 74.5t-52 103q-23 66 -29 145.5t-6 225.5v317q0 362 -6 494zM281 1798l10 10q139 3 237 11l9 -11q-2 -39 -2 -133q0 -71 2 -104l-11 -12q-50 -1 -229 -11l-10 11q0 119 -6 239zM700 1798 l11 10q139 3 237 11l8 -11q-2 -39 -2 -133q0 -71 2 -104l-10 -12q-50 -1 -229 -11l-10 11q0 99 -7 239z" />
<glyph unicode="&#xdd;" horiz-adv-x="1110" d="M-8 1430l6 12q164 3 346 14l16 -10q106 -291 222 -592q118 294 225 582l14 10h56q61 0 233 4l8 -12q-89 -170 -239 -510l-158 -359v-67q0 -250 8 -490l-12 -12h-68q-120 0 -270 -6l-10 12q10 200 10 486v67l-166 371q-18 40 -93.5 216.5t-127.5 283.5zM449 1544 q40 100 96 289l14 12q118 0 262 6l8 -12q-33 -47 -194 -291l-12 -10q-75 0 -166 -6z" />
<glyph unicode="&#xde;" horiz-adv-x="1067" d="M96 1436l10 10h107q107 0 236 6l12 -12q-4 -90 -4 -121v-55q41 2 110 2q162 0 236 -35q65 -29 111 -79.5t67.5 -111.5t30 -115t8.5 -112q0 -88 -16.5 -161.5t-44.5 -125t-68 -90.5t-82.5 -63t-93 -38.5t-94.5 -20t-91 -5.5h-71q3 -155 8 -297l-12 -12q-8 0 -51.5 1 t-65.5 1q-57 0 -225 -8l-11 12q0 12 2 112t2 158v535q0 379 -10 625zM453 735q0 -16 1 -82t1 -98h22q215 0 215 248q0 69 -14 114.5t-42 68.5t-59 31.5t-75 8.5q-29 0 -45 -2q-4 -212 -4 -289z" />
<glyph unicode="&#xdf;" horiz-adv-x="1067" d="M88 987q0 126 7.5 194.5t29.5 121.5q44 105 142.5 167t252.5 62q107 0 187 -27.5t125 -74.5t66.5 -102.5t21.5 -117.5q0 -108 -82 -245l-31 -52q-29 -51 -29 -73q0 -25 53 -92l62 -80q36 -47 61 -85t50.5 -107t25.5 -136t-17 -122.5t-43 -90.5t-62 -62t-69 -40.5 t-69.5 -22t-58 -10.5t-39.5 -2q-32 0 -58 2t-35 3t-34 5.5t-29 5.5l-10 12v197l14 8q36 -26 72 -26q49 0 77.5 33.5t28.5 80.5q0 68 -67 178l-80 132q-47 77 -47 127q0 8 1 15.5t4 17t4.5 15t7 18t7.5 16t9.5 19.5t9.5 19l26 58q38 83 53 132.5t15 108.5q0 74 -33 117 t-84 43q-28 0 -48.5 -9t-33 -35t-19.5 -49.5t-10.5 -75.5t-4 -89t-0.5 -113q0 -194 6.5 -535.5t7.5 -408.5l-12 -12h-43q-118 0 -265 -6l-12 12q0 40 1 183.5t1 226.5q0 22 -2 268.5t-2 302.5z" />
<glyph unicode="&#xe0;" horiz-adv-x="937" d="M29 319q0 166 107 266.5t362 149.5l43 8v19q0 62 -29 95.5t-119 33.5q-128 0 -260 -82l-14 8q7 87 10 207l12 16q64 31 167.5 49.5t180.5 18.5q73 0 131 -14.5t95 -35.5t64 -55.5t40 -64t20.5 -72t9 -68.5t1.5 -63q0 -11 -2 -143t-2 -209q0 -203 16 -371l-14 -12h-70 q-97 0 -217 -6l-14 12v80q-100 -104 -244 -104q-51 0 -98 19.5t-87 58t-64.5 105.5t-24.5 154zM197 1526l8 12h55q51 0 199 4l12 -10q21 -99 104 -330l-8 -10h-47q-35 0 -133 -4l-12 10q-80 162 -178 328zM322 356q0 -56 27 -99.5t83 -43.5q60 0 111 55v289q-32 -4 -58 -9.5 t-58 -19.5t-53.5 -34.5t-36.5 -56t-15 -81.5z" />
<glyph unicode="&#xe1;" horiz-adv-x="937" d="M29 319q0 166 107 266.5t362 149.5l43 8v19q0 62 -29 95.5t-119 33.5q-128 0 -260 -82l-14 8q7 87 10 207l12 16q64 31 167.5 49.5t180.5 18.5q73 0 131 -14.5t95 -35.5t64 -55.5t40 -64t20.5 -72t9 -68.5t1.5 -63q0 -11 -2 -143t-2 -209q0 -203 16 -371l-14 -12h-70 q-97 0 -217 -6l-14 12v80q-100 -104 -244 -104q-51 0 -98 19.5t-87 58t-64.5 105.5t-24.5 154zM322 356q0 -56 27 -99.5t83 -43.5q60 0 111 55v289q-32 -4 -58 -9.5t-58 -19.5t-53.5 -34.5t-36.5 -56t-15 -81.5zM369 1200l15 42q16 42 30.5 83.5t33.5 100t31 102.5l13 12 q69 0 253 4l7 -12q-99 -164 -191 -330l-14 -12h-45q-80 0 -127 -2z" />
<glyph unicode="&#xe2;" horiz-adv-x="937" d="M29 319q0 166 107 266.5t362 149.5l43 8v19q0 62 -29 95.5t-119 33.5q-128 0 -260 -82l-14 8q7 87 10 207l12 16q64 31 167.5 49.5t180.5 18.5q73 0 131 -14.5t95 -35.5t64 -55.5t40 -64t20.5 -72t9 -68.5t1.5 -63q0 -11 -2 -143t-2 -209q0 -203 16 -371l-14 -12h-70 q-97 0 -217 -6l-14 12v80q-100 -104 -244 -104q-51 0 -98 19.5t-87 58t-64.5 105.5t-24.5 154zM176 1204q79 161 141 322l13 12q77 0 295 4l14 -12q14 -41 65.5 -168t67.5 -158l-10 -12h-35q-39 0 -100.5 -3t-77.5 -3l-12 12q-14 41 -37.5 119t-38.5 123q-22 -57 -90 -242 l-15 -10q-7 0 -71.5 2t-102.5 2zM322 356q0 -56 27 -99.5t83 -43.5q60 0 111 55v289q-32 -4 -58 -9.5t-58 -19.5t-53.5 -34.5t-36.5 -56t-15 -81.5z" />
<glyph unicode="&#xe3;" horiz-adv-x="937" d="M29 319q0 166 107 266.5t362 149.5l43 8v19q0 62 -29 95.5t-119 33.5q-128 0 -260 -82l-14 8q7 87 10 207l12 16q64 31 167.5 49.5t180.5 18.5q73 0 131 -14.5t95 -35.5t64 -55.5t40 -64t20.5 -72t9 -68.5t1.5 -63q0 -11 -2 -143t-2 -209q0 -203 16 -371l-14 -12h-70 q-97 0 -217 -6l-14 12v80q-100 -104 -244 -104q-51 0 -98 19.5t-87 58t-64.5 105.5t-24.5 154zM172 1229q0 14 1 66t1 81v41l6 15q62 59 148 59q45 0 90 -16l69 -27q75 -29 113 -29q86 0 150 76l12 -6q0 -63 4 -189l-8 -14q-23 -21 -40 -34t-48.5 -25.5t-65.5 -12.5 q-46 0 -110 25l-56 23q-63 26 -106 26q-79 0 -148 -65zM322 356q0 -56 27 -99.5t83 -43.5q60 0 111 55v289q-32 -4 -58 -9.5t-58 -19.5t-53.5 -34.5t-36.5 -56t-15 -81.5z" />
<glyph unicode="&#xe4;" horiz-adv-x="937" d="M29 319q0 166 107 266.5t362 149.5l43 8v19q0 62 -29 95.5t-119 33.5q-128 0 -260 -82l-14 8q7 87 10 207l12 16q64 31 167.5 49.5t180.5 18.5q73 0 131 -14.5t95 -35.5t64 -55.5t40 -64t20.5 -72t9 -68.5t1.5 -63q0 -11 -2 -143t-2 -209q0 -203 16 -371l-14 -12h-70 q-97 0 -217 -6l-14 12v80q-100 -104 -244 -104q-51 0 -98 19.5t-87 58t-64.5 105.5t-24.5 154zM150 1477l10 8q93 2 237 12l9 -10q0 -5 -1.5 -49t-1.5 -66t1.5 -69t1.5 -58l-13 -10q-34 -1 -227 -10l-10 10q-5 214 -6 242zM322 356q0 -56 27 -99.5t83 -43.5q60 0 111 55v289 q-32 -4 -58 -9.5t-58 -19.5t-53.5 -34.5t-36.5 -56t-15 -81.5zM528 1477l11 8q91 2 237 12l8 -10q0 -5 -1 -49t-1 -66q0 -23 1 -72t1 -55l-12 -10q-34 -1 -227 -10l-10 10q0 85 -7 242z" />
<glyph unicode="&#xe5;" horiz-adv-x="937" d="M29 319q0 166 107 266.5t362 149.5l43 8v19q0 62 -29 95.5t-119 33.5q-128 0 -260 -82l-14 8q7 87 10 207l12 16q64 31 167.5 49.5t180.5 18.5q73 0 131 -14.5t95 -35.5t64 -55.5t40 -64t20.5 -72t9 -68.5t1.5 -63q0 -11 -2 -143t-2 -209q0 -203 16 -371l-14 -12h-70 q-97 0 -217 -6l-14 12v80q-100 -104 -244 -104q-51 0 -98 19.5t-87 58t-64.5 105.5t-24.5 154zM244 1399q0 102 61 164.5t166 62.5q96 0 160.5 -56.5t64.5 -168.5q0 -102 -59.5 -160.5t-167.5 -58.5q-104 0 -164.5 58t-60.5 159zM322 356q0 -56 27 -99.5t83 -43.5 q60 0 111 55v289q-32 -4 -58 -9.5t-58 -19.5t-53.5 -34.5t-36.5 -56t-15 -81.5zM393 1403q0 -60 22 -90.5t56 -30.5q36 0 56 33.5t20 89.5q0 50 -18.5 85.5t-59.5 35.5q-29 0 -52.5 -27t-23.5 -96z" />
<glyph unicode="&#xe6;" horiz-adv-x="1449" d="M29 313q0 134 75 222q64 76 161.5 105.5t258.5 29.5h33v65q0 39 -11 69t-30.5 47t-39 28t-44 15.5t-37 5.5t-26.5 1q-125 0 -238 -82l-16 8q9 164 10 197l12 14q58 29 128 46t108 20.5t67 3.5q198 0 279 -127q43 56 118.5 91.5t174.5 35.5q178 0 285.5 -124.5 t107.5 -356.5q0 -98 -2 -133l-14 -13h-529q0 -32 4.5 -63t21.5 -71.5t45.5 -70t81 -50.5t122.5 -21q75 0 125 19.5t96 54.5l14 -9q-9 -181 -10 -209l-14 -18q-114 -66 -302 -66q-131 0 -214 36t-148 108q-34 -32 -58.5 -51.5t-65.5 -44t-90.5 -36.5t-107.5 -12 q-150 0 -240.5 95.5t-90.5 240.5zM336 350q0 -10 3 -26t12 -43t33.5 -45.5t61.5 -18.5q71 0 132 72q-29 88 -33 190q-29 2 -56 2q-16 0 -31 -1.5t-38 -9.5t-40 -21t-30 -38.5t-14 -60.5zM854 672h250q0 227 -121 227q-35 0 -62 -23t-40.5 -59t-20 -72.5t-6.5 -72.5z" />
<glyph unicode="&#xe7;" horiz-adv-x="768" d="M53 504q0 90 12 169.5t44.5 161.5t83.5 140.5t136.5 95.5t196.5 37q92 0 197 -37l8 -16q-10 -139 -12 -226l-14 -6q-63 54 -130 54q-102 0 -154 -88t-52 -244q0 -332 221 -332q72 0 133 41l10 -6q-5 -105 -8 -215l-12 -15q-37 -17 -88 -27t-79 -12t-44 -2q-97 0 -175 30 t-128.5 80t-84 119t-47.5 143t-14 155zM248 -371q26 55 66 144t59 131l12 10h168l10 -12q-13 -48 -34 -134t-35 -137l-13 -12h-119q-69 0 -104 -2z" />
<glyph unicode="&#xe8;" horiz-adv-x="937" d="M53 535q0 151 34 263.5t95.5 179t139 98.5t172.5 32q147 0 245 -78q81 -64 117.5 -168t36.5 -266q0 -68 -2 -107l-14 -12h-512q0 -123 66 -197.5t190 -74.5q136 0 223 74l14 -9q-7 -91 -10 -217l-12 -14q-45 -28 -120.5 -44t-110.5 -18t-56 -2q-100 0 -180 25.5 t-130.5 63t-88 94t-55.5 104.5t-28.5 109t-12 93.5t-1.5 70.5zM197 1526l8 12h55q51 0 199 4l12 -10q21 -99 104 -330l-8 -10h-47q-35 0 -133 -4l-12 10q-80 162 -178 328zM362 670h230q0 50 -4.5 87.5t-15.5 71.5t-34 52t-57 18q-57 0 -88 -67t-31 -162z" />
<glyph unicode="&#xe9;" horiz-adv-x="937" d="M53 535q0 151 34 263.5t95.5 179t139 98.5t172.5 32q147 0 245 -78q81 -64 117.5 -168t36.5 -266q0 -68 -2 -107l-14 -12h-512q0 -123 66 -197.5t190 -74.5q136 0 223 74l14 -9q-7 -91 -10 -217l-12 -14q-45 -28 -120.5 -44t-110.5 -18t-56 -2q-100 0 -180 25.5 t-130.5 63t-88 94t-55.5 104.5t-28.5 109t-12 93.5t-1.5 70.5zM362 670h230q0 50 -4.5 87.5t-15.5 71.5t-34 52t-57 18q-57 0 -88 -67t-31 -162zM367 1200l15 42q16 42 30.5 83.5t33.5 100t31 102.5l12 12q70 0 254 4l7 -12q-99 -164 -191 -330l-14 -12h-45q-80 0 -127 -2z " />
<glyph unicode="&#xea;" horiz-adv-x="937" d="M53 535q0 151 34 263.5t95.5 179t139 98.5t172.5 32q147 0 245 -78q81 -64 117.5 -168t36.5 -266q0 -68 -2 -107l-14 -12h-512q0 -123 66 -197.5t190 -74.5q136 0 223 74l14 -9q-7 -91 -10 -217l-12 -14q-45 -28 -120.5 -44t-110.5 -18t-56 -2q-100 0 -180 25.5 t-130.5 63t-88 94t-55.5 104.5t-28.5 109t-12 93.5t-1.5 70.5zM197 1204q79 161 141 322l12 12q77 0 295 4l14 -12q14 -39 66 -167t68 -159l-11 -12h-34q-39 0 -101.5 -3t-77.5 -3l-12 12q-14 41 -37.5 119t-38.5 123q-22 -57 -90 -242l-14 -10q-7 0 -71.5 2t-102.5 2z M362 670h230q0 50 -4.5 87.5t-15.5 71.5t-34 52t-57 18q-57 0 -88 -67t-31 -162z" />
<glyph unicode="&#xeb;" horiz-adv-x="937" d="M53 535q0 151 34 263.5t95.5 179t139 98.5t172.5 32q147 0 245 -78q81 -64 117.5 -168t36.5 -266q0 -68 -2 -107l-14 -12h-512q0 -123 66 -197.5t190 -74.5q136 0 223 74l14 -9q-7 -91 -10 -217l-12 -14q-45 -28 -120.5 -44t-110.5 -18t-56 -2q-100 0 -180 25.5 t-130.5 63t-88 94t-55.5 104.5t-28.5 109t-12 93.5t-1.5 70.5zM168 1477l10 8q94 2 238 12l8 -10q0 -5 -1 -49t-1 -66t1 -69t1 -58l-12 -10q-36 -1 -228 -10l-10 10q-5 214 -6 242zM362 670h230q0 50 -4.5 87.5t-15.5 71.5t-34 52t-57 18q-57 0 -88 -67t-31 -162zM547 1477 l10 8q93 2 238 12l8 -10q0 -5 -1 -49t-1 -66q0 -23 1 -72t1 -55l-12 -10q-36 -1 -228 -10l-10 10q0 107 -6 242z" />
<glyph unicode="&#xec;" horiz-adv-x="512" d="M-16 1526l8 12h55q51 0 199 4l12 -10q21 -99 104 -330l-8 -10h-47q-35 0 -133 -4l-12 10q-80 162 -178 328zM76 1042l10 13q174 23 324 57l12 -12q-6 -249 -6 -451q0 -371 18 -637l-10 -12q-5 0 -47.5 1t-63.5 1q-55 0 -215 -8l-12 12q10 303 10 492q0 343 -20 544z" />
<glyph unicode="&#xed;" horiz-adv-x="512" d="M76 1042l10 13q174 23 324 57l12 -12q-6 -249 -6 -451q0 -371 18 -637l-10 -12q-5 0 -47.5 1t-63.5 1q-55 0 -215 -8l-12 12q10 303 10 492q0 343 -20 544zM156 1200l16 42q15 42 29.5 83.5t33.5 100t31 102.5l13 12q69 0 253 4l7 -12q-99 -164 -191 -330l-14 -12h-45 q-80 0 -127 -2z" />
<glyph unicode="&#xee;" horiz-adv-x="512" d="M-37 1204q79 161 141 322l13 12q77 0 295 4l14 -12q14 -41 65.5 -168t67.5 -158l-10 -12h-35q-39 0 -100.5 -3t-77.5 -3l-12 12q-14 41 -37.5 119t-38.5 123q-22 -57 -90 -242l-15 -10q-7 0 -71.5 2t-102.5 2zM76 1042l10 13q174 23 324 57l12 -12q-6 -249 -6 -451 q0 -371 18 -637l-10 -12q-5 0 -47.5 1t-63.5 1q-55 0 -215 -8l-12 12q10 303 10 492q0 343 -20 544z" />
<glyph unicode="&#xef;" horiz-adv-x="512" d="M-63 1477l10 8q93 2 237 12l9 -10q0 -5 -1.5 -49t-1.5 -66t1.5 -69t1.5 -58l-13 -10q-34 -1 -227 -10l-10 10q-5 214 -6 242zM76 1042l10 13q174 23 324 57l12 -12q-6 -249 -6 -451q0 -371 18 -637l-10 -12q-5 0 -47.5 1t-63.5 1q-55 0 -215 -8l-12 12q10 303 10 492 q0 343 -20 544zM315 1477l11 8q91 2 237 12l8 -10q0 -5 -1 -49t-1 -66q0 -23 1 -72t1 -55l-12 -10q-34 -1 -227 -10l-10 10q0 85 -7 242z" />
<glyph unicode="&#xf0;" d="M53 530q0 290 110 432t308 142q49 0 109 -21q-25 75 -68 140q-31 -8 -115.5 -29.5t-138.5 -36.5l-25 8q-25 73 -59 140l10 16q21 4 226 49q-71 80 -154 135l4 15q183 35 279 63l26 -6q74 -54 133 -137q20 5 63.5 17t69.5 18l21 -7q18 -47 63 -143l-14 -18 q-90 -19 -100 -21q174 -305 174 -688q0 -621 -459 -621q-104 0 -185 30t-133 80t-85 122t-46.5 150.5t-13.5 170.5zM385 553q0 -367 127 -367q71 0 99 88.5t28 284.5q0 342 -125 342q-129 0 -129 -348z" />
<glyph unicode="&#xf1;" d="M74 1042l10 13q172 26 317 57l13 -12q-4 -94 -4 -127q138 133 274 133q89 0 150 -51q54 -44 75 -130t21 -214q0 -428 16 -699l-14 -12h-101q-89 0 -206 -6l-11 12q2 74 2 363v182q0 70 -1.5 113t-7 82.5t-16 60t-27.5 32t-42 11.5q-33 0 -63 -20.5t-49 -45.5 q-2 -39 -2 -104q0 -137 5.5 -373.5t8.5 -294.5l-12 -12h-103q-92 0 -209 -6l-12 12q8 312 8 420q0 332 -20 616zM215 1229q0 14 1 66t1 81v41l6 15q62 59 148 59q45 0 90 -16l69 -27q75 -29 113 -29q86 0 150 76l12 -6q0 -63 4 -189l-8 -14q-23 -21 -40 -34t-48.5 -25.5 t-65.5 -12.5q-46 0 -110 25l-56 23q-63 26 -106 26q-79 0 -148 -65z" />
<glyph unicode="&#xf2;" d="M53 557q0 88 14 165.5t47.5 149.5t84.5 123.5t130 82t179 30.5q463 0 463 -569q0 -99 -15.5 -180.5t-41.5 -138.5t-62.5 -101t-76 -70.5t-86.5 -43t-88 -22.5t-85 -6q-226 0 -344.5 139.5t-118.5 440.5zM240 1526l8 12h55q51 0 199 4l12 -10q21 -99 104 -330l-8 -10h-47 q-35 0 -133 -4l-12 10q-80 162 -178 328zM385 553q0 -367 127 -367q71 0 99 88.5t28 284.5q0 342 -125 342q-129 0 -129 -348z" />
<glyph unicode="&#xf3;" d="M53 557q0 88 14 165.5t47.5 149.5t84.5 123.5t130 82t179 30.5q463 0 463 -569q0 -99 -15.5 -180.5t-41.5 -138.5t-62.5 -101t-76 -70.5t-86.5 -43t-88 -22.5t-85 -6q-226 0 -344.5 139.5t-118.5 440.5zM385 553q0 -367 127 -367q71 0 99 88.5t28 284.5q0 342 -125 342 q-129 0 -129 -348zM412 1200l16 42q15 42 29.5 83.5t33.5 100t31 102.5l13 12q69 0 253 4l7 -12q-99 -164 -191 -330l-14 -12h-45q-80 0 -127 -2z" />
<glyph unicode="&#xf4;" d="M53 557q0 88 14 165.5t47.5 149.5t84.5 123.5t130 82t179 30.5q463 0 463 -569q0 -99 -15.5 -180.5t-41.5 -138.5t-62.5 -101t-76 -70.5t-86.5 -43t-88 -22.5t-85 -6q-226 0 -344.5 139.5t-118.5 440.5zM219 1204q79 161 141 322l13 12q77 0 295 4l14 -12 q14 -41 65.5 -168t67.5 -158l-10 -12h-35q-39 0 -100.5 -3t-77.5 -3l-12 12q-14 41 -37.5 119t-38.5 123q-22 -57 -90 -242l-15 -10q-7 0 -71.5 2t-102.5 2zM385 553q0 -367 127 -367q71 0 99 88.5t28 284.5q0 342 -125 342q-129 0 -129 -348z" />
<glyph unicode="&#xf5;" d="M53 557q0 88 14 165.5t47.5 149.5t84.5 123.5t130 82t179 30.5q463 0 463 -569q0 -99 -15.5 -180.5t-41.5 -138.5t-62.5 -101t-76 -70.5t-86.5 -43t-88 -22.5t-85 -6q-226 0 -344.5 139.5t-118.5 440.5zM215 1229q0 14 1 66t1 81v41l6 15q62 59 148 59q45 0 90 -16 l69 -27q75 -29 113 -29q86 0 150 76l12 -6q0 -63 4 -189l-8 -14q-23 -21 -40 -34t-48.5 -25.5t-65.5 -12.5q-46 0 -110 25l-56 23q-63 26 -106 26q-79 0 -148 -65zM385 553q0 -367 127 -367q71 0 99 88.5t28 284.5q0 342 -125 342q-129 0 -129 -348z" />
<glyph unicode="&#xf6;" d="M53 557q0 88 14 165.5t47.5 149.5t84.5 123.5t130 82t179 30.5q463 0 463 -569q0 -99 -15.5 -180.5t-41.5 -138.5t-62.5 -101t-76 -70.5t-86.5 -43t-88 -22.5t-85 -6q-226 0 -344.5 139.5t-118.5 440.5zM193 1477l10 8q93 2 237 12l9 -10q0 -5 -1.5 -49t-1.5 -66t1.5 -69 t1.5 -58l-13 -10q-34 -1 -227 -10l-10 10q-5 214 -6 242zM385 553q0 -367 127 -367q71 0 99 88.5t28 284.5q0 342 -125 342q-129 0 -129 -348zM571 1477l11 8q91 2 237 12l8 -10q0 -5 -1 -49t-1 -66q0 -23 1 -72t1 -55l-12 -10q-34 -1 -227 -10l-10 10q0 85 -7 242z" />
<glyph unicode="&#xf7;" horiz-adv-x="1300" d="M160 516q0 43 1 85t1 65v55l16 16q88 -4 236 -4h469q87 0 243 4l15 -16q-4 -88 -4 -180v-27l-15 -14q-3 0 -112 1t-140 1h-464q-27 0 -128.5 -1t-103.5 -1zM514 358l16 17q103 2 234 10l14 -18q-2 -49 -2 -111q0 -13 1 -61.5t1 -83.5l-14 -17l-236 -8l-12 16v115 q0 14 -1 57.5t-1 83.5zM516 866q0 30 1 71t1 52q0 12 -1 53t-1 78l14 19q147 3 236 8l12 -17v-120q0 -77 2 -136l-14 -16l-236 -8z" />
<glyph unicode="&#xf8;" d="M29 12v15q93 111 112 131q-88 148 -88 372q0 126 24 225t65 164.5t99.5 108.5t124.5 61.5t144 18.5q109 0 173.5 -24t131.5 -74q7 9 23.5 29t30.5 38.5t34 48.5h17q14 -13 38 -31t35 -28l2 -16q-24 -26 -61.5 -70t-48.5 -57q44 -82 65 -169t21 -231q0 -121 -25.5 -216.5 t-68.5 -156.5t-102.5 -101t-123 -56.5t-135.5 -16.5q-106 0 -171.5 24t-129.5 73q-52 -61 -96 -123l-15 -2q-51 44 -75 63zM379 569q0 -67 2 -106l246 307q-8 40 -18.5 66.5t-34 48.5t-58.5 22q-76 0 -106.5 -84t-30.5 -254zM399 309q28 -129 113 -129q40 0 66.5 22.5t41 72 t20 113t5.5 159.5q0 42 -2 69z" />
<glyph unicode="&#xf9;" d="M84 1069l10 10q132 0 299 15l13 -13q0 -51 -2.5 -281t-2.5 -354q0 -42 1.5 -68t7 -57.5t16.5 -48.5t31.5 -29t50.5 -12q62 0 113 60q0 12 1 61.5t1 75.5q0 287 -13 641l11 10q121 2 303 15l12 -13q-6 -218 -6 -393q0 -451 10 -676l-12 -12h-78q-96 0 -219 -6l-8 10l4 113 q-26 -26 -48 -45.5t-57.5 -43t-78.5 -36t-91 -12.5q-68 0 -116.5 20.5t-76.5 53t-44 84.5t-20.5 102t-4.5 118v383q0 207 -6 328zM240 1526l8 12h55q51 0 199 4l12 -10q21 -99 104 -330l-8 -10h-47q-35 0 -133 -4l-12 10q-80 162 -178 328z" />
<glyph unicode="&#xfa;" d="M84 1069l10 10q132 0 299 15l13 -13q0 -51 -2.5 -281t-2.5 -354q0 -42 1.5 -68t7 -57.5t16.5 -48.5t31.5 -29t50.5 -12q62 0 113 60q0 12 1 61.5t1 75.5q0 287 -13 641l11 10q121 2 303 15l12 -13q-6 -218 -6 -393q0 -451 10 -676l-12 -12h-78q-96 0 -219 -6l-8 10l4 113 q-26 -26 -48 -45.5t-57.5 -43t-78.5 -36t-91 -12.5q-68 0 -116.5 20.5t-76.5 53t-44 84.5t-20.5 102t-4.5 118v383q0 207 -6 328zM412 1200l16 42q15 42 29.5 83.5t33.5 100t31 102.5l13 12q69 0 253 4l7 -12q-99 -164 -191 -330l-14 -12h-45q-80 0 -127 -2z" />
<glyph unicode="&#xfb;" d="M84 1069l10 10q132 0 299 15l13 -13q0 -51 -2.5 -281t-2.5 -354q0 -42 1.5 -68t7 -57.5t16.5 -48.5t31.5 -29t50.5 -12q62 0 113 60q0 12 1 61.5t1 75.5q0 287 -13 641l11 10q121 2 303 15l12 -13q-6 -218 -6 -393q0 -451 10 -676l-12 -12h-78q-96 0 -219 -6l-8 10l4 113 q-26 -26 -48 -45.5t-57.5 -43t-78.5 -36t-91 -12.5q-68 0 -116.5 20.5t-76.5 53t-44 84.5t-20.5 102t-4.5 118v383q0 207 -6 328zM219 1204q79 161 141 322l13 12q77 0 295 4l14 -12q14 -41 65.5 -168t67.5 -158l-10 -12h-35q-39 0 -100.5 -3t-77.5 -3l-12 12 q-14 41 -37.5 119t-38.5 123q-22 -57 -90 -242l-15 -10q-7 0 -71.5 2t-102.5 2z" />
<glyph unicode="&#xfc;" d="M84 1069l10 10q132 0 299 15l13 -13q0 -51 -2.5 -281t-2.5 -354q0 -42 1.5 -68t7 -57.5t16.5 -48.5t31.5 -29t50.5 -12q62 0 113 60q0 12 1 61.5t1 75.5q0 287 -13 641l11 10q121 2 303 15l12 -13q-6 -218 -6 -393q0 -451 10 -676l-12 -12h-78q-96 0 -219 -6l-8 10l4 113 q-26 -26 -48 -45.5t-57.5 -43t-78.5 -36t-91 -12.5q-68 0 -116.5 20.5t-76.5 53t-44 84.5t-20.5 102t-4.5 118v383q0 207 -6 328zM188 1477l11 8q93 2 237 12l8 -10q0 -5 -1 -49t-1 -66t1 -69t1 -58l-12 -10q-34 -1 -227 -10l-10 10q-4 169 -7 242zM567 1477l11 8 q91 2 237 12l8 -10q0 -5 -1 -49t-1 -66q0 -23 1 -72t1 -55l-12 -10q-34 -1 -227 -10l-11 10q0 107 -6 242z" />
<glyph unicode="&#xfd;" horiz-adv-x="937" d="M-6 1067l8 12q136 2 326 15l16 -13q38 -175 84 -362l78 -309l84 329q64 254 80 334l12 12h63q101 0 191 5l8 -13q-85 -271 -186 -602l-103 -336q-95 -320 -149 -559l-14 -10h-89q-83 0 -188 -6l-10 14q44 90 121 328l18 57q-102 354 -211 688q-95 303 -139 416zM369 1200 l15 42q16 42 30.5 83.5t33.5 100t31 102.5l13 12q69 0 253 4l7 -12q-99 -164 -191 -330l-14 -12h-45q-80 0 -127 -2z" />
<glyph unicode="&#xfe;" d="M70 1497l10 12q126 17 315 58l11 -8q-1 -46 -4 -169.5t-3 -201.5q0 -18 1 -77.5t1 -109.5q125 105 242 105q105 0 184 -74q57 -52 91.5 -137t43.5 -153.5t9 -141.5q0 -389 -232 -532q-113 -72 -260 -72h-67q3 -64 5.5 -197.5t6.5 -218.5l-12 -10q-7 0 -52.5 1t-68.5 1 q-51 0 -191 -8l-12 12q6 123 6 334v207q0 1243 -24 1380zM416 811q0 -375 2 -596l11 -1q11 -1 17 -1q55 0 95 28.5t62.5 79.5t33 113.5t10.5 140.5q0 37 -3 71.5t-14 92.5t-41 93.5t-75 35.5q-48 0 -98 -57z" />
<glyph unicode="&#xff;" horiz-adv-x="937" d="M-6 1067l8 12q136 2 326 15l16 -13q38 -175 84 -362l78 -309l84 329q64 254 80 334l12 12h63q101 0 191 5l8 -13q-85 -271 -186 -602l-103 -336q-95 -320 -149 -559l-14 -10h-89q-83 0 -188 -6l-10 14q44 90 121 328l18 57q-102 354 -211 688q-95 303 -139 416zM147 1477 l11 8q93 2 237 12l8 -10q0 -5 -1 -49t-1 -66t1 -69t1 -58l-12 -10q-34 -1 -227 -10l-10 10q-4 169 -7 242zM526 1477l11 8q91 2 237 12l8 -10q0 -5 -1 -49t-1 -66q0 -23 1 -72t1 -55l-12 -10q-34 -1 -227 -10l-11 10q0 107 -6 242z" />
<glyph unicode="&#x152;" horiz-adv-x="1622" d="M70 713q0 114 17.5 215t56 195t108 166.5t164.5 111.5q120 51 364 51q5 0 78 -1t162.5 -2t136.5 -1h100q186 0 297 4l11 -12q-5 -68 -13 -228l-10 -12q-254 4 -342 4h-88v-26q0 -199 2 -314h100q193 0 304 4l12 -12q-12 -118 -14 -219l-15 -12q-22 0 -99 2t-122 2 q-11 0 -61 -1t-105 -1q0 -153 1 -258t1 -115h103q280 4 356 10l12 -12q-10 -118 -16 -242l-12 -12q-18 0 -96 1t-122 1h-143q-108 0 -255.5 -4t-209.5 -4q-219 0 -340 57q-323 150 -323 664zM422 739q0 -240 68 -365t223 -128q25 0 80 6q2 61 2 166q0 162 -4 416t-5 374 q-34 2 -81 2q-52 0 -95.5 -19.5t-72 -50.5t-50.5 -74t-34 -85.5t-19.5 -90.5t-9.5 -83t-2 -68z" />
<glyph unicode="&#x153;" horiz-adv-x="1579" d="M53 539q0 129 25 228.5t67.5 163t103.5 104t127.5 57t145.5 16.5q119 0 192.5 -41.5t127.5 -116.5q69 90 141 124t164 34q79 0 142.5 -25t102.5 -60.5t68 -90t42 -98.5t20.5 -102.5t8.5 -84.5t1 -61q0 -60 -2 -97l-14 -12h-533q0 -30 5 -60.5t22 -69.5t44.5 -68t78 -49.5 t116.5 -20.5q150 0 238 72l12 -9q-7 -90 -10 -213l-12 -16q-136 -66 -301 -66q-115 0 -183 37.5t-139 116.5q-104 -154 -346 -154q-97 0 -176.5 29.5t-143.5 92.5t-99.5 175t-35.5 265zM401 541q0 -346 131 -346q37 0 64 29t41 79.5t20.5 106t6.5 120.5q0 363 -129 363 q-134 0 -134 -352zM977 670h256q0 23 -1.5 45t-8.5 58t-18.5 61.5t-35.5 45t-57 19.5q-40 0 -69 -27.5t-42 -68.5t-18.5 -74t-5.5 -59z" />
<glyph unicode="&#x178;" horiz-adv-x="1110" d="M-8 1430l6 12q164 3 346 14l16 -10q106 -291 222 -592q118 294 225 582l14 10h56q61 0 233 4l8 -12q-89 -170 -239 -510l-158 -359v-67q0 -250 8 -490l-12 -12h-68q-120 0 -270 -6l-10 12q10 200 10 486v67l-166 371q-18 40 -93.5 216.5t-127.5 283.5zM215 1798l10 10 q141 4 238 11l8 -11q-2 -39 -2 -133q0 -71 2 -104l-10 -12q-52 -1 -230 -11l-10 11q0 119 -6 239zM635 1798l10 10q141 4 238 11l8 -11q-2 -39 -2 -133q0 -71 2 -104l-10 -12q-52 -1 -230 -11l-10 11q0 119 -6 239z" />
<glyph unicode="&#x2c6;" horiz-adv-x="512" d="M-41 1204q79 161 141 322l13 12q77 0 295 4l14 -12q14 -41 65.5 -168t67.5 -158l-10 -12h-35q-39 0 -100.5 -3t-77.5 -3l-13 12q-14 42 -37 119.5t-38 122.5q-22 -57 -90 -242l-15 -10q-7 0 -71.5 2t-102.5 2z" />
<glyph unicode="&#x2dc;" horiz-adv-x="512" d="M-41 1229q0 14 1 66t1 81v41l6 15q62 59 148 59q45 0 90 -16l69 -27q75 -29 113 -29q86 0 150 76l12 -6q0 -63 4 -189l-8 -14q-23 -21 -40 -34t-48.5 -25.5t-65.5 -12.5q-46 0 -110 25l-56 23q-63 26 -106 26q-79 0 -148 -65z" />
<glyph unicode="&#x2000;" horiz-adv-x="984" />
<glyph unicode="&#x2001;" horiz-adv-x="1968" />
<glyph unicode="&#x2002;" horiz-adv-x="984" />
<glyph unicode="&#x2003;" horiz-adv-x="1968" />
<glyph unicode="&#x2004;" horiz-adv-x="656" />
<glyph unicode="&#x2005;" horiz-adv-x="492" />
<glyph unicode="&#x2006;" horiz-adv-x="328" />
<glyph unicode="&#x2007;" horiz-adv-x="328" />
<glyph unicode="&#x2008;" horiz-adv-x="246" />
<glyph unicode="&#x2009;" horiz-adv-x="393" />
<glyph unicode="&#x200a;" horiz-adv-x="109" />
<glyph unicode="&#x2010;" horiz-adv-x="638" d="M49 463q3 45 12 231l13 13q29 0 142 -1t179 -1q115 0 183 4l12 -13q-9 -197 -10 -233l-17 -12q-41 4 -168 4q-234 0 -334 -4z" />
<glyph unicode="&#x2011;" horiz-adv-x="638" d="M49 463q3 45 12 231l13 13q29 0 142 -1t179 -1q115 0 183 4l12 -13q-9 -197 -10 -233l-17 -12q-41 4 -168 4q-234 0 -334 -4z" />
<glyph unicode="&#x2012;" horiz-adv-x="638" d="M49 463q3 45 12 231l13 13q29 0 142 -1t179 -1q115 0 183 4l12 -13q-9 -197 -10 -233l-17 -12q-41 4 -168 4q-234 0 -334 -4z" />
<glyph unicode="&#x2013;" horiz-adv-x="980" d="M49 463q9 117 12 231l13 13q109 -2 508 -2q223 0 338 4l12 -13l-12 -233l-15 -12q-158 2 -483 2q-324 0 -361 -2z" />
<glyph unicode="&#x2014;" horiz-adv-x="1527" d="M49 471q19 175 23 219l14 15q573 -5 688 -5h346q202 0 346 5l13 -13q-13 -97 -23 -227l-10 -12q-343 6 -688 6q-521 0 -697 -4z" />
<glyph unicode="&#x2018;" horiz-adv-x="468" d="M37 981q66 152 205 506l14 12q102 3 199 8l8 -12q-15 -51 -28 -98t-24 -92t-18 -74.5t-15 -72.5t-11 -58t-10.5 -58.5t-8.5 -48.5l-12 -12q-176 -3 -291 -12z" />
<glyph unicode="&#x2019;" horiz-adv-x="468" d="M6 981q88 300 115 502l12 12q113 2 293 12l8 -12q-118 -270 -205 -506l-16 -12q-102 -3 -199 -8z" />
<glyph unicode="&#x201a;" horiz-adv-x="468" d="M20 -213q87 304 115 502l12 12q111 0 293 10l9 -12q-29 -65 -58 -134.5t-46 -113t-50.5 -130t-50.5 -128.5l-17 -12q-87 0 -198 -6z" />
<glyph unicode="&#x201c;" horiz-adv-x="854" d="M37 981q137 329 205 506l14 12q102 3 199 8l8 -12q-33 -111 -67.5 -258.5t-47.5 -243.5l-12 -12q-176 -3 -291 -12zM420 981q152 364 205 506l16 12q106 3 197 8l10 -12q-15 -51 -28 -98t-24 -92t-18 -74.5t-15 -72.5t-11 -58t-10.5 -58.5t-8.5 -48.5l-12 -12 q-173 -3 -293 -12z" />
<glyph unicode="&#x201d;" horiz-adv-x="854" d="M6 981q88 300 115 502l12 12q113 2 293 12l8 -12q-118 -270 -205 -506l-16 -12q-102 -3 -199 -8zM391 981q45 154 75.5 294.5t37.5 207.5l14 12q111 2 291 12l8 -12q-102 -229 -205 -506l-14 -12q-102 -3 -199 -8z" />
<glyph unicode="&#x201e;" horiz-adv-x="854" d="M6 -213q92 309 115 502l12 12q111 0 293 10l8 -12q-29 -65 -58 -134.5t-46 -113t-50.5 -130t-50.5 -128.5l-16 -12q-88 0 -199 -6zM391 -213q92 324 113 502l14 12q109 0 291 10l8 -12q-34 -76 -67 -157t-76.5 -192t-61.5 -157l-16 -12q-89 0 -197 -6z" />
<glyph unicode="&#x2022;" horiz-adv-x="649" d="M98 877l17 18q184 2 420 8l16 -20q0 -8 -0.5 -42t-1 -93t-0.5 -127q0 -104 2 -172l-16 -17l-418 -6l-15 18v207q0 112 -4 226z" />
<glyph unicode="&#x2026;" horiz-adv-x="1710" d="M156 252l14 16q112 0 229 4l15 -18q0 -40 -1 -83.5t-1 -57.5v-97l-13 -14q-204 -4 -227 -4l-12 16v47q0 97 -4 191zM727 252l14 16q95 0 230 4l12 -18v-238l-14 -14q-200 -4 -228 -4l-12 16v49q0 31 -1 85t-1 104zM1296 252l15 16q120 0 229 4l12 -18v-238l-14 -14 q-196 -4 -225 -4l-13 16v31q0 7 -4 207z" />
<glyph unicode="&#x202f;" horiz-adv-x="393" />
<glyph unicode="&#x2039;" horiz-adv-x="512" d="M45 594q42 83 97.5 217.5t78.5 185.5l17 11h114q84 0 125 2l10 -15q-68 -130 -182 -415q25 -71 51 -133.5t67.5 -152t59.5 -130.5l-10 -14h-70q-73 0 -161 -3l-17 11q-27 64 -87.5 202t-90.5 211z" />
<glyph unicode="&#x203a;" horiz-adv-x="512" d="M25 162q85 167 184 413q-15 41 -31.5 83t-37 89t-34.5 78t-40 86.5t-37 79.5l10 17h70q102 0 161 2l17 -11q105 -252 180 -413v-23q-41 -81 -95 -213t-81 -190l-17 -13q-56 3 -112 3q-24 0 -73 -1.5t-56 -1.5z" />
<glyph unicode="&#x205f;" horiz-adv-x="492" />
<glyph unicode="&#x20ac;" horiz-adv-x="1165" d="M43 477q14 39 43 146l14 10q37 -2 109 -2q0 67 2 106h-125l-14 13q30 91 43 143l14 8q37 -2 109 -2q55 225 197 343t370 118q168 0 305 -74l6 -12q-35 -104 -67 -225l-17 -2q-65 71 -188 71q-216 0 -273 -219q245 0 433 4l8 -14q-1 -2 -43 -144l-15 -14q-113 6 -413 6 q-6 -24 -6 -71q0 -21 2 -35h30q125 0 371 4l8 -17q-22 -64 -45 -145l-14 -10q-147 4 -332 4q46 -242 291 -242q68 0 119.5 17.5t103.5 58.5l12 -6q-9 -125 -12 -254l-8 -12q-117 -52 -301 -52q-230 0 -366.5 128.5t-170.5 361.5q-58 0 -168 -4z" />
<glyph unicode="&#x2122;" horiz-adv-x="1417" d="M43 1319q0 22 1 47t1 31v35l10 16q82 -2 176 -2h66q131 0 225 2l13 -10q-5 -64 -5 -121l-8 -10h-147v-220q0 -200 4 -331l-10 -15l-160 -2l-10 17q6 183 6 479v72h-152zM575 756q19 263 29 678l12 12h105q70 0 127 2l10 -10q10 -55 43 -207t51 -250q11 53 49 212.5 t56 240.5l10 12h94q12 0 52 1t77 1l8 -14q9 -438 23 -676l-10 -15q-68 -2 -154 -2l-10 15q4 156 4 551q-33 -138 -131 -553l-12 -13h-52q-7 0 -33 -1t-49 -1l-10 15q-99 456 -119 553q-6 -313 -6 -437q0 -77 2 -114l-10 -15q-82 0 -145 -2z" />
<glyph unicode="&#xe000;" horiz-adv-x="1095" d="M0 0v1096h1096v-1096h-1096z" />
</font>
</defs>
</svg>
