<?xml version="1.0" standalone="no"?>
<!DOCTYPE svg PUBLIC "-//W3C//DTD SVG 1.1//EN" "http://www.w3.org/Graphics/SVG/1.1/DTD/svg11.dtd" >
<svg xmlns="http://www.w3.org/2000/svg">
<metadata></metadata>
<defs>
<font id="formatabold" horiz-adv-x="1193" >
<font-face units-per-em="2048" ascent="1536" descent="-512" />
<missing-glyph horiz-adv-x="598" />
<glyph unicode="&#xfb01;" horiz-adv-x="1409" d="M2 831q12 147 14 248l17 19l137 -4q-4 78 -4 116q0 56 2.5 96.5t11.5 88.5t25.5 81.5t46 67t70.5 53.5t101.5 32.5t137.5 12.5q78 0 230 -16l10 -12q-18 -172 -21 -268l-16 -11q-50 13 -70 13q-31 0 -53 -11t-34.5 -28.5t-20 -46.5t-9.5 -57t-2 -68v-45q73 0 177 6 l10 -15q-15 -140 -21 -252l-16 -12l-147 2v-190q0 -252 16 -617l-14 -14h-113q-148 0 -295 -6l-14 12q12 331 12 819q-63 0 -156 -6zM854 1049l12 12q245 34 430 72l11 -17q-4 -300 -4 -450q0 -381 20 -652l-14 -14q-7 0 -48.5 1t-62.5 1q-109 0 -317 -8l-17 14 q15 330 15 529q0 279 -25 512zM864 1542l15 14q64 8 199.5 27t203.5 27l12 -15v-327l-12 -13q-193 -21 -391 -59l-19 12q-1 31 -8 334z" />
<glyph unicode="&#xfb02;" horiz-adv-x="1409" d="M2 831q12 147 14 248l17 19l137 -4q-4 78 -4 116q0 56 2.5 96.5t11.5 88.5t25.5 81.5t46 67t70.5 53.5t101.5 32.5t137.5 12.5q78 0 230 -16l10 -12q-18 -172 -21 -268l-16 -11q-50 13 -70 13q-31 0 -53 -11t-34.5 -28.5t-20 -46.5t-9.5 -57t-2 -68v-45q73 0 177 6 l10 -15q-15 -140 -21 -252l-16 -12l-147 2v-190q0 -252 16 -617l-14 -14h-113q-148 0 -295 -6l-14 12q12 331 12 819q-63 0 -156 -6zM850 1548l12 13q48 9 196 33.5t228 39.5l17 -18q0 -44 -2.5 -340.5t-2.5 -437.5q0 -544 17 -824l-17 -14q-45 0 -113 1t-85 1 q-19 0 -223 -8l-15 14q10 333 10 701v419q0 216 -22 420z" />
<glyph horiz-adv-x="2048" />
<glyph horiz-adv-x="2048" />
<glyph unicode="&#xd;" horiz-adv-x="2048" />
<glyph unicode=" "  horiz-adv-x="598" />
<glyph unicode="&#x09;" horiz-adv-x="598" />
<glyph unicode="&#xa0;" horiz-adv-x="598" />
<glyph unicode="!" horiz-adv-x="641" d="M152 1534l14 16q202 9 405 21l19 -10q-38 -396 -53 -1018l-15 -19q-152 0 -299 -6l-10 14q-12 309 -23.5 502t-37.5 500zM162 336l14 12q279 0 383 6l10 -8q-4 -230 -4 -340l-10 -8q-125 0 -383 -4l-8 14q-2 109 -2 328z" />
<glyph unicode="&#x22;" horiz-adv-x="880" d="M49 1487l21 26q70 0 299 7l20 -27q-33 -148 -104 -582l-19 -20q-25 2 -51 2q-21 0 -39 -2l-18 20q-84 455 -109 576zM492 1489l20 27q170 0 299 6l20 -29q-26 -118 -102 -580l-20 -22q-25 2 -52 2h-36l-21 20q-96 524 -108 576z" />
<glyph unicode="#" horiz-adv-x="1374" d="M53 397q2 106 2 230l15 14q217 -2 272 -2l23 156q-29 0 -103 -1t-143 -1l-13 14q3 150 3 229l14 15l272 -2q47 353 49 387l11 12q31 0 72 -1t51 -1t49 1t69 1l9 -12l-62 -389h180q8 52 27.5 209.5t21.5 179.5l11 12q30 0 70.5 -1t50.5 -1t49 1t69 1l8 -12l-63 -389 q31 0 112.5 2t129.5 2l12 -15q-4 -100 -4 -215v-14l-14 -14q-80 0 -160 1t-107 1l-22 -156l241 4l13 -16q-4 -102 -4 -230l-15 -14l-270 2q-16 -135 -26 -219.5t-13 -116t-4 -37.5l-10 -12h-242l-10 12q14 73 61 373h-180q-29 -212 -43 -373l-10 -12h-244l-8 12 q26 130 59 373l-243 -4zM586 639h180l22 156h-180z" />
<glyph unicode="$" horiz-adv-x="1150" d="M100 82q2 170 6 293l25 10q78 -60 125 -83t131 -46l74 297l-78 51q-38 25 -58 39t-55.5 41.5t-54.5 48.5t-44.5 54.5t-38.5 66.5t-22.5 76.5t-9.5 91.5q0 76 26.5 145t79.5 127t145 92.5t212 34.5q35 0 105 -4l18 109l16 14l160 -2l12 -12l-30 -129q59 -13 88.5 -23 t93.5 -39l8 -12l-26 -268l-25 -6q-69 40 -102.5 55.5t-100.5 36.5l-75 -287l81 -55q79 -53 131 -95.5t95.5 -94.5t63.5 -110t20 -128q0 -176 -149.5 -289t-389.5 -113h-61l-27 -123l-16 -12l-160 -2l-10 14l36 140q-75 19 -109.5 32.5t-98.5 49.5zM469 1067q0 -48 86 -113 l57 201q-12 2 -34 2q-39 0 -74 -25t-35 -65zM555 242q8 -2 25 -2q54 0 89.5 26.5t35.5 65.5q0 28 -16 53t-33 38t-42 28z" />
<glyph unicode="%" horiz-adv-x="1878" d="M61 930q0 53 2 92t9.5 91.5t21 91t39 79t61 65.5t89 41.5t120.5 16.5q66 0 119.5 -15t89 -39.5t62 -63t40.5 -77t22.5 -89.5t11 -93t2.5 -96q0 -53 -2.5 -94.5t-11 -92.5t-22.5 -89t-40.5 -76.5t-62 -63t-89 -40t-119.5 -15.5t-118 15.5t-87.5 40t-61.5 63t-40 76.5 t-22 88.5t-10.5 91t-2.5 92.5zM322 936q0 -123 9 -188.5t25.5 -88t46.5 -22.5t47 19t28 86.5t11 193.5q0 117 -9.5 182.5t-27.5 90t-49 24.5q-50 0 -65.5 -67.5t-15.5 -229.5zM535 18q383 881 579 1354l14 12q129 0 207 2l8 -20q-348 -744 -575 -1346l-14 -14 q-35 0 -98 -2.5t-109 -3.5zM1128 446q0 53 2 92t9.5 92t21 91t39 78.5t61 66t89 42t120.5 16.5q66 0 119.5 -15t89 -39.5t62 -63t40.5 -77t22.5 -89.5t11 -93t2.5 -96q0 -53 -2.5 -94.5t-11 -92.5t-22.5 -89t-40.5 -76.5t-62 -63t-89 -40t-119.5 -15.5t-118 15.5t-87.5 40 t-61.5 62.5t-40 76t-22 88.5t-10.5 91t-2.5 92.5zM1389 453q0 -123 9 -188.5t25.5 -88t46.5 -22.5t47 19t28 86.5t11 193.5q0 117 -9.5 182.5t-27.5 90t-49 24.5q-50 0 -65.5 -67.5t-15.5 -229.5z" />
<glyph unicode="&#x26;" horiz-adv-x="1413" d="M31 360q0 120 68 211t235 197q-117 141 -117 289q0 166 117.5 262t320.5 96q180 0 282.5 -91t102.5 -230q0 -101 -52.5 -177t-176.5 -165l166 -209q76 95 118 171t68 167l19 2q15 -20 85 -102.5t115 -141.5l4 -21q-83 -149 -221 -309q153 -196 254 -293l-8 -18 q-11 0 -58 1t-175 1q-38 0 -114 -3t-106 -3l-18 8l-57 76q-97 -58 -183 -83.5t-192 -25.5q-210 0 -343.5 109.5t-133.5 281.5zM446 399q0 -55 37 -87.5t97 -32.5t118 32l-174 213q-44 -35 -61 -62.5t-17 -62.5zM571 1104q0 -27 15 -56.5t55 -80.5q47 37 66.5 66.5t19.5 64.5 q0 38 -21 62t-55 24q-35 0 -57.5 -22.5t-22.5 -57.5z" />
<glyph unicode="'" horiz-adv-x="436" d="M49 1487l21 26q70 0 299 7l20 -27q-33 -148 -104 -582l-19 -20q-25 2 -51 2q-21 0 -39 -2l-18 20q-84 455 -109 576z" />
<glyph unicode="(" horiz-adv-x="681" d="M109 567q0 434 309 987l16 13h211l17 -21q-35 -103 -60.5 -187.5t-59.5 -219.5t-52.5 -283t-18.5 -293q0 -180 42.5 -430t148.5 -549l-17 -20h-211l-16 12q-309 553 -309 991z" />
<glyph unicode=")" horiz-adv-x="681" d="M20 -416q6 21 35.5 114t39.5 128.5t34 122t34 144t23.5 141t19 166t5.5 169.5q0 440 -191 977l19 21q8 0 46.5 -1t57.5 -1t58 1t49 1l14 -15q309 -551 309 -987q0 -447 -309 -989l-16 -12h-211z" />
<glyph unicode="*" horiz-adv-x="980" d="M72 1257q88 137 116 201l17 2q100 -77 198 -145q-34 194 -43 237l11 13q44 0 131 1t102 1l10 -11q-32 -182 -41 -243q116 105 197 160l14 -7q72 -129 121 -198l-2 -15q-42 -19 -121.5 -52t-117.5 -50q200 -67 241 -80l4 -14q-42 -71 -110 -207l-13 -4q-28 20 -102.5 72 t-112.5 79q9 -47 30 -132.5t26 -108.5l-11 -11q-147 -6 -241 -6l-6 9q8 70 26 251q-75 -78 -184 -159l-12 2q-18 30 -59.5 98t-63.5 104l4 15q219 89 225 92l-227 92z" />
<glyph unicode="+" horiz-adv-x="1554" d="M205 483q4 254 4 289l16 12h70q6 0 40.5 -0.5t105.5 -1t165 -0.5l-2 383l14 17l314 2l16 -17q0 -8 -0.5 -33.5t-1 -95t-0.5 -182.5v-74h113q182 0 270 4l17 -16q0 -54 -1.5 -113t-1.5 -79v-95l-16 -14q-82 2 -190 2h-191v-80q0 -135 4 -305l-14 -18h-315l-17 16 q4 204 4 274v113q-12 0 -126.5 -1t-200.5 -1h-58z" />
<glyph unicode="," horiz-adv-x="555" d="M2 -188q74 240 125 524l12 12q168 0 404 14l8 -14q-37 -78 -74 -163.5t-86.5 -204.5t-68.5 -164l-15 -11q-99 -4 -297 -8z" />
<glyph unicode="-" horiz-adv-x="811" d="M70 436l12 287l12 14q29 0 164.5 -1t202.5 -1q180 0 272 2l8 -12q-4 -45 -14 -285l-12 -14h-637z" />
<glyph unicode="." horiz-adv-x="555" d="M70 336l8 12q133 0 395 4l8 -8v-334l-10 -8q-127 -4 -385 -8l-8 12q-4 114 -8 330z" />
<glyph unicode="/" horiz-adv-x="1067" d="M-33 -287q50 117 242 552.5t309.5 720t220.5 566.5l15 13q90 2 272 2l8 -19q-285 -659 -507 -1191t-261 -644l-14 -12q-88 -4 -272 -8z" />
<glyph unicode="0" d="M70 692q0 87 4.5 156.5t18 147t36.5 136t63 114t94 91t132 57t176 21.5q95 0 171 -19t131 -52t96 -84.5t66.5 -109.5t40.5 -134.5t21 -153t6 -170.5q0 -88 -4.5 -159t-18.5 -148t-37.5 -135.5t-63.5 -113.5t-94 -90t-131.5 -56t-174.5 -21q-93 0 -168 18t-130 50.5 t-96 82.5t-67 108.5t-42 134.5t-22.5 154.5t-6.5 174.5zM469 690q0 -246 25 -350t104 -104q19 0 33.5 5.5t30 21t26.5 47.5t20.5 81t14 125.5t4.5 177.5q0 181 -15.5 282.5t-42.5 137t-73 35.5q-74 0 -100.5 -105t-26.5 -354z" />
<glyph unicode="1" d="M221 1092l17 245l14 13l563 73l14 -12q-6 -621 -6 -821q0 -336 15 -574l-17 -14q-221 0 -411 -8l-11 14q13 480 13 809v273l-179 -11z" />
<glyph unicode="2" d="M18 23q245 306 390 503q118 163 154 227.5t36 133.5q0 35 -11.5 69t-35.5 65t-68 50t-102 19q-65 0 -121 -18t-89.5 -39t-86.5 -62l-18 14q2 134 4 318l12 14q68 26 100 37.5t92.5 29.5t117 25.5t118.5 7.5q128 0 229 -36.5t164.5 -100t97 -146.5t33.5 -180 q0 -203 -170 -411l-176 -215q219 6 383 12l12 -14q-12 -161 -14 -303l-14 -23q-18 0 -113.5 1t-144.5 1q-126 0 -433.5 -4t-338.5 -4z" />
<glyph unicode="3" d="M84 1077l16 289l15 20q258 -4 389 -4q158 0 516 11l14 -23q-131 -259 -241 -496q135 -15 218 -117.5t83 -267.5q0 -70 -17 -138.5t-60.5 -139t-109.5 -123t-173 -86t-242 -33.5q-200 0 -386 70l-6 14q2 129 4 305l19 11q50 -34 77 -51t84.5 -36.5t116.5 -19.5 q111 0 174.5 56.5t63.5 150.5q0 86 -60.5 138t-142.5 52q-50 0 -108 -28l-15 12q50 112 179 432l-394 -12z" />
<glyph unicode="4" d="M63 272v217l9 33q134 258 206 410.5t199 445.5l19 15q227 2 479 6l16 -15q-8 -297 -8 -510q0 -37 1 -147t1 -188l145 6l15 -13l-15 -262l-16 -14h-129l10 -246l-18 -14q-30 0 -73.5 1t-59.5 1q-87 0 -248 -8l-12 12l12 254h-522zM395 539h211q6 298 12 571 q-25 -63 -47 -118.5t-68.5 -176.5t-107.5 -276z" />
<glyph unicode="5" d="M104 51q9 147 9 301l20 10q55 -33 88.5 -50.5t92 -34.5t118.5 -17q112 0 166.5 55t54.5 136q0 83 -62.5 135.5t-176.5 52.5q-58 0 -111 -10.5t-81 -21.5t-66 -29l-19 10q5 104 27 380t22 404l15 14q22 0 131.5 -1t163.5 -1q89 0 512 9l10 -17l-25 -291l-14 -14 q-266 6 -463 10l-16 -155q68 12 131 12q116 0 207.5 -35.5t148.5 -97.5t87 -143.5t30 -176.5q0 -62 -14.5 -125t-55 -135.5t-103.5 -127.5t-171 -91.5t-246 -36.5q-92 0 -170.5 10.5t-119.5 21.5t-107 32z" />
<glyph unicode="6" d="M66 643q0 381 170.5 577.5t476.5 196.5q78 0 136.5 -6.5t91.5 -15t91 -27.5l12 -16l-16 -289l-22 -10q-104 80 -240 80q-68 0 -120.5 -17.5t-83.5 -44t-51 -63.5t-28 -70t-10 -70q36 21 59.5 33t75.5 25.5t109 13.5q88 0 160 -28t120 -73.5t80.5 -106t47 -123.5 t14.5 -128q0 -110 -29 -198.5t-78 -146t-116 -96t-140 -55t-153 -16.5q-124 0 -221 35t-159.5 95t-103 147t-57 184t-16.5 213zM465 553q0 -49 1 -80.5t5.5 -73.5t14.5 -67.5t26 -50.5t42.5 -36.5t61.5 -11.5q45 0 76.5 20.5t45.5 54t19 61.5t5 57q0 82 -38 141.5t-114 59.5 q-35 0 -66 -14t-45 -26.5t-34 -33.5z" />
<glyph unicode="7" d="M88 1075l27 295l14 16q349 0 989 13l12 -23q-13 -40 -67 -208t-89 -279.5t-85.5 -276.5t-92.5 -315.5t-75 -280.5l-16 -16q-34 0 -85 1t-71 1q-116 0 -293 -8l-16 16q50 142 101.5 281.5t85.5 227.5t103.5 266.5t110.5 285.5l-541 -8z" />
<glyph unicode="8" d="M57 410q0 72 23.5 138.5t75 122t123.5 79.5q-93 38 -139 113.5t-46 168.5q0 51 13 100.5t49 102t91.5 92t148.5 65t212 25.5q121 0 214 -30t144.5 -73t83.5 -99.5t42 -100.5t10 -84q0 -99 -49.5 -172.5t-134.5 -107.5q100 -37 159.5 -130t59.5 -210q0 -31 -4 -63 t-18.5 -76.5t-37.5 -84t-65 -80t-97 -69.5t-138 -47.5t-183 -18.5q-111 0 -202 25t-152 67t-103 99t-61 119t-19 129zM487 403q0 -63 26 -110t83 -47q111 0 111 172q0 80 -27.5 129t-81.5 49q-111 0 -111 -193zM489 1018q0 -89 33 -123.5t74 -34.5q49 0 80 39.5t31 118.5 q0 72 -29.5 116t-79.5 44q-49 0 -79 -42t-30 -118z" />
<glyph unicode="9" d="M55 922q0 229 142 362t376 133q52 0 101 -6.5t106 -26t105 -50.5t94 -83.5t78 -121.5t51.5 -169t19.5 -221q0 -88 -11 -174.5t-52 -202t-109 -198.5q-78 -94 -196 -144.5t-316 -50.5q-86 0 -140.5 11t-141.5 38l-12 17l16 289l20 10q29 -21 51.5 -35t76 -29.5 t114.5 -15.5q131 0 208.5 67.5t86.5 196.5q-51 -27 -76 -38.5t-71 -22.5t-97 -11q-184 0 -304 123.5t-120 352.5zM432 963q0 -86 39.5 -145.5t108.5 -59.5q36 0 68 14t46 27t35 35v75q0 244 -154 244q-52 0 -86 -31.5t-45.5 -72t-11.5 -86.5z" />
<glyph unicode=":" horiz-adv-x="641" d="M156 336l8 12q264 0 395 4l6 -8q0 -223 2 -334l-10 -8q-254 -4 -385 -8l-10 12q0 49 -1 104t-2.5 122t-2.5 104zM158 1073l8 12q166 0 399 7l4 -7q-2 -113 -2 -337l-10 -9q-195 0 -389 -6l-8 10q0 221 -2 330z" />
<glyph unicode=";" horiz-adv-x="641" d="M88 -188q74 240 125 524l12 12q168 0 404 14l8 -14q-37 -78 -74 -163.5t-86.5 -204.5t-68.5 -164l-15 -11q-99 -4 -297 -8zM213 1071l12 12q5 0 160 4.5t233 4.5l9 -9q-2 -65 -2.5 -182.5t-1.5 -155.5l-11 -8q-58 -2 -123 -3t-144 -1.5t-122 -1.5l-8 10q0 221 -2 330z " />
<glyph unicode="&#x3c;" horiz-adv-x="1554" d="M270 465q4 115 4 231v105l17 20q294 135 915 443l23 -13q-2 -78 -2 -178q0 -94 2 -172l-17 -18q-121 -46 -299 -119.5t-299 -120.5q365 -164 592 -262l19 -23q-2 -61 -2 -139q0 -20 2 -87.5t2 -127.5l-19 -12q-50 22 -397.5 195.5t-525.5 256.5z" />
<glyph unicode="=" horiz-adv-x="1554" d="M203 238q4 92 4 184v100l18 17q161 -7 264 -7h539q174 0 297 5l14 -17q0 -51 -1 -107t-1 -75v-98l-20 -17l-885 2q-135 0 -213 -4zM213 739q4 92 4 185v100l19 14q92 -4 219 -4h649q143 0 231 2l15 -16q0 -50 -1 -106t-1 -74v-101l-19 -16q-100 2 -252 2h-311 q-463 0 -537 -2z" />
<glyph unicode="&#x3e;" horiz-adv-x="1554" d="M326 4v348l16 19q371 151 598 241q-516 223 -592 262l-18 21v139q0 21 -1 88.5t-1 128.5l16 11q96 -47 268 -132.5t274.5 -136t214 -104t169.5 -78.5l12 -20q-1 -44 -2 -94.5t-1.5 -80.5t-0.5 -57v-104l-14 -23q-122 -51 -516 -243.5t-402 -196.5z" />
<glyph unicode="?" horiz-adv-x="937" d="M49 1210q4 194 8 285l15 16q181 72 383 72q122 0 215.5 -34t148.5 -93t82 -131t27 -154q0 -114 -46 -209t-165 -251l-47 -62q-30 -38 -37.5 -62t-7.5 -59l-11 -16q-62 0 -189.5 -3.5t-170.5 -4.5l-10 14q0 61 18 97.5t74 105.5l51 63q127 160 127 297q0 97 -59.5 150 t-149.5 53q-43 0 -88 -14.5t-73.5 -30t-77.5 -45.5zM225 8v328l15 12q9 0 69 -1t90 -1q87 0 222 6l10 -6q-4 -230 -4 -340l-9 -8q-124 0 -382 -4z" />
<glyph unicode="@" horiz-adv-x="1699" d="M66 567q0 192 66.5 360t183 287t281 187.5t353.5 68.5q315 0 500.5 -175.5t185.5 -471.5q0 -175 -64.5 -325.5t-174.5 -239t-238 -88.5q-143 0 -201 104q-100 -94 -217 -94q-131 0 -211.5 94t-80.5 248q0 146 68.5 272t182.5 189q114 64 308 64q24 0 227 -7l12 -14 l-76 -475q-16 -93 -16 -135q0 -36 17.5 -56t48.5 -20q63 0 118.5 75t87 186t31.5 222q0 236 -137.5 371t-378.5 135q-194 0 -351 -98.5t-246 -272.5t-89 -389q0 -293 176.5 -472t466.5 -179q172 0 317.5 60t280.5 192l19 18l16 5q39 -47 94 -107v-18q-158 -154 -347.5 -230 t-389.5 -76q-238 0 -425.5 102.5t-292.5 286t-105 416.5zM694 537q0 -82 29 -128.5t80 -46.5q35 0 62.5 17.5t58.5 58.5l67 428q-23 4 -65 4q-103 0 -167.5 -92t-64.5 -241z" />
<glyph unicode="A" horiz-adv-x="1409" d="M0 14q282 888 446 1422l13 10q58 1 171.5 2.5t200 2.5t148.5 1l14 -10q348 -1187 416 -1426l-14 -16h-215q-3 0 -207 -6l-15 12q-11 46 -36 164t-41 182h-400l-80 -344l-16 -8h-375zM557 647h254q-78 339 -119 527q-28 -117 -135 -527z" />
<glyph unicode="B" horiz-adv-x="1409" d="M102 1436l11 10q63 0 317 4t367 4q87 0 159 -13.5t120 -35t84.5 -52t56.5 -60.5t32.5 -65.5t16.5 -62.5t4 -55q0 -209 -221 -322q153 -22 223.5 -114.5t70.5 -227.5q0 -446 -679 -446h-543l-10 10q10 427 10 772q0 306 -19 654zM541 268q1 0 29.5 -1t54.5 -1 q74 0 125.5 19t75 49.5t33 58.5t9.5 56q0 149 -206 149q-20 0 -65.5 -1t-55.5 -1v-328zM545 879h57q232 0 232 163q0 146 -187 146h-102v-309z" />
<glyph unicode="C" horiz-adv-x="1236" d="M66 702q0 80 11 156t36.5 154t64 145.5t97.5 127t132.5 101.5t173 66.5t216.5 24.5q189 0 372 -76l9 -15q-19 -179 -19 -337l-16 -9q-46 49 -115.5 75t-144.5 26q-20 0 -42 -2t-58.5 -11.5t-69 -26t-67.5 -48.5t-60 -75t-41.5 -110t-16.5 -149q0 -194 97 -304t276 -110 q148 0 273 92l16 -8q-13 -254 -16 -346l-9 -12q-20 -5 -64.5 -18.5t-65.5 -18.5t-61 -12.5t-84.5 -10t-101.5 -2.5q-123 0 -230 26.5t-198 84.5t-156 142.5t-101.5 207t-36.5 272.5z" />
<glyph unicode="D" horiz-adv-x="1449" d="M106 1436l13 10h569q67 0 115.5 -3.5t130 -17t153.5 -49.5t127 -92q73 -73 121.5 -200.5t48.5 -313.5q0 -378 -184 -574t-553 -196q-149 0 -518 -6l-12 16q4 406 4 608q0 410 -15 818zM557 322q30 -3 61 -3q88 0 149.5 31t95.5 91t48.5 134.5t14.5 174.5q0 193 -62 288 t-205 95q-25 0 -102 -5v-806z" />
<glyph unicode="E" horiz-adv-x="1150" d="M106 1436l13 10h477q323 0 444 6l11 -14q-6 -56 -11 -161t-6 -120l-12 -12q-25 0 -127 1t-152 1h-194l2 -262q26 0 192 4t254 4l15 -14q-10 -119 -17 -269l-14 -12q-285 0 -428 2v-285q239 0 522 13l10 -13q-8 -103 -20 -303l-16 -12l-392 2q-176 0 -536 -8l-10 16 q8 289 8 656q0 466 -13 770z" />
<glyph unicode="F" horiz-adv-x="1067" d="M104 1438l15 10q115 1 321.5 1t363 0.5t226.5 2.5l12 -10q-12 -187 -14 -281l-16 -16q-78 2 -234 2h-233l2 -289q60 1 440 12l12 -10q-14 -105 -18 -280l-12 -15h-211q-141 0 -213 -2q1 -75 3 -166.5t5 -207t4 -177.5l-14 -12h-150q-97 0 -268 -6l-14 12q0 70 4 332 t4 395q0 324 -15 705z" />
<glyph unicode="G" horiz-adv-x="1449" d="M66 705q0 247 98 422.5t270.5 262.5t403.5 87q101 0 194.5 -17.5t135 -32.5t104.5 -41l8 -14q-13 -152 -27 -340l-16 -6q-31 22 -52 35t-67.5 37t-102 36.5t-114.5 12.5q-190 0 -286.5 -115t-96.5 -336q0 -55 9.5 -108t32 -104t55.5 -89.5t83.5 -62t112.5 -23.5 q51 0 117 15v65q0 188 -17 328l13 12h145l270 6l9 -10q-7 -171 -7 -291q0 -62 5 -364l-9 -17q-8 -2 -47 -13.5t-58 -16.5t-61 -15t-75.5 -15.5t-79.5 -11.5t-95.5 -9t-101.5 -3q-366 0 -559.5 195t-193.5 541z" />
<glyph unicode="H" horiz-adv-x="1536" d="M109 1436l10 10q13 0 68 -1t83 -1q40 0 285 8l10 -12v-103q0 -36 -1 -186.5t-1 -224.5h121q195 0 291 2q0 97 -3.5 273t-4.5 235l10 10q49 1 137.5 1.5t162 1.5t138.5 3l8 -8q-6 -449 -6 -901q0 -294 8 -531l-12 -12h-174q-89 0 -260 -6l-10 12q1 52 4.5 195.5t3.5 191.5 q0 73 -4 217q-72 2 -217 2q-96 0 -195 -6q0 -194 4 -596l-10 -10q-217 0 -434 -6l-10 12q2 293 5 457.5t3 277.5q0 462 -10 695z" />
<glyph unicode="I" horiz-adv-x="681" d="M109 1436l10 10h219q48 0 225 6l8 -10q-10 -328 -10 -588q0 -448 14 -844l-10 -10h-221q-52 0 -223 -6l-10 12q10 502 10 907q0 175 -12 523z" />
<glyph unicode="J" horiz-adv-x="768" d="M6 16q2 70 2 211v84l12 13q21 -7 58 -7q88 0 123 58.5t35 163.5q0 270 -19 897l12 10q215 0 426 6l15 -10q-2 -72 -2 -215q0 -90 2 -361t2 -436q0 -44 -2.5 -78.5t-13 -82.5t-28.5 -84t-52 -74.5t-81 -63.5t-118.5 -41t-161.5 -16q-65 0 -197 12z" />
<glyph unicode="K" horiz-adv-x="1409" d="M96 1436l13 10h188q53 0 242 6l10 -10q-10 -529 -14 -631q241 421 354 629l14 6q387 6 451 6l10 -12q-274 -360 -422 -602q245 -448 326 -590.5t135 -220.5l-6 -17q-312 -12 -471 -20l-19 8q-75 172 -372 747q4 -91 6 -340t16 -393l-14 -12h-234q-39 0 -186 -6l-12 12 q10 332 10 574q0 511 -25 856z" />
<glyph unicode="L" horiz-adv-x="1110" d="M111 1436l14 12q82 0 249.5 2t190.5 2l15 -8q-5 -46 -8 -152.5t-5.5 -252t-3 -266.5t-1.5 -268t-1 -186q232 0 508 13l10 -13q-8 -99 -20 -307l-12 -12h-578l-338 -6l-10 14q2 39 2 195q0 121 -4.5 622.5t-7.5 610.5z" />
<glyph unicode="M" horiz-adv-x="1921" d="M78 6q37 474 69 1430l11 10h243q36 0 324 6l12 -6q44 -175 130.5 -504.5t97.5 -372.5q31 126 109 418.5t116 450.5l14 8q247 0 553 6l15 -12q11 -440 67 -1428l-14 -12h-185q-38 0 -215 -6l-10 14q-2 85 -7 322.5t-8 424t-3 359.5q-23 -85 -136.5 -510.5t-156.5 -591.5 l-17 -12h-96q-61 0 -223 -6l-14 12q-53 213 -297 1120q-17 -679 -17 -852q0 -86 4 -262l-14 -12q-170 0 -340 -6z" />
<glyph unicode="N" horiz-adv-x="1492" d="M102 1434l13 12h196l164 6l12 -6q92 -139 278.5 -390t268.5 -372q0 500 -10 752l8 10q329 6 334 6l12 -8q0 -49 -1 -263t-1 -321q0 -563 6 -848l-14 -12q-144 0 -285 -6l-18 8q-218 315 -610 838q3 -92 12 -381t16 -447l-12 -12h-152q-31 0 -190 -6l-12 10q6 190 6 383 q0 438 -21 1047z" />
<glyph unicode="O" horiz-adv-x="1492" d="M66 702q0 128 20.5 238t70 210.5t126 171.5t195.5 113t272 42q327 0 502 -192t175 -556q0 -760 -688 -760q-325 0 -499 187.5t-174 545.5zM516 715q0 -68 5 -123.5t20 -115.5t39.5 -100.5t67.5 -66.5t100 -26q54 0 95 24.5t66 65t40.5 99.5t21.5 120.5t6 136.5 q0 440 -227 440q-70 0 -118 -34.5t-72.5 -101t-34 -141.5t-9.5 -177z" />
<glyph unicode="P" horiz-adv-x="1323" d="M109 4q14 702 14 901q0 234 -10 531l14 10q77 0 305 3t264 3q72 0 127.5 -3.5t122 -17t116 -36t96.5 -64t77 -98.5q55 -99 55 -244q0 -207 -108 -340q-30 -38 -68.5 -67.5t-76 -49t-87.5 -33t-89 -20.5t-95.5 -11t-92.5 -4.5t-93 -0.5h-33q-2 -117 -2 -166q0 -144 6 -285 l-12 -12h-168q-55 0 -248 -6zM549 766h35q40 0 73 4t69.5 17.5t61.5 36t41.5 63t16.5 94.5q0 92 -53.5 134t-143.5 42h-100v-391z" />
<glyph unicode="Q" horiz-adv-x="1492" d="M66 709q0 41 1.5 78t9.5 96.5t20.5 111t38 114t59.5 112.5t86.5 99.5t117 82.5t154.5 53.5t195 20.5q331 0 505 -196.5t174 -588.5q0 -499 -364 -622q290 -99 448 -146l15 -22q-97 -152 -164 -295l-21 -2q-58 31 -165 88.5t-160.5 86t-130.5 69t-138.5 70.5t-121.5 58 q-268 28 -413.5 211t-145.5 521zM516 707q0 -38 2.5 -75t10 -89.5t24 -95.5t40.5 -82t64 -61.5t91 -22.5q231 0 231 448q0 42 -1.5 77.5t-7 82t-15 83.5t-27 75.5t-41 64t-58.5 41.5t-79 16q-49 0 -87 -18t-63 -52t-42 -75.5t-26 -96.5t-12.5 -106.5t-3.5 -113.5z" />
<glyph unicode="R" horiz-adv-x="1323" d="M96 1436l10 10q206 0 380.5 2t189.5 2q47 0 76.5 -0.5t80 -5t84.5 -11.5t79 -22t76 -36t64 -53.5t52.5 -73.5t32 -97.5t12.5 -124.5q0 -156 -72.5 -256.5t-177.5 -138.5q245 -473 326 -602l-11 -19q-240 -7 -430 -20l-22 18q-5 11 -30 71t-76 172t-134 284q-47 -3 -68 -3 q0 -344 15 -520l-12 -12q-211 0 -422 -6l-10 12q1 93 5.5 302.5t4.5 256.5q0 564 -23 871zM538 815h40q29 0 55 3t60 14.5t58.5 30.5t42 54.5t17.5 83.5q0 77 -45 116.5t-123 39.5q-12 0 -43 -1t-57 -1q-1 -168 -5 -340z" />
<glyph unicode="S" d="M111 57q14 194 14 330l18 6q41 -40 96.5 -67t109.5 -37t86.5 -13.5t60.5 -3.5q94 0 144 38.5t50 92.5q0 30 -12.5 54t-36.5 41.5t-44 28t-50 22.5l-105 41q-90 35 -154.5 82t-97.5 89.5t-52 96t-23 88.5t-4 80q0 43 6 84.5t22.5 87.5t42 85.5t68.5 76t98 62.5t133.5 41.5 t173.5 15.5q207 0 385 -82l9 -13q-3 -40 -19 -317l-18 -8q-27 22 -47.5 36.5t-63 38.5t-95.5 37t-112 13q-73 0 -113 -38t-40 -85q0 -49 33.5 -77t103.5 -58l141 -60q167 -70 236 -170.5t69 -240.5q0 -93 -37.5 -186t-107.5 -156q-90 -81 -201 -112.5t-264 -31.5 q-41 0 -92 3t-141.5 20t-153.5 45z" />
<glyph unicode="T" horiz-adv-x="1110" d="M6 1141q11 260 12 295l15 10h594q237 0 477 6l12 -8q-11 -73 -18 -301l-13 -13q-62 1 -311 11q0 -13 -1 -187.5t-1 -404.5q0 -238 10 -535l-12 -14h-229q-52 0 -199 -6l-12 12q5 92 8.5 518.5t3.5 612.5q-162 -3 -326 -9z" />
<glyph unicode="U" horiz-adv-x="1409" d="M90 1436l10 10h162q67 0 277 6l10 -10q-12 -540 -12 -871q0 -160 50.5 -229.5t153.5 -69.5q108 0 154.5 73.5t46.5 225.5q0 383 -14 867l10 8q42 1 124 2.5t144.5 2.5t106.5 1l12 -8q0 -157 -5 -476t-5 -382q0 -69 -2 -113t-14.5 -115.5t-35 -119t-68 -103t-109 -88.5 t-162.5 -55.5t-224 -22.5q-138 0 -243.5 27t-188.5 88t-126.5 168.5t-43.5 259.5q0 617 -8 924z" />
<glyph unicode="V" horiz-adv-x="1323" d="M-8 1427l6 13q248 6 444 18l15 -6q136 -699 233 -1083q26 125 72.5 341.5t80.5 381.5t66 342l13 12q91 1 209.5 3.5t175.5 2.5l10 -6q-289 -946 -418 -1434l-16 -12h-140q-145 0 -323 -6l-12 10q-71 271 -221.5 769.5t-194.5 653.5z" />
<glyph unicode="W" horiz-adv-x="2048" d="M0 1427l8 13q157 4 428 18l17 -8q32 -209 92.5 -578t85.5 -526q42 214 109 611t81 477l13 12q435 6 440 6l12 -10q79 -505 182 -1094q19 113 84.5 492t100.5 598l14 8l369 6l12 -8q-62 -256 -179.5 -732t-172.5 -702l-13 -10q-66 2 -200 2q-153 0 -301 -8l-13 12 q-25 164 -81.5 473.5t-79.5 450.5q-99 -493 -177 -918l-16 -12q-59 2 -182 2q-154 0 -305 -8l-13 12q-185 894 -315 1421z" />
<glyph unicode="X" horiz-adv-x="1280" d="M6 6q38 65 133.5 227.5t163.5 282t127 232.5q-60 99 -190.5 328t-202.5 345l12 19q165 4 449 18l20 -12q57 -151 152 -365q65 142 149 353l12 12h142q124 0 280 6l7 -14q-146 -230 -369 -639q-6 -11 -9.5 -17t-8.5 -15t-9 -17q235 -438 406 -727l-10 -23q-93 -3 -447 -12 l-22 12q-32 79 -168 397q-77 -160 -181 -385l-18 -12h-115q-129 0 -293 -6z" />
<glyph unicode="Y" horiz-adv-x="1366" d="M-12 1425l8 15q233 3 467 18l14 -10q26 -58 60 -126t59 -114.5t67 -124.5t62 -116q77 151 211 473l10 6q13 0 400 6l8 -10q-284 -488 -449 -815q0 -410 6 -615l-14 -12q-219 0 -436 -6l-10 12q10 164 14 615q-38 66 -227 384.5t-250 419.5z" />
<glyph unicode="Z" d="M33 8q69 156 254 537.5t272 591.5q-58 -2 -223 -4.5t-234 -4.5l-14 13q21 290 21 291l12 14q39 0 191.5 -1t228.5 -1q156 0 606 8l8 -10q-86 -194 -261.5 -571.5t-256.5 -559.5q104 2 489 15l11 -13q-12 -134 -21 -295l-12 -18h-432q-396 0 -627 -6z" />
<glyph unicode="[" horiz-adv-x="681" d="M102 1546l13 15q64 1 261 4.5t292 3.5l12 -15q-4 -70 -4 -96q0 -67 2 -100l-10 -17q-119 7 -201 7q-2 -90 -2 -555q0 -450 10 -1020q156 0 197 2l10 -11q0 -23 -6 -194l-17 -10h-274q-19 0 -119.5 -3t-134.5 -3l-12 16q2 160 2 477q0 820 -19 1499z" />
<glyph unicode="\" horiz-adv-x="1067" d="M33 1552l2 13h55q43 0 118.5 1t98.5 1l25 -19q384 -962 768 -1835l-2 -12q-141 -3 -269 -8l-28 20q-62 153 -180.5 450.5t-193.5 483t-184.5 440.5t-209.5 465z" />
<glyph unicode="]" horiz-adv-x="681" d="M0 1354q6 165 6 194l17 13q91 -2 161 -2q115 0 367 8l12 -15q-2 -205 -2 -612q0 -649 19 -1366l-13 -14q-1 0 -553 -6l-12 12q4 58 4 96q0 23 -1 58.5t-1 41.5l12 15q1 0 199 -6q2 182 2 555q0 116 -3.5 527.5t-6.5 494.5q-83 -5 -197 -5z" />
<glyph unicode="^" horiz-adv-x="1554" d="M238 616q314 682 372 816l17 14q247 0 325 2l15 -12q286 -673 350 -811l-12 -23q-63 2 -146 2q-102 0 -182 -2l-16 16q-132 371 -166 486l-193 -479l-18 -19q-187 0 -334 -8z" />
<glyph unicode="_" horiz-adv-x="1024" d="M-20 -244l10 13h1042l12 -11q-4 -53 -4 -120q0 -66 4 -119l-12 -11h-1040l-12 11q0 30 2 70.5t2 50.5t-2 49t-2 67z" />
<glyph unicode="`" horiz-adv-x="598" d="M45 1620l10 14h107q170 0 254 2l12 -10q57 -192 125 -356l-10 -15q-177 0 -267 -2l-14 11q-97 176 -217 356z" />
<glyph unicode="a" d="M45 328q0 71 20 129t60 100.5t92.5 74.5t126 54.5t151 37.5t175.5 26v20q0 47 -29 66.5t-104 19.5q-46 0 -94.5 -7.5t-92 -20t-74.5 -23.5t-64 -24t-38 -15l-14 8q12 256 12 260l14 15q209 71 449 71q226 0 338 -84t112 -282q0 -33 -2 -132.5t-2 -144.5q0 -243 17 -461 l-13 -16q-193 0 -387 -6l-14 14v78q-3 -2 -24 -14.5t-37.5 -22t-46.5 -23.5t-57 -23t-62.5 -16t-69.5 -7q-141 0 -241.5 96.5t-100.5 251.5zM436 381q0 -40 27.5 -73.5t89.5 -33.5q65 0 125 41v211q-119 -8 -180.5 -39.5t-61.5 -105.5z" />
<glyph unicode="b" horiz-adv-x="1280" d="M88 1550l14 13q277 40 412 71l10 -16q-14 -450 -14 -580q36 23 63 37t87 30.5t126 16.5q89 0 168.5 -31.5t144 -91.5t102.5 -158.5t38 -222.5q0 -147 -45.5 -259.5t-115.5 -179t-167 -108.5t-187 -56.5t-189 -14.5h-420l-17 14q0 108 4 446t4 507q0 366 -18 583zM512 262 h41q59 0 105 15.5t76.5 42.5t50 66t28 83t8.5 96q0 130 -49 202.5t-137 72.5q-61 0 -123 -31v-547z" />
<glyph unicode="c" horiz-adv-x="980" d="M51 541q0 96 21 180.5t68 159t116.5 127.5t171 83.5t227.5 30.5q140 0 291 -57l10 -12q-14 -78 -32 -281l-23 -6q-27 26 -44 38.5t-53 25t-83 12.5q-104 0 -173 -73t-69 -212q0 -135 71 -213t195 -78q49 0 85.5 8.5t55.5 18t58 33.5l14 -11q-2 -27 -5.5 -127.5 t-6.5 -150.5l-10 -12q-153 -50 -297 -50q-273 0 -430.5 153t-157.5 413z" />
<glyph unicode="d" horiz-adv-x="1280" d="M49 502q0 133 37 242t108 188.5t181.5 123.5t251.5 44h131q0 374 -13 448l15 15q324 54 407 71l15 -12q-9 -88 -14 -475.5t-5 -605.5q0 -286 11 -525l-13 -16q-37 2 -108 2q-103 0 -279 -8l-10 14q0 37 2 90q-83 -70 -152 -96.5t-153 -26.5q-178 0 -295 143.5t-117 383.5 zM471 516q0 -123 43.5 -189.5t122.5 -66.5q50 0 119 43q4 204 4 307q0 145 -2 217q-14 2 -45 2q-51 0 -90 -12.5t-75.5 -44.5t-56.5 -96.5t-20 -159.5z" />
<glyph unicode="e" horiz-adv-x="1150" d="M49 547q0 122 33 220.5t87 163t127 108t149 62.5t157 19q251 0 377.5 -153.5t126.5 -448.5v-43l-14 -16q-414 -6 -635 -8q9 -93 83 -143t199 -50q190 0 314 82l14 -10l-10 -262l-13 -19q-152 -74 -385 -74q-104 0 -191 18.5t-149 50t-110 77t-77.5 94.5t-48.5 107.5 t-26.5 112.5t-7.5 112zM446 676l275 4q-7 184 -131 184q-73 0 -108.5 -54.5t-35.5 -133.5z" />
<glyph unicode="f" horiz-adv-x="768" d="M2 831q12 147 14 248l17 19l137 -4q-4 78 -4 116q0 56 2.5 96.5t11.5 88.5t25.5 81.5t46 67t70.5 53.5t101.5 32.5t137.5 12.5q78 0 230 -16l10 -12q-18 -172 -21 -268l-16 -11q-50 13 -70 13q-31 0 -53 -11t-34.5 -28.5t-20 -46.5t-9.5 -57t-2 -68v-45q73 0 177 6 l10 -15q-15 -140 -21 -252l-16 -12l-147 2v-190q0 -252 16 -617l-14 -14h-113q-148 0 -295 -6l-14 12q12 331 12 819q-63 0 -156 -6z" />
<glyph unicode="g" d="M63 -201q0 43 11 79.5t32.5 65.5t40 47t46.5 40l-80 63v17q82 133 155 292q-85 35 -145 115t-60 195q0 77 28.5 144.5t87 123.5t159.5 88.5t233 32.5q25 0 171 -3t223 -3q39 0 115.5 1t93.5 1l12 -13q-13 -181 -15 -254l-12 -12q-138 37 -139 37q0 -1 9.5 -19t13.5 -28 t11 -29.5t10 -41t3 -44.5q0 -78 -33 -140t-82.5 -98.5t-112 -61t-116 -33.5t-100.5 -9q-34 0 -84 4l-39 -86l184 -28q79 -12 135.5 -25t121.5 -40t105.5 -62t67.5 -92.5t27 -131.5q0 -81 -31.5 -151t-96.5 -127.5t-179 -91t-265 -33.5q-77 0 -145 8.5t-136 30t-116.5 55.5 t-78.5 89.5t-30 127.5zM418 -158q0 -58 51.5 -95.5t128.5 -37.5q71 0 108 28t37 64q0 42 -37.5 64.5t-119.5 38.5l-150 30l-4 -12q-3 -12 -6 -23t-5.5 -27.5t-2.5 -29.5zM455 737q0 -25 5.5 -51.5t17.5 -56.5t38 -49t62 -19q63 0 90.5 47.5t27.5 118.5q0 57 -31.5 108.5 t-91.5 51.5q-37 0 -63 -19.5t-36.5 -48t-14.5 -48.5t-4 -34z" />
<glyph unicode="h" horiz-adv-x="1280" d="M72 1548l10 13q309 51 420 73l14 -14q-2 -166 -2 -619q167 121 346 121q55 0 100.5 -11t76.5 -32.5t54 -45t37 -57.5t22.5 -60t11.5 -63t4 -56.5t1 -48.5v-189q0 -288 17 -543l-17 -16q-9 0 -53 1t-70 1q-109 0 -278 -8l-12 18q2 25 2 494q0 173 -23.5 238t-93.5 65 q-48 0 -119 -39q3 -428 19 -756l-15 -14q-9 0 -58.5 1t-74.5 1q-114 0 -278 -8l-11 14q4 426 4 639q0 691 -34 901z" />
<glyph unicode="i" horiz-adv-x="641" d="M86 1049l12 12q245 34 430 72l11 -17q-4 -300 -4 -450q0 -381 20 -652l-14 -14q-7 0 -48.5 1t-62.5 1q-109 0 -317 -8l-17 14q15 330 15 529q0 279 -25 512zM96 1542l15 14q64 8 199.5 27t203.5 27l12 -15v-327l-12 -13q-193 -21 -391 -59l-19 12q-1 31 -8 334z" />
<glyph unicode="j" horiz-adv-x="641" d="M-72 -258l9 14q44 10 73.5 25.5t52.5 46.5q30 39 36.5 82.5t6.5 146.5q0 168 -6.5 546.5t-19.5 443.5l14 14q152 19 424 72l12 -15q-8 -93 -8 -209q0 -108 2 -328t4 -399t2 -190q0 -173 -114 -305q-49 -56 -113.5 -99t-129.5 -65.5t-103 -32.5t-74 -16l-14 8 q-5 23 -25 116.5t-29 143.5zM80 1542l14 14q386 52 402 54l12 -15v-327l-12 -13q-195 -21 -392 -59l-18 12v146q0 29 -6 188z" />
<glyph unicode="k" horiz-adv-x="1236" d="M74 1548l16 15l418 71l14 -14q-12 -363 -12 -729v-268q106 190 231 460l19 15q37 -2 110 -2q95 0 283 8l12 -21q-32 -50 -123.5 -185.5t-138.5 -209.5q174 -369 322 -659l-17 -17q-14 0 -432 -18l-20 14q-32 89 -71.5 183t-96 219.5t-78.5 177.5q0 -350 14 -572l-16 -16 q-8 0 -61.5 1t-81.5 1q-51 0 -254 -8l-17 12q10 307 10 533q0 668 -30 1009z" />
<glyph unicode="l" horiz-adv-x="641" d="M82 1548l12 13q48 9 196 33.5t228 39.5l17 -18q0 -44 -2.5 -340.5t-2.5 -437.5q0 -544 17 -824l-17 -14q-45 0 -113 1t-85 1q-19 0 -223 -8l-15 14q10 332 10 701v419q0 216 -22 420z" />
<glyph unicode="m" horiz-adv-x="1878" d="M88 1049l14 12q295 42 424 72l17 -17l-2 -125q161 129 305 129q169 0 235 -129q68 61 168 95t193 34q165 0 243 -91t78 -273q0 -509 17 -742l-15 -14q-203 0 -405 -6l-17 14q5 405 5 537q0 61 -1.5 97.5t-7.5 72.5t-18 54t-31.5 29t-48.5 11q-26 0 -96 -25 q0 -435 14 -770l-14 -14q-205 0 -404 -6l-14 16q4 226 4 496q0 126 -10 190t-31 88.5t-63 24.5q-39 0 -99 -31q4 -553 11 -764l-15 -14q-78 0 -233.5 -3t-171.5 -3l-15 14q9 396 9 531q0 300 -25 510z" />
<glyph unicode="n" horiz-adv-x="1280" d="M78 1053l14 12q180 21 414 72l20 -19l-4 -110q152 116 334 116q87 0 149 -29t96.5 -84.5t50 -124.5t15.5 -159v-244q0 -207 17 -469l-17 -14q-41 2 -120 2q-99 0 -283 -8l-10 14q0 193 -1 318t-2 180t-1 78q0 121 -25 172t-90 51q-37 0 -111 -37l-2 -96q0 -316 19 -660 l-13 -14q-90 2 -141 2q-58 0 -270 -8l-13 14q5 265 5 318q0 468 -31 727z" />
<glyph unicode="o" horiz-adv-x="1236" d="M57 543q0 135 31 238.5t96.5 180.5t176.5 117.5t264 40.5q555 0 555 -571q0 -574 -559 -574q-128 0 -226 28t-161.5 77t-103.5 122t-56.5 155.5t-16.5 185.5zM481 530q0 -31 0.5 -52.5t3.5 -55.5t8 -57.5t15 -50.5t24 -44t35.5 -28t48.5 -11q36 0 62.5 19.5t41 49.5 t23 77t11 90t2.5 100q0 148 -30.5 224.5t-107.5 76.5q-32 0 -56.5 -15t-39 -45t-23.5 -59t-12.5 -74.5t-4.5 -73t-1 -71.5z" />
<glyph unicode="p" horiz-adv-x="1280" d="M82 1049l12 12q196 26 406 72l18 -17l-2 -94q119 98 281 98q90 0 165 -31.5t124.5 -83.5t84 -120.5t49.5 -140t15 -144.5q0 -152 -51 -269t-143.5 -189.5t-215.5 -109t-272 -36.5h-18q1 -24 16 -498l-12 -10q-58 4 -164 4q-21 0 -256 -10l-15 12q9 571 9 686 q0 204 -1 306.5t-8 256t-22 306.5zM532 262h21q58 0 103.5 15.5t73.5 42.5t46.5 57.5t27.5 67.5t12 65t3 57q0 126 -46 195t-132 69q-14 0 -28 -2t-27 -6t-22 -7.5t-19.5 -7.5t-12.5 -5v-541z" />
<glyph unicode="q" horiz-adv-x="1280" d="M45 502q0 294 160.5 446t462.5 152q359 0 491 4l17 -14q-11 -312 -11 -461q0 -653 25 -1129l-12 -12q-8 0 -65 1t-85 1q-70 0 -262 -8l-14 12q3 290 8 555q-40 -22 -67.5 -34.5t-83 -26t-115.5 -13.5q-64 0 -125 16t-120.5 54.5t-104 97t-72 151t-27.5 208.5zM473 549 q0 -30 2 -57t7.5 -64t18.5 -66t31.5 -55.5t49.5 -41.5t71 -15q41 0 105 24v549q-16 2 -45 2q-51 0 -91 -12t-75.5 -41t-54.5 -85.5t-19 -137.5z" />
<glyph unicode="r" horiz-adv-x="854" d="M88 1049l12 14q258 33 426 72l15 -19q0 -23 -2 -88t-2 -117q13 29 16.5 37t20.5 39t29 45t36 38.5t47.5 36t58 21t72.5 9.5q11 0 26.5 -1.5t27 -3.5t12.5 -2l14 -12q-48 -202 -86 -422l-20 -6q-51 37 -111 37q-74 0 -109.5 -49.5t-35.5 -157.5q0 -97 3.5 -264t4.5 -240 l-15 -16q-63 2 -112 2q-136 0 -303 -6l-15 12q13 394 13 551q0 258 -23 490z" />
<glyph unicode="s" horiz-adv-x="1024" d="M63 72q3 43 7.5 130t7.5 136l20 10q140 -125 308 -125q64 0 93 24t29 56q0 31 -24 48.5t-82 41.5l-86 35q-54 22 -92.5 45t-80.5 61.5t-64.5 96t-22.5 131.5q0 42 9.5 84.5t39.5 95t78.5 91.5t136.5 66t203 27q172 0 346 -53l12 -12q-12 -89 -22 -252l-21 -6 q-41 28 -68.5 43.5t-76.5 30t-103 14.5q-62 0 -89 -22.5t-27 -53.5q0 -42 86 -78l145 -59q236 -97 236 -324q0 -75 -29.5 -141.5t-88.5 -120.5t-158 -85.5t-226 -31.5q-219 0 -383 74z" />
<glyph unicode="t" horiz-adv-x="768" d="M0 831q11 240 12 252l15 17q40 -4 63 -4q39 0 53 2v268l13 14q200 50 379 105l18 -12q-1 -40 -6 -383q97 0 196 8l15 -15q-3 -43 -23 -245l-16 -19q-62 4 -96 4q-14 0 -42 -1t-34 -1q0 -30 -3 -169t-3 -224q0 -27 0.5 -40.5t3.5 -37.5t10.5 -37t20 -27.5t33.5 -21 t50 -6.5q20 0 41 4.5t40.5 11t21.5 7.5l14 -9q-4 -45 -10 -128t-10 -124l-15 -14q-127 -31 -270 -31q-177 0 -255.5 81.5t-78.5 244.5q0 327 6 524q-4 0 -52.5 -2t-76.5 -4z" />
<glyph unicode="u" horiz-adv-x="1280" d="M102 1077l15 15q353 17 391 18l16 -20q0 -92 -1 -317t-1 -265q0 -114 23 -167.5t94 -53.5q31 0 66.5 14.5t52.5 26.5q-2 157 -7 399.5t-6 349.5l13 15q279 8 397 18l16 -20q-4 -135 -4 -367q0 -534 9 -707l-15 -16h-110q-122 0 -275 -6l-14 14q2 53 2 94 q-165 -129 -330 -129q-82 0 -146.5 30.5t-101.5 81t-56 107.5t-19 117q0 618 -9 768z" />
<glyph unicode="v" horiz-adv-x="1110" d="M0 1077l12 15q223 0 424 18l17 -12q28 -161 147 -662q13 56 47.5 199t57.5 248t40 202l15 13q34 1 157 3.5t185 2.5l8 -14q-263 -783 -354 -1076l-21 -14h-96q-121 0 -268 -6l-17 12q-228 730 -354 1071z" />
<glyph unicode="w" horiz-adv-x="1705" d="M6 1075l10 17q208 0 394 18l14 -12q48 -290 135 -658q9 44 28 131.5t29 132.5t24 114.5t25.5 133t22.5 133.5l12 13q51 -2 152 -2q137 0 268 8l17 -12q56 -334 116 -656q83 364 127 649l15 13q35 -2 104 -2q132 0 211 8l10 -14q-183 -639 -301 -1076l-12 -14 q-12 0 -61.5 1t-75.5 1q-68 0 -260 -8l-17 14q-60 335 -121 649q-26 -116 -70.5 -319t-72.5 -326l-14 -12h-123q-123 0 -273 -6l-18 12q-36 139 -151.5 552.5t-143.5 516.5z" />
<glyph unicode="x" horiz-adv-x="1110" d="M-18 10q165 241 360 537q-46 80 -104 169t-130 194.5t-110 164.5l12 17q230 3 432 18l19 -10q50 -105 129 -256q75 147 115 241l18 13q37 -2 115 -2q63 0 247 8l11 -17q-159 -228 -338 -503q183 -308 360 -570l-6 -14h-80q-162 0 -362 -12l-21 10q-57 122 -139 281 q-92 -180 -131 -267l-19 -12q-45 2 -135 2q-59 0 -231 -8z" />
<glyph unicode="y" horiz-adv-x="1110" d="M-20 1077l8 15q234 3 438 18l16 -12q46 -211 154 -611q108 378 162 598l12 13q48 1 122.5 2.5t127.5 2.5t78 1l12 -14q-89 -249 -350 -1010q-96 -277 -164 -580l-16 -12h-72q-134 0 -297 -6l-10 16q90 210 180 451q-83 254 -210 618.5t-191 509.5z" />
<glyph unicode="z" horiz-adv-x="1024" d="M27 12q62 109 126 239.5t145 306.5t122 261h-340l-10 10l22 258l10 11q61 0 153 -1t128 -1q203 0 594 8l10 -19q-190 -354 -397 -817q217 7 381 13l14 -11l-27 -262l-12 -8q-61 0 -185.5 1t-156.5 1q-213 0 -569 -8z" />
<glyph unicode="{" horiz-adv-x="700" d="M6 481l2 174l19 21q66 6 99 32.5t47.5 89.5t14.5 187v207q0 101 18.5 171.5t74.5 121.5q101 90 309 90q7 0 38.5 -1t55.5 -1l14 -23q-4 -102 -4 -104v-64l-16 -18q-53 -3 -81 -12.5t-47.5 -38t-25.5 -76t-6 -133.5v-217q0 -141 -63.5 -218.5t-194.5 -97.5 q136 -17 197 -98t61 -235v-281q0 -114 30.5 -151.5t133.5 -43.5l14 -18q0 -25 -1 -54t-1 -38q0 -43 2 -76l-20 -18q-33 -2 -80 -2q-223 0 -320 94q-46 44 -67 123.5t-21 210.5v180q0 165 -34.5 228.5t-133.5 70.5z" />
<glyph unicode="|" horiz-adv-x="561" d="M102 1550l19 17h319l15 -17q-4 -446 -4 -762q0 -819 8 -1216l-17 -16h-114q-79 0 -209 -5l-15 19v65q5 264 5 519q-1 1222 -7 1396z" />
<glyph unicode="}" horiz-adv-x="700" d="M2 -420q4 102 4 105v63l17 19q98 6 128.5 54t30.5 191v232q0 146 62.5 218t197.5 99q-139 19 -199.5 96t-60.5 236v272q0 116 -30.5 157.5t-131.5 47.5l-16 16q0 25 1 54.5t1 38.5q0 44 -2 77l21 17q33 2 79 2q227 0 322 -92q46 -44 66 -123.5t20 -212.5v-180 q0 -164 36 -228.5t132 -68.5l14 -19v-174l-18 -20q-64 -5 -98 -31t-50 -87.5t-16 -174.5v-225q0 -101 -18 -170.5t-74 -120.5q-101 -90 -309 -90q-52 0 -95 2z" />
<glyph unicode="~" horiz-adv-x="1554" d="M133 670l2 22q57 109 152.5 173.5t210.5 64.5q54 0 100.5 -12.5t124.5 -47.5l115 -51q107 -47 170 -47q67 0 114.5 31.5t91.5 105.5l19 2q131 -165 188 -239l-2 -23q-137 -235 -364 -235q-53 0 -101 12t-123 45l-114 51q-107 47 -172 47q-66 0 -113.5 -31.5t-91.5 -105.5 h-18q-48 59 -189 238z" />
<glyph unicode="&#xa1;" horiz-adv-x="641" d="M49 4q38 396 53 1018l15 18q127 0 299 7l10 -15q18 -489 61 -1001l-14 -17q-270 -12 -405 -20zM70 1219q4 230 4 340l10 8q125 0 383 4l8 -15q2 -109 2 -327l-14 -12q-262 0 -383 -7z" />
<glyph unicode="&#xa2;" horiz-adv-x="1024" d="M51 537q0 265 154 420t420 155q41 0 90 -6q14 60 26 139l19 12q4 0 22 -1t27 -1q20 0 53.5 1t44.5 1l11 -12q-37 -121 -46 -158q67 -18 115 -38l10 -17q-23 -120 -36 -274l-19 -13q-70 31 -139 48q-40 -158 -129 -523q36 -4 51 -4q103 0 221 72l17 -6q-14 -147 -17 -279 l-12 -20q-73 -27 -142 -39t-190 -12q-27 -124 -31 -152l-16 -12q-44 0 -166 -4l-12 12q33 104 51 170q-108 24 -188 84q-51 40 -89 98t-56.5 110t-29 110t-12.5 87t-2 52zM444 532q0 -68 19.5 -113t56.5 -87q93 371 119 465q-195 -41 -195 -265z" />
<glyph unicode="&#xa3;" horiz-adv-x="1067" d="M51 600q10 184 12 207l17 12l100 -4q-6 80 -6 162q0 440 520 440q184 0 336 -43l10 -14q-15 -147 -22 -264l-19 -13q-97 47 -206 47q-55 0 -93.5 -12.5t-62 -33t-36.5 -56.5t-17 -74t-4 -94v-41q55 2 161 4t164 4l13 -14q-13 -163 -15 -211l-12 -10q-70 2 -186 2h-125 q-1 -20 -23 -334q104 1 260 4t207 4l8 -8q-9 -136 -14 -240l-12 -20h-539q-49 0 -165.5 -1t-133.5 -1h-57l-17 25q78 201 92 573l-125 -6z" />
<glyph unicode="&#xa4;" horiz-adv-x="1183" d="M35 268v29l139 121q-53 100 -53 213q0 111 53 203l-139 120v29q70 62 192 184h25q77 -82 127 -129q94 54 213 54q120 0 211 -52l129 131l26 3q63 -67 95 -97.5t96 -87.5v-31l-137 -118q32 -67 42.5 -108.5t10.5 -100.5q0 -114 -55 -213l139 -121v-29q-102 -95 -191 -186 l-26 2l-127 129q-104 -49 -219 -49q-108 0 -207 51l-127 -131h-27zM424 627q0 -78 49 -131.5t121 -53.5q71 0 119.5 53.5t48.5 131.5q0 79 -48 131.5t-120 52.5t-121 -53t-49 -131z" />
<glyph unicode="&#xa5;" horiz-adv-x="1323" d="M0 1366l8 14q224 3 453 19l14 -10q63 -146 240 -463q116 241 203 452l10 8h51q121 0 336 7l8 -11q-93 -154 -270 -477q88 0 131 4l12 -12q-1 -45 -5 -118.5t-5 -106.5l-12 -10h-254l-31 -62v-94q229 0 295 4l12 -12q-9 -176 -10 -224l-12 -12q-14 0 -127 1t-156 1 q0 -33 2 -117.5t2 -134.5l-14 -12h-103q-140 0 -319 -6l-10 10q10 160 10 260q-125 -2 -283 -2l-12 17q10 100 10 217l14 14q33 -1 273 -4v90l-39 66h-246l-12 14q7 91 10 217l14 14l88 -2q-18 30 -118.5 199.5t-157.5 261.5z" />
<glyph unicode="&#xa6;" horiz-adv-x="561" d="M104 385l17 14h319l15 -14q0 -22 -1 -127t-1 -178q0 -276 4 -510l-17 -14h-112q-28 0 -90 -1t-119 -1l-15 14q2 111 2 442q0 309 -2 375zM104 735q2 111 2 443q0 308 -2 374l17 15h319l15 -15q0 -22 -1 -127t-1 -178q0 -276 4 -510l-17 -14h-112q-28 0 -90 -1t-119 -1z " />
<glyph unicode="&#xa7;" horiz-adv-x="1150" d="M57 578q0 55 14.5 106t31.5 83t46.5 66t44 47t39.5 33q-25 22 -41 40t-34.5 62t-18.5 97q0 22 2.5 45t13.5 61t30 71.5t56.5 70t87.5 62t128 42.5t174 17q156 0 362 -62l15 -16q-17 -122 -23 -266l-20 -11q-147 91 -271 91q-55 0 -95 -22.5t-40 -64.5q0 -32 26 -52.5 t113 -55.5l103 -41q149 -60 224 -149t75 -197q0 -181 -176 -342q19 -17 31 -30t30 -39.5t27.5 -61.5t9.5 -78q0 -90 -33.5 -160.5t-86 -114t-124.5 -72t-142 -39.5t-144 -11q-148 0 -345 55l-12 18q22 245 23 273l16 12q56 -38 136 -59t157 -21q72 0 109.5 24t37.5 66 q0 33 -30.5 52t-149.5 69l-92 39q-76 32 -131.5 72t-84 75t-45 78t-20.5 72t-4 66zM362 666q0 -32 15 -55t65.5 -54.5t151.5 -75.5l131 -57q20 20 30.5 32.5t20.5 34t10 44.5q0 48 -28.5 71.5t-130.5 72.5q-13 6 -19 9l-188 88q-20 -21 -30 -33.5t-19 -33.5t-9 -43z" />
<glyph unicode="&#xa8;" horiz-adv-x="598" d="M-113 1528l9 8q140 5 333 20l9 -8q0 -14 -1 -71.5t-1 -85.5q0 -30 1 -89.5t1 -74.5l-13 -10q-38 -3 -146 -11.5t-173 -11.5l-10 10q-7 212 -9 324zM369 1528l6 10q51 4 103.5 8t117.5 9.5t109 9.5l8 -6q0 -21 -1 -72t-1 -88q0 -31 1 -94t1 -78l-8 -8q-199 -17 -316 -25 l-12 8q-5 158 -8 326z" />
<glyph unicode="&#xa9;" horiz-adv-x="1630" d="M49 721q0 158 59 297.5t160.5 239.5t245 157.5t305.5 57.5q161 0 302.5 -57t242.5 -155.5t159 -237t58 -296.5q0 -217 -95 -389.5t-265.5 -268.5t-386.5 -96q-167 0 -312.5 57t-249.5 155.5t-163.5 237.5t-59.5 298zM203 723q0 -165 82.5 -305t225 -221.5t310.5 -81.5 q122 0 233.5 47.5t191.5 128t127.5 192t47.5 234.5q0 129 -46.5 243t-126.5 195.5t-192 128.5t-239 47t-241 -47.5t-195.5 -128t-129.5 -193.5t-48 -239zM414 717q0 207 117.5 339t322.5 132q134 0 238 -37l12 -18q-6 -82 -6 -193l-15 -6q-56 41 -153 41 q-117 0 -180.5 -64.5t-63.5 -183.5q0 -117 61.5 -180.5t172.5 -63.5q101 0 180 54l12 -9q-3 -66 -6 -198l-10 -17q-101 -53 -238 -53q-205 0 -324.5 122.5t-119.5 334.5z" />
<glyph unicode="&#xaa;" horiz-adv-x="811" d="M45 946q0 46 16 84t38.5 64t60.5 46.5t69 32t77.5 21.5t72 13.5t65.5 8.5q3 0 5 0.5t4 0.5v14q0 32 -21.5 43.5t-64.5 11.5q-108 0 -238 -57l-10 4q8 150 8 168l8 10q143 47 303 47q89 0 149 -21t88 -58.5t38 -74t10 -81.5q0 -57 -1 -134.5t-1 -97.5q0 -144 10 -254 l-8 -10h-119q-47 0 -133 -4l-10 10v51q-3 -2 -20 -12t-27 -15.5t-30 -15t-36.5 -15t-38.5 -9.5t-43 -4q-100 0 -160.5 68t-60.5 165zM299 977q0 -27 18 -49.5t58 -22.5q41 0 82 27v139q-20 -1 -33 -2.5t-34 -5t-34.5 -10t-28 -16.5t-21.5 -25t-7 -35z" />
<glyph unicode="&#xab;" horiz-adv-x="1024" d="M12 578v22q165 287 209 371l15 14q105 -6 186 -6q19 0 58.5 1t47.5 1l11 -18q-136 -233 -201 -367q33 -69 100 -197t94 -182l-8 -24h-276l-17 10q-36 62 -71 122t-77.5 133t-70.5 120zM451 580v22q127 216 206 365l17 14q10 0 65 -1t82 -1q28 0 87 1t71 1l12 -18 q-27 -41 -95 -159.5t-116 -217.5q33 -67 98.5 -193t92.5 -180l-8 -25q-112 5 -156 5q-31 0 -129 -5l-14 9q-8 21 -101.5 187.5t-111.5 195.5z" />
<glyph unicode="&#xac;" horiz-adv-x="1554" d="M182 483q4 127 4 289l17 12q406 -2 553 -2q451 0 551 4l18 -16q-2 -66 -2 -137v-242l2 -305l-14 -18h-316l-14 16q2 109 2 295v92l-782 -2z" />
<glyph unicode="&#xad;" horiz-adv-x="811" d="M70 436l12 287l12 14q29 0 164.5 -1t202.5 -1q180 0 272 2l8 -12q-4 -45 -14 -285l-12 -14h-637z" />
<glyph unicode="&#xae;" horiz-adv-x="1630" d="M49 721q0 158 59 297.5t160.5 239.5t245 157.5t305.5 57.5q161 0 302.5 -57t242.5 -155.5t159 -237t58 -296.5q0 -217 -95 -389.5t-265.5 -268.5t-386.5 -96q-167 0 -312.5 57t-249.5 155.5t-163.5 237.5t-59.5 298zM203 723q0 -165 82.5 -305t225 -221.5t310.5 -81.5 q122 0 233.5 47.5t191.5 128t127.5 192t47.5 234.5q0 129 -46.5 243t-126.5 195.5t-192 128.5t-239 47t-241 -47.5t-195.5 -128t-129.5 -193.5t-48 -239zM504 1155l12 16h246q183 0 256 -36q59 -28 94 -91.5t35 -142.5q0 -82 -35 -136t-115 -95q164 -304 199 -357l-14 -16 q-92 -2 -226 -10l-14 14q-95 211 -154 320q-33 0 -45 2q0 -27 5 -314l-13 -16h-211l-12 16l2 445q0 152 -10 401zM739 791h13q77 0 111 27.5t34 90.5t-32.5 88t-110.5 25h-15v-231z" />
<glyph unicode="&#xaf;" horiz-adv-x="598" d="M-63 1266q10 91 14 202l12 13q143 -2 428 -2q120 0 260 4l11 -13q-9 -115 -15 -202l-12 -15q-109 2 -461 2q-139 0 -227 -2z" />
<glyph unicode="&#xb0;" horiz-adv-x="724" d="M10 1178q0 146 103 249t249 103q152 0 253.5 -107.5t101.5 -244.5q0 -150 -104 -252.5t-253 -102.5q-141 0 -245.5 103t-104.5 252zM250 1178q0 -50 32.5 -82.5t79.5 -32.5q48 0 81.5 33t33.5 82q0 46 -35 80t-80 34q-53 0 -82.5 -35.5t-29.5 -78.5z" />
<glyph unicode="&#xb1;" horiz-adv-x="1554" d="M203 14q4 92 4 185v100l18 16q94 -6 219 -6h654q145 0 231 2l17 -16q-1 -41 -3 -98t-2 -82v-101l-18 -16q-200 4 -565 4q-391 0 -539 -4zM205 813q4 250 4 287l16 14q5 0 34 -0.5t115.5 -1t231.5 -0.5v55q0 125 -2 244v62l14 16q251 0 314 2l16 -16q0 -19 -1 -43t-1 -29 v-291q106 0 195.5 0.5t136.5 1t51 0.5l17 -14q0 -54 -1.5 -113.5t-1.5 -79.5v-94l-16 -14q-82 2 -190 2h-191v-80q0 -103 4 -285l-14 -18l-315 -2l-17 18q4 200 4 254v113h-71q-109 0 -314 -4z" />
<glyph unicode="&#xb2;" horiz-adv-x="811" d="M31 494l194 254q115 149 149 206.5t34 102.5q0 22 -6.5 43t-21.5 42.5t-45.5 34.5t-72.5 13q-53 0 -93.5 -17.5t-96.5 -60.5l-13 10q1 34 2 107t2 100l9 10q163 64 278 64q80 0 143 -21t99.5 -53t60 -74t31.5 -79.5t8 -75.5q0 -91 -44 -165.5t-181 -242.5q42 1 129 4.5 t119 3.5l10 -8q-10 -123 -10 -198l-10 -15q-53 2 -146 2q-114 0 -297 -3t-229 -3z" />
<glyph unicode="&#xb3;" horiz-adv-x="811" d="M70 1186q10 117 10 188l10 15q195 -5 234 -5q59 0 358 9l8 -17q-85 -168 -158 -321q197 -39 197 -264q0 -45 -12.5 -89t-41.5 -88t-72.5 -77t-111.5 -53.5t-151 -20.5q-126 0 -254 45l-6 10q4 148 4 201l12 6q93 -72 183 -72q63 0 108 34.5t45 100.5q0 57 -38 91t-95 34 q-29 0 -70 -18l-10 8q70 162 117 281q-115 0 -256 -6z" />
<glyph unicode="&#xb4;" horiz-adv-x="598" d="M41 1262q63 157 123 356l10 10q232 4 373 8l8 -14q-111 -165 -229 -362l-13 -9l-264 -4z" />
<glyph unicode="&#xb5;" horiz-adv-x="1280" d="M102 1077l15 15q219 6 391 18l16 -20q-4 -430 -4 -584q0 -50 1 -75t7.5 -58t19.5 -48.5t37 -26.5t60 -11q111 0 111 147q0 230 -11 643l13 15q221 6 397 18l16 -20q-4 -49 -4 -828q0 -44 9 -246l-15 -16h-110q-122 0 -275 -6l-14 12q2 66 2 84q-14 -41 -48.5 -71.5 t-72.5 -30.5q-43 0 -80 29t-41 73v-199q0 -200 8 -393l-12 -10q-10 0 -69 1t-89 1q-61 0 -241 -8l-13 12q1 87 4 301t3 338v361q0 282 -11 583z" />
<glyph unicode="&#xb6;" horiz-adv-x="1267" d="M96 1004q0 95 29 170.5t78 125t118 82t145 46.5t163 14h295q137 0 237 2l13 -14q-3 -89 -3 -121v-39l-14 -17h-76q4 -1310 4 -1400q0 -16 1 -83.5t1 -134.5l-12 -18h-88q-11 0 -46 -1t-67 -1l-10 18q4 143 4 461v1159q-45 2 -98 2q-64 0 -113 -2q0 -32 -1 -183.5 t-1 -258.5q0 -969 4 -1173l-12 -19q-188 -4 -201 -4l-10 20q0 65 2 234.5t2 257.5v459q-159 30 -251.5 140.5t-92.5 277.5z" />
<glyph unicode="&#xb7;" horiz-adv-x="555" d="M72 752l8 12h129q133 0 266 4l8 -8q0 -40 -1 -94t-1 -68q0 -15 1 -72t1 -100l-10 -8q-235 -3 -385 -8l-8 12q-4 277 -8 330z" />
<glyph unicode="&#xb8;" horiz-adv-x="598" d="M82 -428q155 319 162 334l16 12q82 -2 244 -2l12 -12q-9 -25 -108 -334l-15 -10h-299z" />
<glyph unicode="&#xb9;" horiz-adv-x="811" d="M158 1192l12 160l8 8q80 9 209.5 27t159.5 22l10 -8q-6 -399 -6 -488q0 -227 10 -424l-8 -8h-59q-55 0 -211 -4l-7 8q4 101 6 231.5t2 279.5t1 196q-6 0 -117 -6z" />
<glyph unicode="&#xba;" horiz-adv-x="811" d="M39 1079q0 379 367 379q71 0 129 -14.5t95.5 -37t65 -56.5t41.5 -65.5t22.5 -72t10.5 -68.5t2 -61q0 -194 -95.5 -283t-266.5 -89q-188 0 -279.5 89t-91.5 279zM315 1063q0 -186 88 -186q93 0 93 194q0 36 -1 61t-6 58.5t-14 53.5t-26.5 35t-42.5 15q-26 0 -44 -16 t-27 -37t-14 -57.5t-5.5 -59.5t-0.5 -61z" />
<glyph unicode="&#xbb;" horiz-adv-x="1024" d="M33 211q131 222 209 377q-32 68 -97 193t-92 180l8 24q70 -4 142 -4q51 0 141 4l16 -8q115 -223 211 -383v-23q-132 -226 -206 -364l-15 -14h-305zM483 211q23 32 88 148.5t115 220.5q-136 258 -194 376l8 25q16 0 74 -1t88 -1q20 0 62 1t52 1l17 -10q43 -71 114.5 -195 t104.5 -180v-23q-91 -152 -209 -370l-15 -15q-107 7 -188 7q-69 0 -102 -2z" />
<glyph unicode="&#xbc;" horiz-adv-x="1878" d="M158 1192l12 160l8 8q80 9 209.5 27t159.5 22l10 -8q-6 -399 -6 -488q0 -227 10 -424l-8 -8h-59q-55 0 -211 -4l-7 8q4 101 6 231.5t2 279.5t1 196q-6 0 -117 -6zM530 18q404 930 580 1354l14 12q129 0 207 2l8 -20q-348 -744 -575 -1346l-14 -14q-35 0 -98 -2.5 t-109 -3.5zM1116 180v142l6 24q39 70 120.5 239.5t141.5 315.5l13 8q52 1 162 2t151 2l10 -8q-4 -119 -4 -323v-228q61 0 96 2l9 -8q-8 -88 -11 -170l-10 -10l-84 2q3 -85 8 -162l-12 -8h-72q-79 0 -178 -6l-6 8q0 36 3 94t3 72h-340zM1333 352h137q3 110 7 373 q-15 -35 -29.5 -73.5t-47 -124t-67.5 -175.5z" />
<glyph unicode="&#xbd;" horiz-adv-x="1878" d="M158 1192l12 160l8 8q80 9 209.5 27t159.5 22l10 -8q-6 -399 -6 -488q0 -227 10 -424l-8 -8h-59q-55 0 -211 -4l-7 8q4 101 6 231.5t2 279.5t1 196q-6 0 -117 -6zM461 18q383 881 579 1354l15 12q129 0 207 2l8 -20q-353 -755 -576 -1346l-14 -14q-35 0 -98 -2.5 t-109 -3.5zM1096 12l194 254q115 149 149 206.5t34 102.5q0 22 -6.5 43t-21.5 42.5t-45.5 35t-72.5 13.5q-53 0 -93.5 -17.5t-96.5 -60.5l-13 10q1 34 2 107t2 100l9 10q163 64 278 64q80 0 143 -21t99.5 -53t60 -74.5t31.5 -80t8 -75.5q0 -39 -9.5 -75.5t-21.5 -65 t-46.5 -77t-60.5 -81.5t-87 -108q12 0 248 8l10 -8q-10 -123 -10 -199l-11 -14q-53 2 -145 2q-114 0 -297 -3t-229 -3z" />
<glyph unicode="&#xbe;" horiz-adv-x="1878" d="M70 1186q10 117 10 188l10 15q195 -5 234 -5q59 0 358 9l8 -17q-85 -168 -158 -321q197 -39 197 -264q0 -45 -12.5 -89t-41.5 -88t-72.5 -77t-111.5 -53.5t-151 -20.5q-126 0 -254 45l-6 10q4 148 4 201l12 6q93 -72 183 -72q63 0 108 34.5t45 100.5q0 57 -38 91t-95 34 q-29 0 -70 -18l-10 8q70 162 117 281q-115 0 -256 -6zM543 18q383 881 579 1354l15 12q128 0 206 2l9 -20q-353 -755 -576 -1346l-14 -14q-35 0 -98 -2.5t-109 -3.5zM1116 180v142l6 24q39 70 120.5 239.5t141.5 315.5l13 8q52 1 162 2t151 2l10 -8q-4 -119 -4 -323v-228 q61 0 96 2l9 -8q-8 -88 -11 -170l-10 -10l-84 2q3 -85 8 -162l-12 -8h-72q-79 0 -178 -6l-6 8q0 36 3 94t3 72h-340zM1333 352h137q3 110 7 373q-15 -35 -29.5 -73.5t-47 -124t-67.5 -175.5z" />
<glyph unicode="&#xbf;" horiz-adv-x="937" d="M10 389q0 114 46.5 210t164.5 251l47 61q30 38 37.5 62t7.5 59l11 17q26 0 157.5 4t202.5 4l10 -15q0 -61 -18 -96.5t-74 -105.5l-51 -64q-127 -160 -127 -297q0 -97 59.5 -150t149.5 -53q43 0 88.5 15t73 30t77.5 46l17 -17q-4 -192 -8 -284l-15 -17q-181 -72 -383 -72 q-122 0 -215.5 34t-148.5 93t-82 131t-27 154zM307 1214q4 230 4 340l8 9q125 0 383 4l11 -15v-327l-15 -13q-9 0 -69 1t-90 1q-87 0 -222 -6z" />
<glyph unicode="&#xc0;" horiz-adv-x="1409" d="M0 14q282 888 446 1422l13 10q58 1 171.5 2.5t200 2.5t148.5 1l14 -10q348 -1187 416 -1426l-14 -16h-215q-3 0 -207 -6l-15 12q-11 46 -36 164t-41 182h-400l-80 -344l-16 -8h-375zM373 1876l6 14q129 -2 385 -2l10 -6q40 -163 94 -323l-10 -13q-160 0 -242 -2l-12 12 q-83 119 -231 320zM557 647h254q-78 339 -119 527q-28 -117 -135 -527z" />
<glyph unicode="&#xc1;" horiz-adv-x="1409" d="M0 14q282 888 446 1422l13 10q58 1 171.5 2.5t200 2.5t148.5 1l14 -10q348 -1187 416 -1426l-14 -16h-215q-3 0 -207 -6l-15 12q-11 46 -36 164t-41 182h-400l-80 -344l-16 -8h-375zM549 1556q82 218 110 324l11 10q113 -2 301 -2h78l6 -10q-98 -127 -170 -222.5 t-78 -103.5l-12 -6q-13 0 -58.5 1t-68.5 1q-20 0 -59 -1t-50 -1zM557 647h254q-78 339 -119 527q-28 -117 -135 -527z" />
<glyph unicode="&#xc2;" horiz-adv-x="1409" d="M0 14q282 888 446 1422l13 10q58 1 171.5 2.5t200 2.5t148.5 1l14 -10q348 -1187 416 -1426l-14 -16h-215q-3 0 -207 -6l-15 12q-11 46 -36 164t-41 182h-400l-80 -344l-16 -8h-375zM299 1561q122 193 174 317l12 10q287 0 428 2l13 -12q67 -146 170 -309l-9 -17 q-212 -4 -321 -4l-12 13q-35 86 -64 145q-15 -24 -42.5 -76.5t-39.5 -73.5l-14 -10q-96 2 -285 2zM557 647h254q-78 339 -119 527q-28 -117 -135 -527z" />
<glyph unicode="&#xc3;" horiz-adv-x="1409" d="M0 14q282 888 446 1422l13 10q58 1 171.5 2.5t200 2.5t148.5 1l14 -10q348 -1187 416 -1426l-14 -16h-215q-3 0 -207 -6l-15 12q-11 46 -36 164t-41 182h-400l-80 -344l-16 -8h-375zM332 1569v246l6 16q74 70 192 70q50 0 93 -15l90 -31q90 -32 143 -32q22 0 41.5 4.5 t41 16.5t34 20.5t39 28.5t37.5 28l8 -8q0 -13 6 -271l-8 -16q-30 -24 -51.5 -38.5t-64 -30t-87.5 -15.5q-53 0 -123 25l-65 24q-79 31 -134 31q-29 0 -61.5 -8.5t-57 -18.5t-71.5 -32zM557 647h254q-78 339 -119 527q-28 -117 -135 -527z" />
<glyph unicode="&#xc4;" horiz-adv-x="1409" d="M0 14q282 888 446 1422l13 10q58 1 171.5 2.5t200 2.5t148.5 1l14 -10q348 -1187 416 -1426l-14 -16h-215q-3 0 -207 -6l-15 12q-11 46 -36 164t-41 182h-400l-80 -344l-16 -8h-375zM270 1559q4 94 4 143q0 73 -4 151l11 15q72 0 187 3t144 3l9 -14q-7 -191 -7 -295 l-8 -13q-146 0 -327 -6zM557 647h254q-78 339 -119 527q-28 -117 -135 -527zM786 1851l11 13q274 9 321 10l10 -12q0 -57 -3 -165.5t-3 -135.5l-8 -13q-245 -8 -317 -12l-9 12q3 73 3 146q0 49 -5 157z" />
<glyph unicode="&#xc5;" horiz-adv-x="1409" d="M0 14q282 888 446 1422l13 10q58 1 171.5 2.5t200 2.5t148.5 1l14 -10q348 -1187 416 -1426l-14 -16h-215q-3 0 -207 -6l-15 12q-11 46 -36 164t-41 182h-400l-80 -344l-16 -8h-375zM420 1751q0 113 73.5 184.5t198.5 71.5t199 -71.5t74 -182.5q0 -109 -72 -176.5 t-201 -67.5t-200.5 67.5t-71.5 174.5zM557 647h254q-78 339 -119 527q-28 -117 -135 -527zM616 1757q0 -52 20.5 -86.5t55.5 -34.5q34 0 55 33.5t21 89.5q0 48 -18.5 84.5t-57.5 36.5q-40 0 -58 -36.5t-18 -86.5z" />
<glyph unicode="&#xc6;" horiz-adv-x="1878" d="M0 12q468 1155 567 1426l11 8l1202 6l12 -8q-10 -168 -14 -287l-13 -12q-86 2 -231 2q-46 0 -126.5 -1t-100.5 -1v-258h110q195 0 312 4l12 -12q-12 -154 -17 -273l-14 -12q-92 2 -246 2q-102 0 -161 -2v-277q368 4 495 11l12 -11q-7 -102 -18 -305l-12 -12h-371 q-230 0 -512 -6l-14 12q5 172 8 371q-25 0 -116 1t-144 1q-68 0 -103 -2q-60 -181 -116 -367l-17 -10q-11 0 -60.5 1t-74.5 1q-66 0 -250 -8zM637 680q47 -2 141 -2h117q8 232 8 469h-92q-65 -169 -174 -467z" />
<glyph unicode="&#xc7;" horiz-adv-x="1236" d="M66 702q0 80 11 156t36.5 154t64 145.5t97.5 127t132.5 101.5t173 66.5t216.5 24.5q189 0 372 -76l9 -15q-19 -179 -19 -337l-16 -9q-46 49 -115.5 75t-144.5 26q-20 0 -42 -2t-58.5 -11.5t-69 -26t-67.5 -48.5t-60 -75t-41.5 -110t-16.5 -149q0 -194 97 -304t276 -110 q148 0 273 92l16 -8q-13 -254 -16 -346l-9 -12q-20 -5 -64.5 -18.5t-65.5 -18.5t-61 -12.5t-84.5 -10t-101.5 -2.5q-123 0 -230 26.5t-198 84.5t-156 142.5t-101.5 207t-36.5 272.5zM508 -428q155 319 162 334l16 12q82 -2 244 -2l12 -12q-9 -25 -108 -334l-15 -10h-299z " />
<glyph unicode="&#xc8;" horiz-adv-x="1150" d="M106 1436l13 10h477q323 0 444 6l11 -14q-6 -56 -11 -161t-6 -120l-12 -12q-25 0 -127 1t-152 1h-194l2 -262q26 0 192 4t254 4l15 -14q-10 -119 -17 -269l-14 -12q-285 0 -428 2v-285q239 0 522 13l10 -13q-8 -103 -20 -303l-16 -12l-392 2q-176 0 -536 -8l-10 16 q8 289 8 656q0 466 -13 770zM246 1876l6 14q129 -2 385 -2l10 -6q40 -163 94 -323l-10 -13q-160 0 -242 -2l-12 12q-83 119 -231 320z" />
<glyph unicode="&#xc9;" horiz-adv-x="1150" d="M106 1436l13 10h477q323 0 444 6l11 -14q-6 -56 -11 -161t-6 -120l-12 -12q-25 0 -127 1t-152 1h-194l2 -262q26 0 192 4t254 4l15 -14q-10 -119 -17 -269l-14 -12q-285 0 -428 2v-285q239 0 522 13l10 -13q-8 -103 -20 -303l-16 -12l-392 2q-176 0 -536 -8l-10 16 q8 289 8 656q0 466 -13 770zM420 1556q82 218 110 324l11 10q113 -2 301 -2h78l6 -10q-98 -127 -170 -222.5t-78 -103.5l-12 -6q-13 0 -58.5 1t-68.5 1q-20 0 -59 -1t-50 -1z" />
<glyph unicode="&#xca;" horiz-adv-x="1150" d="M106 1436l13 10h477q323 0 444 6l11 -14q-6 -56 -11 -161t-6 -120l-12 -12q-25 0 -127 1t-152 1h-194l2 -262q26 0 192 4t254 4l15 -14q-10 -119 -17 -269l-14 -12q-285 0 -428 2v-285q239 0 522 13l10 -13q-8 -103 -20 -303l-16 -12l-392 2q-176 0 -536 -8l-10 16 q8 289 8 656q0 466 -13 770zM168 1561q122 193 174 317l12 10q287 0 428 2l13 -12q67 -146 170 -309l-9 -17q-212 -4 -321 -4l-12 13q-35 86 -64 145q-15 -24 -42.5 -76.5t-39.5 -73.5l-14 -10q-96 2 -285 2z" />
<glyph unicode="&#xcb;" horiz-adv-x="1150" d="M106 1436l13 10h477q323 0 444 6l11 -14q-6 -56 -11 -161t-6 -120l-12 -12q-25 0 -127 1t-152 1h-194l2 -262q26 0 192 4t254 4l15 -14q-10 -119 -17 -269l-14 -12q-285 0 -428 2v-285q239 0 522 13l10 -13q-8 -103 -20 -303l-16 -12l-392 2q-176 0 -536 -8l-10 16 q8 289 8 656q0 466 -13 770zM156 1559q4 94 4 143q0 73 -4 151l10 15q72 0 187.5 3t144.5 3l8 -14q-6 -163 -6 -295l-8 -13q-146 0 -328 -6zM672 1851l10 13q273 9 322 10l10 -12q0 -57 -3 -165.5t-3 -135.5l-9 -13q-245 -8 -317 -12l-8 12q2 49 2 146q0 71 -4 157z" />
<glyph unicode="&#xcc;" horiz-adv-x="681" d="M10 1876l6 14q129 -2 385 -2l11 -6q40 -163 94 -323l-10 -13q-160 0 -242 -2l-12 12q-64 92 -232 320zM109 1436l10 10h219q48 0 225 6l8 -10q-10 -328 -10 -588q0 -448 14 -844l-10 -10h-221q-52 0 -223 -6l-10 12q10 502 10 907q0 175 -12 523z" />
<glyph unicode="&#xcd;" horiz-adv-x="681" d="M109 1436l10 10h219q48 0 225 6l8 -10q-10 -328 -10 -588q0 -448 14 -844l-10 -10h-221q-52 0 -223 -6l-10 12q10 502 10 907q0 175 -12 523zM186 1556q85 228 111 324l10 10q113 -2 301 -2h78l6 -10q-98 -127 -170 -222.5t-78 -103.5l-12 -6q-13 0 -58.5 1t-68.5 1 q-20 0 -58.5 -1t-49.5 -1z" />
<glyph unicode="&#xce;" horiz-adv-x="681" d="M-66 1561q46 73 67.5 108.5t52.5 93.5t55 115l12 10q287 0 428 2l12 -12q67 -146 170 -309l-8 -17q-212 -4 -322 -4l-12 13q-40 98 -63 145q-15 -24 -42.5 -76.5t-39.5 -73.5l-15 -10q-96 2 -284 2zM109 1436l10 10h219q48 0 225 6l8 -10q-10 -328 -10 -588 q0 -448 14 -844l-10 -10h-221q-52 0 -223 -6l-10 12q10 502 10 907q0 175 -12 523z" />
<glyph unicode="&#xcf;" horiz-adv-x="681" d="M-78 1559q4 94 4 143q0 73 -4 151l10 15q72 0 187.5 3t144.5 3l8 -14q-6 -163 -6 -295l-8 -13q-147 0 -328 -6zM109 1436l10 10h219q48 0 225 6l8 -10q-10 -328 -10 -588q0 -448 14 -844l-10 -10h-221q-52 0 -223 -6l-10 12q10 502 10 907q0 175 -12 523zM438 1851l11 13 q274 9 321 10l10 -12q0 -57 -3 -165.5t-3 -135.5l-8 -13q-245 -8 -317 -12l-9 12q2 49 2 146q0 71 -4 157z" />
<glyph unicode="&#xd0;" horiz-adv-x="1449" d="M-2 662v174l14 12q54 -2 107 -2q-4 385 -13 590l11 10h606q661 0 661 -680q0 -370 -186 -568t-547 -198q-124 0 -295 -3t-227 -3l-12 16q4 274 4 371q0 51 -1 153.5t-1 122.5q-23 0 -60.5 -2.5t-48.5 -3.5zM553 854q114 3 221 8l10 -14q-2 -29 -4 -88t-4 -84l-10 -12 q-8 0 -77.5 1t-133.5 1l4 -344q40 -3 70 -3q297 0 297 422q0 90 -13 159t-41.5 123t-78.5 82t-121 28l-119 -3v-276z" />
<glyph unicode="&#xd1;" horiz-adv-x="1492" d="M102 1434l13 12h196l164 6l12 -6q92 -139 278.5 -390t268.5 -372q0 500 -10 752l8 10q329 6 334 6l12 -8q0 -49 -1 -263t-1 -321q0 -563 6 -848l-14 -12q-144 0 -285 -6l-18 8q-218 315 -610 838q3 -92 12 -381t16 -447l-12 -12h-152q-31 0 -190 -6l-12 10q6 190 6 383 q0 438 -21 1047zM373 1569v246l6 16q74 70 192 70q49 0 93 -15l90 -31q90 -32 143 -32q22 0 41.5 4.5t41 16.5t34 20.5t39 28.5t37.5 28l8 -8q0 -13 6 -271l-8 -16q-30 -24 -51.5 -38.5t-64 -30t-87.5 -15.5q-53 0 -123 25l-65 24q-79 31 -134 31q-29 0 -61.5 -8.5 t-57 -18.5t-71.5 -32z" />
<glyph unicode="&#xd2;" horiz-adv-x="1492" d="M66 702q0 128 20.5 238t70 210.5t126 171.5t195.5 113t272 42q327 0 502 -192t175 -556q0 -760 -688 -760q-325 0 -499 187.5t-174 545.5zM418 1876l6 14q129 -2 385 -2l10 -6q40 -163 94 -323l-10 -13q-159 0 -241 -2l-13 12q-83 119 -231 320zM516 715q0 -68 5 -123.5 t20 -115.5t39.5 -100.5t67.5 -66.5t100 -26q54 0 95 24.5t66 65t40.5 99.5t21.5 120.5t6 136.5q0 440 -227 440q-70 0 -118 -34.5t-72.5 -101t-34 -141.5t-9.5 -177z" />
<glyph unicode="&#xd3;" horiz-adv-x="1492" d="M66 702q0 128 20.5 238t70 210.5t126 171.5t195.5 113t272 42q327 0 502 -192t175 -556q0 -760 -688 -760q-325 0 -499 187.5t-174 545.5zM516 715q0 -68 5 -123.5t20 -115.5t39.5 -100.5t67.5 -66.5t100 -26q54 0 95 24.5t66 65t40.5 99.5t21.5 120.5t6 136.5 q0 440 -227 440q-70 0 -118 -34.5t-72.5 -101t-34 -141.5t-9.5 -177zM592 1556q82 218 110 324l11 10q113 -2 301 -2h78l6 -10q-98 -127 -170 -222.5t-78 -103.5l-12 -6q-13 0 -58.5 1t-68.5 1q-20 0 -59 -1t-50 -1z" />
<glyph unicode="&#xd4;" horiz-adv-x="1492" d="M66 702q0 128 20.5 238t70 210.5t126 171.5t195.5 113t272 42q327 0 502 -192t175 -556q0 -760 -688 -760q-325 0 -499 187.5t-174 545.5zM338 1561q122 193 174 317l12 10q287 0 428 2l13 -12q67 -146 170 -309l-9 -17q-212 -4 -321 -4l-12 13q-35 86 -64 145 q-15 -24 -42.5 -76.5t-39.5 -73.5l-14 -10q-96 2 -285 2zM516 715q0 -68 5 -123.5t20 -115.5t39.5 -100.5t67.5 -66.5t100 -26q54 0 95 24.5t66 65t40.5 99.5t21.5 120.5t6 136.5q0 440 -227 440q-70 0 -118 -34.5t-72.5 -101t-34 -141.5t-9.5 -177z" />
<glyph unicode="&#xd5;" horiz-adv-x="1492" d="M66 702q0 128 20.5 238t70 210.5t126 171.5t195.5 113t272 42q327 0 502 -192t175 -556q0 -760 -688 -760q-325 0 -499 187.5t-174 545.5zM375 1569v246l6 16q74 70 192 70q49 0 93 -15l90 -31q90 -32 143 -32q22 0 41.5 4.5t41 16.5t34 20.5t39 28.5t37.5 28l8 -8 q0 -13 6 -271l-8 -16q-30 -24 -51.5 -38.5t-64 -30t-87.5 -15.5q-53 0 -123 25l-65 24q-79 31 -134 31q-29 0 -61.5 -8.5t-57 -18.5t-71.5 -32zM516 715q0 -68 5 -123.5t20 -115.5t39.5 -100.5t67.5 -66.5t100 -26q54 0 95 24.5t66 65t40.5 99.5t21.5 120.5t6 136.5 q0 440 -227 440q-70 0 -118 -34.5t-72.5 -101t-34 -141.5t-9.5 -177z" />
<glyph unicode="&#xd6;" horiz-adv-x="1492" d="M66 702q0 128 20.5 238t70 210.5t126 171.5t195.5 113t272 42q327 0 502 -192t175 -556q0 -760 -688 -760q-325 0 -499 187.5t-174 545.5zM326 1559q4 94 4 143q0 73 -4 151l10 15q72 0 187.5 3t144.5 3l8 -14q-6 -163 -6 -295l-8 -13q-146 0 -328 -6zM516 715 q0 -68 5 -123.5t20 -115.5t39.5 -100.5t67.5 -66.5t100 -26q54 0 95 24.5t66 65t40.5 99.5t21.5 120.5t6 136.5q0 440 -227 440q-70 0 -118 -34.5t-72.5 -101t-34 -141.5t-9.5 -177zM842 1851l10 13q273 9 322 10l10 -12q0 -57 -3 -165.5t-3 -135.5l-9 -13q-245 -8 -317 -12 l-8 12q2 49 2 146q0 71 -4 157z" />
<glyph unicode="&#xd7;" horiz-adv-x="1554" d="M262 899v23l213 221h25q215 -218 278 -279l264 279h23l209 -207l-2 -23q-61 -59 -266 -272q116 -116 280 -268l4 -25l-217 -223l-24 2q-152 157 -279 276l-264 -276l-25 -4q-97 103 -207 209l2 22q111 111 267 273z" />
<glyph unicode="&#xd8;" horiz-adv-x="1492" d="M-12 109q102 91 172 167q-48 90 -71 180t-23 236q0 41 1 70t7 92.5t17.5 113t35.5 117t56.5 118.5t85.5 105t118.5 89t158 57.5t202.5 22.5q149 0 251 -34.5t183 -96.5q80 77 145 155h19q14 -13 60.5 -54.5t74.5 -68.5l2 -18q-93 -90 -166 -168q55 -106 82.5 -205 t27.5 -258q0 -502 -311 -674q-156 -86 -371 -86q-156 0 -258 38.5t-198 109.5q-77 -80 -142 -158l-22 -2q-122 117 -135 129zM489 731q3 -83 5 -108l442 454q-59 115 -180 115q-138 0 -202.5 -122.5t-64.5 -338.5zM541 401q15 -25 23.5 -38t28 -36t38.5 -35t49 -22t65 -10 q68 0 118.5 32t81 92t45 139t14.5 179q0 30 -13 158z" />
<glyph unicode="&#xd9;" horiz-adv-x="1409" d="M90 1436l10 10h162q67 0 277 6l10 -10q-12 -540 -12 -871q0 -160 50.5 -229.5t153.5 -69.5q108 0 154.5 73.5t46.5 225.5q0 383 -14 867l10 8q42 1 124 2.5t144.5 2.5t106.5 1l12 -8q0 -157 -5 -476t-5 -382q0 -69 -2 -113t-14.5 -115.5t-35 -119t-68 -103t-109 -88.5 t-162.5 -55.5t-224 -22.5q-138 0 -243.5 27t-188.5 88t-126.5 168.5t-43.5 259.5q0 617 -8 924zM373 1876l6 14q129 -2 385 -2l10 -6q40 -163 94 -323l-10 -13q-160 0 -242 -2l-12 12q-83 119 -231 320z" />
<glyph unicode="&#xda;" horiz-adv-x="1409" d="M90 1436l10 10h162q67 0 277 6l10 -10q-12 -540 -12 -871q0 -160 50.5 -229.5t153.5 -69.5q108 0 154.5 73.5t46.5 225.5q0 383 -14 867l10 8q42 1 124 2.5t144.5 2.5t106.5 1l12 -8q0 -157 -5 -476t-5 -382q0 -69 -2 -113t-14.5 -115.5t-35 -119t-68 -103t-109 -88.5 t-162.5 -55.5t-224 -22.5q-138 0 -243.5 27t-188.5 88t-126.5 168.5t-43.5 259.5q0 617 -8 924zM547 1556q82 218 110 324l11 10q113 -2 301 -2h78l6 -10q-98 -127 -170 -222.5t-78 -103.5l-12 -6q-13 0 -58.5 1t-68.5 1q-20 0 -59 -1t-50 -1z" />
<glyph unicode="&#xdb;" horiz-adv-x="1409" d="M90 1436l10 10h162q67 0 277 6l10 -10q-12 -540 -12 -871q0 -160 50.5 -229.5t153.5 -69.5q108 0 154.5 73.5t46.5 225.5q0 383 -14 867l10 8q42 1 124 2.5t144.5 2.5t106.5 1l12 -8q0 -157 -5 -476t-5 -382q0 -69 -2 -113t-14.5 -115.5t-35 -119t-68 -103t-109 -88.5 t-162.5 -55.5t-224 -22.5q-138 0 -243.5 27t-188.5 88t-126.5 168.5t-43.5 259.5q0 617 -8 924zM317 1561q46 73 67.5 108.5t52.5 93.5t55 115l12 10q287 0 428 2l12 -12q67 -146 170 -309l-8 -17q-212 -4 -322 -4l-12 13q-40 98 -63 145q-15 -24 -42.5 -76.5t-39.5 -73.5 l-15 -10q-96 2 -284 2z" />
<glyph unicode="&#xdc;" horiz-adv-x="1409" d="M90 1436l10 10h162q67 0 277 6l10 -10q-12 -540 -12 -871q0 -160 50.5 -229.5t153.5 -69.5q108 0 154.5 73.5t46.5 225.5q0 383 -14 867l10 8q42 1 124 2.5t144.5 2.5t106.5 1l12 -8q0 -157 -5 -476t-5 -382q0 -69 -2 -113t-14.5 -115.5t-35 -119t-68 -103t-109 -88.5 t-162.5 -55.5t-224 -22.5q-138 0 -243.5 27t-188.5 88t-126.5 168.5t-43.5 259.5q0 617 -8 924zM307 1559q4 94 4 143q0 73 -4 151l10 15q72 0 187.5 3t144.5 3l8 -14q-6 -163 -6 -295l-8 -13q-147 0 -328 -6zM823 1851l11 13q274 9 321 10l10 -12q0 -57 -3 -165.5 t-3 -135.5l-8 -13q-245 -8 -317 -12l-9 12q2 49 2 146q0 71 -4 157z" />
<glyph unicode="&#xdd;" horiz-adv-x="1366" d="M-12 1425l8 15q233 3 467 18l14 -10q26 -58 60 -126t59 -114.5t67 -124.5t62 -116q77 151 211 473l10 6q13 0 400 6l8 -10q-284 -488 -449 -815q0 -410 6 -615l-14 -12q-219 0 -436 -6l-10 12q10 164 14 615q-38 66 -227 384.5t-250 419.5zM526 1556q85 228 111 324 l10 10q113 -2 301 -2h78l6 -10q-98 -127 -170 -222.5t-78 -103.5l-12 -6q-13 0 -58.5 1t-68.5 1q-20 0 -58.5 -1t-49.5 -1z" />
<glyph unicode="&#xde;" horiz-adv-x="1323" d="M109 1436l8 10h149q129 0 285 6l8 -10q-2 -26 -2.5 -90.5t-1.5 -85.5q71 2 139 2q221 0 348 -50t195 -176q53 -96 53 -239q0 -167 -66 -280t-175 -171q-50 -27 -104 -43.5t-118 -23t-105 -8t-116 -1.5h-51q0 -21 1 -64.5t2.5 -104t2.5 -97.5l-8 -10q-13 0 -69.5 1 t-84.5 1q-74 0 -278 -8l-10 10q8 336 8 907q0 281 -10 525zM549 723q0 -8 1 -60.5t1 -82.5q109 0 165 16t93 68t37 120q0 92 -49 139.5t-156 47.5h-88q-4 -184 -4 -248z" />
<glyph unicode="&#xdf;" horiz-adv-x="1323" d="M92 1104q0 63 5 114t20.5 107t41 98.5t70 82.5t104.5 65.5t146.5 41t194.5 15.5q129 0 226.5 -29.5t152 -80t80.5 -108.5t26 -124q0 -118 -84 -248l-39 -61q-28 -44 -28 -86q0 -34 51 -96l61 -74q93 -111 124.5 -182.5t31.5 -159.5q0 -84 -29 -153.5t-88.5 -123.5 t-158.5 -84t-230 -30q-53 0 -139 14l-17 12v60q0 38 -1 104t-1 84l19 12q38 -24 80 -24q57 0 94 33.5t37 89.5q0 64 -62 139l-118 143q-52 61 -52 123q0 37 14 67.5t46 72.5l49 63q72 91 72 205q0 91 -35.5 138.5t-93.5 47.5q-47 0 -79 -19t-47.5 -53.5t-21.5 -70.5t-6 -82 q0 -717 14 -1133l-18 -14q-176 0 -393 -6l-15 12q4 166 4 447q0 105 -4 340t-4 311z" />
<glyph unicode="&#xe0;" d="M45 328q0 71 20 129t60 100.5t92.5 74.5t126 54.5t151 37.5t175.5 26v20q0 47 -29 66.5t-104 19.5q-46 0 -94.5 -7.5t-92 -20t-74.5 -23.5t-64 -24t-38 -15l-14 8q12 256 12 260l14 15q209 71 449 71q226 0 338 -84t112 -282q0 -33 -2 -132.5t-2 -144.5q0 -243 17 -461 l-13 -16q-193 0 -387 -6l-14 14v78q-3 -2 -24 -14.5t-37.5 -22t-46.5 -23.5t-57 -23t-62.5 -16t-69.5 -7q-141 0 -241.5 96.5t-100.5 251.5zM254 1620l10 14h107q170 0 254 2l12 -10q57 -192 125 -356l-10 -15q-177 0 -267 -2l-14 11q-97 176 -217 356zM436 381 q0 -40 27.5 -73.5t89.5 -33.5q65 0 125 41v211q-119 -8 -180.5 -39.5t-61.5 -105.5z" />
<glyph unicode="&#xe1;" d="M45 328q0 71 20 129t60 100.5t92.5 74.5t126 54.5t151 37.5t175.5 26v20q0 47 -29 66.5t-104 19.5q-46 0 -94.5 -7.5t-92 -20t-74.5 -23.5t-64 -24t-38 -15l-14 8q12 256 12 260l14 15q209 71 449 71q226 0 338 -84t112 -282q0 -33 -2 -132.5t-2 -144.5q0 -243 17 -461 l-13 -16q-193 0 -387 -6l-14 14v78q-3 -2 -24 -14.5t-37.5 -22t-46.5 -23.5t-57 -23t-62.5 -16t-69.5 -7q-141 0 -241.5 96.5t-100.5 251.5zM436 381q0 -40 27.5 -73.5t89.5 -33.5q65 0 125 41v211q-119 -8 -180.5 -39.5t-61.5 -105.5zM438 1262q63 157 123 356l10 10 q232 4 373 8l8 -14q-111 -165 -229 -362l-12 -9l-265 -4z" />
<glyph unicode="&#xe2;" d="M45 328q0 71 20 129t60 100.5t92.5 74.5t126 54.5t151 37.5t175.5 26v20q0 47 -29 66.5t-104 19.5q-46 0 -94.5 -7.5t-92 -20t-74.5 -23.5t-64 -24t-38 -15l-14 8q12 256 12 260l14 15q209 71 449 71q226 0 338 -84t112 -282q0 -33 -2 -132.5t-2 -144.5q0 -243 17 -461 l-13 -16q-193 0 -387 -6l-14 14v78q-3 -2 -24 -14.5t-37.5 -22t-46.5 -23.5t-57 -23t-62.5 -16t-69.5 -7q-141 0 -241.5 96.5t-100.5 251.5zM215 1262q29 55 52 98.5t43.5 86t28.5 59.5t29.5 64t24.5 54l13 10h438l10 -10q81 -191 166 -358l-6 -9l-332 -12l-12 10l-74 220 l-80 -213l-10 -9h-285zM436 381q0 -40 27.5 -73.5t89.5 -33.5q65 0 125 41v211q-119 -8 -180.5 -39.5t-61.5 -105.5z" />
<glyph unicode="&#xe3;" d="M45 328q0 71 20 129t60 100.5t92.5 74.5t126 54.5t151 37.5t175.5 26v20q0 47 -29 66.5t-104 19.5q-46 0 -94.5 -7.5t-92 -20t-74.5 -23.5t-64 -24t-38 -15l-14 8q12 256 12 260l14 15q209 71 449 71q226 0 338 -84t112 -282q0 -33 -2 -132.5t-2 -144.5q0 -243 17 -461 l-13 -16q-193 0 -387 -6l-14 14v78q-3 -2 -24 -14.5t-37.5 -22t-46.5 -23.5t-57 -23t-62.5 -16t-69.5 -7q-141 0 -241.5 96.5t-100.5 251.5zM225 1278v246l6 16q74 70 193 70q48 0 92 -15l90 -30q92 -33 144 -33q22 0 41.5 4.5t40.5 16.5t33.5 20.5t38.5 28.5t38 28l8 -8 q0 -12 6 -270l-8 -17q-30 -24 -51.5 -38.5t-64 -30t-87.5 -15.5q-52 0 -122 25l-66 24q-79 31 -133 31q-42 0 -82 -13.5t-109 -45.5zM436 381q0 -40 27.5 -73.5t89.5 -33.5q65 0 125 41v211q-119 -8 -180.5 -39.5t-61.5 -105.5z" />
<glyph unicode="&#xe4;" d="M45 328q0 71 20 129t60 100.5t92.5 74.5t126 54.5t151 37.5t175.5 26v20q0 47 -29 66.5t-104 19.5q-46 0 -94.5 -7.5t-92 -20t-74.5 -23.5t-64 -24t-38 -15l-14 8q12 256 12 260l14 15q209 71 449 71q226 0 338 -84t112 -282q0 -33 -2 -132.5t-2 -144.5q0 -243 17 -461 l-13 -16q-193 0 -387 -6l-14 14v78q-3 -2 -24 -14.5t-37.5 -22t-46.5 -23.5t-57 -23t-62.5 -16t-69.5 -7q-141 0 -241.5 96.5t-100.5 251.5zM180 1528l8 8q142 5 334 20l8 -8q0 -14 -1 -71.5t-1 -85.5q0 -30 1 -89.5t1 -74.5l-12 -10q-38 -3 -146 -11.5t-173 -11.5l-11 10 q-5 152 -8 324zM436 381q0 -40 27.5 -73.5t89.5 -33.5q65 0 125 41v211q-119 -8 -180.5 -39.5t-61.5 -105.5zM662 1528l6 10q51 4 103.5 8t117 9.5t108.5 9.5l9 -6q0 -21 -1 -72t-1 -88q0 -31 1 -94t1 -78l-9 -8q-202 -17 -315 -25l-12 8q-5 158 -8 326z" />
<glyph unicode="&#xe5;" d="M45 328q0 71 20 129t60 100.5t92.5 74.5t126 54.5t151 37.5t175.5 26v20q0 47 -29 66.5t-104 19.5q-46 0 -94.5 -7.5t-92 -20t-74.5 -23.5t-64 -24t-38 -15l-14 8q12 256 12 260l14 15q209 71 449 71q226 0 338 -84t112 -282q0 -33 -2 -132.5t-2 -144.5q0 -243 17 -461 l-13 -16q-193 0 -387 -6l-14 14v78q-3 -2 -24 -14.5t-37.5 -22t-46.5 -23.5t-57 -23t-62.5 -16t-69.5 -7q-141 0 -241.5 96.5t-100.5 251.5zM317 1460q0 113 74 184.5t199 71.5t198.5 -71.5t73.5 -182.5q0 -109 -71.5 -176t-200.5 -67q-130 0 -201.5 67.5t-71.5 173.5z M436 381q0 -40 27.5 -73.5t89.5 -33.5q65 0 125 41v211q-119 -8 -180.5 -39.5t-61.5 -105.5zM514 1466q0 -52 20.5 -86t55.5 -34q34 0 55 33t21 89q0 48 -18.5 84.5t-57.5 36.5q-40 0 -58 -36.5t-18 -86.5z" />
<glyph unicode="&#xe6;" horiz-adv-x="1748" d="M33 334q0 167 118 257.5t357 90.5h139v37q0 149 -178 149q-176 0 -338 -86l-18 11q2 45 7 120.5t7 112.5l14 18q207 78 420 78q220 0 307 -104q65 51 144 77.5t198 26.5q134 0 230.5 -45.5t153.5 -132.5t83.5 -202.5t26.5 -266.5l-14 -16q-113 2 -336 2h-316 q12 -105 86.5 -154t210.5 -49q191 0 316 76l14 -10q-2 -104 -10 -256l-13 -19q-55 -21 -95.5 -34t-119 -26.5t-161.5 -13.5q-154 0 -261.5 34t-185.5 108q-103 -78 -188.5 -110t-186.5 -32q-90 0 -162.5 23t-118 60t-75.5 85.5t-42.5 95.5t-12.5 95zM410 360q0 -39 32 -71.5 t95 -32.5q73 0 145 57l-18 49q-9 28 -21 97q-25 2 -63 2q-170 0 -170 -101zM1028 682h291q-3 34 -6.5 56t-12.5 49t-23 42t-39.5 26t-59.5 11q-38 0 -67 -16.5t-44 -39.5t-24.5 -51t-12 -46t-2.5 -31z" />
<glyph unicode="&#xe7;" horiz-adv-x="980" d="M51 541q0 96 21 180.5t68 159t116.5 127.5t171 83.5t227.5 30.5q140 0 291 -57l10 -12q-14 -78 -32 -281l-23 -6q-27 26 -44 38.5t-53 25t-83 12.5q-104 0 -173 -73t-69 -212q0 -135 71 -213t195 -78q49 0 85.5 8.5t55.5 18t58 33.5l14 -11q-2 -27 -5.5 -127.5 t-6.5 -150.5l-10 -12q-153 -50 -297 -50q-273 0 -430.5 153t-157.5 413zM317 -428q155 319 162 334l17 12q82 -2 243 -2l13 -12q-20 -58 -109 -334l-14 -10h-299z" />
<glyph unicode="&#xe8;" horiz-adv-x="1150" d="M49 547q0 122 33 220.5t87 163t127 108t149 62.5t157 19q251 0 377.5 -153.5t126.5 -448.5v-43l-14 -16q-414 -6 -635 -8q9 -93 83 -143t199 -50q190 0 314 82l14 -10l-10 -262l-13 -19q-152 -74 -385 -74q-104 0 -191 18.5t-149 50t-110 77t-77.5 94.5t-48.5 107.5 t-26.5 112.5t-7.5 112zM229 1620l11 14h106q170 0 254 2l12 -10q57 -192 125 -356l-10 -15q-176 0 -266 -2l-15 11q-97 176 -217 356zM446 676l275 4q-7 184 -131 184q-73 0 -108.5 -54.5t-35.5 -133.5z" />
<glyph unicode="&#xe9;" horiz-adv-x="1150" d="M49 547q0 122 33 220.5t87 163t127 108t149 62.5t157 19q251 0 377.5 -153.5t126.5 -448.5v-43l-14 -16q-414 -6 -635 -8q9 -93 83 -143t199 -50q190 0 314 82l14 -10l-10 -262l-13 -19q-152 -74 -385 -74q-104 0 -191 18.5t-149 50t-110 77t-77.5 94.5t-48.5 107.5 t-26.5 112.5t-7.5 112zM414 1262q63 157 123 356l10 10q232 4 373 8l8 -14q-120 -177 -230 -362l-12 -9l-264 -4zM446 676l275 4q-7 184 -131 184q-73 0 -108.5 -54.5t-35.5 -133.5z" />
<glyph unicode="&#xea;" horiz-adv-x="1150" d="M49 547q0 122 33 220.5t87 163t127 108t149 62.5t157 19q251 0 377.5 -153.5t126.5 -448.5v-43l-14 -16q-414 -6 -635 -8q9 -93 83 -143t199 -50q190 0 314 82l14 -10l-10 -262l-13 -19q-152 -74 -385 -74q-104 0 -191 18.5t-149 50t-110 77t-77.5 94.5t-48.5 107.5 t-26.5 112.5t-7.5 112zM190 1262q88 165 179 362l12 10h438l10 -10q81 -191 166 -358l-6 -9l-332 -12l-12 10l-74 220l-79 -213l-11 -9h-284zM446 676l275 4q-7 184 -131 184q-73 0 -108.5 -54.5t-35.5 -133.5z" />
<glyph unicode="&#xeb;" horiz-adv-x="1150" d="M49 547q0 122 33 220.5t87 163t127 108t149 62.5t157 19q251 0 377.5 -153.5t126.5 -448.5v-43l-14 -16q-414 -6 -635 -8q9 -93 83 -143t199 -50q190 0 314 82l14 -10l-10 -262l-13 -19q-152 -74 -385 -74q-104 0 -191 18.5t-149 50t-110 77t-77.5 94.5t-48.5 107.5 t-26.5 112.5t-7.5 112zM156 1528l8 8q142 5 334 20l8 -8q0 -14 -1 -71.5t-1 -85.5q0 -30 1 -89.5t1 -74.5l-12 -10q-37 -3 -146 -11.5t-174 -11.5l-10 10q-5 152 -8 324zM446 676l275 4q-7 184 -131 184q-73 0 -108.5 -54.5t-35.5 -133.5zM637 1528l6 10q51 4 103.5 8 t117.5 9.5t109 9.5l8 -6q0 -21 -1 -72t-1 -88q0 -31 1 -94t1 -78l-8 -8q-199 -17 -316 -25l-12 8q-5 158 -8 326z" />
<glyph unicode="&#xec;" horiz-adv-x="641" d="M-27 1620l11 14h106q170 0 254 2l12 -10q57 -192 125 -356l-10 -15q-176 0 -266 -2l-15 11q-97 176 -217 356zM86 1049l12 12q245 34 430 72l11 -17q-4 -300 -4 -450q0 -381 20 -652l-14 -14q-7 0 -48.5 1t-62.5 1q-109 0 -317 -8l-17 14q15 330 15 529q0 279 -25 512z " />
<glyph unicode="&#xed;" horiz-adv-x="641" d="M86 1049l12 12q245 34 430 72l11 -17q-4 -300 -4 -450q0 -381 20 -652l-14 -14q-7 0 -48.5 1t-62.5 1q-109 0 -317 -8l-17 14q15 330 15 529q0 279 -25 512zM160 1262q63 157 123 356l10 10q232 4 373 8l8 -14q-120 -177 -230 -362l-12 -9l-264 -4z" />
<glyph unicode="&#xee;" horiz-adv-x="641" d="M-63 1262q29 55 52 98.5t43.5 86t28.5 59.5t29.5 64t24.5 54l12 10h438l10 -10q81 -191 166 -358l-6 -9l-332 -12l-12 10l-74 220l-79 -213l-11 -9h-284zM86 1049l12 12q245 34 430 72l11 -17q-4 -300 -4 -450q0 -381 20 -652l-14 -14q-7 0 -48.5 1t-62.5 1 q-109 0 -317 -8l-17 14q15 330 15 529q0 279 -25 512z" />
<glyph unicode="&#xef;" horiz-adv-x="641" d="M-98 1528l8 8q142 5 334 20l8 -8q0 -14 -1 -71.5t-1 -85.5q0 -30 1 -89.5t1 -74.5l-12 -10q-37 -3 -146 -11.5t-174 -11.5l-10 10q-5 152 -8 324zM86 1049l12 12q245 34 430 72l11 -17q-4 -300 -4 -450q0 -381 20 -652l-14 -14q-7 0 -48.5 1t-62.5 1q-109 0 -317 -8 l-17 14q15 330 15 529q0 279 -25 512zM383 1528l6 10q51 4 103.5 8t117.5 9.5t109 9.5l8 -6q0 -21 -1 -72t-1 -88q0 -31 1 -94t1 -78l-8 -8q-198 -17 -316 -25l-12 8q-5 158 -8 326z" />
<glyph unicode="&#xf0;" horiz-adv-x="1236" d="M57 541q0 136 41.5 245t114 178t168 105.5t207.5 36.5q32 0 58 -5t39.5 -10.5t37.5 -17.5q-46 104 -86 164q-37 -11 -97 -27.5t-107.5 -31t-96.5 -31.5l-27 -8l-28 8q-48 102 -80 164l12 20q138 31 293 78q-104 130 -146 160l13 18q138 20 289 53l30 -10q72 -66 125 -129 q120 31 199 64l24 -6q46 -96 86 -164l-10 -27q-131 -30 -168 -41q49 -77 79.5 -133t71 -150t61 -203.5t20.5 -232.5q0 -308 -151.5 -469.5t-424.5 -161.5q-265 0 -406 152t-141 412zM481 522q0 -27 0.5 -46t3.5 -51.5t8 -56t15.5 -51t25.5 -44.5t37.5 -28.5t51.5 -11.5 q43 0 72 27t43 78t19 104.5t5 126.5q0 165 -33.5 235t-105.5 70q-38 0 -65 -21t-41.5 -52t-23 -81.5t-10.5 -93.5t-2 -104z" />
<glyph unicode="&#xf1;" horiz-adv-x="1280" d="M78 1053l14 12q180 21 414 72l20 -19l-4 -110q152 116 334 116q87 0 149 -29t96.5 -84.5t50 -124.5t15.5 -159v-244q0 -207 17 -469l-17 -14q-41 2 -120 2q-99 0 -283 -8l-10 14q0 193 -1 318t-2 180t-1 78q0 121 -25 172t-90 51q-37 0 -111 -37l-2 -96q0 -316 19 -660 l-13 -14q-90 2 -141 2q-58 0 -270 -8l-13 14q5 265 5 318q0 468 -31 727zM268 1278v246l6 16q74 70 193 70q49 0 92 -15l90 -30q92 -33 144 -33q22 0 41.5 4.5t40.5 16.5t33.5 20.5t38.5 28.5t38 28l8 -8q0 -12 6 -270l-8 -17q-30 -24 -51.5 -38.5t-64 -30t-87.5 -15.5 q-52 0 -122 25l-66 24q-79 31 -133 31q-42 0 -82 -13.5t-109 -45.5z" />
<glyph unicode="&#xf2;" horiz-adv-x="1236" d="M57 543q0 135 31 238.5t96.5 180.5t176.5 117.5t264 40.5q555 0 555 -571q0 -574 -559 -574q-128 0 -226 28t-161.5 77t-103.5 122t-56.5 155.5t-16.5 185.5zM272 1620l11 14h106q170 0 254 2l12 -10q57 -192 125 -356l-10 -15q-176 0 -266 -2l-15 11q-97 176 -217 356z M481 530q0 -31 0.5 -52.5t3.5 -55.5t8 -57.5t15 -50.5t24 -44t35.5 -28t48.5 -11q36 0 62.5 19.5t41 49.5t23 77t11 90t2.5 100q0 148 -30.5 224.5t-107.5 76.5q-32 0 -56.5 -15t-39 -45t-23.5 -59t-12.5 -74.5t-4.5 -73t-1 -71.5z" />
<glyph unicode="&#xf3;" horiz-adv-x="1236" d="M57 543q0 135 31 238.5t96.5 180.5t176.5 117.5t264 40.5q555 0 555 -571q0 -574 -559 -574q-128 0 -226 28t-161.5 77t-103.5 122t-56.5 155.5t-16.5 185.5zM457 1262q63 157 123 356l10 10q232 4 373 8l8 -14q-120 -177 -230 -362l-12 -9l-264 -4zM481 530 q0 -31 0.5 -52.5t3.5 -55.5t8 -57.5t15 -50.5t24 -44t35.5 -28t48.5 -11q36 0 62.5 19.5t41 49.5t23 77t11 90t2.5 100q0 148 -30.5 224.5t-107.5 76.5q-32 0 -56.5 -15t-39 -45t-23.5 -59t-12.5 -74.5t-4.5 -73t-1 -71.5z" />
<glyph unicode="&#xf4;" horiz-adv-x="1236" d="M57 543q0 135 31 238.5t96.5 180.5t176.5 117.5t264 40.5q555 0 555 -571q0 -574 -559 -574q-128 0 -226 28t-161.5 77t-103.5 122t-56.5 155.5t-16.5 185.5zM233 1262q88 165 179 362l12 10h438l10 -10q81 -191 166 -358l-6 -9l-332 -12l-12 10l-74 220l-79 -213l-11 -9 h-284zM481 530q0 -31 0.5 -52.5t3.5 -55.5t8 -57.5t15 -50.5t24 -44t35.5 -28t48.5 -11q36 0 62.5 19.5t41 49.5t23 77t11 90t2.5 100q0 148 -30.5 224.5t-107.5 76.5q-32 0 -56.5 -15t-39 -45t-23.5 -59t-12.5 -74.5t-4.5 -73t-1 -71.5z" />
<glyph unicode="&#xf5;" horiz-adv-x="1236" d="M57 543q0 135 31 238.5t96.5 180.5t176.5 117.5t264 40.5q555 0 555 -571q0 -574 -559 -574q-128 0 -226 28t-161.5 77t-103.5 122t-56.5 155.5t-16.5 185.5zM244 1278v246l6 16q74 70 192 70q50 0 93 -15l90 -30q92 -33 143 -33q22 0 41.5 4.5t41 16.5t34 20.5t39 28.5 t37.5 28l8 -8q0 -12 6 -270l-8 -17q-30 -24 -51.5 -38.5t-64 -30t-87.5 -15.5q-53 0 -123 25l-66 24q-79 31 -133 31q-29 0 -61.5 -8.5t-57 -18.5t-71.5 -32zM481 530q0 -31 0.5 -52.5t3.5 -55.5t8 -57.5t15 -50.5t24 -44t35.5 -28t48.5 -11q36 0 62.5 19.5t41 49.5t23 77 t11 90t2.5 100q0 148 -30.5 224.5t-107.5 76.5q-32 0 -56.5 -15t-39 -45t-23.5 -59t-12.5 -74.5t-4.5 -73t-1 -71.5z" />
<glyph unicode="&#xf6;" horiz-adv-x="1236" d="M57 543q0 135 31 238.5t96.5 180.5t176.5 117.5t264 40.5q555 0 555 -571q0 -574 -559 -574q-128 0 -226 28t-161.5 77t-103.5 122t-56.5 155.5t-16.5 185.5zM209 1528l8 8q142 5 334 20l8 -8q0 -14 -1 -71.5t-1 -85.5q0 -30 1 -89.5t1 -74.5l-12 -10q-37 -3 -146 -11.5 t-174 -11.5l-10 10q-5 152 -8 324zM481 530q0 -31 0.5 -52.5t3.5 -55.5t8 -57.5t15 -50.5t24 -44t35.5 -28t48.5 -11q36 0 62.5 19.5t41 49.5t23 77t11 90t2.5 100q0 148 -30.5 224.5t-107.5 76.5q-32 0 -56.5 -15t-39 -45t-23.5 -59t-12.5 -74.5t-4.5 -73t-1 -71.5z M690 1528l6 10q51 4 103.5 8t117.5 9.5t109 9.5l8 -6q0 -21 -1 -72t-1 -88q0 -31 1 -94t1 -78l-8 -8q-203 -17 -315 -25l-13 8q-5 158 -8 326z" />
<glyph unicode="&#xf7;" horiz-adv-x="1554" d="M209 489q4 184 4 185v98l16 16q94 -4 541 -4q473 0 559 2l17 -16q-1 -40 -3 -98t-2 -84v-99l-18 -16q-98 2 -563 2q-461 0 -537 -2zM610 -6l2 334l17 18q143 6 295 16l14 -16v-338l-14 -16l-297 -15zM612 913q2 248 2 334l17 19q141 6 293 16l16 -16v-338l-16 -17 l-295 -14z" />
<glyph unicode="&#xf8;" horiz-adv-x="1236" d="M-4 70v16q52 42 135 115q-40 68 -59 143t-19 191q0 157 41 272t118 182.5t177 99t229 31.5q131 0 221.5 -33t170.5 -90q17 17 60.5 56.5t70.5 66.5l20 -2q38 -46 74 -80l2 -16q-128 -118 -139 -129q41 -81 61.5 -160.5t20.5 -208.5q0 -87 -14 -160t-36 -125.5t-57 -94.5 t-69.5 -69t-81 -47t-83.5 -30t-86 -15.5t-79.5 -6.5t-71.5 -1q-267 0 -385 121q-16 -15 -57 -54t-68 -62l-16 -3q-52 59 -80 93zM469 506l281 256q-21 59 -48.5 90t-80.5 31q-35 0 -61 -14t-42 -42.5t-26.5 -60t-15 -79.5t-6 -86.5t-1.5 -94.5zM489 338q32 -121 129 -121 q45 0 75.5 26.5t45.5 75.5t21 102.5t6 123.5v47l-98 -90q-131 -118 -179 -164z" />
<glyph unicode="&#xf9;" horiz-adv-x="1280" d="M102 1077l15 15q353 17 391 18l16 -20q0 -92 -1 -317t-1 -265q0 -114 23 -167.5t94 -53.5q31 0 66.5 14.5t52.5 26.5q-2 157 -7 399.5t-6 349.5l13 15q279 8 397 18l16 -20q-4 -135 -4 -367q0 -534 9 -707l-15 -16h-110q-122 0 -275 -6l-14 14q2 53 2 94 q-165 -129 -330 -129q-82 0 -146.5 30.5t-101.5 81t-56 107.5t-19 117q0 618 -9 768zM297 1620l10 14h107q170 0 254 2l12 -10q57 -192 125 -356l-10 -15q-177 0 -267 -2l-14 11q-97 176 -217 356z" />
<glyph unicode="&#xfa;" horiz-adv-x="1280" d="M102 1077l15 15q353 17 391 18l16 -20q0 -92 -1 -317t-1 -265q0 -114 23 -167.5t94 -53.5q31 0 66.5 14.5t52.5 26.5q-2 157 -7 399.5t-6 349.5l13 15q279 8 397 18l16 -20q-4 -135 -4 -367q0 -534 9 -707l-15 -16h-110q-122 0 -275 -6l-14 14q2 53 2 94 q-165 -129 -330 -129q-82 0 -146.5 30.5t-101.5 81t-56 107.5t-19 117q0 618 -9 768zM479 1262q63 157 123 356l10 10q232 4 373 8l8 -14q-111 -165 -229 -362l-12 -9l-265 -4z" />
<glyph unicode="&#xfb;" horiz-adv-x="1280" d="M102 1077l15 15q353 17 391 18l16 -20q0 -92 -1 -317t-1 -265q0 -114 23 -167.5t94 -53.5q31 0 66.5 14.5t52.5 26.5q-2 157 -7 399.5t-6 349.5l13 15q279 8 397 18l16 -20q-4 -135 -4 -367q0 -534 9 -707l-15 -16h-110q-122 0 -275 -6l-14 14q2 53 2 94 q-165 -129 -330 -129q-82 0 -146.5 30.5t-101.5 81t-56 107.5t-19 117q0 618 -9 768zM256 1262q29 55 52 98.5t43.5 86t28.5 59.5t29.5 64t24.5 54l12 10h439l10 -10q81 -191 166 -358l-6 -9l-332 -12l-12 10l-74 220l-80 -213l-10 -9h-285z" />
<glyph unicode="&#xfc;" horiz-adv-x="1280" d="M102 1077l15 15q353 17 391 18l16 -20q0 -92 -1 -317t-1 -265q0 -114 23 -167.5t94 -53.5q31 0 66.5 14.5t52.5 26.5q-2 157 -7 399.5t-6 349.5l13 15q279 8 397 18l16 -20q-4 -135 -4 -367q0 -534 9 -707l-15 -16h-110q-122 0 -275 -6l-14 14q2 53 2 94 q-165 -129 -330 -129q-82 0 -146.5 30.5t-101.5 81t-56 107.5t-19 117q0 618 -9 768zM229 1528l9 8q140 5 333 20l9 -8q0 -14 -1 -71.5t-1 -85.5q0 -30 1 -89.5t1 -74.5l-13 -10q-38 -3 -146 -11.5t-173 -11.5l-10 10q-7 212 -9 324zM711 1528l6 10q51 4 103.5 8t117.5 9.5 t109 9.5l8 -6q0 -21 -1 -72t-1 -88q0 -31 1 -94t1 -78l-8 -8q-199 -17 -316 -25l-12 8q-5 158 -8 326z" />
<glyph unicode="&#xfd;" horiz-adv-x="1110" d="M-20 1077l8 15q234 3 438 18l16 -12q46 -211 154 -611q108 378 162 598l12 13q48 1 122.5 2.5t127.5 2.5t78 1l12 -14q-89 -249 -350 -1010q-96 -277 -164 -580l-16 -12h-72q-134 0 -297 -6l-10 16q90 210 180 451q-83 254 -210 618.5t-191 509.5zM393 1262 q63 157 123 356l10 10q232 4 373 8l8 -14q-111 -165 -229 -362l-12 -9l-265 -4z" />
<glyph unicode="&#xfe;" horiz-adv-x="1280" d="M90 1548l12 13q326 54 412 73l12 -16q-8 -170 -12 -592q87 55 142 74.5t135 19.5q92 0 168 -31.5t126.5 -83t85 -120t49.5 -140t15 -145.5q0 -194 -90 -336q-165 -268 -610 -268q2 -64 4.5 -161t5 -176t6.5 -161l-12 -10q-13 0 -75 1t-93 1q-64 0 -252 -8l-13 12 q0 14 1.5 131t1.5 185q0 141 -1.5 387t-1.5 295v491q0 356 -16 565zM530 803q0 -292 5 -541h38q114 0 181 87t67 229q0 122 -48.5 187.5t-131.5 65.5q-14 0 -28.5 -2t-28 -6t-22 -7t-20 -8t-12.5 -5z" />
<glyph unicode="&#xff;" horiz-adv-x="1110" d="M-20 1077l8 15q234 3 438 18l16 -12q46 -211 154 -611q108 378 162 598l12 13q48 1 122.5 2.5t127.5 2.5t78 1l12 -14q-89 -249 -350 -1010q-96 -277 -164 -580l-16 -12h-72q-134 0 -297 -6l-10 16q90 210 180 451q-83 254 -210 618.5t-191 509.5zM135 1528l8 8 q142 5 334 20l8 -8q0 -14 -1 -71.5t-1 -85.5q0 -30 1 -89.5t1 -74.5l-12 -10q-38 -3 -146 -11.5t-173 -11.5l-11 10q-5 152 -8 324zM616 1528l7 10q51 4 103.5 8t117 9.5t108.5 9.5l9 -6q0 -21 -1.5 -72t-1.5 -88q0 -31 1.5 -94t1.5 -78l-9 -8q-202 -17 -315 -25l-12 8 q-7 218 -9 326z" />
<glyph unicode="&#x152;" horiz-adv-x="1921" d="M66 682q0 573 385 721q141 53 421 53q40 0 206 -2t225 -2t175.5 2t153.5 2q49 0 185 -4l10 -10q-3 -43 -12 -285l-15 -10q-2 0 -131.5 1t-335.5 1v-264h103q65 0 178 2t155 2l11 -12q-15 -176 -19 -267l-16 -14q-37 0 -133 2t-152 2q-31 0 -71.5 -1t-55.5 -1v-80 q0 -125 2 -201q136 -4 183 -4q55 0 323 9l12 -11q-5 -50 -18 -295l-14 -16q-94 2 -256 2q-96 0 -375.5 -4t-421.5 -4q-158 0 -281 39t-201 103.5t-128.5 155t-71 186t-20.5 204.5zM526 709q0 -208 73.5 -303t217.5 -95q39 0 92 6v410q0 78 -1 234t-1 188h-41 q-82 0 -142.5 -22t-106 -71.5t-68.5 -136t-23 -210.5z" />
<glyph unicode="&#x153;" horiz-adv-x="1878" d="M57 545q0 285 144.5 430t402.5 145q130 0 214.5 -30t158.5 -89q74 54 158.5 86.5t205.5 32.5q129 0 224.5 -43.5t153 -125t85 -190.5t27.5 -247v-39l-14 -16q-334 -3 -643 -8q9 -92 81 -142.5t205 -50.5q190 0 320 82l14 -10q-3 -52 -12 -262l-13 -19q-60 -24 -101.5 -37 t-119 -25t-168.5 -12q-136 0 -227.5 29.5t-161.5 89.5q-151 -119 -379 -119q-128 0 -227.5 32t-174 99t-114 177.5t-39.5 261.5zM481 549q0 -57 2 -97t10 -85t22.5 -72.5t40.5 -45.5t62 -18q33 0 58 12.5t40 39t24.5 53.5t13.5 71t5 76.5t1 83.5q0 65 -5 113.5t-19 94.5 t-43 70.5t-72 24.5q-35 0 -61 -18t-41 -46t-23.5 -72t-11.5 -86.5t-3 -98.5zM1163 676q55 0 150.5 2t132.5 2v22q0 22 -5 45.5t-18 52.5t-42 47.5t-70 18.5q-60 0 -104 -42t-44 -134v-14z" />
<glyph unicode="&#x178;" horiz-adv-x="1366" d="M-12 1425l8 15q233 3 467 18l14 -10q26 -58 60 -126t59 -114.5t67 -124.5t62 -116q77 151 211 473l10 6q13 0 400 6l8 -10q-284 -488 -449 -815q0 -410 6 -615l-14 -12q-219 0 -436 -6l-10 12q10 164 14 615q-38 66 -227 384.5t-250 419.5zM262 1559q4 94 4 143 q0 73 -4 151l10 15q72 0 187.5 3t144.5 3l8 -14q-6 -163 -6 -295l-8 -13q-146 0 -328 -6zM778 1851l10 13q273 9 322 10l10 -12q0 -57 -3 -165.5t-3 -135.5l-8 -13q-248 -8 -318 -12l-8 12q2 49 2 146q0 71 -4 157z" />
<glyph unicode="&#x2c6;" horiz-adv-x="598" d="M-102 1262q29 55 52 98.5t43.5 86t28.5 59.5t29.5 64t24.5 54l12 10h438l11 -10q85 -202 165 -358l-6 -9l-331 -12l-13 10l-73 220l-80 -213l-11 -9h-284z" />
<glyph unicode="&#x2dc;" horiz-adv-x="598" d="M-66 1278v246l7 16q74 70 192 70q49 0 92 -15l90 -30q92 -33 144 -33q22 0 41.5 4.5t40.5 16.5t33.5 20.5t38.5 28.5t38 28l8 -8q0 -59 3.5 -157.5t3.5 -112.5l-9 -17q-30 -25 -51 -39t-63.5 -29.5t-87.5 -15.5q-53 0 -123 25l-66 24q-79 31 -133 31q-29 0 -61.5 -8.5 t-57 -18.5t-71.5 -32z" />
<glyph unicode="&#x2000;" horiz-adv-x="1003" />
<glyph unicode="&#x2001;" horiz-adv-x="2007" />
<glyph unicode="&#x2002;" horiz-adv-x="1003" />
<glyph unicode="&#x2003;" horiz-adv-x="2007" />
<glyph unicode="&#x2004;" horiz-adv-x="669" />
<glyph unicode="&#x2005;" horiz-adv-x="501" />
<glyph unicode="&#x2006;" horiz-adv-x="334" />
<glyph unicode="&#x2007;" horiz-adv-x="334" />
<glyph unicode="&#x2008;" horiz-adv-x="250" />
<glyph unicode="&#x2009;" horiz-adv-x="401" />
<glyph unicode="&#x200a;" horiz-adv-x="111" />
<glyph unicode="&#x2010;" horiz-adv-x="811" d="M70 436l12 287l12 14q29 0 164.5 -1t202.5 -1q180 0 272 2l8 -12q-4 -45 -14 -285l-12 -14h-637z" />
<glyph unicode="&#x2011;" horiz-adv-x="811" d="M70 436l12 287l12 14q29 0 164.5 -1t202.5 -1q180 0 272 2l8 -12q-4 -45 -14 -285l-12 -14h-637z" />
<glyph unicode="&#x2012;" horiz-adv-x="811" d="M70 436l12 287l12 14q29 0 164.5 -1t202.5 -1q180 0 272 2l8 -12q-4 -45 -14 -285l-12 -14h-637z" />
<glyph unicode="&#x2013;" horiz-adv-x="1196" d="M70 444q15 190 20 285l14 14q438 -8 594 -8q260 0 414 8l14 -14q-2 -19 -22 -295l-12 -16q-182 12 -490 12h-110q-78 0 -228.5 -1t-185.5 -1z" />
<glyph unicode="&#x2014;" horiz-adv-x="1452" d="M70 444q15 190 20 285l14 14q475 -10 768 -10q314 0 496 10l14 -14q-2 -19 -22 -295l-12 -16q-230 14 -529 14q-144 0 -390.5 -2t-350.5 -2z" />
<glyph unicode="&#x2018;" horiz-adv-x="555" d="M6 1061q152 276 236 495l14 11q51 -2 154 -2q25 0 74.5 1t60.5 1l6 -13q-19 -76 -62 -232t-67 -255l-8 -10q-171 -5 -402 -8z" />
<glyph unicode="&#x2019;" horiz-adv-x="555" d="M4 1063q17 66 62 231.5t67 253.5l8 11q69 1 211.5 4.5t190.5 3.5l4 -13q-145 -274 -234 -495l-14 -10q-102 4 -154 4q-47 0 -137 -4z" />
<glyph unicode="&#x201a;" horiz-adv-x="555" d="M4 -145q9 36 57.5 214t71.5 273l8 10q71 2 203.5 4t198.5 4l4 -12q-166 -312 -234 -495l-14 -11q-102 4 -154 4q-25 0 -75 -2t-62 -2z" />
<glyph unicode="&#x201c;" horiz-adv-x="1067" d="M6 1061q152 276 236 495l14 11q51 -2 154 -2q90 0 135 2l6 -13q-86 -306 -129 -487l-8 -10q-198 -5 -402 -8zM518 1061q168 320 236 495l14 11q51 -2 154 -2q25 0 75 1t60 1l6 -13q-124 -465 -129 -487l-8 -10q-194 -5 -402 -8z" />
<glyph unicode="&#x201d;" horiz-adv-x="1067" d="M4 1063q15 57 60.5 226t68.5 259l8 11q64 1 201.5 4.5t200.5 3.5l4 -13q-145 -274 -234 -495l-14 -10q-102 4 -154 4q-47 0 -137 -4zM516 1063q23 93 65 246t64 239l8 11q62 1 197.5 4.5t204.5 3.5l4 -13q-1 -3 -33 -64t-65 -125.5t-73 -152.5t-63 -153l-14 -10 q-102 4 -154 4q-47 0 -137 -4z" />
<glyph unicode="&#x201e;" horiz-adv-x="1067" d="M4 -143q17 69 63 233.5t66 251.5l8 10q61 1 192 5t210 5l4 -12q-161 -308 -234 -497l-14 -11q-102 4 -154 4q-47 0 -137 -4zM516 -143q58 212 129 485l8 10q61 1 192 5t210 5l4 -12q-82 -151 -146 -290.5t-88 -206.5l-14 -11q-102 4 -154 4q-47 0 -137 -4z" />
<glyph unicode="&#x2022;" horiz-adv-x="681" d="M78 948l16 21h172q32 0 152.5 3t169.5 3l16 -19q0 -35 -1 -136.5t-1 -164.5q0 -119 2 -180l-18 -20q-74 -2 -266 -3.5t-224 -2.5l-16 20q0 325 -2 479z" />
<glyph unicode="&#x2026;" horiz-adv-x="2048" d="M184 281l11 12q51 -2 120 -2l164 4l13 -12q-1 -33 -3 -78.5t-2 -65.5q0 -72 2 -129l-10 -10q-55 2 -123 2q-13 0 -65 -2t-90 -2l-11 14v58q0 105 -6 211zM870 281l11 12q51 -2 120 -2l164 4l13 -12q-4 -72 -4 -144t2 -129l-11 -10q-55 2 -123 2q-13 0 -65 -2t-90 -2 l-10 14v58q0 26 -7 211zM1552 281l9 12q53 -2 120 -2q2 0 166 4l11 -12q-3 -105 -3 -144q0 -43 3 -129l-13 -10q-53 2 -123 2q-13 0 -64.5 -2t-90.5 -2l-11 14v56q0 107 -4 213z" />
<glyph unicode="&#x202f;" horiz-adv-x="401" />
<glyph unicode="&#x2039;" horiz-adv-x="555" d="M2 578v22q52 89 124 216.5t87 154.5l14 14q102 -6 185 -6q19 0 58.5 1t47.5 1l12 -18q-114 -189 -200 -367q34 -74 106.5 -211.5t87.5 -167.5l-8 -24q-13 0 -73 -1.5t-89 -1.5q-22 0 -63 1.5t-51 1.5l-19 10q-134 239 -219 375z" />
<glyph unicode="&#x203a;" horiz-adv-x="555" d="M25 211q3 6 28.5 50.5t52 91.5t61 111.5t58.5 115.5q-136 258 -194 376l8 25q14 0 73.5 1t88.5 1q21 0 63 -1t51 -1l17 -10q45 -81 120 -207.5t99 -167.5v-23q-148 -253 -209 -370l-14 -15q-119 7 -187 7q-19 0 -57.5 -1t-46.5 -1z" />
<glyph unicode="&#x205f;" horiz-adv-x="501" />
<glyph unicode="&#x20ac;" horiz-adv-x="1308" d="M49 461q7 26 24 86.5t25 91.5l13 14q25 -2 75 -2h31q0 45 6 92q-25 2 -78 2q-50 0 -77 -2l-15 15q39 129 51 178l13 10h135q57 232 224.5 352.5t410.5 120.5q208 0 377 -76l8 -20q-22 -69 -84 -293l-14 -6q-109 86 -228 86q-91 0 -157 -42t-99 -124h146q209 0 313 4 l10 -16q-27 -77 -57 -172l-15 -15q-14 0 -71 1.5t-86 1.5h-291q-8 -27 -8 -60q0 -27 2 -39h82q35 0 146 2t165 2h43l10 -16q-24 -78 -57 -176l-14 -12h-70q-45 0 -133.5 2t-116.5 2q41 -80 117.5 -120t171.5 -40q125 0 231 78l15 -9q-14 -251 -15 -331l-8 -13 q-80 -27 -145 -37t-152 -10q-268 0 -430.5 113.5t-236.5 366.5q-118 0 -175 -2z" />
<glyph unicode="&#x2122;" horiz-adv-x="1615" d="M37 1292q4 47 4 97v41l12 18q42 0 137.5 -2t126.5 -2q155 0 265 4l14 -12q-6 -59 -6 -138v-10l-8 -12h-156q0 -325 6 -526l-12 -17q-45 -2 -101 -2h-104l-12 19q6 119 6 526h-160zM641 750q4 23 15 272.5t14 409.5l14 16q61 -2 139 -2q86 0 154 2l12 -10 q17 -72 46.5 -214.5t43.5 -205.5q11 59 45 205.5t47 210.5l13 12h286l13 -14q1 -123 4.5 -255.5t9.5 -272t6 -152.5l-12 -17q-78 -2 -162 -2h-33l-12 17q2 65 4 254t4 278q-22 -77 -75.5 -302.5t-55.5 -231.5l-14 -15h-70q-49 0 -96 -2l-12 17q-3 21 -23 110t-48.5 216 t-45.5 206q0 -30 -1 -135t-1 -166q0 -206 2 -229l-12 -17q-105 0 -187 -2z" />
<glyph unicode="&#xe000;" horiz-adv-x="1105" d="M0 0v1106h1106v-1106h-1106z" />
</font>
</defs>
</svg>
